solid OpenSCAD_Model
  facet normal 0.993239 0.116088 0
    outer loop
      vertex 7.44156 1.5 2
      vertex 7.38713 1.9657 0
      vertex 7.38713 1.9657 2
    endloop
  endfacet
  facet normal 0.993239 0.116088 0
    outer loop
      vertex 7.38713 1.9657 0
      vertex 7.44156 1.5 2
      vertex 7.44156 1.5 0
    endloop
  endfacet
  facet normal 0.0581523 0.998308 -0
    outer loop
      vertex 4.03965 5.12388 0
      vertex 3.06902 5.18042 2
      vertex 4.03965 5.12388 2
    endloop
  endfacet
  facet normal 0.0581523 0.998308 0
    outer loop
      vertex 3.06902 5.18042 2
      vertex 4.03965 5.12388 0
      vertex 3.06902 5.18042 0
    endloop
  endfacet
  facet normal 0.686243 0.727373 -0
    outer loop
      vertex 6.52031 3.69167 0
      vertex 5.8131 4.35889 2
      vertex 6.52031 3.69167 2
    endloop
  endfacet
  facet normal 0.686243 0.727373 0
    outer loop
      vertex 5.8131 4.35889 2
      vertex 6.52031 3.69167 0
      vertex 5.8131 4.35889 0
    endloop
  endfacet
  facet normal 0.939693 0.342019 0
    outer loop
      vertex 7.38713 1.9657 2
      vertex 7.05459 2.87935 0
      vertex 7.05459 2.87935 2
    endloop
  endfacet
  facet normal 0.939693 0.342019 0
    outer loop
      vertex 7.05459 2.87935 0
      vertex 7.38713 1.9657 2
      vertex 7.38713 1.9657 0
    endloop
  endfacet
  facet normal 0.5 0.866026 -0
    outer loop
      vertex 5.8131 4.35889 0
      vertex 4.97108 4.84503 2
      vertex 5.8131 4.35889 2
    endloop
  endfacet
  facet normal 0.5 0.866026 0
    outer loop
      vertex 4.97108 4.84503 2
      vertex 5.8131 4.35889 0
      vertex 4.97108 4.84503 0
    endloop
  endfacet
  facet normal -0.766045 0.642787 0
    outer loop
      vertex -0.186105 3.30107 0
      vertex 0.438864 4.04588 2
      vertex 0.438864 4.04588 0
    endloop
  endfacet
  facet normal -0.766045 0.642787 0
    outer loop
      vertex 0.438864 4.04588 2
      vertex -0.186105 3.30107 0
      vertex -0.186105 3.30107 2
    endloop
  endfacet
  facet normal -0 0 1
    outer loop
      vertex -8.875 0.75 2
      vertex -7.5 -0.75 2
      vertex -7.5 0.75 2
    endloop
  endfacet
  facet normal 0 0 1
    outer loop
      vertex -7.5 -0.75 2
      vertex -8.875 0.75 2
      vertex -8.875 -0.75 2
    endloop
  endfacet
  facet normal -0 0 1
    outer loop
      vertex -7.5 0.75 2
      vertex -5.75 -1 2
      vertex -5.75 1.5 2
    endloop
  endfacet
  facet normal 0 0 1
    outer loop
      vertex -5.75 -1 2
      vertex -6.52031 -3.69167 2
      vertex -5.8131 -4.35889 2
    endloop
  endfacet
  facet normal 0 0 1
    outer loop
      vertex -5.75 -1 2
      vertex -7.05459 -2.87935 2
      vertex -6.52031 -3.69167 2
    endloop
  endfacet
  facet normal 0 0 1
    outer loop
      vertex -5.75 -1 2
      vertex -7.38713 -1.9657 2
      vertex -7.05459 -2.87935 2
    endloop
  endfacet
  facet normal 0 0 1
    outer loop
      vertex -5.75 -1 2
      vertex -7.44156 -1.5 2
      vertex -7.38713 -1.9657 2
    endloop
  endfacet
  facet normal 0 0 1
    outer loop
      vertex -7.5 0.75 2
      vertex -5.75 1.5 2
      vertex -7.5 1.5 2
    endloop
  endfacet
  facet normal 0 0 1
    outer loop
      vertex -5.75 -1 2
      vertex -7.5 0.75 2
      vertex -7.5 -0.75 2
    endloop
  endfacet
  facet normal 0 0 1
    outer loop
      vertex -5.75 -1 2
      vertex -7.5 -0.75 2
      vertex -7.44156 -1.5 2
    endloop
  endfacet
  facet normal 0 0 1
    outer loop
      vertex -7.44156 -1.5 2
      vertex -7.5 -0.75 2
      vertex -7.5 -1.5 2
    endloop
  endfacet
  facet normal 0 0 1
    outer loop
      vertex 7.38713 1.9657 2
      vertex 5.56446 1.93279 2
      vertex 5.75 1 2
    endloop
  endfacet
  facet normal 0 0 1
    outer loop
      vertex 6.52031 3.69167 2
      vertex 5.03607 2.72357 2
      vertex 5.56446 1.93279 2
    endloop
  endfacet
  facet normal 0 0 1
    outer loop
      vertex 4.24529 3.25196 2
      vertex 5.8131 4.35889 2
      vertex 4.97108 4.84503 2
    endloop
  endfacet
  facet normal 0 0 1
    outer loop
      vertex 5.8131 4.35889 2
      vertex 4.24529 3.25196 2
      vertex 5.03607 2.72357 2
    endloop
  endfacet
  facet normal 0 0 1
    outer loop
      vertex 4.03965 5.12388 2
      vertex 4.24529 3.25196 2
      vertex 4.97108 4.84503 2
    endloop
  endfacet
  facet normal 0 0 1
    outer loop
      vertex 4.03965 5.12388 2
      vertex 3.3125 3.4375 2
      vertex 4.24529 3.25196 2
    endloop
  endfacet
  facet normal 0 0 1
    outer loop
      vertex 3.06902 5.18042 2
      vertex 3.3125 3.4375 2
      vertex 4.03965 5.12388 2
    endloop
  endfacet
  facet normal -0 0 1
    outer loop
      vertex 2.11151 5.01158 2
      vertex 3.3125 3.4375 2
      vertex 3.06902 5.18042 2
    endloop
  endfacet
  facet normal 0 0 1
    outer loop
      vertex 3.3125 3.4375 2
      vertex 2.11151 5.01158 2
      vertex 2.37971 3.25196 2
    endloop
  endfacet
  facet normal -0 0 1
    outer loop
      vertex 1.21875 4.62648 2
      vertex 2.37971 3.25196 2
      vertex 2.11151 5.01158 2
    endloop
  endfacet
  facet normal 0 0 1
    outer loop
      vertex 2.37971 3.25196 2
      vertex 1.21875 4.62648 2
      vertex 1.58893 2.72357 2
    endloop
  endfacet
  facet normal -0 0 1
    outer loop
      vertex 0.438864 4.04588 2
      vertex 1.58893 2.72357 2
      vertex 1.21875 4.62648 2
    endloop
  endfacet
  facet normal -0 0 1
    outer loop
      vertex -0.186105 3.30107 2
      vertex 1.58893 2.72357 2
      vertex 0.438864 4.04588 2
    endloop
  endfacet
  facet normal 0 0 1
    outer loop
      vertex 0.875 1 2
      vertex 0.784149 -1.75 2
      vertex 0.875 -1.75 2
    endloop
  endfacet
  facet normal -0 0 1
    outer loop
      vertex -0.875 -1 2
      vertex 0.784149 -1.75 2
      vertex 0.875 1 2
    endloop
  endfacet
  facet normal 0 0 1
    outer loop
      vertex 1.58893 2.72357 2
      vertex -0.186105 3.30107 2
      vertex 1.06054 1.93279 2
    endloop
  endfacet
  facet normal -0 0 1
    outer loop
      vertex -0.622462 2.43221 2
      vertex 1.06054 1.93279 2
      vertex -0.186105 3.30107 2
    endloop
  endfacet
  facet normal 0 0 1
    outer loop
      vertex -0.875 -1 2
      vertex 0.875 1 2
      vertex -0.784149 1.75 2
    endloop
  endfacet
  facet normal 0 0 1
    outer loop
      vertex -0.784149 1.75 2
      vertex 1.06054 1.93279 2
      vertex -0.622462 2.43221 2
    endloop
  endfacet
  facet normal 0 0 1
    outer loop
      vertex -1.06054 -1.93279 2
      vertex 0.784149 -1.75 2
      vertex -0.875 -1 2
    endloop
  endfacet
  facet normal 0 0 1
    outer loop
      vertex 1.06054 1.93279 2
      vertex -0.784149 1.75 2
      vertex 0.875 1 2
    endloop
  endfacet
  facet normal 0 0 1
    outer loop
      vertex 0.784149 -1.75 2
      vertex -1.06054 -1.93279 2
      vertex 0.622462 -2.43221 2
    endloop
  endfacet
  facet normal 0 0 1
    outer loop
      vertex -0.875 -1 2
      vertex -0.784149 1.75 2
      vertex -0.875 1.75 2
    endloop
  endfacet
  facet normal 0 0 1
    outer loop
      vertex 0.622462 -2.43221 2
      vertex -1.06054 -1.93279 2
      vertex 0.186105 -3.30107 2
    endloop
  endfacet
  facet normal -0 0 1
    outer loop
      vertex -1.58893 -2.72357 2
      vertex 0.186105 -3.30107 2
      vertex -1.06054 -1.93279 2
    endloop
  endfacet
  facet normal 0 0 1
    outer loop
      vertex 0.186105 -3.30107 2
      vertex -1.58893 -2.72357 2
      vertex -0.438864 -4.04588 2
    endloop
  endfacet
  facet normal 0 0 1
    outer loop
      vertex -0.438864 -4.04588 2
      vertex -1.58893 -2.72357 2
      vertex -1.21875 -4.62648 2
    endloop
  endfacet
  facet normal -0 0 1
    outer loop
      vertex -2.37971 -3.25196 2
      vertex -1.21875 -4.62648 2
      vertex -1.58893 -2.72357 2
    endloop
  endfacet
  facet normal 0 0 1
    outer loop
      vertex -1.21875 -4.62648 2
      vertex -2.37971 -3.25196 2
      vertex -2.11151 -5.01158 2
    endloop
  endfacet
  facet normal -0 0 1
    outer loop
      vertex -3.3125 -3.4375 2
      vertex -2.11151 -5.01158 2
      vertex -2.37971 -3.25196 2
    endloop
  endfacet
  facet normal 0 0 1
    outer loop
      vertex -2.11151 -5.01158 2
      vertex -3.3125 -3.4375 2
      vertex -3.06902 -5.18042 2
    endloop
  endfacet
  facet normal 0 0 1
    outer loop
      vertex -3.3125 -3.4375 2
      vertex -4.03965 -5.12388 2
      vertex -3.06902 -5.18042 2
    endloop
  endfacet
  facet normal 0 0 1
    outer loop
      vertex -4.24529 -3.25196 2
      vertex -4.03965 -5.12388 2
      vertex -3.3125 -3.4375 2
    endloop
  endfacet
  facet normal 0 0 1
    outer loop
      vertex -4.24529 -3.25196 2
      vertex -4.97108 -4.84503 2
      vertex -4.03965 -5.12388 2
    endloop
  endfacet
  facet normal 0 0 1
    outer loop
      vertex -5.8131 -4.35889 2
      vertex -4.24529 -3.25196 2
      vertex -5.03607 -2.72357 2
    endloop
  endfacet
  facet normal 0 0 1
    outer loop
      vertex -5.8131 -4.35889 2
      vertex -5.03607 -2.72357 2
      vertex -5.56446 -1.93279 2
    endloop
  endfacet
  facet normal 0 0 1
    outer loop
      vertex -4.24529 -3.25196 2
      vertex -5.8131 -4.35889 2
      vertex -4.97108 -4.84503 2
    endloop
  endfacet
  facet normal 0 0 1
    outer loop
      vertex -5.8131 -4.35889 2
      vertex -5.56446 -1.93279 2
      vertex -5.75 -1 2
    endloop
  endfacet
  facet normal -0 0 1
    outer loop
      vertex 7.44156 1.5 2
      vertex 7.5 0.75 2
      vertex 7.5 1.5 2
    endloop
  endfacet
  facet normal -0 0 1
    outer loop
      vertex 5.75 1 2
      vertex 7.5 0.75 2
      vertex 7.44156 1.5 2
    endloop
  endfacet
  facet normal 0 0 1
    outer loop
      vertex 7.5 0.75 2
      vertex 5.75 1 2
      vertex 7.5 -0.75 2
    endloop
  endfacet
  facet normal 0 0 1
    outer loop
      vertex 5.75 1 2
      vertex 7.44156 1.5 2
      vertex 7.38713 1.9657 2
    endloop
  endfacet
  facet normal 0 0 1
    outer loop
      vertex 5.56446 1.93279 2
      vertex 7.38713 1.9657 2
      vertex 7.05459 2.87935 2
    endloop
  endfacet
  facet normal 0 0 1
    outer loop
      vertex 5.56446 1.93279 2
      vertex 7.05459 2.87935 2
      vertex 6.52031 3.69167 2
    endloop
  endfacet
  facet normal 0 0 1
    outer loop
      vertex 5.03607 2.72357 2
      vertex 6.52031 3.69167 2
      vertex 5.8131 4.35889 2
    endloop
  endfacet
  facet normal 0 0 1
    outer loop
      vertex 5.75 -1.5 2
      vertex 7.5 -0.75 2
      vertex 5.75 1 2
    endloop
  endfacet
  facet normal 0 0 1
    outer loop
      vertex 7.5 -0.75 2
      vertex 5.75 -1.5 2
      vertex 7.5 -1.5 2
    endloop
  endfacet
  facet normal -0 0 1
    outer loop
      vertex 7.5 0.75 2
      vertex 8.875 -0.75 2
      vertex 8.875 0.75 2
    endloop
  endfacet
  facet normal 0 0 1
    outer loop
      vertex 8.875 -0.75 2
      vertex 7.5 0.75 2
      vertex 7.5 -0.75 2
    endloop
  endfacet
  facet normal -0.396081 0.918216 0
    outer loop
      vertex 2.11151 5.01158 0
      vertex 1.21875 4.62648 2
      vertex 2.11151 5.01158 2
    endloop
  endfacet
  facet normal -0.396081 0.918216 0
    outer loop
      vertex 1.21875 4.62648 2
      vertex 2.11151 5.01158 0
      vertex 1.21875 4.62648 0
    endloop
  endfacet
  facet normal 0.835484 0.549515 0
    outer loop
      vertex 7.05459 2.87935 2
      vertex 6.52031 3.69167 0
      vertex 6.52031 3.69167 2
    endloop
  endfacet
  facet normal 0.835484 0.549515 0
    outer loop
      vertex 6.52031 3.69167 0
      vertex 7.05459 2.87935 2
      vertex 7.05459 2.87935 0
    endloop
  endfacet
  facet normal 0.286801 0.95799 -0
    outer loop
      vertex 4.97108 4.84503 0
      vertex 4.03965 5.12388 2
      vertex 4.97108 4.84503 2
    endloop
  endfacet
  facet normal 0.286801 0.95799 0
    outer loop
      vertex 4.03965 5.12388 2
      vertex 4.97108 4.84503 0
      vertex 4.03965 5.12388 0
    endloop
  endfacet
  facet normal -0.893633 0.448798 0
    outer loop
      vertex -0.622462 2.43221 0
      vertex -0.186105 3.30107 2
      vertex -0.186105 3.30107 0
    endloop
  endfacet
  facet normal -0.893633 0.448798 0
    outer loop
      vertex -0.186105 3.30107 2
      vertex -0.622462 2.43221 0
      vertex -0.622462 2.43221 2
    endloop
  endfacet
  facet normal -0.973045 0.230616 0
    outer loop
      vertex -0.784149 1.75 0
      vertex -0.622462 2.43221 2
      vertex -0.622462 2.43221 0
    endloop
  endfacet
  facet normal -0.973045 0.230616 0
    outer loop
      vertex -0.622462 2.43221 2
      vertex -0.784149 1.75 0
      vertex -0.784149 1.75 2
    endloop
  endfacet
  facet normal -0.597156 0.802125 0
    outer loop
      vertex 1.21875 4.62648 0
      vertex 0.438864 4.04588 2
      vertex 1.21875 4.62648 2
    endloop
  endfacet
  facet normal -0.597156 0.802125 0
    outer loop
      vertex 0.438864 4.04588 2
      vertex 1.21875 4.62648 0
      vertex 0.438864 4.04588 0
    endloop
  endfacet
  facet normal -0.173653 0.984807 0
    outer loop
      vertex 3.06902 5.18042 0
      vertex 2.11151 5.01158 2
      vertex 3.06902 5.18042 2
    endloop
  endfacet
  facet normal -0.173653 0.984807 0
    outer loop
      vertex 2.11151 5.01158 2
      vertex 3.06902 5.18042 0
      vertex 2.11151 5.01158 0
    endloop
  endfacet
  facet normal 0 0 -1
    outer loop
      vertex 0.875 -1.75 0
      vertex 0.784149 -1.75 0
      vertex 0.875 1 0
    endloop
  endfacet
  facet normal 0 0 -1
    outer loop
      vertex 5.75 -1.5 0
      vertex 7.5 -1.25 0
      vertex 7.5 -1.5 0
    endloop
  endfacet
  facet normal 0 0 -1
    outer loop
      vertex 7.5 -1.25 0
      vertex 5.75 1 0
      vertex 7.5 1.25 0
    endloop
  endfacet
  facet normal 0 0 -1
    outer loop
      vertex 7.5 1.25 0
      vertex 7.44156 1.5 0
      vertex 7.5 1.5 0
    endloop
  endfacet
  facet normal -0 0 -1
    outer loop
      vertex 7.5 1.25 0
      vertex 5.75 1 0
      vertex 7.44156 1.5 0
    endloop
  endfacet
  facet normal -0 0 -1
    outer loop
      vertex 7.44156 1.5 0
      vertex 5.75 1 0
      vertex 7.38713 1.9657 0
    endloop
  endfacet
  facet normal 0 0 -1
    outer loop
      vertex 5.56446 1.93279 0
      vertex 7.38713 1.9657 0
      vertex 5.75 1 0
    endloop
  endfacet
  facet normal -0 0 -1
    outer loop
      vertex 7.38713 1.9657 0
      vertex 5.56446 1.93279 0
      vertex 7.05459 2.87935 0
    endloop
  endfacet
  facet normal -0 0 -1
    outer loop
      vertex 7.5 -1.25 0
      vertex 5.75 -1.5 0
      vertex 5.75 1 0
    endloop
  endfacet
  facet normal -0 0 -1
    outer loop
      vertex 7.05459 2.87935 0
      vertex 5.56446 1.93279 0
      vertex 6.52031 3.69167 0
    endloop
  endfacet
  facet normal 0 0 -1
    outer loop
      vertex 5.03607 2.72357 0
      vertex 6.52031 3.69167 0
      vertex 5.56446 1.93279 0
    endloop
  endfacet
  facet normal -0 0 -1
    outer loop
      vertex 6.52031 3.69167 0
      vertex 5.03607 2.72357 0
      vertex 5.8131 4.35889 0
    endloop
  endfacet
  facet normal 0 0 -1
    outer loop
      vertex 4.24529 3.25196 0
      vertex 5.8131 4.35889 0
      vertex 5.03607 2.72357 0
    endloop
  endfacet
  facet normal -0 0 -1
    outer loop
      vertex 5.8131 4.35889 0
      vertex 4.24529 3.25196 0
      vertex 4.97108 4.84503 0
    endloop
  endfacet
  facet normal 0 0 -1
    outer loop
      vertex 4.24529 3.25196 0
      vertex 4.03965 5.12388 0
      vertex 4.97108 4.84503 0
    endloop
  endfacet
  facet normal 0 0 -1
    outer loop
      vertex 3.3125 3.4375 0
      vertex 4.03965 5.12388 0
      vertex 4.24529 3.25196 0
    endloop
  endfacet
  facet normal 0 0 -1
    outer loop
      vertex 3.3125 3.4375 0
      vertex 3.06902 5.18042 0
      vertex 4.03965 5.12388 0
    endloop
  endfacet
  facet normal 0 0 -1
    outer loop
      vertex 2.11151 5.01158 0
      vertex 3.3125 3.4375 0
      vertex 2.37971 3.25196 0
    endloop
  endfacet
  facet normal 0 0 -1
    outer loop
      vertex 3.3125 3.4375 0
      vertex 2.11151 5.01158 0
      vertex 3.06902 5.18042 0
    endloop
  endfacet
  facet normal 0 0 -1
    outer loop
      vertex 1.21875 4.62648 0
      vertex 2.37971 3.25196 0
      vertex 1.58893 2.72357 0
    endloop
  endfacet
  facet normal 0 0 -1
    outer loop
      vertex 2.37971 3.25196 0
      vertex 1.21875 4.62648 0
      vertex 2.11151 5.01158 0
    endloop
  endfacet
  facet normal 0 0 -1
    outer loop
      vertex -0.186105 3.30107 0
      vertex 1.58893 2.72357 0
      vertex 1.06054 1.93279 0
    endloop
  endfacet
  facet normal 0 0 -1
    outer loop
      vertex -0.784149 1.75 0
      vertex 1.06054 1.93279 0
      vertex 0.875 1 0
    endloop
  endfacet
  facet normal 0 0 -1
    outer loop
      vertex -1.06054 -1.93279 0
      vertex 0.784149 -1.75 0
      vertex 0.622462 -2.43221 0
    endloop
  endfacet
  facet normal 0 0 -1
    outer loop
      vertex 1.58893 2.72357 0
      vertex 0.438864 4.04588 0
      vertex 1.21875 4.62648 0
    endloop
  endfacet
  facet normal 0 0 -1
    outer loop
      vertex 0.784149 -1.75 0
      vertex -0.875 -1 0
      vertex 0.875 1 0
    endloop
  endfacet
  facet normal 0 0 -1
    outer loop
      vertex -1.06054 -1.93279 0
      vertex 0.622462 -2.43221 0
      vertex 0.186105 -3.30107 0
    endloop
  endfacet
  facet normal -0 0 -1
    outer loop
      vertex 1.06054 1.93279 0
      vertex -0.784149 1.75 0
      vertex -0.622462 2.43221 0
    endloop
  endfacet
  facet normal 0 0 -1
    outer loop
      vertex -1.58893 -2.72357 0
      vertex 0.186105 -3.30107 0
      vertex -0.438864 -4.04588 0
    endloop
  endfacet
  facet normal -0 0 -1
    outer loop
      vertex 0.875 1 0
      vertex -0.875 -1 0
      vertex -0.784149 1.75 0
    endloop
  endfacet
  facet normal 0 0 -1
    outer loop
      vertex 1.58893 2.72357 0
      vertex -0.186105 3.30107 0
      vertex 0.438864 4.04588 0
    endloop
  endfacet
  facet normal 0 0 -1
    outer loop
      vertex 1.06054 1.93279 0
      vertex -0.622462 2.43221 0
      vertex -0.186105 3.30107 0
    endloop
  endfacet
  facet normal -0 0 -1
    outer loop
      vertex 0.784149 -1.75 0
      vertex -1.06054 -1.93279 0
      vertex -0.875 -1 0
    endloop
  endfacet
  facet normal 0 0 -1
    outer loop
      vertex -1.58893 -2.72357 0
      vertex -0.438864 -4.04588 0
      vertex -1.21875 -4.62648 0
    endloop
  endfacet
  facet normal 0 0 -1
    outer loop
      vertex 0.186105 -3.30107 0
      vertex -1.58893 -2.72357 0
      vertex -1.06054 -1.93279 0
    endloop
  endfacet
  facet normal 0 0 -1
    outer loop
      vertex -2.37971 -3.25196 0
      vertex -1.21875 -4.62648 0
      vertex -2.11151 -5.01158 0
    endloop
  endfacet
  facet normal 0 0 -1
    outer loop
      vertex -1.21875 -4.62648 0
      vertex -2.37971 -3.25196 0
      vertex -1.58893 -2.72357 0
    endloop
  endfacet
  facet normal 0 0 -1
    outer loop
      vertex -3.3125 -3.4375 0
      vertex -2.11151 -5.01158 0
      vertex -3.06902 -5.18042 0
    endloop
  endfacet
  facet normal 0 0 -1
    outer loop
      vertex -2.11151 -5.01158 0
      vertex -3.3125 -3.4375 0
      vertex -2.37971 -3.25196 0
    endloop
  endfacet
  facet normal 0 0 -1
    outer loop
      vertex -4.03965 -5.12388 0
      vertex -3.3125 -3.4375 0
      vertex -3.06902 -5.18042 0
    endloop
  endfacet
  facet normal 0 0 -1
    outer loop
      vertex -4.03965 -5.12388 0
      vertex -4.24529 -3.25196 0
      vertex -3.3125 -3.4375 0
    endloop
  endfacet
  facet normal 0 0 -1
    outer loop
      vertex -4.97108 -4.84503 0
      vertex -4.24529 -3.25196 0
      vertex -4.03965 -5.12388 0
    endloop
  endfacet
  facet normal 0 0 -1
    outer loop
      vertex -5.8131 -4.35889 0
      vertex -4.24529 -3.25196 0
      vertex -4.97108 -4.84503 0
    endloop
  endfacet
  facet normal -0 0 -1
    outer loop
      vertex -4.24529 -3.25196 0
      vertex -5.8131 -4.35889 0
      vertex -5.03607 -2.72357 0
    endloop
  endfacet
  facet normal 0 0 -1
    outer loop
      vertex -6.52031 -3.69167 0
      vertex -5.03607 -2.72357 0
      vertex -5.8131 -4.35889 0
    endloop
  endfacet
  facet normal -0 0 -1
    outer loop
      vertex -5.03607 -2.72357 0
      vertex -6.52031 -3.69167 0
      vertex -5.56446 -1.93279 0
    endloop
  endfacet
  facet normal 0 0 -1
    outer loop
      vertex -7.05459 -2.87935 0
      vertex -5.56446 -1.93279 0
      vertex -6.52031 -3.69167 0
    endloop
  endfacet
  facet normal 0 0 -1
    outer loop
      vertex -7.38713 -1.9657 0
      vertex -5.56446 -1.93279 0
      vertex -7.05459 -2.87935 0
    endloop
  endfacet
  facet normal -0 0 -1
    outer loop
      vertex -5.56446 -1.93279 0
      vertex -7.38713 -1.9657 0
      vertex -5.75 -1 0
    endloop
  endfacet
  facet normal 0 0 -1
    outer loop
      vertex -7.44156 -1.5 0
      vertex -5.75 -1 0
      vertex -7.38713 -1.9657 0
    endloop
  endfacet
  facet normal 0 0 -1
    outer loop
      vertex -7.5 -1.25 0
      vertex -5.75 -1 0
      vertex -7.44156 -1.5 0
    endloop
  endfacet
  facet normal 0 0 -1
    outer loop
      vertex -7.5 -1.25 0
      vertex -7.44156 -1.5 0
      vertex -7.5 -1.5 0
    endloop
  endfacet
  facet normal 0 0 -1
    outer loop
      vertex -7.5 1.25 0
      vertex -5.75 -1 0
      vertex -7.5 -1.25 0
    endloop
  endfacet
  facet normal 0 0 -1
    outer loop
      vertex -5.75 -1 0
      vertex -7.5 1.25 0
      vertex -5.75 1.5 0
    endloop
  endfacet
  facet normal -0 0 -1
    outer loop
      vertex -5.75 1.5 0
      vertex -7.5 1.25 0
      vertex -7.5 1.5 0
    endloop
  endfacet
  facet normal 0 0 -1
    outer loop
      vertex 7.5 -1.25 0
      vertex 8.875 1.25 0
      vertex 8.875 -1.25 0
    endloop
  endfacet
  facet normal -0 0 -1
    outer loop
      vertex 8.875 1.25 0
      vertex 7.5 -1.25 0
      vertex 7.5 1.25 0
    endloop
  endfacet
  facet normal 0 0 -1
    outer loop
      vertex -8.875 -1.25 0
      vertex -7.5 1.25 0
      vertex -7.5 -1.25 0
    endloop
  endfacet
  facet normal -0 0 -1
    outer loop
      vertex -7.5 1.25 0
      vertex -8.875 -1.25 0
      vertex -8.875 1.25 0
    endloop
  endfacet
  facet normal -0 0 -1
    outer loop
      vertex -0.784149 1.75 0
      vertex -0.875 -1 0
      vertex -0.875 1.75 0
    endloop
  endfacet
  facet normal -0.980786 -0.195087 0
    outer loop
      vertex 5.75 1 0
      vertex 5.56446 1.93279 2
      vertex 5.56446 1.93279 0
    endloop
  endfacet
  facet normal -0.980786 -0.195087 0
    outer loop
      vertex 5.56446 1.93279 2
      vertex 5.75 1 0
      vertex 5.75 1 2
    endloop
  endfacet
  facet normal 0.980786 -0.195087 0
    outer loop
      vertex 0.875 1 2
      vertex 1.06054 1.93279 0
      vertex 1.06054 1.93279 2
    endloop
  endfacet
  facet normal 0.980786 -0.195087 0
    outer loop
      vertex 1.06054 1.93279 0
      vertex 0.875 1 2
      vertex 0.875 1 0
    endloop
  endfacet
  facet normal -0.195087 -0.980786 0
    outer loop
      vertex 3.3125 3.4375 0
      vertex 4.24529 3.25196 2
      vertex 3.3125 3.4375 2
    endloop
  endfacet
  facet normal -0.195087 -0.980786 -0
    outer loop
      vertex 4.24529 3.25196 2
      vertex 3.3125 3.4375 0
      vertex 4.24529 3.25196 0
    endloop
  endfacet
  facet normal -0.831466 -0.555576 0
    outer loop
      vertex 5.56446 1.93279 0
      vertex 5.03607 2.72357 2
      vertex 5.03607 2.72357 0
    endloop
  endfacet
  facet normal -0.831466 -0.555576 0
    outer loop
      vertex 5.03607 2.72357 2
      vertex 5.56446 1.93279 0
      vertex 5.56446 1.93279 2
    endloop
  endfacet
  facet normal -0.555576 -0.831466 0
    outer loop
      vertex 4.24529 3.25196 0
      vertex 5.03607 2.72357 2
      vertex 4.24529 3.25196 2
    endloop
  endfacet
  facet normal -0.555576 -0.831466 -0
    outer loop
      vertex 5.03607 2.72357 2
      vertex 4.24529 3.25196 0
      vertex 5.03607 2.72357 0
    endloop
  endfacet
  facet normal 0.555576 -0.831466 0
    outer loop
      vertex 1.58893 2.72357 0
      vertex 2.37971 3.25196 2
      vertex 1.58893 2.72357 2
    endloop
  endfacet
  facet normal 0.555576 -0.831466 0
    outer loop
      vertex 2.37971 3.25196 2
      vertex 1.58893 2.72357 0
      vertex 2.37971 3.25196 0
    endloop
  endfacet
  facet normal 0.831466 -0.555576 0
    outer loop
      vertex 1.06054 1.93279 2
      vertex 1.58893 2.72357 0
      vertex 1.58893 2.72357 2
    endloop
  endfacet
  facet normal 0.831466 -0.555576 0
    outer loop
      vertex 1.58893 2.72357 0
      vertex 1.06054 1.93279 2
      vertex 1.06054 1.93279 0
    endloop
  endfacet
  facet normal 0.195087 -0.980786 0
    outer loop
      vertex 2.37971 3.25196 0
      vertex 3.3125 3.4375 2
      vertex 2.37971 3.25196 2
    endloop
  endfacet
  facet normal 0.195087 -0.980786 0
    outer loop
      vertex 3.3125 3.4375 2
      vertex 2.37971 3.25196 0
      vertex 3.3125 3.4375 0
    endloop
  endfacet
  facet normal 0 -0.970143 0.242536
    outer loop
      vertex 7.5 -1.25 0
      vertex 8.875 -0.75 2
      vertex 7.5 -0.75 2
    endloop
  endfacet
  facet normal 0 -0.970143 0.242536
    outer loop
      vertex 8.875 -0.75 2
      vertex 7.5 -1.25 0
      vertex 8.875 -1.25 0
    endloop
  endfacet
  facet normal 1 -0 0
    outer loop
      vertex 8.875 -0.75 2
      vertex 8.875 1.25 0
      vertex 8.875 0.75 2
    endloop
  endfacet
  facet normal 1 0 0
    outer loop
      vertex 8.875 1.25 0
      vertex 8.875 -0.75 2
      vertex 8.875 -1.25 0
    endloop
  endfacet
  facet normal 0 0.970143 0.242536
    outer loop
      vertex 8.875 1.25 0
      vertex 7.5 0.75 2
      vertex 8.875 0.75 2
    endloop
  endfacet
  facet normal 0 0.970143 0.242536
    outer loop
      vertex 7.5 0.75 2
      vertex 8.875 1.25 0
      vertex 7.5 1.25 0
    endloop
  endfacet
  facet normal -1 0 0
    outer loop
      vertex 5.75 -1.5 0
      vertex 5.75 1 2
      vertex 5.75 1 0
    endloop
  endfacet
  facet normal -1 -0 0
    outer loop
      vertex 5.75 1 2
      vertex 5.75 -1.5 0
      vertex 5.75 -1.5 2
    endloop
  endfacet
  facet normal 1 -0 0
    outer loop
      vertex 7.5 -1.5 2
      vertex 7.5 -1.25 0
      vertex 7.5 -0.75 2
    endloop
  endfacet
  facet normal 1 0 0
    outer loop
      vertex 7.5 -1.25 0
      vertex 7.5 -1.5 2
      vertex 7.5 -1.5 0
    endloop
  endfacet
  facet normal 1 0 0
    outer loop
      vertex 7.5 1.5 2
      vertex 7.5 1.25 0
      vertex 7.5 1.5 0
    endloop
  endfacet
  facet normal 1 0 -0
    outer loop
      vertex 7.5 1.25 0
      vertex 7.5 1.5 2
      vertex 7.5 0.75 2
    endloop
  endfacet
  facet normal 0 -1 0
    outer loop
      vertex 5.75 -1.5 0
      vertex 7.5 -1.5 2
      vertex 5.75 -1.5 2
    endloop
  endfacet
  facet normal 0 -1 -0
    outer loop
      vertex 7.5 -1.5 2
      vertex 5.75 -1.5 0
      vertex 7.5 -1.5 0
    endloop
  endfacet
  facet normal 0 1 -0
    outer loop
      vertex 7.5 1.5 0
      vertex 7.44156 1.5 2
      vertex 7.5 1.5 2
    endloop
  endfacet
  facet normal 0 1 0
    outer loop
      vertex 7.44156 1.5 2
      vertex 7.5 1.5 0
      vertex 7.44156 1.5 0
    endloop
  endfacet
  facet normal -1 0 0
    outer loop
      vertex -0.875 -1 0
      vertex -0.875 1.75 2
      vertex -0.875 1.75 0
    endloop
  endfacet
  facet normal -1 -0 0
    outer loop
      vertex -0.875 1.75 2
      vertex -0.875 -1 0
      vertex -0.875 -1 2
    endloop
  endfacet
  facet normal 1 -0 0
    outer loop
      vertex 0.875 -1.75 2
      vertex 0.875 1 0
      vertex 0.875 1 2
    endloop
  endfacet
  facet normal 1 0 0
    outer loop
      vertex 0.875 1 0
      vertex 0.875 -1.75 2
      vertex 0.875 -1.75 0
    endloop
  endfacet
  facet normal 0 1 -0
    outer loop
      vertex -0.784149 1.75 0
      vertex -0.875 1.75 2
      vertex -0.784149 1.75 2
    endloop
  endfacet
  facet normal 0 1 0
    outer loop
      vertex -0.875 1.75 2
      vertex -0.784149 1.75 0
      vertex -0.875 1.75 0
    endloop
  endfacet
  facet normal 0 -1 0
    outer loop
      vertex 0.784149 -1.75 0
      vertex 0.875 -1.75 2
      vertex 0.784149 -1.75 2
    endloop
  endfacet
  facet normal 0 -1 -0
    outer loop
      vertex 0.875 -1.75 2
      vertex 0.784149 -1.75 0
      vertex 0.875 -1.75 0
    endloop
  endfacet
  facet normal -0.993239 -0.116088 0
    outer loop
      vertex -7.38713 -1.9657 0
      vertex -7.44156 -1.5 2
      vertex -7.44156 -1.5 0
    endloop
  endfacet
  facet normal -0.993239 -0.116088 0
    outer loop
      vertex -7.44156 -1.5 2
      vertex -7.38713 -1.9657 0
      vertex -7.38713 -1.9657 2
    endloop
  endfacet
  facet normal -0.0581523 -0.998308 0
    outer loop
      vertex -4.03965 -5.12388 0
      vertex -3.06902 -5.18042 2
      vertex -4.03965 -5.12388 2
    endloop
  endfacet
  facet normal -0.0581523 -0.998308 -0
    outer loop
      vertex -3.06902 -5.18042 2
      vertex -4.03965 -5.12388 0
      vertex -3.06902 -5.18042 0
    endloop
  endfacet
  facet normal -0.686243 -0.727373 0
    outer loop
      vertex -6.52031 -3.69167 0
      vertex -5.8131 -4.35889 2
      vertex -6.52031 -3.69167 2
    endloop
  endfacet
  facet normal -0.686243 -0.727373 -0
    outer loop
      vertex -5.8131 -4.35889 2
      vertex -6.52031 -3.69167 0
      vertex -5.8131 -4.35889 0
    endloop
  endfacet
  facet normal -0.939693 -0.342019 0
    outer loop
      vertex -7.05459 -2.87935 0
      vertex -7.38713 -1.9657 2
      vertex -7.38713 -1.9657 0
    endloop
  endfacet
  facet normal -0.939693 -0.342019 0
    outer loop
      vertex -7.38713 -1.9657 2
      vertex -7.05459 -2.87935 0
      vertex -7.05459 -2.87935 2
    endloop
  endfacet
  facet normal -0.5 -0.866026 0
    outer loop
      vertex -5.8131 -4.35889 0
      vertex -4.97108 -4.84503 2
      vertex -5.8131 -4.35889 2
    endloop
  endfacet
  facet normal -0.5 -0.866026 -0
    outer loop
      vertex -4.97108 -4.84503 2
      vertex -5.8131 -4.35889 0
      vertex -4.97108 -4.84503 0
    endloop
  endfacet
  facet normal 0.766045 -0.642787 0
    outer loop
      vertex -0.438864 -4.04588 2
      vertex 0.186105 -3.30107 0
      vertex 0.186105 -3.30107 2
    endloop
  endfacet
  facet normal 0.766045 -0.642787 0
    outer loop
      vertex 0.186105 -3.30107 0
      vertex -0.438864 -4.04588 2
      vertex -0.438864 -4.04588 0
    endloop
  endfacet
  facet normal 0.396081 -0.918216 0
    outer loop
      vertex -2.11151 -5.01158 0
      vertex -1.21875 -4.62648 2
      vertex -2.11151 -5.01158 2
    endloop
  endfacet
  facet normal 0.396081 -0.918216 0
    outer loop
      vertex -1.21875 -4.62648 2
      vertex -2.11151 -5.01158 0
      vertex -1.21875 -4.62648 0
    endloop
  endfacet
  facet normal -0.835484 -0.549515 0
    outer loop
      vertex -6.52031 -3.69167 0
      vertex -7.05459 -2.87935 2
      vertex -7.05459 -2.87935 0
    endloop
  endfacet
  facet normal -0.835484 -0.549515 0
    outer loop
      vertex -7.05459 -2.87935 2
      vertex -6.52031 -3.69167 0
      vertex -6.52031 -3.69167 2
    endloop
  endfacet
  facet normal -0.286801 -0.95799 0
    outer loop
      vertex -4.97108 -4.84503 0
      vertex -4.03965 -5.12388 2
      vertex -4.97108 -4.84503 2
    endloop
  endfacet
  facet normal -0.286801 -0.95799 -0
    outer loop
      vertex -4.03965 -5.12388 2
      vertex -4.97108 -4.84503 0
      vertex -4.03965 -5.12388 0
    endloop
  endfacet
  facet normal 0.893633 -0.448798 0
    outer loop
      vertex 0.186105 -3.30107 2
      vertex 0.622462 -2.43221 0
      vertex 0.622462 -2.43221 2
    endloop
  endfacet
  facet normal 0.893633 -0.448798 0
    outer loop
      vertex 0.622462 -2.43221 0
      vertex 0.186105 -3.30107 2
      vertex 0.186105 -3.30107 0
    endloop
  endfacet
  facet normal 0.973045 -0.230616 0
    outer loop
      vertex 0.622462 -2.43221 2
      vertex 0.784149 -1.75 0
      vertex 0.784149 -1.75 2
    endloop
  endfacet
  facet normal 0.973045 -0.230616 0
    outer loop
      vertex 0.784149 -1.75 0
      vertex 0.622462 -2.43221 2
      vertex 0.622462 -2.43221 0
    endloop
  endfacet
  facet normal 0.597156 -0.802125 0
    outer loop
      vertex -1.21875 -4.62648 0
      vertex -0.438864 -4.04588 2
      vertex -1.21875 -4.62648 2
    endloop
  endfacet
  facet normal 0.597156 -0.802125 0
    outer loop
      vertex -0.438864 -4.04588 2
      vertex -1.21875 -4.62648 0
      vertex -0.438864 -4.04588 0
    endloop
  endfacet
  facet normal 0.173653 -0.984807 0
    outer loop
      vertex -3.06902 -5.18042 0
      vertex -2.11151 -5.01158 2
      vertex -3.06902 -5.18042 2
    endloop
  endfacet
  facet normal 0.173653 -0.984807 0
    outer loop
      vertex -2.11151 -5.01158 2
      vertex -3.06902 -5.18042 0
      vertex -2.11151 -5.01158 0
    endloop
  endfacet
  facet normal 0.980786 0.195087 0
    outer loop
      vertex -5.56446 -1.93279 2
      vertex -5.75 -1 0
      vertex -5.75 -1 2
    endloop
  endfacet
  facet normal 0.980786 0.195087 0
    outer loop
      vertex -5.75 -1 0
      vertex -5.56446 -1.93279 2
      vertex -5.56446 -1.93279 0
    endloop
  endfacet
  facet normal -0.980786 0.195087 0
    outer loop
      vertex -1.06054 -1.93279 0
      vertex -0.875 -1 2
      vertex -0.875 -1 0
    endloop
  endfacet
  facet normal -0.980786 0.195087 0
    outer loop
      vertex -0.875 -1 2
      vertex -1.06054 -1.93279 0
      vertex -1.06054 -1.93279 2
    endloop
  endfacet
  facet normal 0.195087 0.980786 -0
    outer loop
      vertex -3.3125 -3.4375 0
      vertex -4.24529 -3.25196 2
      vertex -3.3125 -3.4375 2
    endloop
  endfacet
  facet normal 0.195087 0.980786 0
    outer loop
      vertex -4.24529 -3.25196 2
      vertex -3.3125 -3.4375 0
      vertex -4.24529 -3.25196 0
    endloop
  endfacet
  facet normal 0.831466 0.555576 0
    outer loop
      vertex -5.03607 -2.72357 2
      vertex -5.56446 -1.93279 0
      vertex -5.56446 -1.93279 2
    endloop
  endfacet
  facet normal 0.831466 0.555576 0
    outer loop
      vertex -5.56446 -1.93279 0
      vertex -5.03607 -2.72357 2
      vertex -5.03607 -2.72357 0
    endloop
  endfacet
  facet normal 0.555576 0.831466 -0
    outer loop
      vertex -4.24529 -3.25196 0
      vertex -5.03607 -2.72357 2
      vertex -4.24529 -3.25196 2
    endloop
  endfacet
  facet normal 0.555576 0.831466 0
    outer loop
      vertex -5.03607 -2.72357 2
      vertex -4.24529 -3.25196 0
      vertex -5.03607 -2.72357 0
    endloop
  endfacet
  facet normal -0.555576 0.831466 0
    outer loop
      vertex -1.58893 -2.72357 0
      vertex -2.37971 -3.25196 2
      vertex -1.58893 -2.72357 2
    endloop
  endfacet
  facet normal -0.555576 0.831466 0
    outer loop
      vertex -2.37971 -3.25196 2
      vertex -1.58893 -2.72357 0
      vertex -2.37971 -3.25196 0
    endloop
  endfacet
  facet normal -0.831466 0.555576 0
    outer loop
      vertex -1.58893 -2.72357 0
      vertex -1.06054 -1.93279 2
      vertex -1.06054 -1.93279 0
    endloop
  endfacet
  facet normal -0.831466 0.555576 0
    outer loop
      vertex -1.06054 -1.93279 2
      vertex -1.58893 -2.72357 0
      vertex -1.58893 -2.72357 2
    endloop
  endfacet
  facet normal -0.195087 0.980786 0
    outer loop
      vertex -2.37971 -3.25196 0
      vertex -3.3125 -3.4375 2
      vertex -2.37971 -3.25196 2
    endloop
  endfacet
  facet normal -0.195087 0.980786 0
    outer loop
      vertex -3.3125 -3.4375 2
      vertex -2.37971 -3.25196 0
      vertex -3.3125 -3.4375 0
    endloop
  endfacet
  facet normal 0 0.970143 0.242536
    outer loop
      vertex -7.5 1.25 0
      vertex -8.875 0.75 2
      vertex -7.5 0.75 2
    endloop
  endfacet
  facet normal 0 0.970143 0.242536
    outer loop
      vertex -8.875 0.75 2
      vertex -7.5 1.25 0
      vertex -8.875 1.25 0
    endloop
  endfacet
  facet normal -1 0 0
    outer loop
      vertex -8.875 1.25 0
      vertex -8.875 -0.75 2
      vertex -8.875 0.75 2
    endloop
  endfacet
  facet normal -1 0 -0
    outer loop
      vertex -8.875 -0.75 2
      vertex -8.875 1.25 0
      vertex -8.875 -1.25 0
    endloop
  endfacet
  facet normal 0 -0.970143 0.242536
    outer loop
      vertex -8.875 -1.25 0
      vertex -7.5 -0.75 2
      vertex -8.875 -0.75 2
    endloop
  endfacet
  facet normal 0 -0.970143 0.242536
    outer loop
      vertex -7.5 -0.75 2
      vertex -8.875 -1.25 0
      vertex -7.5 -1.25 0
    endloop
  endfacet
  facet normal 1 -0 0
    outer loop
      vertex -5.75 -1 2
      vertex -5.75 1.5 0
      vertex -5.75 1.5 2
    endloop
  endfacet
  facet normal 1 0 0
    outer loop
      vertex -5.75 1.5 0
      vertex -5.75 -1 2
      vertex -5.75 -1 0
    endloop
  endfacet
  facet normal -1 0 0
    outer loop
      vertex -7.5 1.25 0
      vertex -7.5 1.5 2
      vertex -7.5 1.5 0
    endloop
  endfacet
  facet normal -1 -0 0
    outer loop
      vertex -7.5 1.5 2
      vertex -7.5 1.25 0
      vertex -7.5 0.75 2
    endloop
  endfacet
  facet normal -1 0 0
    outer loop
      vertex -7.5 -1.5 2
      vertex -7.5 -1.25 0
      vertex -7.5 -1.5 0
    endloop
  endfacet
  facet normal -1 0 0
    outer loop
      vertex -7.5 -1.25 0
      vertex -7.5 -1.5 2
      vertex -7.5 -0.75 2
    endloop
  endfacet
  facet normal 0 1 -0
    outer loop
      vertex -5.75 1.5 0
      vertex -7.5 1.5 2
      vertex -5.75 1.5 2
    endloop
  endfacet
  facet normal 0 1 0
    outer loop
      vertex -7.5 1.5 2
      vertex -5.75 1.5 0
      vertex -7.5 1.5 0
    endloop
  endfacet
  facet normal 0 -1 0
    outer loop
      vertex -7.5 -1.5 0
      vertex -7.44156 -1.5 2
      vertex -7.5 -1.5 2
    endloop
  endfacet
  facet normal 0 -1 -0
    outer loop
      vertex -7.44156 -1.5 2
      vertex -7.5 -1.5 0
      vertex -7.44156 -1.5 0
    endloop
  endfacet
endsolid OpenSCAD_Model
