solid OpenSCAD_Model
  facet normal -1 0 0
    outer loop
      vertex 12 6 0
      vertex 12 4.34999 13
      vertex 12 6 15
    endloop
  endfacet
  facet normal -1 0 0
    outer loop
      vertex 12 6 0
      vertex 12 1.65001 13
      vertex 12 4.34999 13
    endloop
  endfacet
  facet normal -1 0 0
    outer loop
      vertex 12 -18.2089 2.25
      vertex 12 1.65001 13
      vertex 12 6 0
    endloop
  endfacet
  facet normal -1 -0 0
    outer loop
      vertex 12 1.65001 13
      vertex 12 -18.2089 2.25
      vertex 12 0 15
    endloop
  endfacet
  facet normal -1 0 0
    outer loop
      vertex 12 -24 0
      vertex 12 -18.2089 2.25
      vertex 12 6 0
    endloop
  endfacet
  facet normal -1 -0 0
    outer loop
      vertex 12 -18.2089 2.25
      vertex 12 -24 0
      vertex 12 -24 2.25
    endloop
  endfacet
  facet normal -1 -0 0
    outer loop
      vertex 12 6 15
      vertex 12 4.34999 13
      vertex 12 3.8738 15
    endloop
  endfacet
  facet normal -1 -0 0
    outer loop
      vertex 12 2.1262 15
      vertex 12 1.65001 13
      vertex 12 0 15
    endloop
  endfacet
  facet normal -0 0 1
    outer loop
      vertex 12 2.1262 15
      vertex 16.5 0 15
      vertex 16.5 2.1262 15
    endloop
  endfacet
  facet normal 0 0 1
    outer loop
      vertex 16.5 0 15
      vertex 12 2.1262 15
      vertex 12 0 15
    endloop
  endfacet
  facet normal 0 0 1
    outer loop
      vertex 14.35 6 15
      vertex 16.5 12.5 15
      vertex 14.35 12.5 15
    endloop
  endfacet
  facet normal 0 0 1
    outer loop
      vertex 16.5 12.5 15
      vertex 14.35 6 15
      vertex 16.5 3.8738 15
    endloop
  endfacet
  facet normal 0 0 1
    outer loop
      vertex 12 3.8738 15
      vertex 14.35 6 15
      vertex 12 6 15
    endloop
  endfacet
  facet normal 0 0 1
    outer loop
      vertex 14.35 6 15
      vertex 12 3.8738 15
      vertex 16.5 3.8738 15
    endloop
  endfacet
  facet normal 1 0 0
    outer loop
      vertex 16.5 2.1262 15
      vertex 16.5 0 15
      vertex 16.5 1.65001 13
    endloop
  endfacet
  facet normal 1 0 0
    outer loop
      vertex 16.5 19.9358 8.47895
      vertex 16.5 19.9358 6.52105
      vertex 16.5 20 7.5
    endloop
  endfacet
  facet normal 1 0 0
    outer loop
      vertex 16.5 19.7444 9.44114
      vertex 16.5 19.9358 6.52105
      vertex 16.5 19.9358 8.47895
    endloop
  endfacet
  facet normal 1 0 0
    outer loop
      vertex 16.5 19.7444 9.44114
      vertex 16.5 19.7444 5.55886
      vertex 16.5 19.9358 6.52105
    endloop
  endfacet
  facet normal 1 0 0
    outer loop
      vertex 16.5 19.4291 10.3701
      vertex 16.5 19.7444 5.55886
      vertex 16.5 19.7444 9.44114
    endloop
  endfacet
  facet normal 1 0 0
    outer loop
      vertex 16.5 19.4291 10.3701
      vertex 16.5 19.4291 4.62988
      vertex 16.5 19.7444 5.55886
    endloop
  endfacet
  facet normal 1 0 0
    outer loop
      vertex 16.5 18.9952 11.25
      vertex 16.5 19.4291 4.62988
      vertex 16.5 19.4291 10.3701
    endloop
  endfacet
  facet normal 1 0 0
    outer loop
      vertex 16.5 18.9952 11.25
      vertex 16.5 18.9952 3.75
      vertex 16.5 19.4291 4.62988
    endloop
  endfacet
  facet normal 1 0 0
    outer loop
      vertex 16.5 18.4501 12.0657
      vertex 16.5 18.9952 3.75
      vertex 16.5 18.9952 11.25
    endloop
  endfacet
  facet normal 1 0 0
    outer loop
      vertex 16.5 18.4501 12.0657
      vertex 16.5 18.4501 2.93429
      vertex 16.5 18.9952 3.75
    endloop
  endfacet
  facet normal 1 0 0
    outer loop
      vertex 16.5 17.8033 12.8033
      vertex 16.5 18.4501 2.93429
      vertex 16.5 18.4501 12.0657
    endloop
  endfacet
  facet normal 1 0 0
    outer loop
      vertex 16.5 17.8033 12.8033
      vertex 16.5 17.8033 2.1967
      vertex 16.5 18.4501 2.93429
    endloop
  endfacet
  facet normal 1 0 0
    outer loop
      vertex 16.5 17.0657 13.4501
      vertex 16.5 17.8033 2.1967
      vertex 16.5 17.8033 12.8033
    endloop
  endfacet
  facet normal 1 0 0
    outer loop
      vertex 16.5 17.0657 13.4501
      vertex 16.5 17.0657 1.54985
      vertex 16.5 17.8033 2.1967
    endloop
  endfacet
  facet normal 1 0 0
    outer loop
      vertex 16.5 16.25 13.9952
      vertex 16.5 17.0657 1.54985
      vertex 16.5 17.0657 13.4501
    endloop
  endfacet
  facet normal 1 0 0
    outer loop
      vertex 16.5 16.25 13.9952
      vertex 16.5 16.25 1.00481
      vertex 16.5 17.0657 1.54985
    endloop
  endfacet
  facet normal 1 0 0
    outer loop
      vertex 16.5 15.3701 14.4291
      vertex 16.5 16.25 1.00481
      vertex 16.5 16.25 13.9952
    endloop
  endfacet
  facet normal 1 0 0
    outer loop
      vertex 16.5 15.3701 14.4291
      vertex 16.5 15.3701 0.570904
      vertex 16.5 16.25 1.00481
    endloop
  endfacet
  facet normal 1 0 0
    outer loop
      vertex 16.5 14.4411 14.7444
      vertex 16.5 15.3701 0.570904
      vertex 16.5 15.3701 14.4291
    endloop
  endfacet
  facet normal 1 0 0
    outer loop
      vertex 16.5 14.4411 14.7444
      vertex 16.5 14.4411 0.255557
      vertex 16.5 15.3701 0.570904
    endloop
  endfacet
  facet normal 1 0 0
    outer loop
      vertex 16.5 13.4789 14.9358
      vertex 16.5 14.4411 0.255557
      vertex 16.5 14.4411 14.7444
    endloop
  endfacet
  facet normal 1 0 0
    outer loop
      vertex 16.5 13.4789 14.9358
      vertex 16.5 13.4789 0.0641642
      vertex 16.5 14.4411 0.255557
    endloop
  endfacet
  facet normal 1 0 0
    outer loop
      vertex 16.5 12.5 15
      vertex 16.5 13.4789 0.0641642
      vertex 16.5 13.4789 14.9358
    endloop
  endfacet
  facet normal 1 0 0
    outer loop
      vertex 16.5 12.5 15
      vertex 16.5 12.5 0
      vertex 16.5 13.4789 0.0641642
    endloop
  endfacet
  facet normal 1 0 0
    outer loop
      vertex 16.5 12.5 15
      vertex 16.5 6 2.25
      vertex 16.5 12.5 0
    endloop
  endfacet
  facet normal 1 0 0
    outer loop
      vertex 16.5 12.5 15
      vertex 16.5 4.34999 13
      vertex 16.5 6 2.25
    endloop
  endfacet
  facet normal 1 0 -0
    outer loop
      vertex 16.5 4.34999 13
      vertex 16.5 12.5 15
      vertex 16.5 3.8738 15
    endloop
  endfacet
  facet normal 1 0 0
    outer loop
      vertex 16.5 12.5 0
      vertex 16.5 6 2.25
      vertex 16.5 6 0
    endloop
  endfacet
  facet normal 1 -0 0
    outer loop
      vertex 16.5 1.65001 13
      vertex 16.5 6 2.25
      vertex 16.5 4.34999 13
    endloop
  endfacet
  facet normal 1 0 0
    outer loop
      vertex 16.5 0 2.25
      vertex 16.5 1.65001 13
      vertex 16.5 0 15
    endloop
  endfacet
  facet normal 1 0 0
    outer loop
      vertex 16.5 1.65001 13
      vertex 16.5 0 2.25
      vertex 16.5 6 2.25
    endloop
  endfacet
  facet normal 0 1 -0
    outer loop
      vertex 36 6 0
      vertex 33.65 6 15
      vertex 36 6 15
    endloop
  endfacet
  facet normal 0 1 0
    outer loop
      vertex 33.65 6 15
      vertex 36 6 0
      vertex 33.65 6 0
    endloop
  endfacet
  facet normal 0 1 -0
    outer loop
      vertex 31.5 6 0
      vertex 16.5 6 2.25
      vertex 31.5 6 2.25
    endloop
  endfacet
  facet normal 0 1 0
    outer loop
      vertex 16.5 6 2.25
      vertex 31.5 6 0
      vertex 16.5 6 0
    endloop
  endfacet
  facet normal 0 1 -0
    outer loop
      vertex 14.35 6 0
      vertex 12 6 15
      vertex 14.35 6 15
    endloop
  endfacet
  facet normal 0 1 0
    outer loop
      vertex 12 6 15
      vertex 14.35 6 0
      vertex 12 6 0
    endloop
  endfacet
  facet normal 0 0 -1
    outer loop
      vertex 25.0641 -16.7719 0
      vertex 25.5592 -6.45782 0
      vertex 25.5592 -17.5422 0
    endloop
  endfacet
  facet normal 0 0 -1
    outer loop
      vertex 25.0641 -16.7719 0
      vertex 25.0641 -7.22809 0
      vertex 25.5592 -6.45782 0
    endloop
  endfacet
  facet normal 0 0 -1
    outer loop
      vertex 24.2313 -16.3915 0
      vertex 25.0641 -7.22809 0
      vertex 25.0641 -16.7719 0
    endloop
  endfacet
  facet normal 0 0 -1
    outer loop
      vertex 24.2313 -16.3915 0
      vertex 24.2313 -7.60846 0
      vertex 25.0641 -7.22809 0
    endloop
  endfacet
  facet normal 0 0 -1
    outer loop
      vertex 23.325 -16.5218 0
      vertex 24.2313 -7.60846 0
      vertex 24.2313 -16.3915 0
    endloop
  endfacet
  facet normal 0 0 -1
    outer loop
      vertex 23.325 -16.5218 0
      vertex 23.325 -7.47815 0
      vertex 24.2313 -7.60846 0
    endloop
  endfacet
  facet normal 0 0 -1
    outer loop
      vertex 22.633 -17.1215 0
      vertex 23.325 -7.47815 0
      vertex 23.325 -16.5218 0
    endloop
  endfacet
  facet normal 0 0 -1
    outer loop
      vertex 22.633 -17.1215 0
      vertex 22.633 -6.87854 0
      vertex 23.325 -7.47815 0
    endloop
  endfacet
  facet normal 0 0 -1
    outer loop
      vertex 12 -24 0
      vertex 22.633 -17.1215 0
      vertex 22.375 -18 0
    endloop
  endfacet
  facet normal -0 0 -1
    outer loop
      vertex 22.633 -17.1215 0
      vertex 12 -24 0
      vertex 22.633 -6.87854 0
    endloop
  endfacet
  facet normal 0 0 -1
    outer loop
      vertex 25.5592 -6.45782 0
      vertex 36 6 0
      vertex 36 -24 0
    endloop
  endfacet
  facet normal 0 0 -1
    outer loop
      vertex 33.65 6 0
      vertex 31.5 6 0
      vertex 33.65 12.5 0
    endloop
  endfacet
  facet normal 0 0 -1
    outer loop
      vertex 25.5592 -5.54218 0
      vertex 36 6 0
      vertex 25.5592 -6.45782 0
    endloop
  endfacet
  facet normal 0 0 -1
    outer loop
      vertex 25.5592 -17.5422 0
      vertex 36 -24 0
      vertex 25.5592 -18.4578 0
    endloop
  endfacet
  facet normal 0 0 -1
    outer loop
      vertex 36 -24 0
      vertex 25.0641 -19.2281 0
      vertex 25.5592 -18.4578 0
    endloop
  endfacet
  facet normal 0 0 -1
    outer loop
      vertex 36 -24 0
      vertex 24.2313 -19.6085 0
      vertex 25.0641 -19.2281 0
    endloop
  endfacet
  facet normal 0 0 -1
    outer loop
      vertex 12 -24 0
      vertex 24.2313 -19.6085 0
      vertex 36 -24 0
    endloop
  endfacet
  facet normal -0 0 -1
    outer loop
      vertex 22.633 -6.87854 0
      vertex 12 -24 0
      vertex 22.375 -6 0
    endloop
  endfacet
  facet normal 0 0 -1
    outer loop
      vertex 16.5 6 0
      vertex 14.35 6 0
      vertex 16.5 12.5 0
    endloop
  endfacet
  facet normal 0 0 -1
    outer loop
      vertex 22.375 -6 0
      vertex 14.35 6 0
      vertex 16.5 6 0
    endloop
  endfacet
  facet normal 0 0 -1
    outer loop
      vertex 12 -24 0
      vertex 22.375 -18 0
      vertex 22.633 -18.8785 0
    endloop
  endfacet
  facet normal -0 0 -1
    outer loop
      vertex 24.2313 -19.6085 0
      vertex 12 -24 0
      vertex 23.325 -19.4782 0
    endloop
  endfacet
  facet normal 0 0 -1
    outer loop
      vertex 12 -24 0
      vertex 22.633 -18.8785 0
      vertex 23.325 -19.4782 0
    endloop
  endfacet
  facet normal -0 0 -1
    outer loop
      vertex 22.375 -6 0
      vertex 12 -24 0
      vertex 12 6 0
    endloop
  endfacet
  facet normal 0 0 -1
    outer loop
      vertex 22.375 -6 0
      vertex 12 6 0
      vertex 14.35 6 0
    endloop
  endfacet
  facet normal -0 0 -1
    outer loop
      vertex 33.65 12.5 0
      vertex 31.5 6 0
      vertex 31.5 12.5 0
    endloop
  endfacet
  facet normal 0 0 -1
    outer loop
      vertex 25.5592 -6.45782 0
      vertex 36 -24 0
      vertex 25.5592 -17.5422 0
    endloop
  endfacet
  facet normal -0 0 -1
    outer loop
      vertex 36 6 0
      vertex 25.5592 -5.54218 0
      vertex 33.65 6 0
    endloop
  endfacet
  facet normal -0 0 -1
    outer loop
      vertex 33.65 6 0
      vertex 25.5592 -5.54218 0
      vertex 31.5 6 0
    endloop
  endfacet
  facet normal 0 0 -1
    outer loop
      vertex 25.0641 -4.77191 0
      vertex 31.5 6 0
      vertex 25.5592 -5.54218 0
    endloop
  endfacet
  facet normal 0 0 -1
    outer loop
      vertex 24.2313 -4.39154 0
      vertex 31.5 6 0
      vertex 25.0641 -4.77191 0
    endloop
  endfacet
  facet normal 0 0 -1
    outer loop
      vertex 16.5 6 0
      vertex 24.2313 -4.39154 0
      vertex 23.325 -4.52185 0
    endloop
  endfacet
  facet normal 0 0 -1
    outer loop
      vertex 16.5 6 0
      vertex 23.325 -4.52185 0
      vertex 22.633 -5.12146 0
    endloop
  endfacet
  facet normal 0 0 -1
    outer loop
      vertex 24.2313 -4.39154 0
      vertex 16.5 6 0
      vertex 31.5 6 0
    endloop
  endfacet
  facet normal 0 0 -1
    outer loop
      vertex 16.5 6 0
      vertex 22.633 -5.12146 0
      vertex 22.375 -6 0
    endloop
  endfacet
  facet normal -0 0 -1
    outer loop
      vertex 16.5 12.5 0
      vertex 14.35 6 0
      vertex 14.35 12.5 0
    endloop
  endfacet
  facet normal 0 0 1
    outer loop
      vertex 33.65 12.5 15
      vertex 31.5 12.5 15
      vertex 33.65 6 15
    endloop
  endfacet
  facet normal -0 0 1
    outer loop
      vertex 33.65 6 15
      vertex 36 3.8738 15
      vertex 36 6 15
    endloop
  endfacet
  facet normal 0 0 1
    outer loop
      vertex 33.65 6 15
      vertex 31.5 3.8738 15
      vertex 36 3.8738 15
    endloop
  endfacet
  facet normal 0 0 1
    outer loop
      vertex 31.5 3.8738 15
      vertex 33.65 6 15
      vertex 31.5 12.5 15
    endloop
  endfacet
  facet normal -0 0 1
    outer loop
      vertex 31.5 2.1262 15
      vertex 36 0 15
      vertex 36 2.1262 15
    endloop
  endfacet
  facet normal 0 0 1
    outer loop
      vertex 36 0 15
      vertex 31.5 2.1262 15
      vertex 31.5 0 15
    endloop
  endfacet
  facet normal -1 0 0
    outer loop
      vertex 31.5 6 2.25
      vertex 31.5 1.65001 13
      vertex 31.5 4.34999 13
    endloop
  endfacet
  facet normal -1 0 -0
    outer loop
      vertex 31.5 1.65001 13
      vertex 31.5 6 2.25
      vertex 31.5 0 2.25
    endloop
  endfacet
  facet normal -1 0 0
    outer loop
      vertex 31.5 19.9358 6.52105
      vertex 31.5 19.9358 8.47895
      vertex 31.5 20 7.5
    endloop
  endfacet
  facet normal -1 0 0
    outer loop
      vertex 31.5 19.7444 5.55886
      vertex 31.5 19.9358 8.47895
      vertex 31.5 19.9358 6.52105
    endloop
  endfacet
  facet normal -1 0 0
    outer loop
      vertex 31.5 19.7444 5.55886
      vertex 31.5 19.7444 9.44114
      vertex 31.5 19.9358 8.47895
    endloop
  endfacet
  facet normal -1 0 0
    outer loop
      vertex 31.5 19.4291 4.62988
      vertex 31.5 19.7444 9.44114
      vertex 31.5 19.7444 5.55886
    endloop
  endfacet
  facet normal -1 0 0
    outer loop
      vertex 31.5 19.4291 4.62988
      vertex 31.5 19.4291 10.3701
      vertex 31.5 19.7444 9.44114
    endloop
  endfacet
  facet normal -1 0 0
    outer loop
      vertex 31.5 18.9952 3.75
      vertex 31.5 19.4291 10.3701
      vertex 31.5 19.4291 4.62988
    endloop
  endfacet
  facet normal -1 0 0
    outer loop
      vertex 31.5 18.9952 3.75
      vertex 31.5 18.9952 11.25
      vertex 31.5 19.4291 10.3701
    endloop
  endfacet
  facet normal -1 0 0
    outer loop
      vertex 31.5 18.4501 2.93429
      vertex 31.5 18.9952 11.25
      vertex 31.5 18.9952 3.75
    endloop
  endfacet
  facet normal -1 0 0
    outer loop
      vertex 31.5 18.4501 2.93429
      vertex 31.5 18.4501 12.0657
      vertex 31.5 18.9952 11.25
    endloop
  endfacet
  facet normal -1 0 0
    outer loop
      vertex 31.5 17.8033 2.1967
      vertex 31.5 18.4501 12.0657
      vertex 31.5 18.4501 2.93429
    endloop
  endfacet
  facet normal -1 0 0
    outer loop
      vertex 31.5 17.8033 2.1967
      vertex 31.5 17.8033 12.8033
      vertex 31.5 18.4501 12.0657
    endloop
  endfacet
  facet normal -1 0 0
    outer loop
      vertex 31.5 17.0657 1.54985
      vertex 31.5 17.8033 12.8033
      vertex 31.5 17.8033 2.1967
    endloop
  endfacet
  facet normal -1 0 0
    outer loop
      vertex 31.5 17.0657 1.54985
      vertex 31.5 17.0657 13.4501
      vertex 31.5 17.8033 12.8033
    endloop
  endfacet
  facet normal -1 0 0
    outer loop
      vertex 31.5 16.25 1.00481
      vertex 31.5 17.0657 13.4501
      vertex 31.5 17.0657 1.54985
    endloop
  endfacet
  facet normal -1 0 0
    outer loop
      vertex 31.5 16.25 1.00481
      vertex 31.5 16.25 13.9952
      vertex 31.5 17.0657 13.4501
    endloop
  endfacet
  facet normal -1 0 0
    outer loop
      vertex 31.5 15.3701 0.570904
      vertex 31.5 16.25 13.9952
      vertex 31.5 16.25 1.00481
    endloop
  endfacet
  facet normal -1 0 0
    outer loop
      vertex 31.5 15.3701 0.570904
      vertex 31.5 15.3701 14.4291
      vertex 31.5 16.25 13.9952
    endloop
  endfacet
  facet normal -1 0 0
    outer loop
      vertex 31.5 14.4411 0.255557
      vertex 31.5 15.3701 14.4291
      vertex 31.5 15.3701 0.570904
    endloop
  endfacet
  facet normal -1 0 0
    outer loop
      vertex 31.5 14.4411 0.255557
      vertex 31.5 14.4411 14.7444
      vertex 31.5 15.3701 14.4291
    endloop
  endfacet
  facet normal -1 0 0
    outer loop
      vertex 31.5 13.4789 0.0641642
      vertex 31.5 14.4411 14.7444
      vertex 31.5 14.4411 0.255557
    endloop
  endfacet
  facet normal -1 0 0
    outer loop
      vertex 31.5 13.4789 0.0641642
      vertex 31.5 13.4789 14.9358
      vertex 31.5 14.4411 14.7444
    endloop
  endfacet
  facet normal -1 0 0
    outer loop
      vertex 31.5 12.5 0
      vertex 31.5 13.4789 14.9358
      vertex 31.5 13.4789 0.0641642
    endloop
  endfacet
  facet normal -1 0 0
    outer loop
      vertex 31.5 12.5 0
      vertex 31.5 12.5 15
      vertex 31.5 13.4789 14.9358
    endloop
  endfacet
  facet normal -1 0 0
    outer loop
      vertex 31.5 6 2.25
      vertex 31.5 12.5 0
      vertex 31.5 6 0
    endloop
  endfacet
  facet normal -1 0 0
    outer loop
      vertex 31.5 12.5 0
      vertex 31.5 6 2.25
      vertex 31.5 12.5 15
    endloop
  endfacet
  facet normal -1 0 0
    outer loop
      vertex 31.5 4.34999 13
      vertex 31.5 12.5 15
      vertex 31.5 6 2.25
    endloop
  endfacet
  facet normal -1 -0 0
    outer loop
      vertex 31.5 12.5 15
      vertex 31.5 4.34999 13
      vertex 31.5 3.8738 15
    endloop
  endfacet
  facet normal -1 0 0
    outer loop
      vertex 31.5 1.65001 13
      vertex 31.5 0 15
      vertex 31.5 2.1262 15
    endloop
  endfacet
  facet normal -1 0 0
    outer loop
      vertex 31.5 0 15
      vertex 31.5 1.65001 13
      vertex 31.5 0 2.25
    endloop
  endfacet
  facet normal 1 0 0
    outer loop
      vertex 36 2.1262 15
      vertex 36 0 15
      vertex 36 1.65001 13
    endloop
  endfacet
  facet normal 1 0 0
    outer loop
      vertex 36 6 15
      vertex 36 4.34999 13
      vertex 36 6 0
    endloop
  endfacet
  facet normal 1 0 -0
    outer loop
      vertex 36 4.34999 13
      vertex 36 6 15
      vertex 36 3.8738 15
    endloop
  endfacet
  facet normal 1 -0 0
    outer loop
      vertex 36 1.65001 13
      vertex 36 6 0
      vertex 36 4.34999 13
    endloop
  endfacet
  facet normal 1 0 0
    outer loop
      vertex 36 -18.2089 2.25
      vertex 36 1.65001 13
      vertex 36 0 15
    endloop
  endfacet
  facet normal 1 0 0
    outer loop
      vertex 36 1.65001 13
      vertex 36 -18.2089 2.25
      vertex 36 6 0
    endloop
  endfacet
  facet normal 1 0 0
    outer loop
      vertex 36 -24 0
      vertex 36 -18.2089 2.25
      vertex 36 -24 2.25
    endloop
  endfacet
  facet normal 1 0 0
    outer loop
      vertex 36 -18.2089 2.25
      vertex 36 -24 0
      vertex 36 6 0
    endloop
  endfacet
  facet normal -0 0 1
    outer loop
      vertex 25.0641 -16.7719 2.25
      vertex 34.9142 -18.2089 2.25
      vertex 25.0641 -7.22809 2.25
    endloop
  endfacet
  facet normal 0 0 1
    outer loop
      vertex 34.9142 -18.2089 2.25
      vertex 25.0641 -16.7719 2.25
      vertex 25.5592 -17.5422 2.25
    endloop
  endfacet
  facet normal -0 0 1
    outer loop
      vertex 24.2313 -7.60846 2.25
      vertex 25.0641 -16.7719 2.25
      vertex 25.0641 -7.22809 2.25
    endloop
  endfacet
  facet normal 0 0 1
    outer loop
      vertex 24.2313 -7.60846 2.25
      vertex 24.2313 -16.3915 2.25
      vertex 25.0641 -16.7719 2.25
    endloop
  endfacet
  facet normal 0 0 1
    outer loop
      vertex 23.325 -7.47815 2.25
      vertex 24.2313 -16.3915 2.25
      vertex 24.2313 -7.60846 2.25
    endloop
  endfacet
  facet normal 0 0 1
    outer loop
      vertex 23.325 -7.47815 2.25
      vertex 23.325 -16.5218 2.25
      vertex 24.2313 -16.3915 2.25
    endloop
  endfacet
  facet normal 0 0 1
    outer loop
      vertex 22.633 -6.87854 2.25
      vertex 23.325 -16.5218 2.25
      vertex 23.325 -7.47815 2.25
    endloop
  endfacet
  facet normal 0 0 1
    outer loop
      vertex 22.633 -6.87854 2.25
      vertex 22.633 -17.1215 2.25
      vertex 23.325 -16.5218 2.25
    endloop
  endfacet
  facet normal 0 0 1
    outer loop
      vertex 13.0858 -18.2089 2.25
      vertex 22.633 -6.87854 2.25
      vertex 22.375 -6 2.25
    endloop
  endfacet
  facet normal 0 0 1
    outer loop
      vertex 22.633 -6.87854 2.25
      vertex 13.0858 -18.2089 2.25
      vertex 22.633 -17.1215 2.25
    endloop
  endfacet
  facet normal 0 0 1
    outer loop
      vertex 24.2313 -4.39154 2.25
      vertex 31.5 0 2.25
      vertex 31.5 6 2.25
    endloop
  endfacet
  facet normal 0 0 1
    outer loop
      vertex 31.5 0 2.25
      vertex 25.0641 -4.77191 2.25
      vertex 25.5592 -5.54218 2.25
    endloop
  endfacet
  facet normal 0 0 1
    outer loop
      vertex 31.5 0 2.25
      vertex 24.2313 -4.39154 2.25
      vertex 25.0641 -4.77191 2.25
    endloop
  endfacet
  facet normal -0 0 1
    outer loop
      vertex 16.5 6 2.25
      vertex 24.2313 -4.39154 2.25
      vertex 31.5 6 2.25
    endloop
  endfacet
  facet normal -0 0 1
    outer loop
      vertex 16.5 0 2.25
      vertex 24.2313 -4.39154 2.25
      vertex 16.5 6 2.25
    endloop
  endfacet
  facet normal 0 0 1
    outer loop
      vertex 22.633 -5.12146 2.25
      vertex 16.5 0 2.25
      vertex 22.375 -6 2.25
    endloop
  endfacet
  facet normal 0 0 1
    outer loop
      vertex 23.325 -4.52185 2.25
      vertex 16.5 0 2.25
      vertex 22.633 -5.12146 2.25
    endloop
  endfacet
  facet normal 0 0 1
    outer loop
      vertex 24.2313 -4.39154 2.25
      vertex 16.5 0 2.25
      vertex 23.325 -4.52185 2.25
    endloop
  endfacet
  facet normal -0 0 1
    outer loop
      vertex 34.9142 -18.2089 2.25
      vertex 36 -24 2.25
      vertex 36 -18.2089 2.25
    endloop
  endfacet
  facet normal 0 0 1
    outer loop
      vertex 25.5592 -6.45782 2.25
      vertex 31.5 0 2.25
      vertex 25.5592 -5.54218 2.25
    endloop
  endfacet
  facet normal 0 0 1
    outer loop
      vertex 31.5 0 2.25
      vertex 25.5592 -6.45782 2.25
      vertex 34.9142 -18.2089 2.25
    endloop
  endfacet
  facet normal -0 0 1
    outer loop
      vertex 25.0641 -7.22809 2.25
      vertex 34.9142 -18.2089 2.25
      vertex 25.5592 -6.45782 2.25
    endloop
  endfacet
  facet normal 0 0 1
    outer loop
      vertex 25.5592 -18.4578 2.25
      vertex 34.9142 -18.2089 2.25
      vertex 25.5592 -17.5422 2.25
    endloop
  endfacet
  facet normal 0 0 1
    outer loop
      vertex 34.9142 -18.2089 2.25
      vertex 25.5592 -18.4578 2.25
      vertex 36 -24 2.25
    endloop
  endfacet
  facet normal -0 0 1
    outer loop
      vertex 25.0641 -19.2281 2.25
      vertex 36 -24 2.25
      vertex 25.5592 -18.4578 2.25
    endloop
  endfacet
  facet normal -0 0 1
    outer loop
      vertex 24.2313 -19.6085 2.25
      vertex 36 -24 2.25
      vertex 25.0641 -19.2281 2.25
    endloop
  endfacet
  facet normal 0 0 1
    outer loop
      vertex 12 -24 2.25
      vertex 24.2313 -19.6085 2.25
      vertex 23.325 -19.4782 2.25
    endloop
  endfacet
  facet normal 0 0 1
    outer loop
      vertex 13.0858 -18.2089 2.25
      vertex 22.375 -6 2.25
      vertex 16.5 0 2.25
    endloop
  endfacet
  facet normal 0 0 1
    outer loop
      vertex 22.633 -17.1215 2.25
      vertex 13.0858 -18.2089 2.25
      vertex 22.375 -18 2.25
    endloop
  endfacet
  facet normal 0 0 1
    outer loop
      vertex 22.375 -18 2.25
      vertex 13.0858 -18.2089 2.25
      vertex 22.633 -18.8785 2.25
    endloop
  endfacet
  facet normal 0 0 1
    outer loop
      vertex 12 -24 2.25
      vertex 22.633 -18.8785 2.25
      vertex 13.0858 -18.2089 2.25
    endloop
  endfacet
  facet normal 0 0 1
    outer loop
      vertex 22.633 -18.8785 2.25
      vertex 12 -24 2.25
      vertex 23.325 -19.4782 2.25
    endloop
  endfacet
  facet normal 0 0 1
    outer loop
      vertex 12 -24 2.25
      vertex 13.0858 -18.2089 2.25
      vertex 12 -18.2089 2.25
    endloop
  endfacet
  facet normal 0 0 1
    outer loop
      vertex 24.2313 -19.6085 2.25
      vertex 12 -24 2.25
      vertex 36 -24 2.25
    endloop
  endfacet
  facet normal -0 0 1
    outer loop
      vertex 12 4.34999 13
      vertex 16.5 1.65001 13
      vertex 16.5 4.34999 13
    endloop
  endfacet
  facet normal 0 0 1
    outer loop
      vertex 16.5 1.65001 13
      vertex 12 4.34999 13
      vertex 12 1.65001 13
    endloop
  endfacet
  facet normal -0 0 1
    outer loop
      vertex 31.5 4.34999 13
      vertex 36 1.65001 13
      vertex 36 4.34999 13
    endloop
  endfacet
  facet normal 0 0 1
    outer loop
      vertex 36 1.65001 13
      vertex 31.5 4.34999 13
      vertex 31.5 1.65001 13
    endloop
  endfacet
  facet normal 0 0.972806 -0.23162
    outer loop
      vertex 16.5 1.65001 13
      vertex 12 2.1262 15
      vertex 16.5 2.1262 15
    endloop
  endfacet
  facet normal 0 0.972806 -0.23162
    outer loop
      vertex 12 2.1262 15
      vertex 16.5 1.65001 13
      vertex 12 1.65001 13
    endloop
  endfacet
  facet normal 0 0.972806 -0.23162
    outer loop
      vertex 36 1.65001 13
      vertex 31.5 2.1262 15
      vertex 36 2.1262 15
    endloop
  endfacet
  facet normal 0 0.972806 -0.23162
    outer loop
      vertex 31.5 2.1262 15
      vertex 36 1.65001 13
      vertex 31.5 1.65001 13
    endloop
  endfacet
  facet normal 0 -0.972806 -0.23162
    outer loop
      vertex 12 4.34999 13
      vertex 16.5 3.8738 15
      vertex 12 3.8738 15
    endloop
  endfacet
  facet normal 0 -0.972806 -0.23162
    outer loop
      vertex 16.5 3.8738 15
      vertex 12 4.34999 13
      vertex 16.5 4.34999 13
    endloop
  endfacet
  facet normal 0 -0.972806 -0.23162
    outer loop
      vertex 31.5 4.34999 13
      vertex 36 3.8738 15
      vertex 31.5 3.8738 15
    endloop
  endfacet
  facet normal 0 -0.972806 -0.23162
    outer loop
      vertex 36 3.8738 15
      vertex 31.5 4.34999 13
      vertex 36 4.34999 13
    endloop
  endfacet
  facet normal 0 0.0654069 -0.997859
    outer loop
      vertex 14.35 12.5 0
      vertex 16.5 13.4789 0.0641642
      vertex 16.5 12.5 0
    endloop
  endfacet
  facet normal 0 0.0654069 -0.997859
    outer loop
      vertex 16.5 13.4789 0.0641642
      vertex 14.35 12.5 0
      vertex 14.35 13.4789 0.0641642
    endloop
  endfacet
  facet normal 0 0.997857 0.0654399
    outer loop
      vertex 16.5 20 7.5
      vertex 14.35 19.9358 8.47895
      vertex 16.5 19.9358 8.47895
    endloop
  endfacet
  facet normal 0 0.997857 0.0654399
    outer loop
      vertex 14.35 19.9358 8.47895
      vertex 16.5 20 7.5
      vertex 14.35 20 7.5
    endloop
  endfacet
  facet normal -0 0.659312 0.751869
    outer loop
      vertex 14.35 17.8033 12.8033
      vertex 16.5 17.0657 13.4501
      vertex 16.5 17.8033 12.8033
    endloop
  endfacet
  facet normal 0 0.659312 0.751869
    outer loop
      vertex 16.5 17.0657 13.4501
      vertex 14.35 17.8033 12.8033
      vertex 14.35 17.0657 13.4501
    endloop
  endfacet
  facet normal 0 0.89688 0.442273
    outer loop
      vertex 16.5 19.4291 10.3701
      vertex 14.35 18.9952 11.25
      vertex 16.5 18.9952 11.25
    endloop
  endfacet
  facet normal 0 0.89688 0.442273
    outer loop
      vertex 14.35 18.9952 11.25
      vertex 16.5 19.4291 10.3701
      vertex 14.35 19.4291 10.3701
    endloop
  endfacet
  facet normal -0 0.321391 0.946947
    outer loop
      vertex 14.35 15.3701 14.4291
      vertex 16.5 14.4411 14.7444
      vertex 16.5 15.3701 14.4291
    endloop
  endfacet
  facet normal 0 0.321391 0.946947
    outer loop
      vertex 16.5 14.4411 14.7444
      vertex 14.35 15.3701 14.4291
      vertex 14.35 14.4411 14.7444
    endloop
  endfacet
  facet normal 0 0.946942 0.321403
    outer loop
      vertex 16.5 19.7444 9.44114
      vertex 14.35 19.4291 10.3701
      vertex 16.5 19.4291 10.3701
    endloop
  endfacet
  facet normal 0 0.946942 0.321403
    outer loop
      vertex 14.35 19.4291 10.3701
      vertex 16.5 19.7444 9.44114
      vertex 14.35 19.7444 9.44114
    endloop
  endfacet
  facet normal 0 0.19509 -0.980785
    outer loop
      vertex 14.35 13.4789 0.0641642
      vertex 16.5 14.4411 0.255557
      vertex 16.5 13.4789 0.0641642
    endloop
  endfacet
  facet normal 0 0.19509 -0.980785
    outer loop
      vertex 16.5 14.4411 0.255557
      vertex 14.35 13.4789 0.0641642
      vertex 14.35 14.4411 0.255557
    endloop
  endfacet
  facet normal 0 0.442278 -0.896878
    outer loop
      vertex 14.35 15.3701 0.570904
      vertex 16.5 16.25 1.00481
      vertex 16.5 15.3701 0.570904
    endloop
  endfacet
  facet normal 0 0.442278 -0.896878
    outer loop
      vertex 16.5 16.25 1.00481
      vertex 14.35 15.3701 0.570904
      vertex 14.35 16.25 1.00481
    endloop
  endfacet
  facet normal 0 0.751865 -0.659318
    outer loop
      vertex 16.5 17.8033 2.1967
      vertex 14.35 18.4501 2.93429
      vertex 16.5 18.4501 2.93429
    endloop
  endfacet
  facet normal 0 0.751865 -0.659318
    outer loop
      vertex 14.35 18.4501 2.93429
      vertex 16.5 17.8033 2.1967
      vertex 14.35 17.8033 2.1967
    endloop
  endfacet
  facet normal 0 0.555575 -0.831466
    outer loop
      vertex 14.35 16.25 1.00481
      vertex 16.5 17.0657 1.54985
      vertex 16.5 16.25 1.00481
    endloop
  endfacet
  facet normal 0 0.555575 -0.831466
    outer loop
      vertex 16.5 17.0657 1.54985
      vertex 14.35 16.25 1.00481
      vertex 14.35 17.0657 1.54985
    endloop
  endfacet
  facet normal 0 0.980784 -0.195099
    outer loop
      vertex 16.5 19.7444 5.55886
      vertex 14.35 19.9358 6.52105
      vertex 16.5 19.9358 6.52105
    endloop
  endfacet
  facet normal 0 0.980784 -0.195099
    outer loop
      vertex 14.35 19.9358 6.52105
      vertex 16.5 19.7444 5.55886
      vertex 14.35 19.7444 5.55886
    endloop
  endfacet
  facet normal 0 0.946944 -0.321397
    outer loop
      vertex 16.5 19.4291 4.62988
      vertex 14.35 19.7444 5.55886
      vertex 16.5 19.7444 5.55886
    endloop
  endfacet
  facet normal 0 0.946944 -0.321397
    outer loop
      vertex 14.35 19.7444 5.55886
      vertex 16.5 19.4291 4.62988
      vertex 14.35 19.4291 4.62988
    endloop
  endfacet
  facet normal 0 0.831441 -0.555613
    outer loop
      vertex 16.5 18.4501 2.93429
      vertex 14.35 18.9952 3.75
      vertex 16.5 18.9952 3.75
    endloop
  endfacet
  facet normal 0 0.831441 -0.555613
    outer loop
      vertex 14.35 18.9952 3.75
      vertex 16.5 18.4501 2.93429
      vertex 14.35 18.4501 2.93429
    endloop
  endfacet
  facet normal -0 0.442273 0.89688
    outer loop
      vertex 14.35 16.25 13.9952
      vertex 16.5 15.3701 14.4291
      vertex 16.5 16.25 13.9952
    endloop
  endfacet
  facet normal 0 0.442273 0.89688
    outer loop
      vertex 16.5 15.3701 14.4291
      vertex 14.35 16.25 13.9952
      vertex 14.35 15.3701 14.4291
    endloop
  endfacet
  facet normal -0 0.555617 0.831438
    outer loop
      vertex 14.35 17.0657 13.4501
      vertex 16.5 16.25 13.9952
      vertex 16.5 17.0657 13.4501
    endloop
  endfacet
  facet normal 0 0.555617 0.831438
    outer loop
      vertex 16.5 16.25 13.9952
      vertex 14.35 17.0657 13.4501
      vertex 14.35 16.25 13.9952
    endloop
  endfacet
  facet normal -0 0.195097 0.980784
    outer loop
      vertex 14.35 14.4411 14.7444
      vertex 16.5 13.4789 14.9358
      vertex 16.5 14.4411 14.7444
    endloop
  endfacet
  facet normal 0 0.195097 0.980784
    outer loop
      vertex 16.5 13.4789 14.9358
      vertex 14.35 14.4411 14.7444
      vertex 14.35 13.4789 14.9358
    endloop
  endfacet
  facet normal -0 0.0654432 0.997856
    outer loop
      vertex 14.35 13.4789 14.9358
      vertex 16.5 12.5 15
      vertex 16.5 13.4789 14.9358
    endloop
  endfacet
  facet normal 0 0.0654432 0.997856
    outer loop
      vertex 16.5 12.5 15
      vertex 14.35 13.4789 14.9358
      vertex 14.35 12.5 15
    endloop
  endfacet
  facet normal 0 0.831438 0.555617
    outer loop
      vertex 16.5 18.9952 11.25
      vertex 14.35 18.4501 12.0657
      vertex 16.5 18.4501 12.0657
    endloop
  endfacet
  facet normal 0 0.831438 0.555617
    outer loop
      vertex 14.35 18.4501 12.0657
      vertex 16.5 18.9952 11.25
      vertex 14.35 18.9952 11.25
    endloop
  endfacet
  facet normal 0 0.751869 0.659312
    outer loop
      vertex 16.5 18.4501 12.0657
      vertex 14.35 17.8033 12.8033
      vertex 16.5 17.8033 12.8033
    endloop
  endfacet
  facet normal 0 0.751869 0.659312
    outer loop
      vertex 14.35 17.8033 12.8033
      vertex 16.5 18.4501 12.0657
      vertex 14.35 18.4501 12.0657
    endloop
  endfacet
  facet normal 0 0.980784 0.195099
    outer loop
      vertex 16.5 19.9358 8.47895
      vertex 14.35 19.7444 9.44114
      vertex 16.5 19.7444 9.44114
    endloop
  endfacet
  facet normal 0 0.980784 0.195099
    outer loop
      vertex 14.35 19.7444 9.44114
      vertex 16.5 19.9358 8.47895
      vertex 14.35 19.9358 8.47895
    endloop
  endfacet
  facet normal -1 0 0
    outer loop
      vertex 14.35 16.0916 7.74567
      vertex 14.35 20 7.5
      vertex 14.35 19.9358 6.52105
    endloop
  endfacet
  facet normal -1 0 0
    outer loop
      vertex 14.35 16.0247 6.76756
      vertex 14.35 19.9358 6.52105
      vertex 14.35 19.7444 5.55886
    endloop
  endfacet
  facet normal -1 0 0
    outer loop
      vertex 14.35 20 7.5
      vertex 14.35 16.0916 7.74567
      vertex 14.35 19.9358 8.47895
    endloop
  endfacet
  facet normal -1 0 0
    outer loop
      vertex 14.35 16.0247 6.76756
      vertex 14.35 19.7444 5.55886
      vertex 14.35 19.4291 4.62988
    endloop
  endfacet
  facet normal -1 -0 0
    outer loop
      vertex 14.35 19.9358 8.47895
      vertex 14.35 16.0916 7.74567
      vertex 14.35 19.7444 9.44114
    endloop
  endfacet
  facet normal -1 0 0
    outer loop
      vertex 14.35 15.6964 5.84377
      vertex 14.35 19.4291 4.62988
      vertex 14.35 18.9952 3.75
    endloop
  endfacet
  facet normal -1 0 0
    outer loop
      vertex 14.35 15.8921 8.70557
      vertex 14.35 19.7444 9.44114
      vertex 14.35 16.0916 7.74567
    endloop
  endfacet
  facet normal -1 0 0
    outer loop
      vertex 14.35 15.6964 5.84377
      vertex 14.35 18.9952 3.75
      vertex 14.35 18.4501 2.93429
    endloop
  endfacet
  facet normal -1 -0 0
    outer loop
      vertex 14.35 19.7444 9.44114
      vertex 14.35 15.8921 8.70557
      vertex 14.35 19.4291 10.3701
    endloop
  endfacet
  facet normal -1 0 0
    outer loop
      vertex 14.35 15.131 5.04281
      vertex 14.35 18.4501 2.93429
      vertex 14.35 17.8033 2.1967
    endloop
  endfacet
  facet normal -1 -0 0
    outer loop
      vertex 14.35 19.4291 10.3701
      vertex 14.35 15.8921 8.70557
      vertex 14.35 18.9952 11.25
    endloop
  endfacet
  facet normal -1 0 0
    outer loop
      vertex 14.35 15.131 5.04281
      vertex 14.35 17.8033 2.1967
      vertex 14.35 17.0657 1.54985
    endloop
  endfacet
  facet normal -1 0 0
    outer loop
      vertex 14.35 15.4411 9.57605
      vertex 14.35 18.9952 11.25
      vertex 14.35 15.8921 8.70557
    endloop
  endfacet
  facet normal -1 0 0
    outer loop
      vertex 14.35 14.3705 4.42409
      vertex 14.35 17.0657 1.54985
      vertex 14.35 16.25 1.00481
    endloop
  endfacet
  facet normal -1 -0 0
    outer loop
      vertex 14.35 18.9952 11.25
      vertex 14.35 15.4411 9.57605
      vertex 14.35 18.4501 12.0657
    endloop
  endfacet
  facet normal -1 -0 0
    outer loop
      vertex 14.35 18.4501 12.0657
      vertex 14.35 15.4411 9.57605
      vertex 14.35 17.8033 12.8033
    endloop
  endfacet
  facet normal -1 0 0
    outer loop
      vertex 14.35 19.9358 6.52105
      vertex 14.35 16.0247 6.76756
      vertex 14.35 16.0916 7.74567
    endloop
  endfacet
  facet normal -1 0 0
    outer loop
      vertex 14.35 19.4291 4.62988
      vertex 14.35 15.6964 5.84377
      vertex 14.35 16.0247 6.76756
    endloop
  endfacet
  facet normal -1 0 0
    outer loop
      vertex 14.35 14.3705 4.42409
      vertex 14.35 16.25 1.00481
      vertex 14.35 15.3701 0.570904
    endloop
  endfacet
  facet normal -1 0 0
    outer loop
      vertex 14.35 18.4501 2.93429
      vertex 14.35 15.131 5.04281
      vertex 14.35 15.6964 5.84377
    endloop
  endfacet
  facet normal -1 0 0
    outer loop
      vertex 14.35 13.4713 4.0335
      vertex 14.35 15.3701 0.570904
      vertex 14.35 14.4411 0.255557
    endloop
  endfacet
  facet normal -1 0 0
    outer loop
      vertex 14.35 17.0657 1.54985
      vertex 14.35 14.3705 4.42409
      vertex 14.35 15.131 5.04281
    endloop
  endfacet
  facet normal -1 0 0
    outer loop
      vertex 14.35 13.4713 4.0335
      vertex 14.35 14.4411 0.255557
      vertex 14.35 13.4789 0.0641642
    endloop
  endfacet
  facet normal -1 0 0
    outer loop
      vertex 14.35 15.3701 0.570904
      vertex 14.35 13.4713 4.0335
      vertex 14.35 14.3705 4.42409
    endloop
  endfacet
  facet normal -1 0 0
    outer loop
      vertex 14.35 12.5 3.9
      vertex 14.35 13.4789 0.0641642
      vertex 14.35 12.5 0
    endloop
  endfacet
  facet normal -1 0 0
    outer loop
      vertex 14.35 13.4789 0.0641642
      vertex 14.35 12.5 3.9
      vertex 14.35 13.4713 4.0335
    endloop
  endfacet
  facet normal -1 0 0
    outer loop
      vertex 14.35 12.5 0
      vertex 14.35 11.5287 4.0335
      vertex 14.35 12.5 3.9
    endloop
  endfacet
  facet normal -1 0 0
    outer loop
      vertex 14.35 12.5 0
      vertex 14.35 10.6295 4.42409
      vertex 14.35 11.5287 4.0335
    endloop
  endfacet
  facet normal -1 0 0
    outer loop
      vertex 14.35 6 0
      vertex 14.35 10.6295 4.42409
      vertex 14.35 12.5 0
    endloop
  endfacet
  facet normal -1 -0 0
    outer loop
      vertex 14.35 10.6295 4.42409
      vertex 14.35 6 0
      vertex 14.35 9.86899 5.04281
    endloop
  endfacet
  facet normal -1 -0 0
    outer loop
      vertex 14.35 8.9753 6.76756
      vertex 14.35 6 0
      vertex 14.35 8.90839 7.74567
    endloop
  endfacet
  facet normal -1 -0 0
    outer loop
      vertex 14.35 9.30361 5.84377
      vertex 14.35 6 0
      vertex 14.35 8.9753 6.76756
    endloop
  endfacet
  facet normal -1 -0 0
    outer loop
      vertex 14.35 9.86899 5.04281
      vertex 14.35 6 0
      vertex 14.35 9.30361 5.84377
    endloop
  endfacet
  facet normal -1 0 0
    outer loop
      vertex 14.35 14.7719 10.2926
      vertex 14.35 17.8033 12.8033
      vertex 14.35 15.4411 9.57605
    endloop
  endfacet
  facet normal -1 -0 0
    outer loop
      vertex 14.35 17.8033 12.8033
      vertex 14.35 14.7719 10.2926
      vertex 14.35 17.0657 13.4501
    endloop
  endfacet
  facet normal -1 -0 0
    outer loop
      vertex 14.35 17.0657 13.4501
      vertex 14.35 14.7719 10.2926
      vertex 14.35 16.25 13.9952
    endloop
  endfacet
  facet normal -1 0 0
    outer loop
      vertex 14.35 13.9342 10.802
      vertex 14.35 16.25 13.9952
      vertex 14.35 14.7719 10.2926
    endloop
  endfacet
  facet normal -1 -0 0
    outer loop
      vertex 14.35 16.25 13.9952
      vertex 14.35 13.9342 10.802
      vertex 14.35 15.3701 14.4291
    endloop
  endfacet
  facet normal -1 -0 0
    outer loop
      vertex 14.35 15.3701 14.4291
      vertex 14.35 13.9342 10.802
      vertex 14.35 14.4411 14.7444
    endloop
  endfacet
  facet normal -1 0 0
    outer loop
      vertex 14.35 12.9902 11.0665
      vertex 14.35 14.4411 14.7444
      vertex 14.35 13.9342 10.802
    endloop
  endfacet
  facet normal -1 -0 0
    outer loop
      vertex 14.35 14.4411 14.7444
      vertex 14.35 12.9902 11.0665
      vertex 14.35 13.4789 14.9358
    endloop
  endfacet
  facet normal -1 0 0
    outer loop
      vertex 14.35 12.9902 11.0665
      vertex 14.35 12.5 15
      vertex 14.35 13.4789 14.9358
    endloop
  endfacet
  facet normal -1 0 0
    outer loop
      vertex 14.35 12.0098 11.0665
      vertex 14.35 12.5 15
      vertex 14.35 12.9902 11.0665
    endloop
  endfacet
  facet normal -1 0 0
    outer loop
      vertex 14.35 11.0658 10.802
      vertex 14.35 12.5 15
      vertex 14.35 12.0098 11.0665
    endloop
  endfacet
  facet normal -1 0 0
    outer loop
      vertex 14.35 6 15
      vertex 14.35 11.0658 10.802
      vertex 14.35 10.2281 10.2926
    endloop
  endfacet
  facet normal -1 0 0
    outer loop
      vertex 14.35 6 15
      vertex 14.35 10.2281 10.2926
      vertex 14.35 9.55891 9.57605
    endloop
  endfacet
  facet normal -1 0 0
    outer loop
      vertex 14.35 6 15
      vertex 14.35 8.90839 7.74567
      vertex 14.35 6 0
    endloop
  endfacet
  facet normal -1 0 0
    outer loop
      vertex 14.35 11.0658 10.802
      vertex 14.35 6 15
      vertex 14.35 12.5 15
    endloop
  endfacet
  facet normal -1 0 0
    outer loop
      vertex 14.35 9.10786 8.70557
      vertex 14.35 6 15
      vertex 14.35 9.55891 9.57605
    endloop
  endfacet
  facet normal -1 0 0
    outer loop
      vertex 14.35 8.90839 7.74567
      vertex 14.35 6 15
      vertex 14.35 9.10786 8.70557
    endloop
  endfacet
  facet normal 0 0.321434 -0.946932
    outer loop
      vertex 14.35 14.4411 0.255557
      vertex 16.5 15.3701 0.570904
      vertex 16.5 14.4411 0.255557
    endloop
  endfacet
  facet normal 0 0.321434 -0.946932
    outer loop
      vertex 16.5 15.3701 0.570904
      vertex 14.35 14.4411 0.255557
      vertex 14.35 15.3701 0.570904
    endloop
  endfacet
  facet normal 0 0.659341 -0.751844
    outer loop
      vertex 14.35 17.0657 1.54985
      vertex 16.5 17.8033 2.1967
      vertex 16.5 17.0657 1.54985
    endloop
  endfacet
  facet normal 0 0.659341 -0.751844
    outer loop
      vertex 16.5 17.8033 2.1967
      vertex 14.35 17.0657 1.54985
      vertex 14.35 17.8033 2.1967
    endloop
  endfacet
  facet normal 0 0.997857 -0.0654399
    outer loop
      vertex 16.5 19.9358 6.52105
      vertex 14.35 20 7.5
      vertex 16.5 20 7.5
    endloop
  endfacet
  facet normal 0 0.997857 -0.0654399
    outer loop
      vertex 14.35 20 7.5
      vertex 16.5 19.9358 6.52105
      vertex 14.35 19.9358 6.52105
    endloop
  endfacet
  facet normal 0 0.896876 -0.442281
    outer loop
      vertex 16.5 18.9952 3.75
      vertex 14.35 19.4291 4.62988
      vertex 16.5 19.4291 4.62988
    endloop
  endfacet
  facet normal 0 0.896876 -0.442281
    outer loop
      vertex 14.35 19.4291 4.62988
      vertex 16.5 18.9952 3.75
      vertex 14.35 18.9952 3.75
    endloop
  endfacet
  facet normal 0 -0.136165 0.990686
    outer loop
      vertex 14.35 13.4713 4.0335
      vertex 15.55 12.5 3.9
      vertex 15.55 13.4713 4.0335
    endloop
  endfacet
  facet normal 0 -0.136165 0.990686
    outer loop
      vertex 15.55 12.5 3.9
      vertex 14.35 13.4713 4.0335
      vertex 14.35 12.5 3.9
    endloop
  endfacet
  facet normal 0 0 -1
    outer loop
      vertex 14.35 12.0098 11.0665
      vertex 15.55 12.9902 11.0665
      vertex 15.55 12.0098 11.0665
    endloop
  endfacet
  facet normal -0 0 -1
    outer loop
      vertex 15.55 12.9902 11.0665
      vertex 14.35 12.0098 11.0665
      vertex 14.35 12.9902 11.0665
    endloop
  endfacet
  facet normal 0 0.997668 0.0682479
    outer loop
      vertex 15.55 8.9753 6.76756
      vertex 14.35 8.90839 7.74567
      vertex 15.55 8.90839 7.74567
    endloop
  endfacet
  facet normal 0 0.997668 0.0682479
    outer loop
      vertex 14.35 8.90839 7.74567
      vertex 15.55 8.9753 6.76756
      vertex 14.35 8.9753 6.76756
    endloop
  endfacet
  facet normal 0 0.942263 0.334875
    outer loop
      vertex 15.55 9.30361 5.84377
      vertex 14.35 8.9753 6.76756
      vertex 15.55 8.9753 6.76756
    endloop
  endfacet
  facet normal 0 0.942263 0.334875
    outer loop
      vertex 14.35 8.9753 6.76756
      vertex 15.55 9.30361 5.84377
      vertex 14.35 9.30361 5.84377
    endloop
  endfacet
  facet normal 0 -0.81696 0.576694
    outer loop
      vertex 14.35 15.131 5.04281
      vertex 15.55 15.6964 5.84377
      vertex 14.35 15.6964 5.84377
    endloop
  endfacet
  facet normal 0 -0.81696 0.576694
    outer loop
      vertex 15.55 15.6964 5.84377
      vertex 14.35 15.131 5.04281
      vertex 15.55 15.131 5.04281
    endloop
  endfacet
  facet normal 0 -0.398412 0.917207
    outer loop
      vertex 14.35 14.3705 4.42409
      vertex 15.55 13.4713 4.0335
      vertex 15.55 14.3705 4.42409
    endloop
  endfacet
  facet normal 0 -0.398412 0.917207
    outer loop
      vertex 15.55 13.4713 4.0335
      vertex 14.35 14.3705 4.42409
      vertex 14.35 13.4713 4.0335
    endloop
  endfacet
  facet normal 0 -0.942266 0.334866
    outer loop
      vertex 14.35 15.6964 5.84377
      vertex 15.55 16.0247 6.76756
      vertex 14.35 16.0247 6.76756
    endloop
  endfacet
  facet normal 0 -0.942266 0.334866
    outer loop
      vertex 15.55 16.0247 6.76756
      vertex 14.35 15.6964 5.84377
      vertex 15.55 15.6964 5.84377
    endloop
  endfacet
  facet normal 0 -0.730842 -0.682547
    outer loop
      vertex 14.35 15.4411 9.57605
      vertex 15.55 14.7719 10.2926
      vertex 14.35 14.7719 10.2926
    endloop
  endfacet
  facet normal 0 -0.730842 -0.682547
    outer loop
      vertex 15.55 14.7719 10.2926
      vertex 14.35 15.4411 9.57605
      vertex 15.55 15.4411 9.57605
    endloop
  endfacet
  facet normal 0 -0.887905 -0.460028
    outer loop
      vertex 14.35 15.8921 8.70557
      vertex 15.55 15.4411 9.57605
      vertex 14.35 15.4411 9.57605
    endloop
  endfacet
  facet normal 0 -0.887905 -0.460028
    outer loop
      vertex 15.55 15.4411 9.57605
      vertex 14.35 15.8921 8.70557
      vertex 15.55 15.8921 8.70557
    endloop
  endfacet
  facet normal 0 0.730847 -0.682542
    outer loop
      vertex 15.55 9.55891 9.57605
      vertex 14.35 10.2281 10.2926
      vertex 15.55 10.2281 10.2926
    endloop
  endfacet
  facet normal 0 0.730847 -0.682542
    outer loop
      vertex 14.35 10.2281 10.2926
      vertex 15.55 9.55891 9.57605
      vertex 14.35 9.55891 9.57605
    endloop
  endfacet
  facet normal -0 0.398412 0.917207
    outer loop
      vertex 14.35 11.5287 4.0335
      vertex 15.55 10.6295 4.42409
      vertex 15.55 11.5287 4.0335
    endloop
  endfacet
  facet normal 0 0.398412 0.917207
    outer loop
      vertex 15.55 10.6295 4.42409
      vertex 14.35 11.5287 4.0335
      vertex 14.35 10.6295 4.42409
    endloop
  endfacet
  facet normal 0 -0.631092 0.775708
    outer loop
      vertex 14.35 15.131 5.04281
      vertex 15.55 14.3705 4.42409
      vertex 15.55 15.131 5.04281
    endloop
  endfacet
  facet normal 0 -0.631092 0.775708
    outer loop
      vertex 15.55 14.3705 4.42409
      vertex 14.35 15.131 5.04281
      vertex 14.35 14.3705 4.42409
    endloop
  endfacet
  facet normal 0 -0.997669 0.0682378
    outer loop
      vertex 14.35 16.0247 6.76756
      vertex 15.55 16.0916 7.74567
      vertex 14.35 16.0916 7.74567
    endloop
  endfacet
  facet normal 0 -0.997669 0.0682378
    outer loop
      vertex 15.55 16.0916 7.74567
      vertex 14.35 16.0247 6.76756
      vertex 15.55 16.0247 6.76756
    endloop
  endfacet
  facet normal 0 -0.519572 -0.854427
    outer loop
      vertex 14.35 13.9342 10.802
      vertex 15.55 14.7719 10.2926
      vertex 15.55 13.9342 10.802
    endloop
  endfacet
  facet normal -0 -0.519572 -0.854427
    outer loop
      vertex 15.55 14.7719 10.2926
      vertex 14.35 13.9342 10.802
      vertex 14.35 14.7719 10.2926
    endloop
  endfacet
  facet normal 0 -0.2698 -0.962916
    outer loop
      vertex 14.35 12.9902 11.0665
      vertex 15.55 13.9342 10.802
      vertex 15.55 12.9902 11.0665
    endloop
  endfacet
  facet normal -0 -0.2698 -0.962916
    outer loop
      vertex 15.55 13.9342 10.802
      vertex 14.35 12.9902 11.0665
      vertex 14.35 13.9342 10.802
    endloop
  endfacet
  facet normal 0 -0.979078 -0.203486
    outer loop
      vertex 14.35 16.0916 7.74567
      vertex 15.55 15.8921 8.70557
      vertex 14.35 15.8921 8.70557
    endloop
  endfacet
  facet normal 0 -0.979078 -0.203486
    outer loop
      vertex 15.55 15.8921 8.70557
      vertex 14.35 16.0916 7.74567
      vertex 15.55 16.0916 7.74567
    endloop
  endfacet
  facet normal -0 0.136165 0.990686
    outer loop
      vertex 14.35 12.5 3.9
      vertex 15.55 11.5287 4.0335
      vertex 15.55 12.5 3.9
    endloop
  endfacet
  facet normal 0 0.136165 0.990686
    outer loop
      vertex 15.55 11.5287 4.0335
      vertex 14.35 12.5 3.9
      vertex 14.35 11.5287 4.0335
    endloop
  endfacet
  facet normal -1 0 0
    outer loop
      vertex 15.55 16.0247 6.76756
      vertex 15.55 15.8921 8.70557
      vertex 15.55 16.0916 7.74567
    endloop
  endfacet
  facet normal -1 0 0
    outer loop
      vertex 15.55 15.6964 5.84377
      vertex 15.55 15.8921 8.70557
      vertex 15.55 16.0247 6.76756
    endloop
  endfacet
  facet normal -1 0 0
    outer loop
      vertex 15.55 15.6964 5.84377
      vertex 15.55 15.4411 9.57605
      vertex 15.55 15.8921 8.70557
    endloop
  endfacet
  facet normal -1 0 0
    outer loop
      vertex 15.55 15.131 5.04281
      vertex 15.55 15.4411 9.57605
      vertex 15.55 15.6964 5.84377
    endloop
  endfacet
  facet normal -1 0 0
    outer loop
      vertex 15.55 15.131 5.04281
      vertex 15.55 14.7719 10.2926
      vertex 15.55 15.4411 9.57605
    endloop
  endfacet
  facet normal -1 0 0
    outer loop
      vertex 15.55 14.3705 4.42409
      vertex 15.55 14.7719 10.2926
      vertex 15.55 15.131 5.04281
    endloop
  endfacet
  facet normal -1 0 0
    outer loop
      vertex 15.55 14.3705 4.42409
      vertex 15.55 13.9342 10.802
      vertex 15.55 14.7719 10.2926
    endloop
  endfacet
  facet normal -1 0 0
    outer loop
      vertex 15.55 13.4713 4.0335
      vertex 15.55 13.9342 10.802
      vertex 15.55 14.3705 4.42409
    endloop
  endfacet
  facet normal -1 0 0
    outer loop
      vertex 15.55 13.4713 4.0335
      vertex 15.55 12.9902 11.0665
      vertex 15.55 13.9342 10.802
    endloop
  endfacet
  facet normal -1 0 0
    outer loop
      vertex 15.55 12.5 3.9
      vertex 15.55 12.9902 11.0665
      vertex 15.55 13.4713 4.0335
    endloop
  endfacet
  facet normal -1 0 0
    outer loop
      vertex 15.55 12.5 3.9
      vertex 15.55 12.0098 11.0665
      vertex 15.55 12.9902 11.0665
    endloop
  endfacet
  facet normal -1 0 0
    outer loop
      vertex 15.55 11.5287 4.0335
      vertex 15.55 12.0098 11.0665
      vertex 15.55 12.5 3.9
    endloop
  endfacet
  facet normal -1 0 0
    outer loop
      vertex 15.55 11.5287 4.0335
      vertex 15.55 11.0658 10.802
      vertex 15.55 12.0098 11.0665
    endloop
  endfacet
  facet normal -1 0 0
    outer loop
      vertex 15.55 10.6295 4.42409
      vertex 15.55 11.0658 10.802
      vertex 15.55 11.5287 4.0335
    endloop
  endfacet
  facet normal -1 0 0
    outer loop
      vertex 15.55 10.6295 4.42409
      vertex 15.55 10.2281 10.2926
      vertex 15.55 11.0658 10.802
    endloop
  endfacet
  facet normal -1 0 0
    outer loop
      vertex 15.55 9.86899 5.04281
      vertex 15.55 10.2281 10.2926
      vertex 15.55 10.6295 4.42409
    endloop
  endfacet
  facet normal -1 0 0
    outer loop
      vertex 15.55 9.86899 5.04281
      vertex 15.55 9.55891 9.57605
      vertex 15.55 10.2281 10.2926
    endloop
  endfacet
  facet normal -1 0 0
    outer loop
      vertex 15.55 9.30361 5.84377
      vertex 15.55 9.55891 9.57605
      vertex 15.55 9.86899 5.04281
    endloop
  endfacet
  facet normal -1 0 0
    outer loop
      vertex 15.55 9.30361 5.84377
      vertex 15.55 9.10786 8.70557
      vertex 15.55 9.55891 9.57605
    endloop
  endfacet
  facet normal -1 0 0
    outer loop
      vertex 15.55 8.9753 6.76756
      vertex 15.55 9.10786 8.70557
      vertex 15.55 9.30361 5.84377
    endloop
  endfacet
  facet normal -1 0 0
    outer loop
      vertex 15.55 9.10786 8.70557
      vertex 15.55 8.9753 6.76756
      vertex 15.55 8.90839 7.74567
    endloop
  endfacet
  facet normal 0 0.887884 -0.460068
    outer loop
      vertex 15.55 9.10786 8.70557
      vertex 14.35 9.55891 9.57605
      vertex 15.55 9.55891 9.57605
    endloop
  endfacet
  facet normal 0 0.887884 -0.460068
    outer loop
      vertex 14.35 9.55891 9.57605
      vertex 15.55 9.10786 8.70557
      vertex 14.35 9.10786 8.70557
    endloop
  endfacet
  facet normal 0 0.81697 0.576681
    outer loop
      vertex 15.55 9.86899 5.04281
      vertex 14.35 9.30361 5.84377
      vertex 15.55 9.30361 5.84377
    endloop
  endfacet
  facet normal 0 0.81697 0.576681
    outer loop
      vertex 14.35 9.30361 5.84377
      vertex 15.55 9.86899 5.04281
      vertex 14.35 9.86899 5.04281
    endloop
  endfacet
  facet normal 0 0.979084 -0.203456
    outer loop
      vertex 15.55 8.90839 7.74567
      vertex 14.35 9.10786 8.70557
      vertex 15.55 9.10786 8.70557
    endloop
  endfacet
  facet normal 0 0.979084 -0.203456
    outer loop
      vertex 14.35 9.10786 8.70557
      vertex 15.55 8.90839 7.74567
      vertex 14.35 8.90839 7.74567
    endloop
  endfacet
  facet normal 0 0.519572 -0.854427
    outer loop
      vertex 14.35 10.2281 10.2926
      vertex 15.55 11.0658 10.802
      vertex 15.55 10.2281 10.2926
    endloop
  endfacet
  facet normal 0 0.519572 -0.854427
    outer loop
      vertex 15.55 11.0658 10.802
      vertex 14.35 10.2281 10.2926
      vertex 14.35 11.0658 10.802
    endloop
  endfacet
  facet normal 0 0.2698 -0.962916
    outer loop
      vertex 14.35 11.0658 10.802
      vertex 15.55 12.0098 11.0665
      vertex 15.55 11.0658 10.802
    endloop
  endfacet
  facet normal 0 0.2698 -0.962916
    outer loop
      vertex 15.55 12.0098 11.0665
      vertex 14.35 11.0658 10.802
      vertex 14.35 12.0098 11.0665
    endloop
  endfacet
  facet normal -0 0.631087 0.775712
    outer loop
      vertex 14.35 10.6295 4.42409
      vertex 15.55 9.86899 5.04281
      vertex 15.55 10.6295 4.42409
    endloop
  endfacet
  facet normal 0 0.631087 0.775712
    outer loop
      vertex 15.55 9.86899 5.04281
      vertex 14.35 10.6295 4.42409
      vertex 14.35 9.86899 5.04281
    endloop
  endfacet
  facet normal 0 0.0654069 -0.997859
    outer loop
      vertex 31.5 12.5 0
      vertex 33.65 13.4789 0.0641642
      vertex 33.65 12.5 0
    endloop
  endfacet
  facet normal 0 0.0654069 -0.997859
    outer loop
      vertex 33.65 13.4789 0.0641642
      vertex 31.5 12.5 0
      vertex 31.5 13.4789 0.0641642
    endloop
  endfacet
  facet normal 0 0.997857 0.0654399
    outer loop
      vertex 33.65 20 7.5
      vertex 31.5 19.9358 8.47895
      vertex 33.65 19.9358 8.47895
    endloop
  endfacet
  facet normal 0 0.997857 0.0654399
    outer loop
      vertex 31.5 19.9358 8.47895
      vertex 33.65 20 7.5
      vertex 31.5 20 7.5
    endloop
  endfacet
  facet normal -0 0.659312 0.751869
    outer loop
      vertex 31.5 17.8033 12.8033
      vertex 33.65 17.0657 13.4501
      vertex 33.65 17.8033 12.8033
    endloop
  endfacet
  facet normal 0 0.659312 0.751869
    outer loop
      vertex 33.65 17.0657 13.4501
      vertex 31.5 17.8033 12.8033
      vertex 31.5 17.0657 13.4501
    endloop
  endfacet
  facet normal 0 0.89688 0.442273
    outer loop
      vertex 33.65 19.4291 10.3701
      vertex 31.5 18.9952 11.25
      vertex 33.65 18.9952 11.25
    endloop
  endfacet
  facet normal 0 0.89688 0.442273
    outer loop
      vertex 31.5 18.9952 11.25
      vertex 33.65 19.4291 10.3701
      vertex 31.5 19.4291 10.3701
    endloop
  endfacet
  facet normal -0 0.321391 0.946947
    outer loop
      vertex 31.5 15.3701 14.4291
      vertex 33.65 14.4411 14.7444
      vertex 33.65 15.3701 14.4291
    endloop
  endfacet
  facet normal 0 0.321391 0.946947
    outer loop
      vertex 33.65 14.4411 14.7444
      vertex 31.5 15.3701 14.4291
      vertex 31.5 14.4411 14.7444
    endloop
  endfacet
  facet normal 0 0.946942 0.321403
    outer loop
      vertex 33.65 19.7444 9.44114
      vertex 31.5 19.4291 10.3701
      vertex 33.65 19.4291 10.3701
    endloop
  endfacet
  facet normal 0 0.946942 0.321403
    outer loop
      vertex 31.5 19.4291 10.3701
      vertex 33.65 19.7444 9.44114
      vertex 31.5 19.7444 9.44114
    endloop
  endfacet
  facet normal 0 0.19509 -0.980785
    outer loop
      vertex 31.5 13.4789 0.0641642
      vertex 33.65 14.4411 0.255557
      vertex 33.65 13.4789 0.0641642
    endloop
  endfacet
  facet normal 0 0.19509 -0.980785
    outer loop
      vertex 33.65 14.4411 0.255557
      vertex 31.5 13.4789 0.0641642
      vertex 31.5 14.4411 0.255557
    endloop
  endfacet
  facet normal 0 0.442278 -0.896878
    outer loop
      vertex 31.5 15.3701 0.570904
      vertex 33.65 16.25 1.00481
      vertex 33.65 15.3701 0.570904
    endloop
  endfacet
  facet normal 0 0.442278 -0.896878
    outer loop
      vertex 33.65 16.25 1.00481
      vertex 31.5 15.3701 0.570904
      vertex 31.5 16.25 1.00481
    endloop
  endfacet
  facet normal 0 0.751865 -0.659318
    outer loop
      vertex 33.65 17.8033 2.1967
      vertex 31.5 18.4501 2.93429
      vertex 33.65 18.4501 2.93429
    endloop
  endfacet
  facet normal 0 0.751865 -0.659318
    outer loop
      vertex 31.5 18.4501 2.93429
      vertex 33.65 17.8033 2.1967
      vertex 31.5 17.8033 2.1967
    endloop
  endfacet
  facet normal 0 0.555575 -0.831466
    outer loop
      vertex 31.5 16.25 1.00481
      vertex 33.65 17.0657 1.54985
      vertex 33.65 16.25 1.00481
    endloop
  endfacet
  facet normal 0 0.555575 -0.831466
    outer loop
      vertex 33.65 17.0657 1.54985
      vertex 31.5 16.25 1.00481
      vertex 31.5 17.0657 1.54985
    endloop
  endfacet
  facet normal 0 0.980784 -0.195099
    outer loop
      vertex 33.65 19.7444 5.55886
      vertex 31.5 19.9358 6.52105
      vertex 33.65 19.9358 6.52105
    endloop
  endfacet
  facet normal 0 0.980784 -0.195099
    outer loop
      vertex 31.5 19.9358 6.52105
      vertex 33.65 19.7444 5.55886
      vertex 31.5 19.7444 5.55886
    endloop
  endfacet
  facet normal 0 0.946944 -0.321397
    outer loop
      vertex 33.65 19.4291 4.62988
      vertex 31.5 19.7444 5.55886
      vertex 33.65 19.7444 5.55886
    endloop
  endfacet
  facet normal 0 0.946944 -0.321397
    outer loop
      vertex 31.5 19.7444 5.55886
      vertex 33.65 19.4291 4.62988
      vertex 31.5 19.4291 4.62988
    endloop
  endfacet
  facet normal 0 0.831441 -0.555613
    outer loop
      vertex 33.65 18.4501 2.93429
      vertex 31.5 18.9952 3.75
      vertex 33.65 18.9952 3.75
    endloop
  endfacet
  facet normal 0 0.831441 -0.555613
    outer loop
      vertex 31.5 18.9952 3.75
      vertex 33.65 18.4501 2.93429
      vertex 31.5 18.4501 2.93429
    endloop
  endfacet
  facet normal -0 0.442273 0.89688
    outer loop
      vertex 31.5 16.25 13.9952
      vertex 33.65 15.3701 14.4291
      vertex 33.65 16.25 13.9952
    endloop
  endfacet
  facet normal 0 0.442273 0.89688
    outer loop
      vertex 33.65 15.3701 14.4291
      vertex 31.5 16.25 13.9952
      vertex 31.5 15.3701 14.4291
    endloop
  endfacet
  facet normal -0 0.555617 0.831438
    outer loop
      vertex 31.5 17.0657 13.4501
      vertex 33.65 16.25 13.9952
      vertex 33.65 17.0657 13.4501
    endloop
  endfacet
  facet normal 0 0.555617 0.831438
    outer loop
      vertex 33.65 16.25 13.9952
      vertex 31.5 17.0657 13.4501
      vertex 31.5 16.25 13.9952
    endloop
  endfacet
  facet normal -0 0.195097 0.980784
    outer loop
      vertex 31.5 14.4411 14.7444
      vertex 33.65 13.4789 14.9358
      vertex 33.65 14.4411 14.7444
    endloop
  endfacet
  facet normal 0 0.195097 0.980784
    outer loop
      vertex 33.65 13.4789 14.9358
      vertex 31.5 14.4411 14.7444
      vertex 31.5 13.4789 14.9358
    endloop
  endfacet
  facet normal -0 0.0654432 0.997856
    outer loop
      vertex 31.5 13.4789 14.9358
      vertex 33.65 12.5 15
      vertex 33.65 13.4789 14.9358
    endloop
  endfacet
  facet normal 0 0.0654432 0.997856
    outer loop
      vertex 33.65 12.5 15
      vertex 31.5 13.4789 14.9358
      vertex 31.5 12.5 15
    endloop
  endfacet
  facet normal 0 0.831438 0.555617
    outer loop
      vertex 33.65 18.9952 11.25
      vertex 31.5 18.4501 12.0657
      vertex 33.65 18.4501 12.0657
    endloop
  endfacet
  facet normal 0 0.831438 0.555617
    outer loop
      vertex 31.5 18.4501 12.0657
      vertex 33.65 18.9952 11.25
      vertex 31.5 18.9952 11.25
    endloop
  endfacet
  facet normal 0 0.751869 0.659312
    outer loop
      vertex 33.65 18.4501 12.0657
      vertex 31.5 17.8033 12.8033
      vertex 33.65 17.8033 12.8033
    endloop
  endfacet
  facet normal 0 0.751869 0.659312
    outer loop
      vertex 31.5 17.8033 12.8033
      vertex 33.65 18.4501 12.0657
      vertex 31.5 18.4501 12.0657
    endloop
  endfacet
  facet normal 0 0.980784 0.195099
    outer loop
      vertex 33.65 19.9358 8.47895
      vertex 31.5 19.7444 9.44114
      vertex 33.65 19.7444 9.44114
    endloop
  endfacet
  facet normal 0 0.980784 0.195099
    outer loop
      vertex 31.5 19.7444 9.44114
      vertex 33.65 19.9358 8.47895
      vertex 31.5 19.9358 8.47895
    endloop
  endfacet
  facet normal 1 -0 0
    outer loop
      vertex 33.65 16.0916 7.74567
      vertex 33.65 20 7.5
      vertex 33.65 19.9358 8.47895
    endloop
  endfacet
  facet normal 1 0 0
    outer loop
      vertex 33.65 16.0916 7.74567
      vertex 33.65 19.9358 8.47895
      vertex 33.65 19.7444 9.44114
    endloop
  endfacet
  facet normal 1 0 0
    outer loop
      vertex 33.65 20 7.5
      vertex 33.65 16.0916 7.74567
      vertex 33.65 19.9358 6.52105
    endloop
  endfacet
  facet normal 1 0 0
    outer loop
      vertex 33.65 15.8921 8.70557
      vertex 33.65 19.7444 9.44114
      vertex 33.65 19.4291 10.3701
    endloop
  endfacet
  facet normal 1 -0 0
    outer loop
      vertex 33.65 16.0247 6.76756
      vertex 33.65 19.9358 6.52105
      vertex 33.65 16.0916 7.74567
    endloop
  endfacet
  facet normal 1 0 0
    outer loop
      vertex 33.65 15.8921 8.70557
      vertex 33.65 19.4291 10.3701
      vertex 33.65 18.9952 11.25
    endloop
  endfacet
  facet normal 1 0 0
    outer loop
      vertex 33.65 19.9358 6.52105
      vertex 33.65 16.0247 6.76756
      vertex 33.65 19.7444 5.55886
    endloop
  endfacet
  facet normal 1 0 0
    outer loop
      vertex 33.65 15.4411 9.57605
      vertex 33.65 18.9952 11.25
      vertex 33.65 18.4501 12.0657
    endloop
  endfacet
  facet normal 1 0 0
    outer loop
      vertex 33.65 19.7444 5.55886
      vertex 33.65 16.0247 6.76756
      vertex 33.65 19.4291 4.62988
    endloop
  endfacet
  facet normal 1 0 0
    outer loop
      vertex 33.65 15.4411 9.57605
      vertex 33.65 18.4501 12.0657
      vertex 33.65 17.8033 12.8033
    endloop
  endfacet
  facet normal 1 -0 0
    outer loop
      vertex 33.65 15.6964 5.84377
      vertex 33.65 19.4291 4.62988
      vertex 33.65 16.0247 6.76756
    endloop
  endfacet
  facet normal 1 0 0
    outer loop
      vertex 33.65 14.7719 10.2926
      vertex 33.65 17.8033 12.8033
      vertex 33.65 17.0657 13.4501
    endloop
  endfacet
  facet normal 1 0 0
    outer loop
      vertex 33.65 19.4291 4.62988
      vertex 33.65 15.6964 5.84377
      vertex 33.65 18.9952 3.75
    endloop
  endfacet
  facet normal 1 0 0
    outer loop
      vertex 33.65 14.7719 10.2926
      vertex 33.65 17.0657 13.4501
      vertex 33.65 16.25 13.9952
    endloop
  endfacet
  facet normal 1 0 0
    outer loop
      vertex 33.65 18.9952 3.75
      vertex 33.65 15.6964 5.84377
      vertex 33.65 18.4501 2.93429
    endloop
  endfacet
  facet normal 1 -0 0
    outer loop
      vertex 33.65 15.131 5.04281
      vertex 33.65 18.4501 2.93429
      vertex 33.65 15.6964 5.84377
    endloop
  endfacet
  facet normal 1 0 0
    outer loop
      vertex 33.65 19.7444 9.44114
      vertex 33.65 15.8921 8.70557
      vertex 33.65 16.0916 7.74567
    endloop
  endfacet
  facet normal 1 0 0
    outer loop
      vertex 33.65 18.9952 11.25
      vertex 33.65 15.4411 9.57605
      vertex 33.65 15.8921 8.70557
    endloop
  endfacet
  facet normal 1 0 0
    outer loop
      vertex 33.65 13.9342 10.802
      vertex 33.65 16.25 13.9952
      vertex 33.65 15.3701 14.4291
    endloop
  endfacet
  facet normal 1 0 0
    outer loop
      vertex 33.65 17.8033 12.8033
      vertex 33.65 14.7719 10.2926
      vertex 33.65 15.4411 9.57605
    endloop
  endfacet
  facet normal 1 0 0
    outer loop
      vertex 33.65 13.9342 10.802
      vertex 33.65 15.3701 14.4291
      vertex 33.65 14.4411 14.7444
    endloop
  endfacet
  facet normal 1 0 0
    outer loop
      vertex 33.65 16.25 13.9952
      vertex 33.65 13.9342 10.802
      vertex 33.65 14.7719 10.2926
    endloop
  endfacet
  facet normal 1 0 0
    outer loop
      vertex 33.65 12.9902 11.0665
      vertex 33.65 14.4411 14.7444
      vertex 33.65 13.4789 14.9358
    endloop
  endfacet
  facet normal 1 0 0
    outer loop
      vertex 33.65 14.4411 14.7444
      vertex 33.65 12.9902 11.0665
      vertex 33.65 13.9342 10.802
    endloop
  endfacet
  facet normal 1 0 0
    outer loop
      vertex 33.65 12.5 15
      vertex 33.65 12.9902 11.0665
      vertex 33.65 13.4789 14.9358
    endloop
  endfacet
  facet normal 1 0 0
    outer loop
      vertex 33.65 12.5 15
      vertex 33.65 12.0098 11.0665
      vertex 33.65 12.9902 11.0665
    endloop
  endfacet
  facet normal 1 0 0
    outer loop
      vertex 33.65 12.5 15
      vertex 33.65 11.0658 10.802
      vertex 33.65 12.0098 11.0665
    endloop
  endfacet
  facet normal 1 -0 0
    outer loop
      vertex 33.65 6 15
      vertex 33.65 11.0658 10.802
      vertex 33.65 12.5 15
    endloop
  endfacet
  facet normal 1 0 0
    outer loop
      vertex 33.65 11.0658 10.802
      vertex 33.65 6 15
      vertex 33.65 10.2281 10.2926
    endloop
  endfacet
  facet normal 1 0 0
    outer loop
      vertex 33.65 9.10786 8.70557
      vertex 33.65 6 15
      vertex 33.65 8.90839 7.74567
    endloop
  endfacet
  facet normal 1 0 0
    outer loop
      vertex 33.65 9.55891 9.57605
      vertex 33.65 6 15
      vertex 33.65 9.10786 8.70557
    endloop
  endfacet
  facet normal 1 0 0
    outer loop
      vertex 33.65 10.2281 10.2926
      vertex 33.65 6 15
      vertex 33.65 9.55891 9.57605
    endloop
  endfacet
  facet normal 1 0 0
    outer loop
      vertex 33.65 18.4501 2.93429
      vertex 33.65 15.131 5.04281
      vertex 33.65 17.8033 2.1967
    endloop
  endfacet
  facet normal 1 0 0
    outer loop
      vertex 33.65 17.8033 2.1967
      vertex 33.65 15.131 5.04281
      vertex 33.65 17.0657 1.54985
    endloop
  endfacet
  facet normal 1 -0 0
    outer loop
      vertex 33.65 14.3705 4.42409
      vertex 33.65 17.0657 1.54985
      vertex 33.65 15.131 5.04281
    endloop
  endfacet
  facet normal 1 0 0
    outer loop
      vertex 33.65 17.0657 1.54985
      vertex 33.65 14.3705 4.42409
      vertex 33.65 16.25 1.00481
    endloop
  endfacet
  facet normal 1 0 0
    outer loop
      vertex 33.65 16.25 1.00481
      vertex 33.65 14.3705 4.42409
      vertex 33.65 15.3701 0.570904
    endloop
  endfacet
  facet normal 1 -0 0
    outer loop
      vertex 33.65 13.4713 4.0335
      vertex 33.65 15.3701 0.570904
      vertex 33.65 14.3705 4.42409
    endloop
  endfacet
  facet normal 1 0 0
    outer loop
      vertex 33.65 15.3701 0.570904
      vertex 33.65 13.4713 4.0335
      vertex 33.65 14.4411 0.255557
    endloop
  endfacet
  facet normal 1 0 0
    outer loop
      vertex 33.65 14.4411 0.255557
      vertex 33.65 13.4713 4.0335
      vertex 33.65 13.4789 0.0641642
    endloop
  endfacet
  facet normal 1 -0 0
    outer loop
      vertex 33.65 12.5 3.9
      vertex 33.65 13.4789 0.0641642
      vertex 33.65 13.4713 4.0335
    endloop
  endfacet
  facet normal 1 0 0
    outer loop
      vertex 33.65 12.5 3.9
      vertex 33.65 12.5 0
      vertex 33.65 13.4789 0.0641642
    endloop
  endfacet
  facet normal 1 0 0
    outer loop
      vertex 33.65 11.5287 4.0335
      vertex 33.65 12.5 0
      vertex 33.65 12.5 3.9
    endloop
  endfacet
  facet normal 1 0 0
    outer loop
      vertex 33.65 10.6295 4.42409
      vertex 33.65 12.5 0
      vertex 33.65 11.5287 4.0335
    endloop
  endfacet
  facet normal 1 0 0
    outer loop
      vertex 33.65 6 0
      vertex 33.65 10.6295 4.42409
      vertex 33.65 9.86899 5.04281
    endloop
  endfacet
  facet normal 1 0 0
    outer loop
      vertex 33.65 6 0
      vertex 33.65 9.86899 5.04281
      vertex 33.65 9.30361 5.84377
    endloop
  endfacet
  facet normal 1 0 0
    outer loop
      vertex 33.65 6 0
      vertex 33.65 8.90839 7.74567
      vertex 33.65 6 15
    endloop
  endfacet
  facet normal 1 0 0
    outer loop
      vertex 33.65 8.90839 7.74567
      vertex 33.65 6 0
      vertex 33.65 8.9753 6.76756
    endloop
  endfacet
  facet normal 1 0 0
    outer loop
      vertex 33.65 10.6295 4.42409
      vertex 33.65 6 0
      vertex 33.65 12.5 0
    endloop
  endfacet
  facet normal 1 0 0
    outer loop
      vertex 33.65 8.9753 6.76756
      vertex 33.65 6 0
      vertex 33.65 9.30361 5.84377
    endloop
  endfacet
  facet normal 0 0.321434 -0.946932
    outer loop
      vertex 31.5 14.4411 0.255557
      vertex 33.65 15.3701 0.570904
      vertex 33.65 14.4411 0.255557
    endloop
  endfacet
  facet normal 0 0.321434 -0.946932
    outer loop
      vertex 33.65 15.3701 0.570904
      vertex 31.5 14.4411 0.255557
      vertex 31.5 15.3701 0.570904
    endloop
  endfacet
  facet normal 0 0.659341 -0.751844
    outer loop
      vertex 31.5 17.0657 1.54985
      vertex 33.65 17.8033 2.1967
      vertex 33.65 17.0657 1.54985
    endloop
  endfacet
  facet normal 0 0.659341 -0.751844
    outer loop
      vertex 33.65 17.8033 2.1967
      vertex 31.5 17.0657 1.54985
      vertex 31.5 17.8033 2.1967
    endloop
  endfacet
  facet normal 0 0.997857 -0.0654399
    outer loop
      vertex 33.65 19.9358 6.52105
      vertex 31.5 20 7.5
      vertex 33.65 20 7.5
    endloop
  endfacet
  facet normal 0 0.997857 -0.0654399
    outer loop
      vertex 31.5 20 7.5
      vertex 33.65 19.9358 6.52105
      vertex 31.5 19.9358 6.52105
    endloop
  endfacet
  facet normal 0 0.896876 -0.442281
    outer loop
      vertex 33.65 18.9952 3.75
      vertex 31.5 19.4291 4.62988
      vertex 33.65 19.4291 4.62988
    endloop
  endfacet
  facet normal 0 0.896876 -0.442281
    outer loop
      vertex 31.5 19.4291 4.62988
      vertex 33.65 18.9952 3.75
      vertex 31.5 18.9952 3.75
    endloop
  endfacet
  facet normal 0 -0.136165 0.990686
    outer loop
      vertex 32.45 13.4713 4.0335
      vertex 33.65 12.5 3.9
      vertex 33.65 13.4713 4.0335
    endloop
  endfacet
  facet normal 0 -0.136165 0.990686
    outer loop
      vertex 33.65 12.5 3.9
      vertex 32.45 13.4713 4.0335
      vertex 32.45 12.5 3.9
    endloop
  endfacet
  facet normal 0 0 -1
    outer loop
      vertex 32.45 12.0098 11.0665
      vertex 33.65 12.9902 11.0665
      vertex 33.65 12.0098 11.0665
    endloop
  endfacet
  facet normal -0 0 -1
    outer loop
      vertex 33.65 12.9902 11.0665
      vertex 32.45 12.0098 11.0665
      vertex 32.45 12.9902 11.0665
    endloop
  endfacet
  facet normal 0 0.997668 0.0682479
    outer loop
      vertex 33.65 8.9753 6.76756
      vertex 32.45 8.90839 7.74567
      vertex 33.65 8.90839 7.74567
    endloop
  endfacet
  facet normal 0 0.997668 0.0682479
    outer loop
      vertex 32.45 8.90839 7.74567
      vertex 33.65 8.9753 6.76756
      vertex 32.45 8.9753 6.76756
    endloop
  endfacet
  facet normal 0 0.942263 0.334875
    outer loop
      vertex 33.65 9.30361 5.84377
      vertex 32.45 8.9753 6.76756
      vertex 33.65 8.9753 6.76756
    endloop
  endfacet
  facet normal 0 0.942263 0.334875
    outer loop
      vertex 32.45 8.9753 6.76756
      vertex 33.65 9.30361 5.84377
      vertex 32.45 9.30361 5.84377
    endloop
  endfacet
  facet normal 0 -0.81696 0.576694
    outer loop
      vertex 32.45 15.131 5.04281
      vertex 33.65 15.6964 5.84377
      vertex 32.45 15.6964 5.84377
    endloop
  endfacet
  facet normal 0 -0.81696 0.576694
    outer loop
      vertex 33.65 15.6964 5.84377
      vertex 32.45 15.131 5.04281
      vertex 33.65 15.131 5.04281
    endloop
  endfacet
  facet normal 0 -0.398412 0.917207
    outer loop
      vertex 32.45 14.3705 4.42409
      vertex 33.65 13.4713 4.0335
      vertex 33.65 14.3705 4.42409
    endloop
  endfacet
  facet normal 0 -0.398412 0.917207
    outer loop
      vertex 33.65 13.4713 4.0335
      vertex 32.45 14.3705 4.42409
      vertex 32.45 13.4713 4.0335
    endloop
  endfacet
  facet normal 0 -0.942266 0.334866
    outer loop
      vertex 32.45 15.6964 5.84377
      vertex 33.65 16.0247 6.76756
      vertex 32.45 16.0247 6.76756
    endloop
  endfacet
  facet normal 0 -0.942266 0.334866
    outer loop
      vertex 33.65 16.0247 6.76756
      vertex 32.45 15.6964 5.84377
      vertex 33.65 15.6964 5.84377
    endloop
  endfacet
  facet normal 0 -0.730842 -0.682547
    outer loop
      vertex 32.45 15.4411 9.57605
      vertex 33.65 14.7719 10.2926
      vertex 32.45 14.7719 10.2926
    endloop
  endfacet
  facet normal 0 -0.730842 -0.682547
    outer loop
      vertex 33.65 14.7719 10.2926
      vertex 32.45 15.4411 9.57605
      vertex 33.65 15.4411 9.57605
    endloop
  endfacet
  facet normal 0 -0.887905 -0.460028
    outer loop
      vertex 32.45 15.8921 8.70557
      vertex 33.65 15.4411 9.57605
      vertex 32.45 15.4411 9.57605
    endloop
  endfacet
  facet normal 0 -0.887905 -0.460028
    outer loop
      vertex 33.65 15.4411 9.57605
      vertex 32.45 15.8921 8.70557
      vertex 33.65 15.8921 8.70557
    endloop
  endfacet
  facet normal 0 0.730847 -0.682542
    outer loop
      vertex 33.65 9.55891 9.57605
      vertex 32.45 10.2281 10.2926
      vertex 33.65 10.2281 10.2926
    endloop
  endfacet
  facet normal 0 0.730847 -0.682542
    outer loop
      vertex 32.45 10.2281 10.2926
      vertex 33.65 9.55891 9.57605
      vertex 32.45 9.55891 9.57605
    endloop
  endfacet
  facet normal -0 0.398412 0.917207
    outer loop
      vertex 32.45 11.5287 4.0335
      vertex 33.65 10.6295 4.42409
      vertex 33.65 11.5287 4.0335
    endloop
  endfacet
  facet normal 0 0.398412 0.917207
    outer loop
      vertex 33.65 10.6295 4.42409
      vertex 32.45 11.5287 4.0335
      vertex 32.45 10.6295 4.42409
    endloop
  endfacet
  facet normal 0 -0.631092 0.775708
    outer loop
      vertex 32.45 15.131 5.04281
      vertex 33.65 14.3705 4.42409
      vertex 33.65 15.131 5.04281
    endloop
  endfacet
  facet normal 0 -0.631092 0.775708
    outer loop
      vertex 33.65 14.3705 4.42409
      vertex 32.45 15.131 5.04281
      vertex 32.45 14.3705 4.42409
    endloop
  endfacet
  facet normal 0 -0.997669 0.0682378
    outer loop
      vertex 32.45 16.0247 6.76756
      vertex 33.65 16.0916 7.74567
      vertex 32.45 16.0916 7.74567
    endloop
  endfacet
  facet normal 0 -0.997669 0.0682378
    outer loop
      vertex 33.65 16.0916 7.74567
      vertex 32.45 16.0247 6.76756
      vertex 33.65 16.0247 6.76756
    endloop
  endfacet
  facet normal 0 -0.519572 -0.854427
    outer loop
      vertex 32.45 13.9342 10.802
      vertex 33.65 14.7719 10.2926
      vertex 33.65 13.9342 10.802
    endloop
  endfacet
  facet normal -0 -0.519572 -0.854427
    outer loop
      vertex 33.65 14.7719 10.2926
      vertex 32.45 13.9342 10.802
      vertex 32.45 14.7719 10.2926
    endloop
  endfacet
  facet normal 0 -0.2698 -0.962916
    outer loop
      vertex 32.45 12.9902 11.0665
      vertex 33.65 13.9342 10.802
      vertex 33.65 12.9902 11.0665
    endloop
  endfacet
  facet normal -0 -0.2698 -0.962916
    outer loop
      vertex 33.65 13.9342 10.802
      vertex 32.45 12.9902 11.0665
      vertex 32.45 13.9342 10.802
    endloop
  endfacet
  facet normal 0 -0.979078 -0.203486
    outer loop
      vertex 32.45 16.0916 7.74567
      vertex 33.65 15.8921 8.70557
      vertex 32.45 15.8921 8.70557
    endloop
  endfacet
  facet normal 0 -0.979078 -0.203486
    outer loop
      vertex 33.65 15.8921 8.70557
      vertex 32.45 16.0916 7.74567
      vertex 33.65 16.0916 7.74567
    endloop
  endfacet
  facet normal -0 0.136165 0.990686
    outer loop
      vertex 32.45 12.5 3.9
      vertex 33.65 11.5287 4.0335
      vertex 33.65 12.5 3.9
    endloop
  endfacet
  facet normal 0 0.136165 0.990686
    outer loop
      vertex 33.65 11.5287 4.0335
      vertex 32.45 12.5 3.9
      vertex 32.45 11.5287 4.0335
    endloop
  endfacet
  facet normal 1 0 0
    outer loop
      vertex 32.45 15.8921 8.70557
      vertex 32.45 16.0247 6.76756
      vertex 32.45 16.0916 7.74567
    endloop
  endfacet
  facet normal 1 0 0
    outer loop
      vertex 32.45 15.8921 8.70557
      vertex 32.45 15.6964 5.84377
      vertex 32.45 16.0247 6.76756
    endloop
  endfacet
  facet normal 1 0 0
    outer loop
      vertex 32.45 15.4411 9.57605
      vertex 32.45 15.6964 5.84377
      vertex 32.45 15.8921 8.70557
    endloop
  endfacet
  facet normal 1 0 0
    outer loop
      vertex 32.45 15.4411 9.57605
      vertex 32.45 15.131 5.04281
      vertex 32.45 15.6964 5.84377
    endloop
  endfacet
  facet normal 1 0 0
    outer loop
      vertex 32.45 14.7719 10.2926
      vertex 32.45 15.131 5.04281
      vertex 32.45 15.4411 9.57605
    endloop
  endfacet
  facet normal 1 0 0
    outer loop
      vertex 32.45 14.7719 10.2926
      vertex 32.45 14.3705 4.42409
      vertex 32.45 15.131 5.04281
    endloop
  endfacet
  facet normal 1 0 0
    outer loop
      vertex 32.45 13.9342 10.802
      vertex 32.45 14.3705 4.42409
      vertex 32.45 14.7719 10.2926
    endloop
  endfacet
  facet normal 1 0 0
    outer loop
      vertex 32.45 13.9342 10.802
      vertex 32.45 13.4713 4.0335
      vertex 32.45 14.3705 4.42409
    endloop
  endfacet
  facet normal 1 0 0
    outer loop
      vertex 32.45 12.9902 11.0665
      vertex 32.45 13.4713 4.0335
      vertex 32.45 13.9342 10.802
    endloop
  endfacet
  facet normal 1 0 0
    outer loop
      vertex 32.45 12.9902 11.0665
      vertex 32.45 12.5 3.9
      vertex 32.45 13.4713 4.0335
    endloop
  endfacet
  facet normal 1 -0 0
    outer loop
      vertex 32.45 12.0098 11.0665
      vertex 32.45 12.5 3.9
      vertex 32.45 12.9902 11.0665
    endloop
  endfacet
  facet normal 1 0 0
    outer loop
      vertex 32.45 12.0098 11.0665
      vertex 32.45 11.5287 4.0335
      vertex 32.45 12.5 3.9
    endloop
  endfacet
  facet normal 1 -0 0
    outer loop
      vertex 32.45 11.0658 10.802
      vertex 32.45 11.5287 4.0335
      vertex 32.45 12.0098 11.0665
    endloop
  endfacet
  facet normal 1 0 0
    outer loop
      vertex 32.45 11.0658 10.802
      vertex 32.45 10.6295 4.42409
      vertex 32.45 11.5287 4.0335
    endloop
  endfacet
  facet normal 1 -0 0
    outer loop
      vertex 32.45 10.2281 10.2926
      vertex 32.45 10.6295 4.42409
      vertex 32.45 11.0658 10.802
    endloop
  endfacet
  facet normal 1 0 0
    outer loop
      vertex 32.45 10.2281 10.2926
      vertex 32.45 9.86899 5.04281
      vertex 32.45 10.6295 4.42409
    endloop
  endfacet
  facet normal 1 -0 0
    outer loop
      vertex 32.45 9.55891 9.57605
      vertex 32.45 9.86899 5.04281
      vertex 32.45 10.2281 10.2926
    endloop
  endfacet
  facet normal 1 0 0
    outer loop
      vertex 32.45 9.55891 9.57605
      vertex 32.45 9.30361 5.84377
      vertex 32.45 9.86899 5.04281
    endloop
  endfacet
  facet normal 1 -0 0
    outer loop
      vertex 32.45 9.10786 8.70557
      vertex 32.45 9.30361 5.84377
      vertex 32.45 9.55891 9.57605
    endloop
  endfacet
  facet normal 1 0 0
    outer loop
      vertex 32.45 9.10786 8.70557
      vertex 32.45 8.9753 6.76756
      vertex 32.45 9.30361 5.84377
    endloop
  endfacet
  facet normal 1 0 -0
    outer loop
      vertex 32.45 8.9753 6.76756
      vertex 32.45 9.10786 8.70557
      vertex 32.45 8.90839 7.74567
    endloop
  endfacet
  facet normal 0 0.887884 -0.460068
    outer loop
      vertex 33.65 9.10786 8.70557
      vertex 32.45 9.55891 9.57605
      vertex 33.65 9.55891 9.57605
    endloop
  endfacet
  facet normal 0 0.887884 -0.460068
    outer loop
      vertex 32.45 9.55891 9.57605
      vertex 33.65 9.10786 8.70557
      vertex 32.45 9.10786 8.70557
    endloop
  endfacet
  facet normal 0 0.81697 0.576681
    outer loop
      vertex 33.65 9.86899 5.04281
      vertex 32.45 9.30361 5.84377
      vertex 33.65 9.30361 5.84377
    endloop
  endfacet
  facet normal 0 0.81697 0.576681
    outer loop
      vertex 32.45 9.30361 5.84377
      vertex 33.65 9.86899 5.04281
      vertex 32.45 9.86899 5.04281
    endloop
  endfacet
  facet normal 0 0.979084 -0.203456
    outer loop
      vertex 33.65 8.90839 7.74567
      vertex 32.45 9.10786 8.70557
      vertex 33.65 9.10786 8.70557
    endloop
  endfacet
  facet normal 0 0.979084 -0.203456
    outer loop
      vertex 32.45 9.10786 8.70557
      vertex 33.65 8.90839 7.74567
      vertex 32.45 8.90839 7.74567
    endloop
  endfacet
  facet normal 0 0.519572 -0.854427
    outer loop
      vertex 32.45 10.2281 10.2926
      vertex 33.65 11.0658 10.802
      vertex 33.65 10.2281 10.2926
    endloop
  endfacet
  facet normal 0 0.519572 -0.854427
    outer loop
      vertex 33.65 11.0658 10.802
      vertex 32.45 10.2281 10.2926
      vertex 32.45 11.0658 10.802
    endloop
  endfacet
  facet normal 0 0.2698 -0.962916
    outer loop
      vertex 32.45 11.0658 10.802
      vertex 33.65 12.0098 11.0665
      vertex 33.65 11.0658 10.802
    endloop
  endfacet
  facet normal 0 0.2698 -0.962916
    outer loop
      vertex 33.65 12.0098 11.0665
      vertex 32.45 11.0658 10.802
      vertex 32.45 12.0098 11.0665
    endloop
  endfacet
  facet normal -0 0.631087 0.775712
    outer loop
      vertex 32.45 10.6295 4.42409
      vertex 33.65 9.86899 5.04281
      vertex 33.65 10.6295 4.42409
    endloop
  endfacet
  facet normal 0 0.631087 0.775712
    outer loop
      vertex 33.65 9.86899 5.04281
      vertex 32.45 10.6295 4.42409
      vertex 32.45 9.86899 5.04281
    endloop
  endfacet
  facet normal 0 -1 0
    outer loop
      vertex 12 -24 0
      vertex 36 -24 2.25
      vertex 12 -24 2.25
    endloop
  endfacet
  facet normal 0 -1 -0
    outer loop
      vertex 36 -24 2.25
      vertex 12 -24 0
      vertex 36 -24 0
    endloop
  endfacet
  facet normal 0.959482 0.28177 0
    outer loop
      vertex 22.633 -6.87854 2.25
      vertex 22.375 -6 0
      vertex 22.375 -6 2.25
    endloop
  endfacet
  facet normal 0.959482 0.28177 0
    outer loop
      vertex 22.375 -6 0
      vertex 22.633 -6.87854 2.25
      vertex 22.633 -6.87854 0
    endloop
  endfacet
  facet normal -1 0 0
    outer loop
      vertex 25.5592 -6.45782 0
      vertex 25.5592 -5.54218 2.25
      vertex 25.5592 -5.54218 0
    endloop
  endfacet
  facet normal -1 -0 0
    outer loop
      vertex 25.5592 -5.54218 2.25
      vertex 25.5592 -6.45782 0
      vertex 25.5592 -6.45782 2.25
    endloop
  endfacet
  facet normal 0.142319 -0.989821 0
    outer loop
      vertex 23.325 -4.52185 0
      vertex 24.2313 -4.39154 2.25
      vertex 23.325 -4.52185 2.25
    endloop
  endfacet
  facet normal 0.142319 -0.989821 0
    outer loop
      vertex 24.2313 -4.39154 2.25
      vertex 23.325 -4.52185 0
      vertex 24.2313 -4.39154 0
    endloop
  endfacet
  facet normal 0.142319 0.989821 -0
    outer loop
      vertex 24.2313 -7.60846 0
      vertex 23.325 -7.47815 2.25
      vertex 24.2313 -7.60846 2.25
    endloop
  endfacet
  facet normal 0.142319 0.989821 0
    outer loop
      vertex 23.325 -7.47815 2.25
      vertex 24.2313 -7.60846 0
      vertex 23.325 -7.47815 0
    endloop
  endfacet
  facet normal 0.654854 0.755756 -0
    outer loop
      vertex 23.325 -7.47815 0
      vertex 22.633 -6.87854 2.25
      vertex 23.325 -7.47815 2.25
    endloop
  endfacet
  facet normal 0.654854 0.755756 0
    outer loop
      vertex 22.633 -6.87854 2.25
      vertex 23.325 -7.47815 0
      vertex 22.633 -6.87854 0
    endloop
  endfacet
  facet normal -0.841215 0.540701 0
    outer loop
      vertex 25.0641 -7.22809 0
      vertex 25.5592 -6.45782 2.25
      vertex 25.5592 -6.45782 0
    endloop
  endfacet
  facet normal -0.841215 0.540701 0
    outer loop
      vertex 25.5592 -6.45782 2.25
      vertex 25.0641 -7.22809 0
      vertex 25.0641 -7.22809 2.25
    endloop
  endfacet
  facet normal -0.415454 0.909614 0
    outer loop
      vertex 25.0641 -7.22809 0
      vertex 24.2313 -7.60846 2.25
      vertex 25.0641 -7.22809 2.25
    endloop
  endfacet
  facet normal -0.415454 0.909614 0
    outer loop
      vertex 24.2313 -7.60846 2.25
      vertex 25.0641 -7.22809 0
      vertex 24.2313 -7.60846 0
    endloop
  endfacet
  facet normal 0.959482 -0.28177 0
    outer loop
      vertex 22.375 -6 2.25
      vertex 22.633 -5.12146 0
      vertex 22.633 -5.12146 2.25
    endloop
  endfacet
  facet normal 0.959482 -0.28177 0
    outer loop
      vertex 22.633 -5.12146 0
      vertex 22.375 -6 2.25
      vertex 22.375 -6 0
    endloop
  endfacet
  facet normal 0.654854 -0.755756 0
    outer loop
      vertex 22.633 -5.12146 0
      vertex 23.325 -4.52185 2.25
      vertex 22.633 -5.12146 2.25
    endloop
  endfacet
  facet normal 0.654854 -0.755756 0
    outer loop
      vertex 23.325 -4.52185 2.25
      vertex 22.633 -5.12146 0
      vertex 23.325 -4.52185 0
    endloop
  endfacet
  facet normal -0.415454 -0.909614 0
    outer loop
      vertex 24.2313 -4.39154 0
      vertex 25.0641 -4.77191 2.25
      vertex 24.2313 -4.39154 2.25
    endloop
  endfacet
  facet normal -0.415454 -0.909614 -0
    outer loop
      vertex 25.0641 -4.77191 2.25
      vertex 24.2313 -4.39154 0
      vertex 25.0641 -4.77191 0
    endloop
  endfacet
  facet normal -0.841215 -0.540701 0
    outer loop
      vertex 25.5592 -5.54218 0
      vertex 25.0641 -4.77191 2.25
      vertex 25.0641 -4.77191 0
    endloop
  endfacet
  facet normal -0.841215 -0.540701 0
    outer loop
      vertex 25.0641 -4.77191 2.25
      vertex 25.5592 -5.54218 0
      vertex 25.5592 -5.54218 2.25
    endloop
  endfacet
  facet normal 0.959478 0.281782 0
    outer loop
      vertex 22.633 -18.8785 2.25
      vertex 22.375 -18 0
      vertex 22.375 -18 2.25
    endloop
  endfacet
  facet normal 0.959478 0.281782 0
    outer loop
      vertex 22.375 -18 0
      vertex 22.633 -18.8785 2.25
      vertex 22.633 -18.8785 0
    endloop
  endfacet
  facet normal -1 0 0
    outer loop
      vertex 25.5592 -18.4578 0
      vertex 25.5592 -17.5422 2.25
      vertex 25.5592 -17.5422 0
    endloop
  endfacet
  facet normal -1 -0 0
    outer loop
      vertex 25.5592 -17.5422 2.25
      vertex 25.5592 -18.4578 0
      vertex 25.5592 -18.4578 2.25
    endloop
  endfacet
  facet normal 0.142308 -0.989822 0
    outer loop
      vertex 23.325 -16.5218 0
      vertex 24.2313 -16.3915 2.25
      vertex 23.325 -16.5218 2.25
    endloop
  endfacet
  facet normal 0.142308 -0.989822 0
    outer loop
      vertex 24.2313 -16.3915 2.25
      vertex 23.325 -16.5218 0
      vertex 24.2313 -16.3915 0
    endloop
  endfacet
  facet normal 0.142308 0.989822 -0
    outer loop
      vertex 24.2313 -19.6085 0
      vertex 23.325 -19.4782 2.25
      vertex 24.2313 -19.6085 2.25
    endloop
  endfacet
  facet normal 0.142308 0.989822 0
    outer loop
      vertex 23.325 -19.4782 2.25
      vertex 24.2313 -19.6085 0
      vertex 23.325 -19.4782 0
    endloop
  endfacet
  facet normal 0.65491 0.755707 -0
    outer loop
      vertex 23.325 -19.4782 0
      vertex 22.633 -18.8785 2.25
      vertex 23.325 -19.4782 2.25
    endloop
  endfacet
  facet normal 0.65491 0.755707 0
    outer loop
      vertex 22.633 -18.8785 2.25
      vertex 23.325 -19.4782 0
      vertex 22.633 -18.8785 0
    endloop
  endfacet
  facet normal -0.841225 0.540686 0
    outer loop
      vertex 25.0641 -19.2281 0
      vertex 25.5592 -18.4578 2.25
      vertex 25.5592 -18.4578 0
    endloop
  endfacet
  facet normal -0.841225 0.540686 0
    outer loop
      vertex 25.5592 -18.4578 2.25
      vertex 25.0641 -19.2281 0
      vertex 25.0641 -19.2281 2.25
    endloop
  endfacet
  facet normal -0.415481 0.909602 0
    outer loop
      vertex 25.0641 -19.2281 0
      vertex 24.2313 -19.6085 2.25
      vertex 25.0641 -19.2281 2.25
    endloop
  endfacet
  facet normal -0.415481 0.909602 0
    outer loop
      vertex 24.2313 -19.6085 2.25
      vertex 25.0641 -19.2281 0
      vertex 24.2313 -19.6085 0
    endloop
  endfacet
  facet normal 0.959478 -0.281782 0
    outer loop
      vertex 22.375 -18 2.25
      vertex 22.633 -17.1215 0
      vertex 22.633 -17.1215 2.25
    endloop
  endfacet
  facet normal 0.959478 -0.281782 0
    outer loop
      vertex 22.633 -17.1215 0
      vertex 22.375 -18 2.25
      vertex 22.375 -18 0
    endloop
  endfacet
  facet normal 0.65491 -0.755707 0
    outer loop
      vertex 22.633 -17.1215 0
      vertex 23.325 -16.5218 2.25
      vertex 22.633 -17.1215 2.25
    endloop
  endfacet
  facet normal 0.65491 -0.755707 0
    outer loop
      vertex 23.325 -16.5218 2.25
      vertex 22.633 -17.1215 0
      vertex 23.325 -16.5218 0
    endloop
  endfacet
  facet normal -0.415481 -0.909602 0
    outer loop
      vertex 24.2313 -16.3915 0
      vertex 25.0641 -16.7719 2.25
      vertex 24.2313 -16.3915 2.25
    endloop
  endfacet
  facet normal -0.415481 -0.909602 -0
    outer loop
      vertex 25.0641 -16.7719 2.25
      vertex 24.2313 -16.3915 0
      vertex 25.0641 -16.7719 0
    endloop
  endfacet
  facet normal -0.841225 -0.540686 0
    outer loop
      vertex 25.5592 -17.5422 0
      vertex 25.0641 -16.7719 2.25
      vertex 25.0641 -16.7719 0
    endloop
  endfacet
  facet normal -0.841225 -0.540686 0
    outer loop
      vertex 25.0641 -16.7719 2.25
      vertex 25.5592 -17.5422 0
      vertex 25.5592 -17.5422 2.25
    endloop
  endfacet
  facet normal 0.982872 -0.18429 0
    outer loop
      vertex 16.5 0 15
      vertex 13.0858 -18.2089 2.25
      vertex 16.5 0 2.25
    endloop
  endfacet
  facet normal 0 -0.573576 0.819152
    outer loop
      vertex 12 0 15
      vertex 13.0858 -18.2089 2.25
      vertex 16.5 0 15
    endloop
  endfacet
  facet normal 0 -0.573576 0.819152
    outer loop
      vertex 13.0858 -18.2089 2.25
      vertex 12 0 15
      vertex 12 -18.2089 2.25
    endloop
  endfacet
  facet normal -0.982872 -0.18429 0
    outer loop
      vertex 34.9142 -18.2089 2.25
      vertex 31.5 0 15
      vertex 31.5 0 2.25
    endloop
  endfacet
  facet normal 0 -0.573576 0.819152
    outer loop
      vertex 36 0 15
      vertex 34.9142 -18.2089 2.25
      vertex 36 -18.2089 2.25
    endloop
  endfacet
  facet normal 0 -0.573576 0.819152
    outer loop
      vertex 34.9142 -18.2089 2.25
      vertex 36 0 15
      vertex 31.5 0 15
    endloop
  endfacet
endsolid OpenSCAD_Model
