solid OpenSCAD_Model
  facet normal 0 -0.997857 0.0654399
    outer loop
      vertex -36 -20 7.5
      vertex -33.85 -19.9358 8.47895
      vertex -36 -19.9358 8.47895
    endloop
  endfacet
  facet normal 0 -0.997857 0.0654399
    outer loop
      vertex -33.85 -19.9358 8.47895
      vertex -36 -20 7.5
      vertex -33.85 -20 7.5
    endloop
  endfacet
  facet normal -1 0 0
    outer loop
      vertex -36 24 0
      vertex -36 18.2089 2.25
      vertex -36 24 2.25
    endloop
  endfacet
  facet normal -1 0 0
    outer loop
      vertex -36 18.2089 2.25
      vertex -36 -1.65001 13
      vertex -36 0 15
    endloop
  endfacet
  facet normal -1 0 0
    outer loop
      vertex -36 -20 0
      vertex -36 -1.65001 13
      vertex -36 18.2089 2.25
    endloop
  endfacet
  facet normal -1 -0 0
    outer loop
      vertex -36 -1.65001 13
      vertex -36 -20 0
      vertex -36 -4.34999 13
    endloop
  endfacet
  facet normal -1 0 0
    outer loop
      vertex -36 -20 7.5
      vertex -36 -4.34999 13
      vertex -36 -20 0
    endloop
  endfacet
  facet normal -1 0 0
    outer loop
      vertex -36 -20 0
      vertex -36 18.2089 2.25
      vertex -36 24 0
    endloop
  endfacet
  facet normal -1 -0 0
    outer loop
      vertex -36 -4.34999 13
      vertex -36 -20 7.5
      vertex -36 -13.5 15
    endloop
  endfacet
  facet normal -1 0 -0
    outer loop
      vertex -36 -17.8033 12.8033
      vertex -36 -13.5 15
      vertex -36 -20 7.5
    endloop
  endfacet
  facet normal -1 -0 0
    outer loop
      vertex -36 -13.5 15
      vertex -36 -17.8033 12.8033
      vertex -36 -15.6066 15
    endloop
  endfacet
  facet normal -1 0 0
    outer loop
      vertex -36 -18.4501 12.0657
      vertex -36 -20 7.5
      vertex -36 -18.9952 11.25
    endloop
  endfacet
  facet normal -1 0 0
    outer loop
      vertex -36 -18.9952 11.25
      vertex -36 -20 7.5
      vertex -36 -19.4291 10.3701
    endloop
  endfacet
  facet normal -1 0 0
    outer loop
      vertex -36 -19.4291 10.3701
      vertex -36 -20 7.5
      vertex -36 -19.7444 9.44114
    endloop
  endfacet
  facet normal -1 0 0
    outer loop
      vertex -36 -17.8033 12.8033
      vertex -36 -20 7.5
      vertex -36 -18.4501 12.0657
    endloop
  endfacet
  facet normal -1 0 0
    outer loop
      vertex -36 -19.7444 9.44114
      vertex -36 -20 7.5
      vertex -36 -19.9358 8.47895
    endloop
  endfacet
  facet normal -1 -0 0
    outer loop
      vertex -36 0 15
      vertex -36 -1.65001 13
      vertex -36 -2.1262 15
    endloop
  endfacet
  facet normal -1 0 0
    outer loop
      vertex -36 -4.34999 13
      vertex -36 -13.5 15
      vertex -36 -3.8738 15
    endloop
  endfacet
  facet normal 0 -0.89688 0.442273
    outer loop
      vertex -36 -19.4291 10.3701
      vertex -33.85 -18.9952 11.25
      vertex -36 -18.9952 11.25
    endloop
  endfacet
  facet normal 0 -0.89688 0.442273
    outer loop
      vertex -33.85 -18.9952 11.25
      vertex -36 -19.4291 10.3701
      vertex -33.85 -19.4291 10.3701
    endloop
  endfacet
  facet normal 0 -0.946942 0.321403
    outer loop
      vertex -36 -19.7444 9.44114
      vertex -33.85 -19.4291 10.3701
      vertex -36 -19.4291 10.3701
    endloop
  endfacet
  facet normal 0 -0.946942 0.321403
    outer loop
      vertex -33.85 -19.4291 10.3701
      vertex -36 -19.7444 9.44114
      vertex -33.85 -19.7444 9.44114
    endloop
  endfacet
  facet normal 0 -0.831438 0.555617
    outer loop
      vertex -36 -18.9952 11.25
      vertex -33.85 -18.4501 12.0657
      vertex -36 -18.4501 12.0657
    endloop
  endfacet
  facet normal 0 -0.831438 0.555617
    outer loop
      vertex -33.85 -18.4501 12.0657
      vertex -36 -18.9952 11.25
      vertex -33.85 -18.9952 11.25
    endloop
  endfacet
  facet normal 0 -0.751869 0.659312
    outer loop
      vertex -36 -18.4501 12.0657
      vertex -33.85 -17.8033 12.8033
      vertex -36 -17.8033 12.8033
    endloop
  endfacet
  facet normal 0 -0.751869 0.659312
    outer loop
      vertex -33.85 -17.8033 12.8033
      vertex -36 -18.4501 12.0657
      vertex -33.85 -18.4501 12.0657
    endloop
  endfacet
  facet normal 0 -0.980784 0.195099
    outer loop
      vertex -36 -19.9358 8.47895
      vertex -33.85 -19.7444 9.44114
      vertex -36 -19.7444 9.44114
    endloop
  endfacet
  facet normal 0 -0.980784 0.195099
    outer loop
      vertex -33.85 -19.7444 9.44114
      vertex -36 -19.9358 8.47895
      vertex -33.85 -19.9358 8.47895
    endloop
  endfacet
  facet normal 1 0 0
    outer loop
      vertex -33.85 -6 15
      vertex -33.85 -13.5 15
      vertex -33.85 -6 0
    endloop
  endfacet
  facet normal 1 0 0
    outer loop
      vertex -33.85 -17.8033 12.8033
      vertex -33.85 -13.5 15
      vertex -33.85 -15.6066 15
    endloop
  endfacet
  facet normal 1 0 0
    outer loop
      vertex -33.85 -20 7.5
      vertex -33.85 -13.5 15
      vertex -33.85 -17.8033 12.8033
    endloop
  endfacet
  facet normal 1 0 0
    outer loop
      vertex -33.85 -20 7.5
      vertex -33.85 -17.8033 12.8033
      vertex -33.85 -18.4501 12.0657
    endloop
  endfacet
  facet normal 1 0 0
    outer loop
      vertex -33.85 -20 7.5
      vertex -33.85 -18.4501 12.0657
      vertex -33.85 -18.9952 11.25
    endloop
  endfacet
  facet normal 1 0 0
    outer loop
      vertex -33.85 -20 7.5
      vertex -33.85 -18.9952 11.25
      vertex -33.85 -19.4291 10.3701
    endloop
  endfacet
  facet normal 1 0 0
    outer loop
      vertex -33.85 -20 7.5
      vertex -33.85 -19.4291 10.3701
      vertex -33.85 -19.7444 9.44114
    endloop
  endfacet
  facet normal 1 0 0
    outer loop
      vertex -33.85 -20 7.5
      vertex -33.85 -19.7444 9.44114
      vertex -33.85 -19.9358 8.47895
    endloop
  endfacet
  facet normal 1 0 0
    outer loop
      vertex -33.85 -13.5 15
      vertex -33.85 -20 7.5
      vertex -33.85 -6 0
    endloop
  endfacet
  facet normal 1 0 0
    outer loop
      vertex -33.85 -6 0
      vertex -33.85 -20 7.5
      vertex -33.85 -20 0
    endloop
  endfacet
  facet normal 0 0 -1
    outer loop
      vertex -33.85 -20 0
      vertex -36 -20 0
      vertex -33.85 -6 0
    endloop
  endfacet
  facet normal 0 0 -1
    outer loop
      vertex -22.633 17.1215 0
      vertex -12 24 0
      vertex -22.633 6.87854 0
    endloop
  endfacet
  facet normal 0 0 -1
    outer loop
      vertex -12 24 0
      vertex -22.633 17.1215 0
      vertex -22.375 18 0
    endloop
  endfacet
  facet normal 0 0 -1
    outer loop
      vertex -23.325 7.47815 0
      vertex -22.633 17.1215 0
      vertex -22.633 6.87854 0
    endloop
  endfacet
  facet normal 0 0 -1
    outer loop
      vertex -23.325 7.47815 0
      vertex -23.325 16.5218 0
      vertex -22.633 17.1215 0
    endloop
  endfacet
  facet normal 0 0 -1
    outer loop
      vertex -24.2313 7.60846 0
      vertex -23.325 16.5218 0
      vertex -23.325 7.47815 0
    endloop
  endfacet
  facet normal 0 0 -1
    outer loop
      vertex -24.2313 7.60846 0
      vertex -24.2313 16.3915 0
      vertex -23.325 16.5218 0
    endloop
  endfacet
  facet normal 0 0 -1
    outer loop
      vertex -25.0641 7.22809 0
      vertex -24.2313 16.3915 0
      vertex -24.2313 7.60846 0
    endloop
  endfacet
  facet normal 0 0 -1
    outer loop
      vertex -25.0641 7.22809 0
      vertex -25.0641 16.7719 0
      vertex -24.2313 16.3915 0
    endloop
  endfacet
  facet normal 0 0 -1
    outer loop
      vertex -25.5592 6.45782 0
      vertex -25.0641 16.7719 0
      vertex -25.0641 7.22809 0
    endloop
  endfacet
  facet normal -0 0 -1
    outer loop
      vertex -25.0641 16.7719 0
      vertex -25.5592 6.45782 0
      vertex -25.5592 17.5422 0
    endloop
  endfacet
  facet normal 0 0 -1
    outer loop
      vertex -14.15 -6 0
      vertex -22.633 5.12146 0
      vertex -22.375 6 0
    endloop
  endfacet
  facet normal 0 0 -1
    outer loop
      vertex -14.15 -6 0
      vertex -23.325 4.52185 0
      vertex -22.633 5.12146 0
    endloop
  endfacet
  facet normal 0 0 -1
    outer loop
      vertex -14.15 -6 0
      vertex -24.2313 4.39154 0
      vertex -23.325 4.52185 0
    endloop
  endfacet
  facet normal 0 0 -1
    outer loop
      vertex -33.85 -6 0
      vertex -24.2313 4.39154 0
      vertex -14.15 -6 0
    endloop
  endfacet
  facet normal 0 0 -1
    outer loop
      vertex -33.85 -6 0
      vertex -25.5592 6.45782 0
      vertex -25.5592 5.54218 0
    endloop
  endfacet
  facet normal 0 0 -1
    outer loop
      vertex -25.5592 6.45782 0
      vertex -36 24 0
      vertex -25.5592 17.5422 0
    endloop
  endfacet
  facet normal -0 0 -1
    outer loop
      vertex -25.5592 6.45782 0
      vertex -33.85 -6 0
      vertex -36 24 0
    endloop
  endfacet
  facet normal -0 0 -1
    outer loop
      vertex -25.0641 4.77191 0
      vertex -33.85 -6 0
      vertex -25.5592 5.54218 0
    endloop
  endfacet
  facet normal -0 0 -1
    outer loop
      vertex -24.2313 4.39154 0
      vertex -33.85 -6 0
      vertex -25.0641 4.77191 0
    endloop
  endfacet
  facet normal 0 0 -1
    outer loop
      vertex -14.15 -6 0
      vertex -12 -20 0
      vertex -14.15 -20 0
    endloop
  endfacet
  facet normal 0 0 -1
    outer loop
      vertex -12 -20 0
      vertex -14.15 -6 0
      vertex -12 24 0
    endloop
  endfacet
  facet normal 0 0 -1
    outer loop
      vertex -22.375 6 0
      vertex -12 24 0
      vertex -14.15 -6 0
    endloop
  endfacet
  facet normal 0 0 -1
    outer loop
      vertex -22.633 6.87854 0
      vertex -12 24 0
      vertex -22.375 6 0
    endloop
  endfacet
  facet normal 0 0 -1
    outer loop
      vertex -22.633 18.8785 0
      vertex -12 24 0
      vertex -22.375 18 0
    endloop
  endfacet
  facet normal 0 0 -1
    outer loop
      vertex -23.325 19.4782 0
      vertex -12 24 0
      vertex -22.633 18.8785 0
    endloop
  endfacet
  facet normal 0 0 -1
    outer loop
      vertex -24.2313 19.6085 0
      vertex -12 24 0
      vertex -23.325 19.4782 0
    endloop
  endfacet
  facet normal 0 0 -1
    outer loop
      vertex -24.2313 19.6085 0
      vertex -36 24 0
      vertex -12 24 0
    endloop
  endfacet
  facet normal 0 0 -1
    outer loop
      vertex -25.0641 19.2281 0
      vertex -36 24 0
      vertex -24.2313 19.6085 0
    endloop
  endfacet
  facet normal 0 0 -1
    outer loop
      vertex -25.5592 18.4578 0
      vertex -36 24 0
      vertex -25.0641 19.2281 0
    endloop
  endfacet
  facet normal 0 0 -1
    outer loop
      vertex -25.5592 17.5422 0
      vertex -36 24 0
      vertex -25.5592 18.4578 0
    endloop
  endfacet
  facet normal 0 0 -1
    outer loop
      vertex -36 24 0
      vertex -33.85 -6 0
      vertex -36 -20 0
    endloop
  endfacet
  facet normal 0 -1 0
    outer loop
      vertex -36 -20 0
      vertex -33.85 -20 7.5
      vertex -36 -20 7.5
    endloop
  endfacet
  facet normal 0 -1 -0
    outer loop
      vertex -33.85 -20 7.5
      vertex -36 -20 0
      vertex -33.85 -20 0
    endloop
  endfacet
  facet normal 0 -0.707107 0.707107
    outer loop
      vertex -36 -17.8033 12.8033
      vertex -33.85 -15.6066 15
      vertex -36 -15.6066 15
    endloop
  endfacet
  facet normal 0 -0.707107 0.707107
    outer loop
      vertex -33.85 -15.6066 15
      vertex -36 -17.8033 12.8033
      vertex -33.85 -17.8033 12.8033
    endloop
  endfacet
  facet normal -0 0 1
    outer loop
      vertex -36 -13.5 15
      vertex -33.85 -15.6066 15
      vertex -33.85 -13.5 15
    endloop
  endfacet
  facet normal 0 0 1
    outer loop
      vertex -33.85 -15.6066 15
      vertex -36 -13.5 15
      vertex -36 -15.6066 15
    endloop
  endfacet
  facet normal -0 0.142289 0.989825
    outer loop
      vertex -33.85 -12.7421 10.7623
      vertex -32.85 -13.7 10.9
      vertex -32.85 -12.7421 10.7623
    endloop
  endfacet
  facet normal 0 0.142289 0.989825
    outer loop
      vertex -32.85 -13.7 10.9
      vertex -33.85 -12.7421 10.7623
      vertex -33.85 -13.7 10.9
    endloop
  endfacet
  facet normal 0 1 -0
    outer loop
      vertex -32.85 -10.3346 7.01613
      vertex -33.85 -10.3346 7.98387
      vertex -32.85 -10.3346 7.98387
    endloop
  endfacet
  facet normal 0 1 0
    outer loop
      vertex -33.85 -10.3346 7.98387
      vertex -32.85 -10.3346 7.01613
      vertex -33.85 -10.3346 7.01613
    endloop
  endfacet
  facet normal 0 -1 0
    outer loop
      vertex -33.85 -17.0654 7.01613
      vertex -32.85 -17.0654 7.98387
      vertex -33.85 -17.0654 7.98387
    endloop
  endfacet
  facet normal 0 -1 -0
    outer loop
      vertex -32.85 -17.0654 7.98387
      vertex -33.85 -17.0654 7.01613
      vertex -32.85 -17.0654 7.01613
    endloop
  endfacet
  facet normal 0 -0.959477 -0.281786
    outer loop
      vertex -33.85 -16.7927 6.08759
      vertex -32.85 -17.0654 7.01613
      vertex -33.85 -17.0654 7.01613
    endloop
  endfacet
  facet normal 0 -0.959477 -0.281786
    outer loop
      vertex -32.85 -17.0654 7.01613
      vertex -33.85 -16.7927 6.08759
      vertex -32.85 -16.7927 6.08759
    endloop
  endfacet
  facet normal 0 0.841395 -0.54042
    outer loop
      vertex -32.85 -10.6405 6.0359
      vertex -33.85 -10.6073 6.08759
      vertex -32.85 -10.6073 6.08759
    endloop
  endfacet
  facet normal -1.65253e-05 0.84125 -0.540647
    outer loop
      vertex -33.2902 -11.1305 5.27347
      vertex -33.85 -10.6073 6.08759
      vertex -32.85 -10.6405 6.0359
    endloop
  endfacet
  facet normal 0 0.841255 -0.540639
    outer loop
      vertex -33.85 -10.6073 6.08759
      vertex -33.2902 -11.1305 5.27347
      vertex -33.85 -11.1305 5.27347
    endloop
  endfacet
  facet normal 0 0.415413 -0.909633
    outer loop
      vertex -33.6561 -11.8618 4.63974
      vertex -33.85 -12.5973 4.30385
      vertex -33.85 -11.8618 4.63974
    endloop
  endfacet
  facet normal 0 0.959477 -0.281786
    outer loop
      vertex -32.85 -10.6073 6.08759
      vertex -33.85 -10.3346 7.01613
      vertex -32.85 -10.3346 7.01613
    endloop
  endfacet
  facet normal 0 0.959477 -0.281786
    outer loop
      vertex -33.85 -10.3346 7.01613
      vertex -32.85 -10.6073 6.08759
      vertex -33.85 -10.6073 6.08759
    endloop
  endfacet
  facet normal -0 0.654917 0.755701
    outer loop
      vertex -33.85 -11.1305 9.72653
      vertex -32.85 -11.8618 10.3603
      vertex -32.85 -11.1305 9.72653
    endloop
  endfacet
  facet normal 0 0.654917 0.755701
    outer loop
      vertex -32.85 -11.8618 10.3603
      vertex -33.85 -11.1305 9.72653
      vertex -33.85 -11.8618 10.3603
    endloop
  endfacet
  facet normal -0 0.415398 0.90964
    outer loop
      vertex -33.85 -11.8618 10.3603
      vertex -32.85 -12.7421 10.7623
      vertex -32.85 -11.8618 10.3603
    endloop
  endfacet
  facet normal 0 0.415398 0.90964
    outer loop
      vertex -32.85 -12.7421 10.7623
      vertex -33.85 -11.8618 10.3603
      vertex -33.85 -12.7421 10.7623
    endloop
  endfacet
  facet normal 1 0 0
    outer loop
      vertex -32.85 -10.6073 8.91241
      vertex -32.85 -10.3346 7.01613
      vertex -32.85 -10.3346 7.98387
    endloop
  endfacet
  facet normal 1 0 0
    outer loop
      vertex -32.85 -10.6405 6.0359
      vertex -32.85 -10.3346 7.01613
      vertex -32.85 -10.6073 8.91241
    endloop
  endfacet
  facet normal 1 0 0
    outer loop
      vertex -32.85 -10.3346 7.01613
      vertex -32.85 -10.6405 6.0359
      vertex -32.85 -10.6073 6.08759
    endloop
  endfacet
  facet normal 1 0 0
    outer loop
      vertex -32.85 -11.1305 9.72653
      vertex -32.85 -10.6405 6.0359
      vertex -32.85 -10.6073 8.91241
    endloop
  endfacet
  facet normal 1 0 0
    outer loop
      vertex -32.85 -11.8618 10.3603
      vertex -32.85 -10.6405 6.0359
      vertex -32.85 -11.1305 9.72653
    endloop
  endfacet
  facet normal 1 0 0
    outer loop
      vertex -32.85 -12.7421 10.7623
      vertex -32.85 -10.6405 6.0359
      vertex -32.85 -11.8618 10.3603
    endloop
  endfacet
  facet normal 1 0 0
    outer loop
      vertex -32.85 -13.7 10.9
      vertex -32.85 -10.6405 6.0359
      vertex -32.85 -12.7421 10.7623
    endloop
  endfacet
  facet normal 1 -0 0
    outer loop
      vertex -32.85 -14.6579 10.7623
      vertex -32.85 -10.6405 6.0359
      vertex -32.85 -13.7 10.9
    endloop
  endfacet
  facet normal 1 -0 0
    outer loop
      vertex -32.85 -15.5382 10.3603
      vertex -32.85 -10.6405 6.0359
      vertex -32.85 -14.6579 10.7623
    endloop
  endfacet
  facet normal 1 -0 0
    outer loop
      vertex -32.85 -16.2695 9.72653
      vertex -32.85 -10.6405 6.0359
      vertex -32.85 -15.5382 10.3603
    endloop
  endfacet
  facet normal 1 0 0
    outer loop
      vertex -32.85 -16.2695 9.72653
      vertex -32.85 -16.7595 6.0359
      vertex -32.85 -10.6405 6.0359
    endloop
  endfacet
  facet normal 1 -0 0
    outer loop
      vertex -32.85 -16.7927 8.91241
      vertex -32.85 -16.7595 6.0359
      vertex -32.85 -16.2695 9.72653
    endloop
  endfacet
  facet normal 1 -0 0
    outer loop
      vertex -32.85 -17.0654 7.98387
      vertex -32.85 -16.7595 6.0359
      vertex -32.85 -16.7927 8.91241
    endloop
  endfacet
  facet normal 1 -0 0
    outer loop
      vertex -32.85 -17.0654 7.01613
      vertex -32.85 -16.7595 6.0359
      vertex -32.85 -17.0654 7.98387
    endloop
  endfacet
  facet normal 1 0 0
    outer loop
      vertex -32.85 -16.7595 6.0359
      vertex -32.85 -17.0654 7.01613
      vertex -32.85 -16.7927 6.08759
    endloop
  endfacet
  facet normal 0 0.959477 0.281786
    outer loop
      vertex -32.85 -10.3346 7.98387
      vertex -33.85 -10.6073 8.91241
      vertex -32.85 -10.6073 8.91241
    endloop
  endfacet
  facet normal 0 0.959477 0.281786
    outer loop
      vertex -33.85 -10.6073 8.91241
      vertex -32.85 -10.3346 7.98387
      vertex -33.85 -10.3346 7.98387
    endloop
  endfacet
  facet normal 0 -0.654917 0.755701
    outer loop
      vertex -33.85 -15.5382 10.3603
      vertex -32.85 -16.2695 9.72653
      vertex -32.85 -15.5382 10.3603
    endloop
  endfacet
  facet normal 0 -0.654917 0.755701
    outer loop
      vertex -32.85 -16.2695 9.72653
      vertex -33.85 -15.5382 10.3603
      vertex -33.85 -16.2695 9.72653
    endloop
  endfacet
  facet normal 0 0.654893 -0.755721
    outer loop
      vertex -33.85 -11.1305 5.27347
      vertex -33.6561 -11.8618 4.63974
      vertex -33.85 -11.8618 4.63974
    endloop
  endfacet
  facet normal 0 0.654893 -0.755721
    outer loop
      vertex -33.6561 -11.8618 4.63974
      vertex -33.85 -11.1305 5.27347
      vertex -33.2902 -11.1305 5.27347
    endloop
  endfacet
  facet normal 0 0.841255 0.540639
    outer loop
      vertex -32.85 -10.6073 8.91241
      vertex -33.85 -11.1305 9.72653
      vertex -32.85 -11.1305 9.72653
    endloop
  endfacet
  facet normal 0 0.841255 0.540639
    outer loop
      vertex -33.85 -11.1305 9.72653
      vertex -32.85 -10.6073 8.91241
      vertex -33.85 -10.6073 8.91241
    endloop
  endfacet
  facet normal 0 -0.142289 0.989825
    outer loop
      vertex -33.85 -13.7 10.9
      vertex -32.85 -14.6579 10.7623
      vertex -32.85 -13.7 10.9
    endloop
  endfacet
  facet normal 0 -0.142289 0.989825
    outer loop
      vertex -32.85 -14.6579 10.7623
      vertex -33.85 -13.7 10.9
      vertex -33.85 -14.6579 10.7623
    endloop
  endfacet
  facet normal -0 -0.415413 -0.909633
    outer loop
      vertex -33.6561 -15.5382 4.63974
      vertex -33.85 -15.5382 4.63974
      vertex -33.85 -14.8027 4.30385
    endloop
  endfacet
  facet normal -1 0 0
    outer loop
      vertex -33.85 -10.6073 6.08759
      vertex -33.85 -10.3346 7.98387
      vertex -33.85 -10.3346 7.01613
    endloop
  endfacet
  facet normal -1 0 0
    outer loop
      vertex -33.85 -10.6073 6.08759
      vertex -33.85 -10.6073 8.91241
      vertex -33.85 -10.3346 7.98387
    endloop
  endfacet
  facet normal -1 0 0
    outer loop
      vertex -33.85 -11.1305 5.27347
      vertex -33.85 -10.6073 8.91241
      vertex -33.85 -10.6073 6.08759
    endloop
  endfacet
  facet normal -1 0 0
    outer loop
      vertex -33.85 -11.1305 5.27347
      vertex -33.85 -11.1305 9.72653
      vertex -33.85 -10.6073 8.91241
    endloop
  endfacet
  facet normal -1 0 0
    outer loop
      vertex -33.85 -12.5973 4.30385
      vertex -33.85 -11.1305 5.27347
      vertex -33.85 -11.8618 4.63974
    endloop
  endfacet
  facet normal -1 -0 0
    outer loop
      vertex -33.85 -11.1305 5.27347
      vertex -33.85 -12.5973 4.30385
      vertex -33.85 -11.1305 9.72653
    endloop
  endfacet
  facet normal -1 -0 0
    outer loop
      vertex -33.85 -11.1305 9.72653
      vertex -33.85 -12.5973 4.30385
      vertex -33.85 -11.8618 10.3603
    endloop
  endfacet
  facet normal -1 0 0
    outer loop
      vertex -33.85 -12.5973 4.30385
      vertex -33.85 -12.7421 10.7623
      vertex -33.85 -11.8618 10.3603
    endloop
  endfacet
  facet normal -1 0 0
    outer loop
      vertex -33.85 -12.5973 4.30385
      vertex -33.85 -13.7 10.9
      vertex -33.85 -12.7421 10.7623
    endloop
  endfacet
  facet normal -1 0 0
    outer loop
      vertex -33.85 -12.5973 4.30385
      vertex -33.85 -14.6579 10.7623
      vertex -33.85 -13.7 10.9
    endloop
  endfacet
  facet normal -1 0 0
    outer loop
      vertex -33.85 -14.8027 4.30385
      vertex -33.85 -14.6579 10.7623
      vertex -33.85 -12.5973 4.30385
    endloop
  endfacet
  facet normal -1 0 0
    outer loop
      vertex -33.85 -16.2695 5.27347
      vertex -33.85 -14.8027 4.30385
      vertex -33.85 -15.5382 4.63974
    endloop
  endfacet
  facet normal -1 0 0
    outer loop
      vertex -33.85 -14.8027 4.30385
      vertex -33.85 -15.5382 10.3603
      vertex -33.85 -14.6579 10.7623
    endloop
  endfacet
  facet normal -1 0 0
    outer loop
      vertex -33.85 -14.8027 4.30385
      vertex -33.85 -16.2695 5.27347
      vertex -33.85 -15.5382 10.3603
    endloop
  endfacet
  facet normal -1 0 0
    outer loop
      vertex -33.85 -16.2695 5.27347
      vertex -33.85 -16.2695 9.72653
      vertex -33.85 -15.5382 10.3603
    endloop
  endfacet
  facet normal -1 0 0
    outer loop
      vertex -33.85 -16.7927 6.08759
      vertex -33.85 -16.2695 9.72653
      vertex -33.85 -16.2695 5.27347
    endloop
  endfacet
  facet normal -1 0 0
    outer loop
      vertex -33.85 -16.7927 6.08759
      vertex -33.85 -16.7927 8.91241
      vertex -33.85 -16.2695 9.72653
    endloop
  endfacet
  facet normal -1 0 0
    outer loop
      vertex -33.85 -17.0654 7.01613
      vertex -33.85 -16.7927 8.91241
      vertex -33.85 -16.7927 6.08759
    endloop
  endfacet
  facet normal -1 0 0
    outer loop
      vertex -33.85 -16.7927 8.91241
      vertex -33.85 -17.0654 7.01613
      vertex -33.85 -17.0654 7.98387
    endloop
  endfacet
  facet normal 0 -0.841395 -0.54042
    outer loop
      vertex -33.85 -16.7927 6.08759
      vertex -32.85 -16.7595 6.0359
      vertex -32.85 -16.7927 6.08759
    endloop
  endfacet
  facet normal -0 -0.841255 -0.540639
    outer loop
      vertex -33.2902 -16.2695 5.27347
      vertex -33.85 -16.7927 6.08759
      vertex -33.85 -16.2695 5.27347
    endloop
  endfacet
  facet normal -1.65253e-05 -0.84125 -0.540647
    outer loop
      vertex -33.85 -16.7927 6.08759
      vertex -33.2902 -16.2695 5.27347
      vertex -32.85 -16.7595 6.0359
    endloop
  endfacet
  facet normal 0 -0.959477 0.281786
    outer loop
      vertex -33.85 -17.0654 7.98387
      vertex -32.85 -16.7927 8.91241
      vertex -33.85 -16.7927 8.91241
    endloop
  endfacet
  facet normal 0 -0.959477 0.281786
    outer loop
      vertex -32.85 -16.7927 8.91241
      vertex -33.85 -17.0654 7.98387
      vertex -32.85 -17.0654 7.98387
    endloop
  endfacet
  facet normal 0 -0.415398 0.90964
    outer loop
      vertex -33.85 -14.6579 10.7623
      vertex -32.85 -15.5382 10.3603
      vertex -32.85 -14.6579 10.7623
    endloop
  endfacet
  facet normal 0 -0.415398 0.90964
    outer loop
      vertex -32.85 -15.5382 10.3603
      vertex -33.85 -14.6579 10.7623
      vertex -33.85 -15.5382 10.3603
    endloop
  endfacet
  facet normal 0 -0.654893 -0.755721
    outer loop
      vertex -33.85 -16.2695 5.27347
      vertex -33.6561 -15.5382 4.63974
      vertex -33.2902 -16.2695 5.27347
    endloop
  endfacet
  facet normal -0 -0.654893 -0.755721
    outer loop
      vertex -33.6561 -15.5382 4.63974
      vertex -33.85 -16.2695 5.27347
      vertex -33.85 -15.5382 4.63974
    endloop
  endfacet
  facet normal 0 -0.841255 0.540639
    outer loop
      vertex -33.85 -16.7927 8.91241
      vertex -32.85 -16.2695 9.72653
      vertex -33.85 -16.2695 9.72653
    endloop
  endfacet
  facet normal 0 -0.841255 0.540639
    outer loop
      vertex -32.85 -16.2695 9.72653
      vertex -33.85 -16.7927 8.91241
      vertex -32.85 -16.7927 8.91241
    endloop
  endfacet
  facet normal 0.866013 2.47868e-05 -0.500021
    outer loop
      vertex -33.85 -12.5973 4.30385
      vertex -33.2902 -11.1305 5.27347
      vertex -32.85 -10.6405 6.0359
    endloop
  endfacet
  facet normal 0.865973 8.60348e-05 -0.500091
    outer loop
      vertex -33.2902 -11.1305 5.27347
      vertex -33.85 -12.5973 4.30385
      vertex -33.6561 -11.8618 4.63974
    endloop
  endfacet
  facet normal 0.866025 0 -0.5
    outer loop
      vertex -32.85 -10.6405 6.0359
      vertex -33.85 -14.8027 4.30385
      vertex -33.85 -12.5973 4.30385
    endloop
  endfacet
  facet normal 0.866025 0 -0.5
    outer loop
      vertex -32.85 -16.7595 6.0359
      vertex -33.85 -14.8027 4.30385
      vertex -32.85 -10.6405 6.0359
    endloop
  endfacet
  facet normal 0.865973 -8.60348e-05 -0.500091
    outer loop
      vertex -33.85 -14.8027 4.30385
      vertex -33.2902 -16.2695 5.27347
      vertex -33.6561 -15.5382 4.63974
    endloop
  endfacet
  facet normal 0.866013 -2.47868e-05 -0.500021
    outer loop
      vertex -33.85 -14.8027 4.30385
      vertex -32.85 -16.7595 6.0359
      vertex -33.2902 -16.2695 5.27347
    endloop
  endfacet
  facet normal 0 0 1
    outer loop
      vertex -31.5 -3.8738 15
      vertex -33.85 -6 15
      vertex -31.5 -6 15
    endloop
  endfacet
  facet normal -0 0 1
    outer loop
      vertex -36 -3.8738 15
      vertex -33.85 -6 15
      vertex -31.5 -3.8738 15
    endloop
  endfacet
  facet normal 0 0 1
    outer loop
      vertex -36 -13.5 15
      vertex -33.85 -6 15
      vertex -36 -3.8738 15
    endloop
  endfacet
  facet normal 0 0 1
    outer loop
      vertex -33.85 -6 15
      vertex -36 -13.5 15
      vertex -33.85 -13.5 15
    endloop
  endfacet
  facet normal 0 -1 0
    outer loop
      vertex -33.85 -6 15
      vertex -31.5 -6 2.25
      vertex -31.5 -6 15
    endloop
  endfacet
  facet normal 0 -1 -0
    outer loop
      vertex -31.5 -6 2.25
      vertex -33.85 -6 0
      vertex -16.5 -6 2.25
    endloop
  endfacet
  facet normal 0 -1 0
    outer loop
      vertex -33.85 -6 0
      vertex -31.5 -6 2.25
      vertex -33.85 -6 15
    endloop
  endfacet
  facet normal 0 -1 0
    outer loop
      vertex -16.5 -6 2.25
      vertex -14.15 -6 15
      vertex -16.5 -6 15
    endloop
  endfacet
  facet normal 0 -1 0
    outer loop
      vertex -16.5 -6 2.25
      vertex -14.15 -6 0
      vertex -14.15 -6 15
    endloop
  endfacet
  facet normal 0 -1 0
    outer loop
      vertex -14.15 -6 0
      vertex -16.5 -6 2.25
      vertex -33.85 -6 0
    endloop
  endfacet
  facet normal 0 -0.997857 0.0654399
    outer loop
      vertex -14.15 -20 7.5
      vertex -12 -19.9358 8.47895
      vertex -14.15 -19.9358 8.47895
    endloop
  endfacet
  facet normal 0 -0.997857 0.0654399
    outer loop
      vertex -12 -19.9358 8.47895
      vertex -14.15 -20 7.5
      vertex -12 -20 7.5
    endloop
  endfacet
  facet normal 1 0 0
    outer loop
      vertex -12 -3.8738 15
      vertex -12 -13.5 15
      vertex -12 -4.34999 13
    endloop
  endfacet
  facet normal 1 0 0
    outer loop
      vertex -12 0 15
      vertex -12 -2.1262 15
      vertex -12 -1.65001 13
    endloop
  endfacet
  facet normal 1 -0 0
    outer loop
      vertex -12 18.2089 2.25
      vertex -12 24 0
      vertex -12 24 2.25
    endloop
  endfacet
  facet normal 1 -0 0
    outer loop
      vertex -12 -1.65001 13
      vertex -12 18.2089 2.25
      vertex -12 0 15
    endloop
  endfacet
  facet normal 1 0 0
    outer loop
      vertex -12 -20 0
      vertex -12 -1.65001 13
      vertex -12 -4.34999 13
    endloop
  endfacet
  facet normal 1 0 0
    outer loop
      vertex -12 -20 7.5
      vertex -12 -4.34999 13
      vertex -12 -13.5 15
    endloop
  endfacet
  facet normal 1 0 0
    outer loop
      vertex -12 -17.8033 12.8033
      vertex -12 -13.5 15
      vertex -12 -15.6066 15
    endloop
  endfacet
  facet normal 1 0 0
    outer loop
      vertex -12 -1.65001 13
      vertex -12 -20 0
      vertex -12 18.2089 2.25
    endloop
  endfacet
  facet normal 1 0 0
    outer loop
      vertex -12 -13.5 15
      vertex -12 -17.8033 12.8033
      vertex -12 -20 7.5
    endloop
  endfacet
  facet normal 1 0 0
    outer loop
      vertex -12 -20 7.5
      vertex -12 -17.8033 12.8033
      vertex -12 -18.4501 12.0657
    endloop
  endfacet
  facet normal 1 0 0
    outer loop
      vertex -12 -20 7.5
      vertex -12 -18.4501 12.0657
      vertex -12 -18.9952 11.25
    endloop
  endfacet
  facet normal 1 0 0
    outer loop
      vertex -12 -20 7.5
      vertex -12 -18.9952 11.25
      vertex -12 -19.4291 10.3701
    endloop
  endfacet
  facet normal 1 0 0
    outer loop
      vertex -12 -20 7.5
      vertex -12 -19.4291 10.3701
      vertex -12 -19.7444 9.44114
    endloop
  endfacet
  facet normal 1 0 0
    outer loop
      vertex -12 -20 7.5
      vertex -12 -19.7444 9.44114
      vertex -12 -19.9358 8.47895
    endloop
  endfacet
  facet normal 1 0 0
    outer loop
      vertex -12 -4.34999 13
      vertex -12 -20 7.5
      vertex -12 -20 0
    endloop
  endfacet
  facet normal 1 0 0
    outer loop
      vertex -12 18.2089 2.25
      vertex -12 -20 0
      vertex -12 24 0
    endloop
  endfacet
  facet normal 0 -0.89688 0.442273
    outer loop
      vertex -14.15 -19.4291 10.3701
      vertex -12 -18.9952 11.25
      vertex -14.15 -18.9952 11.25
    endloop
  endfacet
  facet normal 0 -0.89688 0.442273
    outer loop
      vertex -12 -18.9952 11.25
      vertex -14.15 -19.4291 10.3701
      vertex -12 -19.4291 10.3701
    endloop
  endfacet
  facet normal 0 -0.946942 0.321403
    outer loop
      vertex -14.15 -19.7444 9.44114
      vertex -12 -19.4291 10.3701
      vertex -14.15 -19.4291 10.3701
    endloop
  endfacet
  facet normal 0 -0.946942 0.321403
    outer loop
      vertex -12 -19.4291 10.3701
      vertex -14.15 -19.7444 9.44114
      vertex -12 -19.7444 9.44114
    endloop
  endfacet
  facet normal 0 -0.831438 0.555617
    outer loop
      vertex -14.15 -18.9952 11.25
      vertex -12 -18.4501 12.0657
      vertex -14.15 -18.4501 12.0657
    endloop
  endfacet
  facet normal 0 -0.831438 0.555617
    outer loop
      vertex -12 -18.4501 12.0657
      vertex -14.15 -18.9952 11.25
      vertex -12 -18.9952 11.25
    endloop
  endfacet
  facet normal 0 -0.751869 0.659312
    outer loop
      vertex -14.15 -18.4501 12.0657
      vertex -12 -17.8033 12.8033
      vertex -14.15 -17.8033 12.8033
    endloop
  endfacet
  facet normal 0 -0.751869 0.659312
    outer loop
      vertex -12 -17.8033 12.8033
      vertex -14.15 -18.4501 12.0657
      vertex -12 -18.4501 12.0657
    endloop
  endfacet
  facet normal 0 -0.980784 0.195099
    outer loop
      vertex -14.15 -19.9358 8.47895
      vertex -12 -19.7444 9.44114
      vertex -14.15 -19.7444 9.44114
    endloop
  endfacet
  facet normal 0 -0.980784 0.195099
    outer loop
      vertex -12 -19.7444 9.44114
      vertex -14.15 -19.9358 8.47895
      vertex -12 -19.9358 8.47895
    endloop
  endfacet
  facet normal -1 0 0
    outer loop
      vertex -14.15 -6 0
      vertex -14.15 -13.5 15
      vertex -14.15 -6 15
    endloop
  endfacet
  facet normal -1 0 0
    outer loop
      vertex -14.15 -20 7.5
      vertex -14.15 -13.5 15
      vertex -14.15 -6 0
    endloop
  endfacet
  facet normal -1 -0 0
    outer loop
      vertex -14.15 -13.5 15
      vertex -14.15 -17.8033 12.8033
      vertex -14.15 -15.6066 15
    endloop
  endfacet
  facet normal -1 0 0
    outer loop
      vertex -14.15 -13.5 15
      vertex -14.15 -20 7.5
      vertex -14.15 -17.8033 12.8033
    endloop
  endfacet
  facet normal -1 0 0
    outer loop
      vertex -14.15 -17.8033 12.8033
      vertex -14.15 -20 7.5
      vertex -14.15 -18.4501 12.0657
    endloop
  endfacet
  facet normal -1 0 0
    outer loop
      vertex -14.15 -18.4501 12.0657
      vertex -14.15 -20 7.5
      vertex -14.15 -18.9952 11.25
    endloop
  endfacet
  facet normal -1 0 0
    outer loop
      vertex -14.15 -18.9952 11.25
      vertex -14.15 -20 7.5
      vertex -14.15 -19.4291 10.3701
    endloop
  endfacet
  facet normal -1 0 0
    outer loop
      vertex -14.15 -19.4291 10.3701
      vertex -14.15 -20 7.5
      vertex -14.15 -19.7444 9.44114
    endloop
  endfacet
  facet normal -1 0 0
    outer loop
      vertex -14.15 -20 7.5
      vertex -14.15 -6 0
      vertex -14.15 -20 0
    endloop
  endfacet
  facet normal -1 0 0
    outer loop
      vertex -14.15 -19.7444 9.44114
      vertex -14.15 -20 7.5
      vertex -14.15 -19.9358 8.47895
    endloop
  endfacet
  facet normal 0 -1 0
    outer loop
      vertex -14.15 -20 0
      vertex -12 -20 7.5
      vertex -14.15 -20 7.5
    endloop
  endfacet
  facet normal 0 -1 -0
    outer loop
      vertex -12 -20 7.5
      vertex -14.15 -20 0
      vertex -12 -20 0
    endloop
  endfacet
  facet normal 0 -0.707107 0.707107
    outer loop
      vertex -14.15 -17.8033 12.8033
      vertex -12 -15.6066 15
      vertex -14.15 -15.6066 15
    endloop
  endfacet
  facet normal 0 -0.707107 0.707107
    outer loop
      vertex -12 -15.6066 15
      vertex -14.15 -17.8033 12.8033
      vertex -12 -17.8033 12.8033
    endloop
  endfacet
  facet normal -0 0 1
    outer loop
      vertex -14.15 -13.5 15
      vertex -12 -15.6066 15
      vertex -12 -13.5 15
    endloop
  endfacet
  facet normal 0 0 1
    outer loop
      vertex -12 -15.6066 15
      vertex -14.15 -13.5 15
      vertex -14.15 -15.6066 15
    endloop
  endfacet
  facet normal -0 0.142289 0.989825
    outer loop
      vertex -15.15 -12.7421 10.7623
      vertex -14.15 -13.7 10.9
      vertex -14.15 -12.7421 10.7623
    endloop
  endfacet
  facet normal 0 0.142289 0.989825
    outer loop
      vertex -14.15 -13.7 10.9
      vertex -15.15 -12.7421 10.7623
      vertex -15.15 -13.7 10.9
    endloop
  endfacet
  facet normal 0 1 -0
    outer loop
      vertex -14.15 -10.3346 7.01613
      vertex -15.15 -10.3346 7.98387
      vertex -14.15 -10.3346 7.98387
    endloop
  endfacet
  facet normal 0 1 0
    outer loop
      vertex -15.15 -10.3346 7.98387
      vertex -14.15 -10.3346 7.01613
      vertex -15.15 -10.3346 7.01613
    endloop
  endfacet
  facet normal 0 -1 0
    outer loop
      vertex -15.15 -17.0654 7.01613
      vertex -14.15 -17.0654 7.98387
      vertex -15.15 -17.0654 7.98387
    endloop
  endfacet
  facet normal 0 -1 -0
    outer loop
      vertex -14.15 -17.0654 7.98387
      vertex -15.15 -17.0654 7.01613
      vertex -14.15 -17.0654 7.01613
    endloop
  endfacet
  facet normal 0 -0.959477 -0.281786
    outer loop
      vertex -15.15 -16.7927 6.08759
      vertex -14.15 -17.0654 7.01613
      vertex -15.15 -17.0654 7.01613
    endloop
  endfacet
  facet normal 0 -0.959477 -0.281786
    outer loop
      vertex -14.15 -17.0654 7.01613
      vertex -15.15 -16.7927 6.08759
      vertex -14.15 -16.7927 6.08759
    endloop
  endfacet
  facet normal 0 0.841395 -0.54042
    outer loop
      vertex -14.15 -10.6073 6.08759
      vertex -15.15 -10.6405 6.0359
      vertex -15.15 -10.6073 6.08759
    endloop
  endfacet
  facet normal 0 0.841255 -0.540639
    outer loop
      vertex -14.7098 -11.1305 5.27347
      vertex -14.15 -10.6073 6.08759
      vertex -14.15 -11.1305 5.27347
    endloop
  endfacet
  facet normal 1.65253e-05 0.84125 -0.540647
    outer loop
      vertex -14.15 -10.6073 6.08759
      vertex -14.7098 -11.1305 5.27347
      vertex -15.15 -10.6405 6.0359
    endloop
  endfacet
  facet normal 0 0.415413 -0.909633
    outer loop
      vertex -14.15 -11.8618 4.63974
      vertex -14.15 -12.5973 4.30385
      vertex -14.3439 -11.8618 4.63974
    endloop
  endfacet
  facet normal 0 0.959477 -0.281786
    outer loop
      vertex -14.15 -10.6073 6.08759
      vertex -15.15 -10.3346 7.01613
      vertex -14.15 -10.3346 7.01613
    endloop
  endfacet
  facet normal 0 0.959477 -0.281786
    outer loop
      vertex -15.15 -10.3346 7.01613
      vertex -14.15 -10.6073 6.08759
      vertex -15.15 -10.6073 6.08759
    endloop
  endfacet
  facet normal -0 0.654917 0.755701
    outer loop
      vertex -15.15 -11.1305 9.72653
      vertex -14.15 -11.8618 10.3603
      vertex -14.15 -11.1305 9.72653
    endloop
  endfacet
  facet normal 0 0.654917 0.755701
    outer loop
      vertex -14.15 -11.8618 10.3603
      vertex -15.15 -11.1305 9.72653
      vertex -15.15 -11.8618 10.3603
    endloop
  endfacet
  facet normal -0 0.415398 0.90964
    outer loop
      vertex -15.15 -11.8618 10.3603
      vertex -14.15 -12.7421 10.7623
      vertex -14.15 -11.8618 10.3603
    endloop
  endfacet
  facet normal 0 0.415398 0.90964
    outer loop
      vertex -14.15 -12.7421 10.7623
      vertex -15.15 -11.8618 10.3603
      vertex -15.15 -12.7421 10.7623
    endloop
  endfacet
  facet normal -1 0 0
    outer loop
      vertex -15.15 -10.6405 6.0359
      vertex -15.15 -10.3346 7.01613
      vertex -15.15 -10.6073 6.08759
    endloop
  endfacet
  facet normal -1 -0 0
    outer loop
      vertex -15.15 -10.3346 7.01613
      vertex -15.15 -10.6405 6.0359
      vertex -15.15 -10.3346 7.98387
    endloop
  endfacet
  facet normal -1 -0 0
    outer loop
      vertex -15.15 -10.3346 7.98387
      vertex -15.15 -10.6405 6.0359
      vertex -15.15 -10.6073 8.91241
    endloop
  endfacet
  facet normal -1 0 0
    outer loop
      vertex -15.15 -10.6405 6.0359
      vertex -15.15 -11.1305 9.72653
      vertex -15.15 -10.6073 8.91241
    endloop
  endfacet
  facet normal -1 0 0
    outer loop
      vertex -15.15 -10.6405 6.0359
      vertex -15.15 -11.8618 10.3603
      vertex -15.15 -11.1305 9.72653
    endloop
  endfacet
  facet normal -1 0 0
    outer loop
      vertex -15.15 -10.6405 6.0359
      vertex -15.15 -12.7421 10.7623
      vertex -15.15 -11.8618 10.3603
    endloop
  endfacet
  facet normal -1 0 0
    outer loop
      vertex -15.15 -10.6405 6.0359
      vertex -15.15 -13.7 10.9
      vertex -15.15 -12.7421 10.7623
    endloop
  endfacet
  facet normal -1 0 0
    outer loop
      vertex -15.15 -10.6405 6.0359
      vertex -15.15 -14.6579 10.7623
      vertex -15.15 -13.7 10.9
    endloop
  endfacet
  facet normal -1 0 0
    outer loop
      vertex -15.15 -10.6405 6.0359
      vertex -15.15 -15.5382 10.3603
      vertex -15.15 -14.6579 10.7623
    endloop
  endfacet
  facet normal -1 0 0
    outer loop
      vertex -15.15 -10.6405 6.0359
      vertex -15.15 -16.2695 9.72653
      vertex -15.15 -15.5382 10.3603
    endloop
  endfacet
  facet normal -1 0 0
    outer loop
      vertex -15.15 -16.7595 6.0359
      vertex -15.15 -16.2695 9.72653
      vertex -15.15 -10.6405 6.0359
    endloop
  endfacet
  facet normal -1 0 0
    outer loop
      vertex -15.15 -17.0654 7.01613
      vertex -15.15 -16.7595 6.0359
      vertex -15.15 -16.7927 6.08759
    endloop
  endfacet
  facet normal -1 0 0
    outer loop
      vertex -15.15 -16.7595 6.0359
      vertex -15.15 -16.7927 8.91241
      vertex -15.15 -16.2695 9.72653
    endloop
  endfacet
  facet normal -1 0 0
    outer loop
      vertex -15.15 -16.7595 6.0359
      vertex -15.15 -17.0654 7.01613
      vertex -15.15 -16.7927 8.91241
    endloop
  endfacet
  facet normal -1 0 0
    outer loop
      vertex -15.15 -16.7927 8.91241
      vertex -15.15 -17.0654 7.01613
      vertex -15.15 -17.0654 7.98387
    endloop
  endfacet
  facet normal 0 0.959477 0.281786
    outer loop
      vertex -14.15 -10.3346 7.98387
      vertex -15.15 -10.6073 8.91241
      vertex -14.15 -10.6073 8.91241
    endloop
  endfacet
  facet normal 0 0.959477 0.281786
    outer loop
      vertex -15.15 -10.6073 8.91241
      vertex -14.15 -10.3346 7.98387
      vertex -15.15 -10.3346 7.98387
    endloop
  endfacet
  facet normal 0 -0.654917 0.755701
    outer loop
      vertex -15.15 -15.5382 10.3603
      vertex -14.15 -16.2695 9.72653
      vertex -14.15 -15.5382 10.3603
    endloop
  endfacet
  facet normal 0 -0.654917 0.755701
    outer loop
      vertex -14.15 -16.2695 9.72653
      vertex -15.15 -15.5382 10.3603
      vertex -15.15 -16.2695 9.72653
    endloop
  endfacet
  facet normal 0 0.654893 -0.755721
    outer loop
      vertex -14.3439 -11.8618 4.63974
      vertex -14.15 -11.1305 5.27347
      vertex -14.15 -11.8618 4.63974
    endloop
  endfacet
  facet normal 0 0.654893 -0.755721
    outer loop
      vertex -14.15 -11.1305 5.27347
      vertex -14.3439 -11.8618 4.63974
      vertex -14.7098 -11.1305 5.27347
    endloop
  endfacet
  facet normal 0 0.841255 0.540639
    outer loop
      vertex -14.15 -10.6073 8.91241
      vertex -15.15 -11.1305 9.72653
      vertex -14.15 -11.1305 9.72653
    endloop
  endfacet
  facet normal 0 0.841255 0.540639
    outer loop
      vertex -15.15 -11.1305 9.72653
      vertex -14.15 -10.6073 8.91241
      vertex -15.15 -10.6073 8.91241
    endloop
  endfacet
  facet normal 0 -0.142289 0.989825
    outer loop
      vertex -15.15 -13.7 10.9
      vertex -14.15 -14.6579 10.7623
      vertex -14.15 -13.7 10.9
    endloop
  endfacet
  facet normal 0 -0.142289 0.989825
    outer loop
      vertex -14.15 -14.6579 10.7623
      vertex -15.15 -13.7 10.9
      vertex -15.15 -14.6579 10.7623
    endloop
  endfacet
  facet normal 0 -0.415413 -0.909633
    outer loop
      vertex -14.15 -14.8027 4.30385
      vertex -14.15 -15.5382 4.63974
      vertex -14.3439 -15.5382 4.63974
    endloop
  endfacet
  facet normal 1 0 0
    outer loop
      vertex -14.15 -10.6073 8.91241
      vertex -14.15 -10.3346 7.01613
      vertex -14.15 -10.3346 7.98387
    endloop
  endfacet
  facet normal 1 0 0
    outer loop
      vertex -14.15 -10.6073 8.91241
      vertex -14.15 -10.6073 6.08759
      vertex -14.15 -10.3346 7.01613
    endloop
  endfacet
  facet normal 1 0 0
    outer loop
      vertex -14.15 -11.1305 9.72653
      vertex -14.15 -10.6073 6.08759
      vertex -14.15 -10.6073 8.91241
    endloop
  endfacet
  facet normal 1 0 0
    outer loop
      vertex -14.15 -11.1305 9.72653
      vertex -14.15 -11.1305 5.27347
      vertex -14.15 -10.6073 6.08759
    endloop
  endfacet
  facet normal 1 0 0
    outer loop
      vertex -14.15 -11.8618 10.3603
      vertex -14.15 -11.1305 5.27347
      vertex -14.15 -11.1305 9.72653
    endloop
  endfacet
  facet normal 1 0 0
    outer loop
      vertex -14.15 -12.5973 4.30385
      vertex -14.15 -11.1305 5.27347
      vertex -14.15 -11.8618 10.3603
    endloop
  endfacet
  facet normal 1 0 0
    outer loop
      vertex -14.15 -11.1305 5.27347
      vertex -14.15 -12.5973 4.30385
      vertex -14.15 -11.8618 4.63974
    endloop
  endfacet
  facet normal 1 0 0
    outer loop
      vertex -14.15 -12.7421 10.7623
      vertex -14.15 -12.5973 4.30385
      vertex -14.15 -11.8618 10.3603
    endloop
  endfacet
  facet normal 1 0 0
    outer loop
      vertex -14.15 -13.7 10.9
      vertex -14.15 -12.5973 4.30385
      vertex -14.15 -12.7421 10.7623
    endloop
  endfacet
  facet normal 1 -0 0
    outer loop
      vertex -14.15 -14.6579 10.7623
      vertex -14.15 -12.5973 4.30385
      vertex -14.15 -13.7 10.9
    endloop
  endfacet
  facet normal 1 0 0
    outer loop
      vertex -14.15 -14.6579 10.7623
      vertex -14.15 -14.8027 4.30385
      vertex -14.15 -12.5973 4.30385
    endloop
  endfacet
  facet normal 1 -0 0
    outer loop
      vertex -14.15 -15.5382 10.3603
      vertex -14.15 -14.8027 4.30385
      vertex -14.15 -14.6579 10.7623
    endloop
  endfacet
  facet normal 1 -0 0
    outer loop
      vertex -14.15 -16.2695 9.72653
      vertex -14.15 -14.8027 4.30385
      vertex -14.15 -15.5382 10.3603
    endloop
  endfacet
  facet normal 1 -0 0
    outer loop
      vertex -14.15 -16.2695 5.27347
      vertex -14.15 -14.8027 4.30385
      vertex -14.15 -16.2695 9.72653
    endloop
  endfacet
  facet normal 1 0 0
    outer loop
      vertex -14.15 -14.8027 4.30385
      vertex -14.15 -16.2695 5.27347
      vertex -14.15 -15.5382 4.63974
    endloop
  endfacet
  facet normal 1 -0 0
    outer loop
      vertex -14.15 -16.7927 8.91241
      vertex -14.15 -16.2695 5.27347
      vertex -14.15 -16.2695 9.72653
    endloop
  endfacet
  facet normal 1 0 0
    outer loop
      vertex -14.15 -16.7927 8.91241
      vertex -14.15 -16.7927 6.08759
      vertex -14.15 -16.2695 5.27347
    endloop
  endfacet
  facet normal 1 -0 0
    outer loop
      vertex -14.15 -17.0654 7.98387
      vertex -14.15 -16.7927 6.08759
      vertex -14.15 -16.7927 8.91241
    endloop
  endfacet
  facet normal 1 0 0
    outer loop
      vertex -14.15 -16.7927 6.08759
      vertex -14.15 -17.0654 7.98387
      vertex -14.15 -17.0654 7.01613
    endloop
  endfacet
  facet normal 0 -0.841395 -0.54042
    outer loop
      vertex -15.15 -16.7595 6.0359
      vertex -14.15 -16.7927 6.08759
      vertex -15.15 -16.7927 6.08759
    endloop
  endfacet
  facet normal 1.65253e-05 -0.84125 -0.540647
    outer loop
      vertex -14.7098 -16.2695 5.27347
      vertex -14.15 -16.7927 6.08759
      vertex -15.15 -16.7595 6.0359
    endloop
  endfacet
  facet normal 0 -0.841255 -0.540639
    outer loop
      vertex -14.15 -16.7927 6.08759
      vertex -14.7098 -16.2695 5.27347
      vertex -14.15 -16.2695 5.27347
    endloop
  endfacet
  facet normal 0 -0.959477 0.281786
    outer loop
      vertex -15.15 -17.0654 7.98387
      vertex -14.15 -16.7927 8.91241
      vertex -15.15 -16.7927 8.91241
    endloop
  endfacet
  facet normal 0 -0.959477 0.281786
    outer loop
      vertex -14.15 -16.7927 8.91241
      vertex -15.15 -17.0654 7.98387
      vertex -14.15 -17.0654 7.98387
    endloop
  endfacet
  facet normal 0 -0.415398 0.90964
    outer loop
      vertex -15.15 -14.6579 10.7623
      vertex -14.15 -15.5382 10.3603
      vertex -14.15 -14.6579 10.7623
    endloop
  endfacet
  facet normal 0 -0.415398 0.90964
    outer loop
      vertex -14.15 -15.5382 10.3603
      vertex -15.15 -14.6579 10.7623
      vertex -15.15 -15.5382 10.3603
    endloop
  endfacet
  facet normal 0 -0.654893 -0.755721
    outer loop
      vertex -14.15 -16.2695 5.27347
      vertex -14.3439 -15.5382 4.63974
      vertex -14.15 -15.5382 4.63974
    endloop
  endfacet
  facet normal 0 -0.654893 -0.755721
    outer loop
      vertex -14.3439 -15.5382 4.63974
      vertex -14.15 -16.2695 5.27347
      vertex -14.7098 -16.2695 5.27347
    endloop
  endfacet
  facet normal 0 -0.841255 0.540639
    outer loop
      vertex -15.15 -16.7927 8.91241
      vertex -14.15 -16.2695 9.72653
      vertex -15.15 -16.2695 9.72653
    endloop
  endfacet
  facet normal 0 -0.841255 0.540639
    outer loop
      vertex -14.15 -16.2695 9.72653
      vertex -15.15 -16.7927 8.91241
      vertex -14.15 -16.7927 8.91241
    endloop
  endfacet
  facet normal -0.865973 8.60348e-05 -0.500091
    outer loop
      vertex -14.15 -12.5973 4.30385
      vertex -14.7098 -11.1305 5.27347
      vertex -14.3439 -11.8618 4.63974
    endloop
  endfacet
  facet normal -0.866013 2.47868e-05 -0.500021
    outer loop
      vertex -14.7098 -11.1305 5.27347
      vertex -14.15 -12.5973 4.30385
      vertex -15.15 -10.6405 6.0359
    endloop
  endfacet
  facet normal -0.866025 0 -0.5
    outer loop
      vertex -14.15 -14.8027 4.30385
      vertex -15.15 -10.6405 6.0359
      vertex -14.15 -12.5973 4.30385
    endloop
  endfacet
  facet normal -0.865973 -8.60348e-05 -0.500091
    outer loop
      vertex -14.7098 -16.2695 5.27347
      vertex -14.15 -14.8027 4.30385
      vertex -14.3439 -15.5382 4.63974
    endloop
  endfacet
  facet normal -0.866013 -2.47868e-05 -0.500021
    outer loop
      vertex -15.15 -16.7595 6.0359
      vertex -14.15 -14.8027 4.30385
      vertex -14.7098 -16.2695 5.27347
    endloop
  endfacet
  facet normal -0.866025 0 -0.5
    outer loop
      vertex -14.15 -14.8027 4.30385
      vertex -15.15 -16.7595 6.0359
      vertex -15.15 -10.6405 6.0359
    endloop
  endfacet
  facet normal 0 0 1
    outer loop
      vertex -12 -3.8738 15
      vertex -14.15 -6 15
      vertex -12 -13.5 15
    endloop
  endfacet
  facet normal -0 0 1
    outer loop
      vertex -16.5 -3.8738 15
      vertex -14.15 -6 15
      vertex -12 -3.8738 15
    endloop
  endfacet
  facet normal 0 0 1
    outer loop
      vertex -14.15 -6 15
      vertex -16.5 -3.8738 15
      vertex -16.5 -6 15
    endloop
  endfacet
  facet normal 0 0 1
    outer loop
      vertex -12 -13.5 15
      vertex -14.15 -6 15
      vertex -14.15 -13.5 15
    endloop
  endfacet
  facet normal -0 0 1
    outer loop
      vertex -36 0 15
      vertex -31.5 -2.1262 15
      vertex -31.5 0 15
    endloop
  endfacet
  facet normal 0 0 1
    outer loop
      vertex -31.5 -2.1262 15
      vertex -36 0 15
      vertex -36 -2.1262 15
    endloop
  endfacet
  facet normal 1 0 0
    outer loop
      vertex -31.5 -3.8738 15
      vertex -31.5 -6 15
      vertex -31.5 -4.34999 13
    endloop
  endfacet
  facet normal 1 0 0
    outer loop
      vertex -31.5 0 15
      vertex -31.5 -1.65001 13
      vertex -31.5 0 2.25
    endloop
  endfacet
  facet normal 1 0 -0
    outer loop
      vertex -31.5 -1.65001 13
      vertex -31.5 0 15
      vertex -31.5 -2.1262 15
    endloop
  endfacet
  facet normal 1 -0 0
    outer loop
      vertex -31.5 -4.34999 13
      vertex -31.5 0 2.25
      vertex -31.5 -1.65001 13
    endloop
  endfacet
  facet normal 1 0 0
    outer loop
      vertex -31.5 -6 2.25
      vertex -31.5 -4.34999 13
      vertex -31.5 -6 15
    endloop
  endfacet
  facet normal 1 0 0
    outer loop
      vertex -31.5 -4.34999 13
      vertex -31.5 -6 2.25
      vertex -31.5 0 2.25
    endloop
  endfacet
  facet normal -0 0 1
    outer loop
      vertex -16.5 0 15
      vertex -12 -2.1262 15
      vertex -12 0 15
    endloop
  endfacet
  facet normal 0 0 1
    outer loop
      vertex -12 -2.1262 15
      vertex -16.5 0 15
      vertex -16.5 -2.1262 15
    endloop
  endfacet
  facet normal -1 0 0
    outer loop
      vertex -16.5 0 2.25
      vertex -16.5 -1.65001 13
      vertex -16.5 0 15
    endloop
  endfacet
  facet normal -1 0 0
    outer loop
      vertex -16.5 0 2.25
      vertex -16.5 -4.34999 13
      vertex -16.5 -1.65001 13
    endloop
  endfacet
  facet normal -1 0 -0
    outer loop
      vertex -16.5 -4.34999 13
      vertex -16.5 0 2.25
      vertex -16.5 -6 2.25
    endloop
  endfacet
  facet normal -1 -0 0
    outer loop
      vertex -16.5 0 15
      vertex -16.5 -1.65001 13
      vertex -16.5 -2.1262 15
    endloop
  endfacet
  facet normal -1 0 0
    outer loop
      vertex -16.5 -4.34999 13
      vertex -16.5 -6 15
      vertex -16.5 -3.8738 15
    endloop
  endfacet
  facet normal -1 0 0
    outer loop
      vertex -16.5 -6 15
      vertex -16.5 -4.34999 13
      vertex -16.5 -6 2.25
    endloop
  endfacet
  facet normal 0 0 1
    outer loop
      vertex -22.633 6.87854 2.25
      vertex -13.0858 18.2089 2.25
      vertex -22.633 17.1215 2.25
    endloop
  endfacet
  facet normal 0 0 1
    outer loop
      vertex -13.0858 18.2089 2.25
      vertex -22.633 6.87854 2.25
      vertex -22.375 6 2.25
    endloop
  endfacet
  facet normal -0 0 1
    outer loop
      vertex -23.325 16.5218 2.25
      vertex -22.633 6.87854 2.25
      vertex -22.633 17.1215 2.25
    endloop
  endfacet
  facet normal 0 0 1
    outer loop
      vertex -23.325 16.5218 2.25
      vertex -23.325 7.47815 2.25
      vertex -22.633 6.87854 2.25
    endloop
  endfacet
  facet normal -0 0 1
    outer loop
      vertex -24.2313 16.3915 2.25
      vertex -23.325 7.47815 2.25
      vertex -23.325 16.5218 2.25
    endloop
  endfacet
  facet normal 0 0 1
    outer loop
      vertex -24.2313 16.3915 2.25
      vertex -24.2313 7.60846 2.25
      vertex -23.325 7.47815 2.25
    endloop
  endfacet
  facet normal 0 0 1
    outer loop
      vertex -25.0641 16.7719 2.25
      vertex -24.2313 7.60846 2.25
      vertex -24.2313 16.3915 2.25
    endloop
  endfacet
  facet normal 0 0 1
    outer loop
      vertex -25.0641 16.7719 2.25
      vertex -25.0641 7.22809 2.25
      vertex -24.2313 7.60846 2.25
    endloop
  endfacet
  facet normal 0 0 1
    outer loop
      vertex -34.9142 18.2089 2.25
      vertex -25.0641 16.7719 2.25
      vertex -25.5592 17.5422 2.25
    endloop
  endfacet
  facet normal 0 0 1
    outer loop
      vertex -25.0641 16.7719 2.25
      vertex -34.9142 18.2089 2.25
      vertex -25.0641 7.22809 2.25
    endloop
  endfacet
  facet normal 0 0 1
    outer loop
      vertex -12 24 2.25
      vertex -13.0858 18.2089 2.25
      vertex -12 18.2089 2.25
    endloop
  endfacet
  facet normal -0 0 1
    outer loop
      vertex -22.633 18.8785 2.25
      vertex -13.0858 18.2089 2.25
      vertex -12 24 2.25
    endloop
  endfacet
  facet normal 0 0 1
    outer loop
      vertex -13.0858 18.2089 2.25
      vertex -22.375 6 2.25
      vertex -16.5 0 2.25
    endloop
  endfacet
  facet normal 0 0 1
    outer loop
      vertex -22.633 17.1215 2.25
      vertex -13.0858 18.2089 2.25
      vertex -22.375 18 2.25
    endloop
  endfacet
  facet normal 0 0 1
    outer loop
      vertex -13.0858 18.2089 2.25
      vertex -22.633 18.8785 2.25
      vertex -22.375 18 2.25
    endloop
  endfacet
  facet normal 0 0 1
    outer loop
      vertex -12 24 2.25
      vertex -23.325 19.4782 2.25
      vertex -22.633 18.8785 2.25
    endloop
  endfacet
  facet normal 0 0 1
    outer loop
      vertex -12 24 2.25
      vertex -24.2313 19.6085 2.25
      vertex -23.325 19.4782 2.25
    endloop
  endfacet
  facet normal -0 0 1
    outer loop
      vertex -34.9142 18.2089 2.25
      vertex -25.5592 17.5422 2.25
      vertex -25.5592 18.4578 2.25
    endloop
  endfacet
  facet normal 0 0 1
    outer loop
      vertex -25.0641 7.22809 2.25
      vertex -34.9142 18.2089 2.25
      vertex -25.5592 6.45782 2.25
    endloop
  endfacet
  facet normal 0 -0 1
    outer loop
      vertex -31.5 0 2.25
      vertex -25.5592 6.45782 2.25
      vertex -34.9142 18.2089 2.25
    endloop
  endfacet
  facet normal 0 0 1
    outer loop
      vertex -25.5592 6.45782 2.25
      vertex -31.5 0 2.25
      vertex -25.5592 5.54218 2.25
    endloop
  endfacet
  facet normal 0 0 1
    outer loop
      vertex -25.0641 19.2281 2.25
      vertex -34.9142 18.2089 2.25
      vertex -25.5592 18.4578 2.25
    endloop
  endfacet
  facet normal 0 0 1
    outer loop
      vertex -36 24 2.25
      vertex -25.0641 19.2281 2.25
      vertex -24.2313 19.6085 2.25
    endloop
  endfacet
  facet normal -0 0 1
    outer loop
      vertex -36 24 2.25
      vertex -24.2313 19.6085 2.25
      vertex -12 24 2.25
    endloop
  endfacet
  facet normal 0 0 1
    outer loop
      vertex -25.0641 19.2281 2.25
      vertex -36 24 2.25
      vertex -34.9142 18.2089 2.25
    endloop
  endfacet
  facet normal 0 0 1
    outer loop
      vertex -34.9142 18.2089 2.25
      vertex -36 24 2.25
      vertex -36 18.2089 2.25
    endloop
  endfacet
  facet normal -0 0 1
    outer loop
      vertex -22.633 5.12146 2.25
      vertex -16.5 0 2.25
      vertex -22.375 6 2.25
    endloop
  endfacet
  facet normal -0 0 1
    outer loop
      vertex -23.325 4.52185 2.25
      vertex -16.5 0 2.25
      vertex -22.633 5.12146 2.25
    endloop
  endfacet
  facet normal -0 0 1
    outer loop
      vertex -24.2313 4.39154 2.25
      vertex -16.5 0 2.25
      vertex -23.325 4.52185 2.25
    endloop
  endfacet
  facet normal 0 0 1
    outer loop
      vertex -16.5 0 2.25
      vertex -24.2313 4.39154 2.25
      vertex -16.5 -6 2.25
    endloop
  endfacet
  facet normal 0 0 1
    outer loop
      vertex -31.5 0 2.25
      vertex -24.2313 4.39154 2.25
      vertex -25.0641 4.77191 2.25
    endloop
  endfacet
  facet normal 0 0 1
    outer loop
      vertex -31.5 0 2.25
      vertex -25.0641 4.77191 2.25
      vertex -25.5592 5.54218 2.25
    endloop
  endfacet
  facet normal 0 0 1
    outer loop
      vertex -24.2313 4.39154 2.25
      vertex -31.5 0 2.25
      vertex -31.5 -6 2.25
    endloop
  endfacet
  facet normal 0 0 1
    outer loop
      vertex -24.2313 4.39154 2.25
      vertex -31.5 -6 2.25
      vertex -16.5 -6 2.25
    endloop
  endfacet
  facet normal -0 0 1
    outer loop
      vertex -36 -1.65001 13
      vertex -31.5 -4.34999 13
      vertex -31.5 -1.65001 13
    endloop
  endfacet
  facet normal 0 0 1
    outer loop
      vertex -31.5 -4.34999 13
      vertex -36 -1.65001 13
      vertex -36 -4.34999 13
    endloop
  endfacet
  facet normal -0 0 1
    outer loop
      vertex -16.5 -1.65001 13
      vertex -12 -4.34999 13
      vertex -12 -1.65001 13
    endloop
  endfacet
  facet normal 0 0 1
    outer loop
      vertex -12 -4.34999 13
      vertex -16.5 -1.65001 13
      vertex -16.5 -4.34999 13
    endloop
  endfacet
  facet normal 0 0.972806 -0.23162
    outer loop
      vertex -31.5 -4.34999 13
      vertex -36 -3.8738 15
      vertex -31.5 -3.8738 15
    endloop
  endfacet
  facet normal 0 0.972806 -0.23162
    outer loop
      vertex -36 -3.8738 15
      vertex -31.5 -4.34999 13
      vertex -36 -4.34999 13
    endloop
  endfacet
  facet normal 0 0.972806 -0.23162
    outer loop
      vertex -12 -4.34999 13
      vertex -16.5 -3.8738 15
      vertex -12 -3.8738 15
    endloop
  endfacet
  facet normal 0 0.972806 -0.23162
    outer loop
      vertex -16.5 -3.8738 15
      vertex -12 -4.34999 13
      vertex -16.5 -4.34999 13
    endloop
  endfacet
  facet normal 0 -0.972806 -0.23162
    outer loop
      vertex -36 -1.65001 13
      vertex -31.5 -2.1262 15
      vertex -36 -2.1262 15
    endloop
  endfacet
  facet normal 0 -0.972806 -0.23162
    outer loop
      vertex -31.5 -2.1262 15
      vertex -36 -1.65001 13
      vertex -31.5 -1.65001 13
    endloop
  endfacet
  facet normal 0 -0.972806 -0.23162
    outer loop
      vertex -16.5 -1.65001 13
      vertex -12 -2.1262 15
      vertex -16.5 -2.1262 15
    endloop
  endfacet
  facet normal 0 -0.972806 -0.23162
    outer loop
      vertex -12 -2.1262 15
      vertex -16.5 -1.65001 13
      vertex -12 -1.65001 13
    endloop
  endfacet
  facet normal 0 1 -0
    outer loop
      vertex -12 24 0
      vertex -36 24 2.25
      vertex -12 24 2.25
    endloop
  endfacet
  facet normal 0 1 0
    outer loop
      vertex -36 24 2.25
      vertex -12 24 0
      vertex -36 24 0
    endloop
  endfacet
  facet normal -0.959482 -0.28177 0
    outer loop
      vertex -22.375 6 0
      vertex -22.633 6.87854 2.25
      vertex -22.633 6.87854 0
    endloop
  endfacet
  facet normal -0.959482 -0.28177 0
    outer loop
      vertex -22.633 6.87854 2.25
      vertex -22.375 6 0
      vertex -22.375 6 2.25
    endloop
  endfacet
  facet normal 1 -0 0
    outer loop
      vertex -25.5592 5.54218 2.25
      vertex -25.5592 6.45782 0
      vertex -25.5592 6.45782 2.25
    endloop
  endfacet
  facet normal 1 0 0
    outer loop
      vertex -25.5592 6.45782 0
      vertex -25.5592 5.54218 2.25
      vertex -25.5592 5.54218 0
    endloop
  endfacet
  facet normal -0.142319 0.989821 0
    outer loop
      vertex -23.325 4.52185 0
      vertex -24.2313 4.39154 2.25
      vertex -23.325 4.52185 2.25
    endloop
  endfacet
  facet normal -0.142319 0.989821 0
    outer loop
      vertex -24.2313 4.39154 2.25
      vertex -23.325 4.52185 0
      vertex -24.2313 4.39154 0
    endloop
  endfacet
  facet normal -0.142319 -0.989821 0
    outer loop
      vertex -24.2313 7.60846 0
      vertex -23.325 7.47815 2.25
      vertex -24.2313 7.60846 2.25
    endloop
  endfacet
  facet normal -0.142319 -0.989821 -0
    outer loop
      vertex -23.325 7.47815 2.25
      vertex -24.2313 7.60846 0
      vertex -23.325 7.47815 0
    endloop
  endfacet
  facet normal -0.654854 -0.755756 0
    outer loop
      vertex -23.325 7.47815 0
      vertex -22.633 6.87854 2.25
      vertex -23.325 7.47815 2.25
    endloop
  endfacet
  facet normal -0.654854 -0.755756 -0
    outer loop
      vertex -22.633 6.87854 2.25
      vertex -23.325 7.47815 0
      vertex -22.633 6.87854 0
    endloop
  endfacet
  facet normal 0.841215 -0.540701 0
    outer loop
      vertex -25.5592 6.45782 2.25
      vertex -25.0641 7.22809 0
      vertex -25.0641 7.22809 2.25
    endloop
  endfacet
  facet normal 0.841215 -0.540701 0
    outer loop
      vertex -25.0641 7.22809 0
      vertex -25.5592 6.45782 2.25
      vertex -25.5592 6.45782 0
    endloop
  endfacet
  facet normal 0.415454 -0.909614 0
    outer loop
      vertex -25.0641 7.22809 0
      vertex -24.2313 7.60846 2.25
      vertex -25.0641 7.22809 2.25
    endloop
  endfacet
  facet normal 0.415454 -0.909614 0
    outer loop
      vertex -24.2313 7.60846 2.25
      vertex -25.0641 7.22809 0
      vertex -24.2313 7.60846 0
    endloop
  endfacet
  facet normal -0.959482 0.28177 0
    outer loop
      vertex -22.633 5.12146 0
      vertex -22.375 6 2.25
      vertex -22.375 6 0
    endloop
  endfacet
  facet normal -0.959482 0.28177 0
    outer loop
      vertex -22.375 6 2.25
      vertex -22.633 5.12146 0
      vertex -22.633 5.12146 2.25
    endloop
  endfacet
  facet normal -0.654854 0.755756 0
    outer loop
      vertex -22.633 5.12146 0
      vertex -23.325 4.52185 2.25
      vertex -22.633 5.12146 2.25
    endloop
  endfacet
  facet normal -0.654854 0.755756 0
    outer loop
      vertex -23.325 4.52185 2.25
      vertex -22.633 5.12146 0
      vertex -23.325 4.52185 0
    endloop
  endfacet
  facet normal 0.415454 0.909614 -0
    outer loop
      vertex -24.2313 4.39154 0
      vertex -25.0641 4.77191 2.25
      vertex -24.2313 4.39154 2.25
    endloop
  endfacet
  facet normal 0.415454 0.909614 0
    outer loop
      vertex -25.0641 4.77191 2.25
      vertex -24.2313 4.39154 0
      vertex -25.0641 4.77191 0
    endloop
  endfacet
  facet normal 0.841215 0.540701 0
    outer loop
      vertex -25.0641 4.77191 2.25
      vertex -25.5592 5.54218 0
      vertex -25.5592 5.54218 2.25
    endloop
  endfacet
  facet normal 0.841215 0.540701 0
    outer loop
      vertex -25.5592 5.54218 0
      vertex -25.0641 4.77191 2.25
      vertex -25.0641 4.77191 0
    endloop
  endfacet
  facet normal -0.959478 -0.281782 0
    outer loop
      vertex -22.375 18 0
      vertex -22.633 18.8785 2.25
      vertex -22.633 18.8785 0
    endloop
  endfacet
  facet normal -0.959478 -0.281782 0
    outer loop
      vertex -22.633 18.8785 2.25
      vertex -22.375 18 0
      vertex -22.375 18 2.25
    endloop
  endfacet
  facet normal 1 -0 0
    outer loop
      vertex -25.5592 17.5422 2.25
      vertex -25.5592 18.4578 0
      vertex -25.5592 18.4578 2.25
    endloop
  endfacet
  facet normal 1 0 0
    outer loop
      vertex -25.5592 18.4578 0
      vertex -25.5592 17.5422 2.25
      vertex -25.5592 17.5422 0
    endloop
  endfacet
  facet normal -0.142308 0.989822 0
    outer loop
      vertex -23.325 16.5218 0
      vertex -24.2313 16.3915 2.25
      vertex -23.325 16.5218 2.25
    endloop
  endfacet
  facet normal -0.142308 0.989822 0
    outer loop
      vertex -24.2313 16.3915 2.25
      vertex -23.325 16.5218 0
      vertex -24.2313 16.3915 0
    endloop
  endfacet
  facet normal -0.142308 -0.989822 0
    outer loop
      vertex -24.2313 19.6085 0
      vertex -23.325 19.4782 2.25
      vertex -24.2313 19.6085 2.25
    endloop
  endfacet
  facet normal -0.142308 -0.989822 -0
    outer loop
      vertex -23.325 19.4782 2.25
      vertex -24.2313 19.6085 0
      vertex -23.325 19.4782 0
    endloop
  endfacet
  facet normal -0.65491 -0.755707 0
    outer loop
      vertex -23.325 19.4782 0
      vertex -22.633 18.8785 2.25
      vertex -23.325 19.4782 2.25
    endloop
  endfacet
  facet normal -0.65491 -0.755707 -0
    outer loop
      vertex -22.633 18.8785 2.25
      vertex -23.325 19.4782 0
      vertex -22.633 18.8785 0
    endloop
  endfacet
  facet normal 0.841225 -0.540686 0
    outer loop
      vertex -25.5592 18.4578 2.25
      vertex -25.0641 19.2281 0
      vertex -25.0641 19.2281 2.25
    endloop
  endfacet
  facet normal 0.841225 -0.540686 0
    outer loop
      vertex -25.0641 19.2281 0
      vertex -25.5592 18.4578 2.25
      vertex -25.5592 18.4578 0
    endloop
  endfacet
  facet normal 0.415481 -0.909602 0
    outer loop
      vertex -25.0641 19.2281 0
      vertex -24.2313 19.6085 2.25
      vertex -25.0641 19.2281 2.25
    endloop
  endfacet
  facet normal 0.415481 -0.909602 0
    outer loop
      vertex -24.2313 19.6085 2.25
      vertex -25.0641 19.2281 0
      vertex -24.2313 19.6085 0
    endloop
  endfacet
  facet normal -0.959478 0.281782 0
    outer loop
      vertex -22.633 17.1215 0
      vertex -22.375 18 2.25
      vertex -22.375 18 0
    endloop
  endfacet
  facet normal -0.959478 0.281782 0
    outer loop
      vertex -22.375 18 2.25
      vertex -22.633 17.1215 0
      vertex -22.633 17.1215 2.25
    endloop
  endfacet
  facet normal -0.65491 0.755707 0
    outer loop
      vertex -22.633 17.1215 0
      vertex -23.325 16.5218 2.25
      vertex -22.633 17.1215 2.25
    endloop
  endfacet
  facet normal -0.65491 0.755707 0
    outer loop
      vertex -23.325 16.5218 2.25
      vertex -22.633 17.1215 0
      vertex -23.325 16.5218 0
    endloop
  endfacet
  facet normal 0.415481 0.909602 -0
    outer loop
      vertex -24.2313 16.3915 0
      vertex -25.0641 16.7719 2.25
      vertex -24.2313 16.3915 2.25
    endloop
  endfacet
  facet normal 0.415481 0.909602 0
    outer loop
      vertex -25.0641 16.7719 2.25
      vertex -24.2313 16.3915 0
      vertex -25.0641 16.7719 0
    endloop
  endfacet
  facet normal 0.841225 0.540686 0
    outer loop
      vertex -25.0641 16.7719 2.25
      vertex -25.5592 17.5422 0
      vertex -25.5592 17.5422 2.25
    endloop
  endfacet
  facet normal 0.841225 0.540686 0
    outer loop
      vertex -25.5592 17.5422 0
      vertex -25.0641 16.7719 2.25
      vertex -25.0641 16.7719 0
    endloop
  endfacet
  facet normal -0.982872 0.18429 0
    outer loop
      vertex -13.0858 18.2089 2.25
      vertex -16.5 0 2.25
      vertex -16.5 0 15
    endloop
  endfacet
  facet normal -0 0.573576 0.819152
    outer loop
      vertex -13.0858 18.2089 2.25
      vertex -12 0 15
      vertex -12 18.2089 2.25
    endloop
  endfacet
  facet normal 0 0.573576 0.819152
    outer loop
      vertex -12 0 15
      vertex -13.0858 18.2089 2.25
      vertex -16.5 0 15
    endloop
  endfacet
  facet normal 0.982872 0.18429 0
    outer loop
      vertex -31.5 0 15
      vertex -31.5 0 2.25
      vertex -34.9142 18.2089 2.25
    endloop
  endfacet
  facet normal 0 0.573576 0.819152
    outer loop
      vertex -36 0 15
      vertex -34.9142 18.2089 2.25
      vertex -36 18.2089 2.25
    endloop
  endfacet
  facet normal 0 0.573576 0.819152
    outer loop
      vertex -34.9142 18.2089 2.25
      vertex -36 0 15
      vertex -31.5 0 15
    endloop
  endfacet
endsolid OpenSCAD_Model
