solid OpenSCAD_Model
  facet normal 0 -0.980784 0.195099
    outer loop
      vertex -12 -19.9358 8.47895
      vertex -10.1 -19.7444 9.44114
      vertex -12 -19.7444 9.44114
    endloop
  endfacet
  facet normal 0 -0.980784 0.195099
    outer loop
      vertex -10.1 -19.7444 9.44114
      vertex -12 -19.9358 8.47895
      vertex -10.1 -19.9358 8.47895
    endloop
  endfacet
  facet normal 0 -0.831438 0.555617
    outer loop
      vertex -12 -18.9952 11.25
      vertex -10.1 -18.4501 12.0657
      vertex -12 -18.4501 12.0657
    endloop
  endfacet
  facet normal 0 -0.831438 0.555617
    outer loop
      vertex -10.1 -18.4501 12.0657
      vertex -12 -18.9952 11.25
      vertex -10.1 -18.9952 11.25
    endloop
  endfacet
  facet normal 0 -0.751869 0.659312
    outer loop
      vertex -12 -18.4501 12.0657
      vertex -10.1 -17.8033 12.8033
      vertex -12 -17.8033 12.8033
    endloop
  endfacet
  facet normal 0 -0.751869 0.659312
    outer loop
      vertex -10.1 -17.8033 12.8033
      vertex -12 -18.4501 12.0657
      vertex -10.1 -18.4501 12.0657
    endloop
  endfacet
  facet normal 0 -0.997857 0.0654399
    outer loop
      vertex -12 -20 7.5
      vertex -10.1 -19.9358 8.47895
      vertex -12 -19.9358 8.47895
    endloop
  endfacet
  facet normal 0 -0.997857 0.0654399
    outer loop
      vertex -10.1 -19.9358 8.47895
      vertex -12 -20 7.5
      vertex -10.1 -20 7.5
    endloop
  endfacet
  facet normal 0 -0.946942 0.321403
    outer loop
      vertex -12 -19.7444 9.44114
      vertex -10.1 -19.4291 10.3701
      vertex -12 -19.4291 10.3701
    endloop
  endfacet
  facet normal 0 -0.946942 0.321403
    outer loop
      vertex -10.1 -19.4291 10.3701
      vertex -12 -19.7444 9.44114
      vertex -10.1 -19.7444 9.44114
    endloop
  endfacet
  facet normal 0 -0.89688 0.442273
    outer loop
      vertex -12 -19.4291 10.3701
      vertex -10.1 -18.9952 11.25
      vertex -12 -18.9952 11.25
    endloop
  endfacet
  facet normal 0 -0.89688 0.442273
    outer loop
      vertex -10.1 -18.9952 11.25
      vertex -12 -19.4291 10.3701
      vertex -10.1 -19.4291 10.3701
    endloop
  endfacet
  facet normal 1 0 0
    outer loop
      vertex -10.1 -6 15
      vertex -10.1 -13.5 15
      vertex -10.1 -6 0
    endloop
  endfacet
  facet normal 1 0 0
    outer loop
      vertex -10.1 -17.8033 12.8033
      vertex -10.1 -13.5 15
      vertex -10.1 -15.6066 15
    endloop
  endfacet
  facet normal 1 0 0
    outer loop
      vertex -10.1 -20 7.5
      vertex -10.1 -13.5 15
      vertex -10.1 -17.8033 12.8033
    endloop
  endfacet
  facet normal 1 0 0
    outer loop
      vertex -10.1 -20 7.5
      vertex -10.1 -17.8033 12.8033
      vertex -10.1 -18.4501 12.0657
    endloop
  endfacet
  facet normal 1 0 0
    outer loop
      vertex -10.1 -20 7.5
      vertex -10.1 -18.4501 12.0657
      vertex -10.1 -18.9952 11.25
    endloop
  endfacet
  facet normal 1 0 0
    outer loop
      vertex -10.1 -20 7.5
      vertex -10.1 -18.9952 11.25
      vertex -10.1 -19.4291 10.3701
    endloop
  endfacet
  facet normal 1 0 0
    outer loop
      vertex -10.1 -20 7.5
      vertex -10.1 -19.4291 10.3701
      vertex -10.1 -19.7444 9.44114
    endloop
  endfacet
  facet normal 1 0 0
    outer loop
      vertex -10.1 -20 7.5
      vertex -10.1 -19.7444 9.44114
      vertex -10.1 -19.9358 8.47895
    endloop
  endfacet
  facet normal 1 0 0
    outer loop
      vertex -10.1 -13.5 15
      vertex -10.1 -20 7.5
      vertex -10.1 -6 0
    endloop
  endfacet
  facet normal 1 0 0
    outer loop
      vertex -10.1 -6 0
      vertex -10.1 -20 7.5
      vertex -10.1 -20 0
    endloop
  endfacet
  facet normal -1 0 0
    outer loop
      vertex -12 24 0
      vertex -12 18.5659 2
      vertex -12 24 2
    endloop
  endfacet
  facet normal -1 0 0
    outer loop
      vertex -12 18.5659 2
      vertex -12 -1.65001 13
      vertex -12 0 15
    endloop
  endfacet
  facet normal -1 0 0
    outer loop
      vertex -12 -20 0
      vertex -12 -1.65001 13
      vertex -12 18.5659 2
    endloop
  endfacet
  facet normal -1 -0 0
    outer loop
      vertex -12 -1.65001 13
      vertex -12 -20 0
      vertex -12 -4.34999 13
    endloop
  endfacet
  facet normal -1 0 0
    outer loop
      vertex -12 -20 7.5
      vertex -12 -4.34999 13
      vertex -12 -20 0
    endloop
  endfacet
  facet normal -1 -0 0
    outer loop
      vertex -12 -4.34999 13
      vertex -12 -20 7.5
      vertex -12 -13.5 15
    endloop
  endfacet
  facet normal -1 0 0
    outer loop
      vertex -12 -20 0
      vertex -12 18.5659 2
      vertex -12 24 0
    endloop
  endfacet
  facet normal -1 0 -0
    outer loop
      vertex -12 -17.8033 12.8033
      vertex -12 -13.5 15
      vertex -12 -20 7.5
    endloop
  endfacet
  facet normal -1 -0 0
    outer loop
      vertex -12 -13.5 15
      vertex -12 -17.8033 12.8033
      vertex -12 -15.6066 15
    endloop
  endfacet
  facet normal -1 0 0
    outer loop
      vertex -12 -18.4501 12.0657
      vertex -12 -20 7.5
      vertex -12 -18.9952 11.25
    endloop
  endfacet
  facet normal -1 0 0
    outer loop
      vertex -12 -18.9952 11.25
      vertex -12 -20 7.5
      vertex -12 -19.4291 10.3701
    endloop
  endfacet
  facet normal -1 0 0
    outer loop
      vertex -12 -19.4291 10.3701
      vertex -12 -20 7.5
      vertex -12 -19.7444 9.44114
    endloop
  endfacet
  facet normal -1 0 0
    outer loop
      vertex -12 -17.8033 12.8033
      vertex -12 -20 7.5
      vertex -12 -18.4501 12.0657
    endloop
  endfacet
  facet normal -1 0 0
    outer loop
      vertex -12 -19.7444 9.44114
      vertex -12 -20 7.5
      vertex -12 -19.9358 8.47895
    endloop
  endfacet
  facet normal -1 -0 0
    outer loop
      vertex -12 0 15
      vertex -12 -1.65001 13
      vertex -12 -2.1262 15
    endloop
  endfacet
  facet normal -1 0 0
    outer loop
      vertex -12 -4.34999 13
      vertex -12 -13.5 15
      vertex -12 -3.8738 15
    endloop
  endfacet
  facet normal 0 0 -1
    outer loop
      vertex -10.1 -20 0
      vertex -12 -20 0
      vertex -10.1 -6 0
    endloop
  endfacet
  facet normal 0 0 -1
    outer loop
      vertex 1.47219 17.0539 0
      vertex 12 24 0
      vertex 1.47219 6.94612 0
    endloop
  endfacet
  facet normal 0 0 -1
    outer loop
      vertex 12 24 0
      vertex 1.47219 17.0539 0
      vertex 1.75 18 0
    endloop
  endfacet
  facet normal 0 0 -1
    outer loop
      vertex 0.726975 7.59186 0
      vertex 1.47219 17.0539 0
      vertex 1.47219 6.94612 0
    endloop
  endfacet
  facet normal 0 0 -1
    outer loop
      vertex 0.726975 7.59186 0
      vertex 0.726975 16.4081 0
      vertex 1.47219 17.0539 0
    endloop
  endfacet
  facet normal 0 0 -1
    outer loop
      vertex -0.24905 7.73219 0
      vertex 0.726975 16.4081 0
      vertex 0.726975 7.59186 0
    endloop
  endfacet
  facet normal 0 0 -1
    outer loop
      vertex -0.24905 7.73219 0
      vertex -0.24905 16.2678 0
      vertex 0.726975 16.4081 0
    endloop
  endfacet
  facet normal 0 0 -1
    outer loop
      vertex -1.14601 7.32256 0
      vertex -0.24905 16.2678 0
      vertex -0.24905 7.73219 0
    endloop
  endfacet
  facet normal 0 0 -1
    outer loop
      vertex -1.14601 7.32256 0
      vertex -1.14601 16.6774 0
      vertex -0.24905 16.2678 0
    endloop
  endfacet
  facet normal 0 0 -1
    outer loop
      vertex -1.67911 6.49303 0
      vertex -1.14601 16.6774 0
      vertex -1.14601 7.32256 0
    endloop
  endfacet
  facet normal -0 0 -1
    outer loop
      vertex -1.14601 16.6774 0
      vertex -1.67911 6.49303 0
      vertex -1.67911 17.507 0
    endloop
  endfacet
  facet normal 0 0 -1
    outer loop
      vertex 10.1 -6 0
      vertex 1.47219 5.05388 0
      vertex 1.75 6 0
    endloop
  endfacet
  facet normal 0 0 -1
    outer loop
      vertex 10.1 -6 0
      vertex 0.726975 4.40814 0
      vertex 1.47219 5.05388 0
    endloop
  endfacet
  facet normal 0 0 -1
    outer loop
      vertex 10.1 -6 0
      vertex -0.24905 4.26781 0
      vertex 0.726975 4.40814 0
    endloop
  endfacet
  facet normal 0 0 -1
    outer loop
      vertex -10.1 -6 0
      vertex -0.24905 4.26781 0
      vertex 10.1 -6 0
    endloop
  endfacet
  facet normal 0 0 -1
    outer loop
      vertex -10.1 -6 0
      vertex -1.67911 6.49303 0
      vertex -1.67911 5.50697 0
    endloop
  endfacet
  facet normal 0 0 -1
    outer loop
      vertex -1.67911 6.49303 0
      vertex -12 24 0
      vertex -1.67911 17.507 0
    endloop
  endfacet
  facet normal -0 0 -1
    outer loop
      vertex -1.67911 6.49303 0
      vertex -10.1 -6 0
      vertex -12 24 0
    endloop
  endfacet
  facet normal -0 0 -1
    outer loop
      vertex -1.14601 4.67744 0
      vertex -10.1 -6 0
      vertex -1.67911 5.50697 0
    endloop
  endfacet
  facet normal -0 0 -1
    outer loop
      vertex -0.24905 4.26781 0
      vertex -10.1 -6 0
      vertex -1.14601 4.67744 0
    endloop
  endfacet
  facet normal 0 0 -1
    outer loop
      vertex 10.1 -6 0
      vertex 12 -20 0
      vertex 10.1 -20 0
    endloop
  endfacet
  facet normal 0 0 -1
    outer loop
      vertex 12 -20 0
      vertex 10.1 -6 0
      vertex 12 24 0
    endloop
  endfacet
  facet normal 0 0 -1
    outer loop
      vertex 1.75 6 0
      vertex 12 24 0
      vertex 10.1 -6 0
    endloop
  endfacet
  facet normal 0 0 -1
    outer loop
      vertex 1.47219 6.94612 0
      vertex 12 24 0
      vertex 1.75 6 0
    endloop
  endfacet
  facet normal 0 0 -1
    outer loop
      vertex 1.47219 18.9461 0
      vertex 12 24 0
      vertex 1.75 18 0
    endloop
  endfacet
  facet normal 0 0 -1
    outer loop
      vertex 0.726975 19.5919 0
      vertex 12 24 0
      vertex 1.47219 18.9461 0
    endloop
  endfacet
  facet normal 0 0 -1
    outer loop
      vertex -0.24905 19.7322 0
      vertex 12 24 0
      vertex 0.726975 19.5919 0
    endloop
  endfacet
  facet normal 0 0 -1
    outer loop
      vertex -0.24905 19.7322 0
      vertex -12 24 0
      vertex 12 24 0
    endloop
  endfacet
  facet normal 0 0 -1
    outer loop
      vertex -1.14601 19.3226 0
      vertex -12 24 0
      vertex -0.24905 19.7322 0
    endloop
  endfacet
  facet normal 0 0 -1
    outer loop
      vertex -1.67911 18.493 0
      vertex -12 24 0
      vertex -1.14601 19.3226 0
    endloop
  endfacet
  facet normal 0 0 -1
    outer loop
      vertex -1.67911 17.507 0
      vertex -12 24 0
      vertex -1.67911 18.493 0
    endloop
  endfacet
  facet normal 0 0 -1
    outer loop
      vertex -12 24 0
      vertex -10.1 -6 0
      vertex -12 -20 0
    endloop
  endfacet
  facet normal 0 -1 0
    outer loop
      vertex -12 -20 0
      vertex -10.1 -20 7.5
      vertex -12 -20 7.5
    endloop
  endfacet
  facet normal 0 -1 -0
    outer loop
      vertex -10.1 -20 7.5
      vertex -12 -20 0
      vertex -10.1 -20 0
    endloop
  endfacet
  facet normal 0 -0.707107 0.707107
    outer loop
      vertex -12 -17.8033 12.8033
      vertex -10.1 -15.6066 15
      vertex -12 -15.6066 15
    endloop
  endfacet
  facet normal 0 -0.707107 0.707107
    outer loop
      vertex -10.1 -15.6066 15
      vertex -12 -17.8033 12.8033
      vertex -10.1 -17.8033 12.8033
    endloop
  endfacet
  facet normal -0 0 1
    outer loop
      vertex -12 -13.5 15
      vertex -10.1 -15.6066 15
      vertex -10.1 -13.5 15
    endloop
  endfacet
  facet normal 0 0 1
    outer loop
      vertex -10.1 -15.6066 15
      vertex -12 -13.5 15
      vertex -12 -15.6066 15
    endloop
  endfacet
  facet normal 0 -0.841255 0.540639
    outer loop
      vertex -10.1 -16.7927 8.91241
      vertex -9.1 -16.2695 9.72653
      vertex -10.1 -16.2695 9.72653
    endloop
  endfacet
  facet normal 0 -0.841255 0.540639
    outer loop
      vertex -9.1 -16.2695 9.72653
      vertex -10.1 -16.7927 8.91241
      vertex -9.1 -16.7927 8.91241
    endloop
  endfacet
  facet normal 0 0.415415 -0.909632
    outer loop
      vertex -10.1 -11.8618 4.63974
      vertex -10.0037 -12.7421 4.23772
      vertex -10.1 -12.7421 4.23772
    endloop
  endfacet
  facet normal 0 0.415415 -0.909632
    outer loop
      vertex -10.0037 -12.7421 4.23772
      vertex -10.1 -11.8618 4.63974
      vertex -9.60168 -11.8618 4.63974
    endloop
  endfacet
  facet normal 0 0.142311 -0.989822
    outer loop
      vertex -10.0037 -12.7421 4.23772
      vertex -10.1 -13.4119 4.14142
      vertex -10.1 -12.7421 4.23772
    endloop
  endfacet
  facet normal -0 0.415398 0.90964
    outer loop
      vertex -10.1 -11.8618 10.3603
      vertex -9.1 -12.7421 10.7623
      vertex -9.1 -11.8618 10.3603
    endloop
  endfacet
  facet normal 0 0.415398 0.90964
    outer loop
      vertex -9.1 -12.7421 10.7623
      vertex -10.1 -11.8618 10.3603
      vertex -10.1 -12.7421 10.7623
    endloop
  endfacet
  facet normal 0 -0.959477 -0.281786
    outer loop
      vertex -10.1 -16.7927 6.08759
      vertex -9.1 -17.0654 7.01613
      vertex -10.1 -17.0654 7.01613
    endloop
  endfacet
  facet normal 0 -0.959477 -0.281786
    outer loop
      vertex -9.1 -17.0654 7.01613
      vertex -10.1 -16.7927 6.08759
      vertex -9.1 -16.7927 6.08759
    endloop
  endfacet
  facet normal -0 0.654917 0.755701
    outer loop
      vertex -10.1 -11.1305 9.72653
      vertex -9.1 -11.8618 10.3603
      vertex -9.1 -11.1305 9.72653
    endloop
  endfacet
  facet normal 0 0.654917 0.755701
    outer loop
      vertex -9.1 -11.8618 10.3603
      vertex -10.1 -11.1305 9.72653
      vertex -10.1 -11.8618 10.3603
    endloop
  endfacet
  facet normal 1 0 0
    outer loop
      vertex -9.1 -10.6073 8.91241
      vertex -9.1 -10.3346 7.01613
      vertex -9.1 -10.3346 7.98387
    endloop
  endfacet
  facet normal 1 0 0
    outer loop
      vertex -9.1 -11.2828 5.14142
      vertex -9.1 -10.3346 7.01613
      vertex -9.1 -10.6073 8.91241
    endloop
  endfacet
  facet normal 1 0 0
    outer loop
      vertex -9.1 -11.2828 5.14142
      vertex -9.1 -10.6073 8.91241
      vertex -9.1 -11.1305 9.72653
    endloop
  endfacet
  facet normal 1 0 0
    outer loop
      vertex -9.1 -10.3346 7.01613
      vertex -9.1 -11.2828 5.14142
      vertex -9.1 -10.6073 6.08759
    endloop
  endfacet
  facet normal 1 0 0
    outer loop
      vertex -9.1 -10.6073 6.08759
      vertex -9.1 -11.2828 5.14142
      vertex -9.1 -11.1305 5.27347
    endloop
  endfacet
  facet normal 1 0 0
    outer loop
      vertex -9.1 -11.8618 10.3603
      vertex -9.1 -11.2828 5.14142
      vertex -9.1 -11.1305 9.72653
    endloop
  endfacet
  facet normal 1 0 0
    outer loop
      vertex -9.1 -12.7421 10.7623
      vertex -9.1 -11.2828 5.14142
      vertex -9.1 -11.8618 10.3603
    endloop
  endfacet
  facet normal 1 0 0
    outer loop
      vertex -9.1 -13.7 10.9
      vertex -9.1 -11.2828 5.14142
      vertex -9.1 -12.7421 10.7623
    endloop
  endfacet
  facet normal 1 -0 0
    outer loop
      vertex -9.1 -14.6579 10.7623
      vertex -9.1 -11.2828 5.14142
      vertex -9.1 -13.7 10.9
    endloop
  endfacet
  facet normal 1 -0 0
    outer loop
      vertex -9.1 -15.5382 10.3603
      vertex -9.1 -11.2828 5.14142
      vertex -9.1 -14.6579 10.7623
    endloop
  endfacet
  facet normal 1 0 0
    outer loop
      vertex -9.1 -15.5382 10.3603
      vertex -9.1 -16.1172 5.14142
      vertex -9.1 -11.2828 5.14142
    endloop
  endfacet
  facet normal 1 -0 0
    outer loop
      vertex -9.1 -16.2695 9.72653
      vertex -9.1 -16.1172 5.14142
      vertex -9.1 -15.5382 10.3603
    endloop
  endfacet
  facet normal 1 -0 0
    outer loop
      vertex -9.1 -16.7927 8.91241
      vertex -9.1 -16.1172 5.14142
      vertex -9.1 -16.2695 9.72653
    endloop
  endfacet
  facet normal 1 -0 0
    outer loop
      vertex -9.1 -17.0654 7.98387
      vertex -9.1 -16.1172 5.14142
      vertex -9.1 -16.7927 8.91241
    endloop
  endfacet
  facet normal 1 0 0
    outer loop
      vertex -9.1 -16.1172 5.14142
      vertex -9.1 -16.7927 6.08759
      vertex -9.1 -16.2695 5.27347
    endloop
  endfacet
  facet normal 1 -0 0
    outer loop
      vertex -9.1 -17.0654 7.01613
      vertex -9.1 -16.1172 5.14142
      vertex -9.1 -17.0654 7.98387
    endloop
  endfacet
  facet normal 1 0 0
    outer loop
      vertex -9.1 -16.1172 5.14142
      vertex -9.1 -17.0654 7.01613
      vertex -9.1 -16.7927 6.08759
    endloop
  endfacet
  facet normal 0 -0.415415 -0.909632
    outer loop
      vertex -10.1 -15.5382 4.63974
      vertex -10.0037 -14.6579 4.23772
      vertex -9.60168 -15.5382 4.63974
    endloop
  endfacet
  facet normal -0 -0.415415 -0.909632
    outer loop
      vertex -10.0037 -14.6579 4.23772
      vertex -10.1 -15.5382 4.63974
      vertex -10.1 -14.6579 4.23772
    endloop
  endfacet
  facet normal -0 0.142289 0.989825
    outer loop
      vertex -10.1 -12.7421 10.7623
      vertex -9.1 -13.7 10.9
      vertex -9.1 -12.7421 10.7623
    endloop
  endfacet
  facet normal 0 0.142289 0.989825
    outer loop
      vertex -9.1 -13.7 10.9
      vertex -10.1 -12.7421 10.7623
      vertex -10.1 -13.7 10.9
    endloop
  endfacet
  facet normal 0 -0.415398 0.90964
    outer loop
      vertex -10.1 -14.6579 10.7623
      vertex -9.1 -15.5382 10.3603
      vertex -9.1 -14.6579 10.7623
    endloop
  endfacet
  facet normal 0 -0.415398 0.90964
    outer loop
      vertex -9.1 -15.5382 10.3603
      vertex -10.1 -14.6579 10.7623
      vertex -10.1 -15.5382 10.3603
    endloop
  endfacet
  facet normal 0 -0.959477 0.281786
    outer loop
      vertex -10.1 -17.0654 7.98387
      vertex -9.1 -16.7927 8.91241
      vertex -10.1 -16.7927 8.91241
    endloop
  endfacet
  facet normal 0 -0.959477 0.281786
    outer loop
      vertex -9.1 -16.7927 8.91241
      vertex -10.1 -17.0654 7.98387
      vertex -9.1 -17.0654 7.98387
    endloop
  endfacet
  facet normal 0 -0.841255 -0.540639
    outer loop
      vertex -10.1 -16.2695 5.27347
      vertex -9.1 -16.7927 6.08759
      vertex -10.1 -16.7927 6.08759
    endloop
  endfacet
  facet normal 0 -0.841255 -0.540639
    outer loop
      vertex -9.1 -16.7927 6.08759
      vertex -10.1 -16.2695 5.27347
      vertex -9.1 -16.2695 5.27347
    endloop
  endfacet
  facet normal 0 0.959477 -0.281786
    outer loop
      vertex -9.1 -10.6073 6.08759
      vertex -10.1 -10.3346 7.01613
      vertex -9.1 -10.3346 7.01613
    endloop
  endfacet
  facet normal 0 0.959477 -0.281786
    outer loop
      vertex -10.1 -10.3346 7.01613
      vertex -9.1 -10.6073 6.08759
      vertex -10.1 -10.6073 6.08759
    endloop
  endfacet
  facet normal 0 0.841255 -0.540639
    outer loop
      vertex -9.1 -11.1305 5.27347
      vertex -10.1 -10.6073 6.08759
      vertex -9.1 -10.6073 6.08759
    endloop
  endfacet
  facet normal 0 0.841255 -0.540639
    outer loop
      vertex -10.1 -10.6073 6.08759
      vertex -9.1 -11.1305 5.27347
      vertex -10.1 -11.1305 5.27347
    endloop
  endfacet
  facet normal 0 -0.142289 0.989825
    outer loop
      vertex -10.1 -13.7 10.9
      vertex -9.1 -14.6579 10.7623
      vertex -9.1 -13.7 10.9
    endloop
  endfacet
  facet normal 0 -0.142289 0.989825
    outer loop
      vertex -9.1 -14.6579 10.7623
      vertex -10.1 -13.7 10.9
      vertex -10.1 -14.6579 10.7623
    endloop
  endfacet
  facet normal 0 1 -0
    outer loop
      vertex -9.1 -10.3346 7.01613
      vertex -10.1 -10.3346 7.98387
      vertex -9.1 -10.3346 7.98387
    endloop
  endfacet
  facet normal 0 1 0
    outer loop
      vertex -10.1 -10.3346 7.98387
      vertex -9.1 -10.3346 7.01613
      vertex -10.1 -10.3346 7.01613
    endloop
  endfacet
  facet normal 0 -0.655091 -0.75555
    outer loop
      vertex -10.1 -16.2695 5.27347
      vertex -9.1 -16.1172 5.14142
      vertex -9.1 -16.2695 5.27347
    endloop
  endfacet
  facet normal -5.89067e-05 -0.65487 -0.755741
    outer loop
      vertex -9.1 -16.1172 5.14142
      vertex -10.1 -16.2695 5.27347
      vertex -9.60168 -15.5382 4.63974
    endloop
  endfacet
  facet normal -0 -0.654893 -0.755721
    outer loop
      vertex -9.60168 -15.5382 4.63974
      vertex -10.1 -16.2695 5.27347
      vertex -10.1 -15.5382 4.63974
    endloop
  endfacet
  facet normal 0 0.959477 0.281786
    outer loop
      vertex -9.1 -10.3346 7.98387
      vertex -10.1 -10.6073 8.91241
      vertex -9.1 -10.6073 8.91241
    endloop
  endfacet
  facet normal 0 0.959477 0.281786
    outer loop
      vertex -10.1 -10.6073 8.91241
      vertex -9.1 -10.3346 7.98387
      vertex -10.1 -10.3346 7.98387
    endloop
  endfacet
  facet normal -0 -0.142311 -0.989822
    outer loop
      vertex -10.0037 -14.6579 4.23772
      vertex -10.1 -14.6579 4.23772
      vertex -10.1 -13.9881 4.14142
    endloop
  endfacet
  facet normal 0 -0.654917 0.755701
    outer loop
      vertex -10.1 -15.5382 10.3603
      vertex -9.1 -16.2695 9.72653
      vertex -9.1 -15.5382 10.3603
    endloop
  endfacet
  facet normal 0 -0.654917 0.755701
    outer loop
      vertex -9.1 -16.2695 9.72653
      vertex -10.1 -15.5382 10.3603
      vertex -10.1 -16.2695 9.72653
    endloop
  endfacet
  facet normal 0 -1 0
    outer loop
      vertex -10.1 -17.0654 7.01613
      vertex -9.1 -17.0654 7.98387
      vertex -10.1 -17.0654 7.98387
    endloop
  endfacet
  facet normal 0 -1 -0
    outer loop
      vertex -9.1 -17.0654 7.98387
      vertex -10.1 -17.0654 7.01613
      vertex -9.1 -17.0654 7.01613
    endloop
  endfacet
  facet normal 0 0.841255 0.540639
    outer loop
      vertex -9.1 -10.6073 8.91241
      vertex -10.1 -11.1305 9.72653
      vertex -9.1 -11.1305 9.72653
    endloop
  endfacet
  facet normal 0 0.841255 0.540639
    outer loop
      vertex -10.1 -11.1305 9.72653
      vertex -9.1 -10.6073 8.91241
      vertex -10.1 -10.6073 8.91241
    endloop
  endfacet
  facet normal -5.89067e-05 0.65487 -0.755741
    outer loop
      vertex -10.1 -11.1305 5.27347
      vertex -9.1 -11.2828 5.14142
      vertex -9.60168 -11.8618 4.63974
    endloop
  endfacet
  facet normal 0 0.654893 -0.755721
    outer loop
      vertex -10.1 -11.1305 5.27347
      vertex -9.60168 -11.8618 4.63974
      vertex -10.1 -11.8618 4.63974
    endloop
  endfacet
  facet normal 0 0.655091 -0.75555
    outer loop
      vertex -9.1 -11.2828 5.14142
      vertex -10.1 -11.1305 5.27347
      vertex -9.1 -11.1305 5.27347
    endloop
  endfacet
  facet normal -1 0 0
    outer loop
      vertex -10.1 -10.6073 6.08759
      vertex -10.1 -10.3346 7.98387
      vertex -10.1 -10.3346 7.01613
    endloop
  endfacet
  facet normal -1 0 0
    outer loop
      vertex -10.1 -10.6073 6.08759
      vertex -10.1 -10.6073 8.91241
      vertex -10.1 -10.3346 7.98387
    endloop
  endfacet
  facet normal -1 0 0
    outer loop
      vertex -10.1 -11.1305 5.27347
      vertex -10.1 -10.6073 8.91241
      vertex -10.1 -10.6073 6.08759
    endloop
  endfacet
  facet normal -1 0 0
    outer loop
      vertex -10.1 -11.1305 5.27347
      vertex -10.1 -11.1305 9.72653
      vertex -10.1 -10.6073 8.91241
    endloop
  endfacet
  facet normal -1 0 0
    outer loop
      vertex -10.1 -13.4119 4.14142
      vertex -10.1 -11.1305 5.27347
      vertex -10.1 -11.8618 4.63974
    endloop
  endfacet
  facet normal -1 -0 0
    outer loop
      vertex -10.1 -11.1305 5.27347
      vertex -10.1 -13.4119 4.14142
      vertex -10.1 -11.1305 9.72653
    endloop
  endfacet
  facet normal -1 0 0
    outer loop
      vertex -10.1 -13.4119 4.14142
      vertex -10.1 -11.8618 4.63974
      vertex -10.1 -12.7421 4.23772
    endloop
  endfacet
  facet normal -1 -0 0
    outer loop
      vertex -10.1 -11.1305 9.72653
      vertex -10.1 -13.4119 4.14142
      vertex -10.1 -11.8618 10.3603
    endloop
  endfacet
  facet normal -1 -0 0
    outer loop
      vertex -10.1 -11.8618 10.3603
      vertex -10.1 -13.4119 4.14142
      vertex -10.1 -12.7421 10.7623
    endloop
  endfacet
  facet normal -1 0 0
    outer loop
      vertex -10.1 -13.4119 4.14142
      vertex -10.1 -13.7 10.9
      vertex -10.1 -12.7421 10.7623
    endloop
  endfacet
  facet normal -1 0 0
    outer loop
      vertex -10.1 -13.9881 4.14142
      vertex -10.1 -13.7 10.9
      vertex -10.1 -13.4119 4.14142
    endloop
  endfacet
  facet normal -1 0 0
    outer loop
      vertex -10.1 -15.5382 4.63974
      vertex -10.1 -13.9881 4.14142
      vertex -10.1 -14.6579 4.23772
    endloop
  endfacet
  facet normal -1 0 0
    outer loop
      vertex -10.1 -13.9881 4.14142
      vertex -10.1 -14.6579 10.7623
      vertex -10.1 -13.7 10.9
    endloop
  endfacet
  facet normal -1 0 0
    outer loop
      vertex -10.1 -16.2695 5.27347
      vertex -10.1 -13.9881 4.14142
      vertex -10.1 -15.5382 4.63974
    endloop
  endfacet
  facet normal -1 0 0
    outer loop
      vertex -10.1 -13.9881 4.14142
      vertex -10.1 -15.5382 10.3603
      vertex -10.1 -14.6579 10.7623
    endloop
  endfacet
  facet normal -1 0 0
    outer loop
      vertex -10.1 -13.9881 4.14142
      vertex -10.1 -16.2695 5.27347
      vertex -10.1 -15.5382 10.3603
    endloop
  endfacet
  facet normal -1 0 0
    outer loop
      vertex -10.1 -16.2695 5.27347
      vertex -10.1 -16.2695 9.72653
      vertex -10.1 -15.5382 10.3603
    endloop
  endfacet
  facet normal -1 0 0
    outer loop
      vertex -10.1 -16.7927 6.08759
      vertex -10.1 -16.2695 9.72653
      vertex -10.1 -16.2695 5.27347
    endloop
  endfacet
  facet normal -1 0 0
    outer loop
      vertex -10.1 -16.7927 6.08759
      vertex -10.1 -16.7927 8.91241
      vertex -10.1 -16.2695 9.72653
    endloop
  endfacet
  facet normal -1 0 0
    outer loop
      vertex -10.1 -17.0654 7.01613
      vertex -10.1 -16.7927 8.91241
      vertex -10.1 -16.7927 6.08759
    endloop
  endfacet
  facet normal -1 0 0
    outer loop
      vertex -10.1 -16.7927 8.91241
      vertex -10.1 -17.0654 7.01613
      vertex -10.1 -17.0654 7.98387
    endloop
  endfacet
  facet normal 0.707107 0 -0.707107
    outer loop
      vertex -10.1 -13.4119 4.14142
      vertex -9.60168 -11.8618 4.63974
      vertex -9.1 -11.2828 5.14142
    endloop
  endfacet
  facet normal 0.707107 1.702e-15 -0.707107
    outer loop
      vertex -9.60168 -11.8618 4.63974
      vertex -10.1 -13.4119 4.14142
      vertex -10.0037 -12.7421 4.23772
    endloop
  endfacet
  facet normal 0.707107 0 -0.707107
    outer loop
      vertex -9.1 -11.2828 5.14142
      vertex -10.1 -13.9881 4.14142
      vertex -10.1 -13.4119 4.14142
    endloop
  endfacet
  facet normal 0.707107 0 -0.707107
    outer loop
      vertex -9.1 -16.1172 5.14142
      vertex -10.1 -13.9881 4.14142
      vertex -9.1 -11.2828 5.14142
    endloop
  endfacet
  facet normal 0.707107 0 -0.707107
    outer loop
      vertex -9.60168 -15.5382 4.63974
      vertex -10.1 -13.9881 4.14142
      vertex -9.1 -16.1172 5.14142
    endloop
  endfacet
  facet normal 0.707107 -1.702e-15 -0.707107
    outer loop
      vertex -10.1 -13.9881 4.14142
      vertex -9.60168 -15.5382 4.63974
      vertex -10.0037 -14.6579 4.23772
    endloop
  endfacet
  facet normal 0 0 1
    outer loop
      vertex -8 -3.8738 15
      vertex -10.1 -6 15
      vertex -8 -6 15
    endloop
  endfacet
  facet normal -0 0 1
    outer loop
      vertex -12 -3.8738 15
      vertex -10.1 -6 15
      vertex -8 -3.8738 15
    endloop
  endfacet
  facet normal 0 0 1
    outer loop
      vertex -12 -13.5 15
      vertex -10.1 -6 15
      vertex -12 -3.8738 15
    endloop
  endfacet
  facet normal 0 0 1
    outer loop
      vertex -10.1 -6 15
      vertex -12 -13.5 15
      vertex -10.1 -13.5 15
    endloop
  endfacet
  facet normal 0 -1 0
    outer loop
      vertex -10.1 -6 15
      vertex -8 -6 2
      vertex -8 -6 15
    endloop
  endfacet
  facet normal 0 -1 -0
    outer loop
      vertex -8 -6 2
      vertex -10.1 -6 0
      vertex 8 -6 2
    endloop
  endfacet
  facet normal 0 -1 0
    outer loop
      vertex -10.1 -6 0
      vertex -8 -6 2
      vertex -10.1 -6 15
    endloop
  endfacet
  facet normal 0 -1 0
    outer loop
      vertex 8 -6 2
      vertex 10.1 -6 15
      vertex 8 -6 15
    endloop
  endfacet
  facet normal 0 -1 0
    outer loop
      vertex 8 -6 2
      vertex 10.1 -6 0
      vertex 10.1 -6 15
    endloop
  endfacet
  facet normal 0 -1 0
    outer loop
      vertex 10.1 -6 0
      vertex 8 -6 2
      vertex -10.1 -6 0
    endloop
  endfacet
  facet normal 0 -0.980784 0.195099
    outer loop
      vertex 10.1 -19.9358 8.47895
      vertex 12 -19.7444 9.44114
      vertex 10.1 -19.7444 9.44114
    endloop
  endfacet
  facet normal 0 -0.980784 0.195099
    outer loop
      vertex 12 -19.7444 9.44114
      vertex 10.1 -19.9358 8.47895
      vertex 12 -19.9358 8.47895
    endloop
  endfacet
  facet normal 0 -0.831438 0.555617
    outer loop
      vertex 10.1 -18.9952 11.25
      vertex 12 -18.4501 12.0657
      vertex 10.1 -18.4501 12.0657
    endloop
  endfacet
  facet normal 0 -0.831438 0.555617
    outer loop
      vertex 12 -18.4501 12.0657
      vertex 10.1 -18.9952 11.25
      vertex 12 -18.9952 11.25
    endloop
  endfacet
  facet normal 0 -0.751869 0.659312
    outer loop
      vertex 10.1 -18.4501 12.0657
      vertex 12 -17.8033 12.8033
      vertex 10.1 -17.8033 12.8033
    endloop
  endfacet
  facet normal 0 -0.751869 0.659312
    outer loop
      vertex 12 -17.8033 12.8033
      vertex 10.1 -18.4501 12.0657
      vertex 12 -18.4501 12.0657
    endloop
  endfacet
  facet normal 0 -0.997857 0.0654399
    outer loop
      vertex 10.1 -20 7.5
      vertex 12 -19.9358 8.47895
      vertex 10.1 -19.9358 8.47895
    endloop
  endfacet
  facet normal 0 -0.997857 0.0654399
    outer loop
      vertex 12 -19.9358 8.47895
      vertex 10.1 -20 7.5
      vertex 12 -20 7.5
    endloop
  endfacet
  facet normal 0 -0.946942 0.321403
    outer loop
      vertex 10.1 -19.7444 9.44114
      vertex 12 -19.4291 10.3701
      vertex 10.1 -19.4291 10.3701
    endloop
  endfacet
  facet normal 0 -0.946942 0.321403
    outer loop
      vertex 12 -19.4291 10.3701
      vertex 10.1 -19.7444 9.44114
      vertex 12 -19.7444 9.44114
    endloop
  endfacet
  facet normal 0 -0.89688 0.442273
    outer loop
      vertex 10.1 -19.4291 10.3701
      vertex 12 -18.9952 11.25
      vertex 10.1 -18.9952 11.25
    endloop
  endfacet
  facet normal 0 -0.89688 0.442273
    outer loop
      vertex 12 -18.9952 11.25
      vertex 10.1 -19.4291 10.3701
      vertex 12 -19.4291 10.3701
    endloop
  endfacet
  facet normal -1 0 0
    outer loop
      vertex 10.1 -6 0
      vertex 10.1 -13.5 15
      vertex 10.1 -6 15
    endloop
  endfacet
  facet normal -1 0 0
    outer loop
      vertex 10.1 -20 7.5
      vertex 10.1 -13.5 15
      vertex 10.1 -6 0
    endloop
  endfacet
  facet normal -1 -0 0
    outer loop
      vertex 10.1 -13.5 15
      vertex 10.1 -17.8033 12.8033
      vertex 10.1 -15.6066 15
    endloop
  endfacet
  facet normal -1 0 0
    outer loop
      vertex 10.1 -13.5 15
      vertex 10.1 -20 7.5
      vertex 10.1 -17.8033 12.8033
    endloop
  endfacet
  facet normal -1 0 0
    outer loop
      vertex 10.1 -17.8033 12.8033
      vertex 10.1 -20 7.5
      vertex 10.1 -18.4501 12.0657
    endloop
  endfacet
  facet normal -1 0 0
    outer loop
      vertex 10.1 -18.4501 12.0657
      vertex 10.1 -20 7.5
      vertex 10.1 -18.9952 11.25
    endloop
  endfacet
  facet normal -1 0 0
    outer loop
      vertex 10.1 -18.9952 11.25
      vertex 10.1 -20 7.5
      vertex 10.1 -19.4291 10.3701
    endloop
  endfacet
  facet normal -1 0 0
    outer loop
      vertex 10.1 -19.4291 10.3701
      vertex 10.1 -20 7.5
      vertex 10.1 -19.7444 9.44114
    endloop
  endfacet
  facet normal -1 0 0
    outer loop
      vertex 10.1 -20 7.5
      vertex 10.1 -6 0
      vertex 10.1 -20 0
    endloop
  endfacet
  facet normal -1 0 0
    outer loop
      vertex 10.1 -19.7444 9.44114
      vertex 10.1 -20 7.5
      vertex 10.1 -19.9358 8.47895
    endloop
  endfacet
  facet normal 1 0 0
    outer loop
      vertex 12 -3.8738 15
      vertex 12 -13.5 15
      vertex 12 -4.34999 13
    endloop
  endfacet
  facet normal 1 0 0
    outer loop
      vertex 12 0 15
      vertex 12 -2.1262 15
      vertex 12 -1.65001 13
    endloop
  endfacet
  facet normal 1 -0 0
    outer loop
      vertex 12 18.5659 2
      vertex 12 24 0
      vertex 12 24 2
    endloop
  endfacet
  facet normal 1 -0 0
    outer loop
      vertex 12 -1.65001 13
      vertex 12 18.5659 2
      vertex 12 0 15
    endloop
  endfacet
  facet normal 1 0 0
    outer loop
      vertex 12 -20 0
      vertex 12 -1.65001 13
      vertex 12 -4.34999 13
    endloop
  endfacet
  facet normal 1 0 0
    outer loop
      vertex 12 -20 7.5
      vertex 12 -4.34999 13
      vertex 12 -13.5 15
    endloop
  endfacet
  facet normal 1 0 0
    outer loop
      vertex 12 -17.8033 12.8033
      vertex 12 -13.5 15
      vertex 12 -15.6066 15
    endloop
  endfacet
  facet normal 1 0 0
    outer loop
      vertex 12 -13.5 15
      vertex 12 -17.8033 12.8033
      vertex 12 -20 7.5
    endloop
  endfacet
  facet normal 1 0 0
    outer loop
      vertex 12 -1.65001 13
      vertex 12 -20 0
      vertex 12 18.5659 2
    endloop
  endfacet
  facet normal 1 0 0
    outer loop
      vertex 12 -20 7.5
      vertex 12 -17.8033 12.8033
      vertex 12 -18.4501 12.0657
    endloop
  endfacet
  facet normal 1 0 0
    outer loop
      vertex 12 -20 7.5
      vertex 12 -18.4501 12.0657
      vertex 12 -18.9952 11.25
    endloop
  endfacet
  facet normal 1 0 0
    outer loop
      vertex 12 -20 7.5
      vertex 12 -18.9952 11.25
      vertex 12 -19.4291 10.3701
    endloop
  endfacet
  facet normal 1 0 0
    outer loop
      vertex 12 -20 7.5
      vertex 12 -19.4291 10.3701
      vertex 12 -19.7444 9.44114
    endloop
  endfacet
  facet normal 1 0 0
    outer loop
      vertex 12 -20 7.5
      vertex 12 -19.7444 9.44114
      vertex 12 -19.9358 8.47895
    endloop
  endfacet
  facet normal 1 0 0
    outer loop
      vertex 12 -4.34999 13
      vertex 12 -20 7.5
      vertex 12 -20 0
    endloop
  endfacet
  facet normal 1 0 0
    outer loop
      vertex 12 18.5659 2
      vertex 12 -20 0
      vertex 12 24 0
    endloop
  endfacet
  facet normal 0 -1 0
    outer loop
      vertex 10.1 -20 0
      vertex 12 -20 7.5
      vertex 10.1 -20 7.5
    endloop
  endfacet
  facet normal 0 -1 -0
    outer loop
      vertex 12 -20 7.5
      vertex 10.1 -20 0
      vertex 12 -20 0
    endloop
  endfacet
  facet normal 0 -0.707107 0.707107
    outer loop
      vertex 10.1 -17.8033 12.8033
      vertex 12 -15.6066 15
      vertex 10.1 -15.6066 15
    endloop
  endfacet
  facet normal 0 -0.707107 0.707107
    outer loop
      vertex 12 -15.6066 15
      vertex 10.1 -17.8033 12.8033
      vertex 12 -17.8033 12.8033
    endloop
  endfacet
  facet normal -0 0 1
    outer loop
      vertex 10.1 -13.5 15
      vertex 12 -15.6066 15
      vertex 12 -13.5 15
    endloop
  endfacet
  facet normal 0 0 1
    outer loop
      vertex 12 -15.6066 15
      vertex 10.1 -13.5 15
      vertex 10.1 -15.6066 15
    endloop
  endfacet
  facet normal 0 -0.841255 0.540639
    outer loop
      vertex 9.1 -16.7927 8.91241
      vertex 10.1 -16.2695 9.72653
      vertex 9.1 -16.2695 9.72653
    endloop
  endfacet
  facet normal 0 -0.841255 0.540639
    outer loop
      vertex 10.1 -16.2695 9.72653
      vertex 9.1 -16.7927 8.91241
      vertex 10.1 -16.7927 8.91241
    endloop
  endfacet
  facet normal 0 0.415415 -0.909632
    outer loop
      vertex 10.0037 -12.7421 4.23772
      vertex 10.1 -11.8618 4.63974
      vertex 10.1 -12.7421 4.23772
    endloop
  endfacet
  facet normal 0 0.415415 -0.909632
    outer loop
      vertex 10.1 -11.8618 4.63974
      vertex 10.0037 -12.7421 4.23772
      vertex 9.60168 -11.8618 4.63974
    endloop
  endfacet
  facet normal 0 0.142311 -0.989822
    outer loop
      vertex 10.1 -12.7421 4.23772
      vertex 10.1 -13.4119 4.14142
      vertex 10.0037 -12.7421 4.23772
    endloop
  endfacet
  facet normal -0 0.415398 0.90964
    outer loop
      vertex 9.1 -11.8618 10.3603
      vertex 10.1 -12.7421 10.7623
      vertex 10.1 -11.8618 10.3603
    endloop
  endfacet
  facet normal 0 0.415398 0.90964
    outer loop
      vertex 10.1 -12.7421 10.7623
      vertex 9.1 -11.8618 10.3603
      vertex 9.1 -12.7421 10.7623
    endloop
  endfacet
  facet normal 0 -0.959477 -0.281786
    outer loop
      vertex 9.1 -16.7927 6.08759
      vertex 10.1 -17.0654 7.01613
      vertex 9.1 -17.0654 7.01613
    endloop
  endfacet
  facet normal 0 -0.959477 -0.281786
    outer loop
      vertex 10.1 -17.0654 7.01613
      vertex 9.1 -16.7927 6.08759
      vertex 10.1 -16.7927 6.08759
    endloop
  endfacet
  facet normal -0 0.654917 0.755701
    outer loop
      vertex 9.1 -11.1305 9.72653
      vertex 10.1 -11.8618 10.3603
      vertex 10.1 -11.1305 9.72653
    endloop
  endfacet
  facet normal 0 0.654917 0.755701
    outer loop
      vertex 10.1 -11.8618 10.3603
      vertex 9.1 -11.1305 9.72653
      vertex 9.1 -11.8618 10.3603
    endloop
  endfacet
  facet normal -1 0 0
    outer loop
      vertex 9.1 -11.2828 5.14142
      vertex 9.1 -10.3346 7.01613
      vertex 9.1 -10.6073 6.08759
    endloop
  endfacet
  facet normal -1 -0 0
    outer loop
      vertex 9.1 -10.3346 7.01613
      vertex 9.1 -11.2828 5.14142
      vertex 9.1 -10.3346 7.98387
    endloop
  endfacet
  facet normal -1 0 0
    outer loop
      vertex 9.1 -11.2828 5.14142
      vertex 9.1 -10.6073 6.08759
      vertex 9.1 -11.1305 5.27347
    endloop
  endfacet
  facet normal -1 -0 0
    outer loop
      vertex 9.1 -10.3346 7.98387
      vertex 9.1 -11.2828 5.14142
      vertex 9.1 -10.6073 8.91241
    endloop
  endfacet
  facet normal -1 -0 0
    outer loop
      vertex 9.1 -10.6073 8.91241
      vertex 9.1 -11.2828 5.14142
      vertex 9.1 -11.1305 9.72653
    endloop
  endfacet
  facet normal -1 0 0
    outer loop
      vertex 9.1 -11.2828 5.14142
      vertex 9.1 -11.8618 10.3603
      vertex 9.1 -11.1305 9.72653
    endloop
  endfacet
  facet normal -1 0 0
    outer loop
      vertex 9.1 -11.2828 5.14142
      vertex 9.1 -12.7421 10.7623
      vertex 9.1 -11.8618 10.3603
    endloop
  endfacet
  facet normal -1 0 0
    outer loop
      vertex 9.1 -11.2828 5.14142
      vertex 9.1 -13.7 10.9
      vertex 9.1 -12.7421 10.7623
    endloop
  endfacet
  facet normal -1 0 0
    outer loop
      vertex 9.1 -11.2828 5.14142
      vertex 9.1 -14.6579 10.7623
      vertex 9.1 -13.7 10.9
    endloop
  endfacet
  facet normal -1 0 0
    outer loop
      vertex 9.1 -11.2828 5.14142
      vertex 9.1 -15.5382 10.3603
      vertex 9.1 -14.6579 10.7623
    endloop
  endfacet
  facet normal -1 0 0
    outer loop
      vertex 9.1 -16.1172 5.14142
      vertex 9.1 -15.5382 10.3603
      vertex 9.1 -11.2828 5.14142
    endloop
  endfacet
  facet normal -1 0 0
    outer loop
      vertex 9.1 -16.7927 6.08759
      vertex 9.1 -16.1172 5.14142
      vertex 9.1 -16.2695 5.27347
    endloop
  endfacet
  facet normal -1 0 0
    outer loop
      vertex 9.1 -16.1172 5.14142
      vertex 9.1 -16.2695 9.72653
      vertex 9.1 -15.5382 10.3603
    endloop
  endfacet
  facet normal -1 0 0
    outer loop
      vertex 9.1 -17.0654 7.01613
      vertex 9.1 -16.1172 5.14142
      vertex 9.1 -16.7927 6.08759
    endloop
  endfacet
  facet normal -1 0 0
    outer loop
      vertex 9.1 -16.1172 5.14142
      vertex 9.1 -16.7927 8.91241
      vertex 9.1 -16.2695 9.72653
    endloop
  endfacet
  facet normal -1 0 0
    outer loop
      vertex 9.1 -16.1172 5.14142
      vertex 9.1 -17.0654 7.01613
      vertex 9.1 -16.7927 8.91241
    endloop
  endfacet
  facet normal -1 0 0
    outer loop
      vertex 9.1 -16.7927 8.91241
      vertex 9.1 -17.0654 7.01613
      vertex 9.1 -17.0654 7.98387
    endloop
  endfacet
  facet normal 0 -0.415415 -0.909632
    outer loop
      vertex 10.1 -15.5382 4.63974
      vertex 10.0037 -14.6579 4.23772
      vertex 10.1 -14.6579 4.23772
    endloop
  endfacet
  facet normal 0 -0.415415 -0.909632
    outer loop
      vertex 10.0037 -14.6579 4.23772
      vertex 10.1 -15.5382 4.63974
      vertex 9.60168 -15.5382 4.63974
    endloop
  endfacet
  facet normal -0 0.142289 0.989825
    outer loop
      vertex 9.1 -12.7421 10.7623
      vertex 10.1 -13.7 10.9
      vertex 10.1 -12.7421 10.7623
    endloop
  endfacet
  facet normal 0 0.142289 0.989825
    outer loop
      vertex 10.1 -13.7 10.9
      vertex 9.1 -12.7421 10.7623
      vertex 9.1 -13.7 10.9
    endloop
  endfacet
  facet normal 0 -0.415398 0.90964
    outer loop
      vertex 9.1 -14.6579 10.7623
      vertex 10.1 -15.5382 10.3603
      vertex 10.1 -14.6579 10.7623
    endloop
  endfacet
  facet normal 0 -0.415398 0.90964
    outer loop
      vertex 10.1 -15.5382 10.3603
      vertex 9.1 -14.6579 10.7623
      vertex 9.1 -15.5382 10.3603
    endloop
  endfacet
  facet normal 0 -0.959477 0.281786
    outer loop
      vertex 9.1 -17.0654 7.98387
      vertex 10.1 -16.7927 8.91241
      vertex 9.1 -16.7927 8.91241
    endloop
  endfacet
  facet normal 0 -0.959477 0.281786
    outer loop
      vertex 10.1 -16.7927 8.91241
      vertex 9.1 -17.0654 7.98387
      vertex 10.1 -17.0654 7.98387
    endloop
  endfacet
  facet normal 0 -0.841255 -0.540639
    outer loop
      vertex 9.1 -16.2695 5.27347
      vertex 10.1 -16.7927 6.08759
      vertex 9.1 -16.7927 6.08759
    endloop
  endfacet
  facet normal 0 -0.841255 -0.540639
    outer loop
      vertex 10.1 -16.7927 6.08759
      vertex 9.1 -16.2695 5.27347
      vertex 10.1 -16.2695 5.27347
    endloop
  endfacet
  facet normal 0 0.959477 -0.281786
    outer loop
      vertex 10.1 -10.6073 6.08759
      vertex 9.1 -10.3346 7.01613
      vertex 10.1 -10.3346 7.01613
    endloop
  endfacet
  facet normal 0 0.959477 -0.281786
    outer loop
      vertex 9.1 -10.3346 7.01613
      vertex 10.1 -10.6073 6.08759
      vertex 9.1 -10.6073 6.08759
    endloop
  endfacet
  facet normal 0 0.841255 -0.540639
    outer loop
      vertex 10.1 -11.1305 5.27347
      vertex 9.1 -10.6073 6.08759
      vertex 10.1 -10.6073 6.08759
    endloop
  endfacet
  facet normal 0 0.841255 -0.540639
    outer loop
      vertex 9.1 -10.6073 6.08759
      vertex 10.1 -11.1305 5.27347
      vertex 9.1 -11.1305 5.27347
    endloop
  endfacet
  facet normal 0 -0.142289 0.989825
    outer loop
      vertex 9.1 -13.7 10.9
      vertex 10.1 -14.6579 10.7623
      vertex 10.1 -13.7 10.9
    endloop
  endfacet
  facet normal 0 -0.142289 0.989825
    outer loop
      vertex 10.1 -14.6579 10.7623
      vertex 9.1 -13.7 10.9
      vertex 9.1 -14.6579 10.7623
    endloop
  endfacet
  facet normal 0 1 -0
    outer loop
      vertex 10.1 -10.3346 7.01613
      vertex 9.1 -10.3346 7.98387
      vertex 10.1 -10.3346 7.98387
    endloop
  endfacet
  facet normal 0 1 0
    outer loop
      vertex 9.1 -10.3346 7.98387
      vertex 10.1 -10.3346 7.01613
      vertex 9.1 -10.3346 7.01613
    endloop
  endfacet
  facet normal 0 -0.654893 -0.755721
    outer loop
      vertex 10.1 -16.2695 5.27347
      vertex 9.60168 -15.5382 4.63974
      vertex 10.1 -15.5382 4.63974
    endloop
  endfacet
  facet normal 0 -0.655091 -0.75555
    outer loop
      vertex 9.1 -16.1172 5.14142
      vertex 10.1 -16.2695 5.27347
      vertex 9.1 -16.2695 5.27347
    endloop
  endfacet
  facet normal 5.89067e-05 -0.65487 -0.755741
    outer loop
      vertex 10.1 -16.2695 5.27347
      vertex 9.1 -16.1172 5.14142
      vertex 9.60168 -15.5382 4.63974
    endloop
  endfacet
  facet normal 0 0.959477 0.281786
    outer loop
      vertex 10.1 -10.3346 7.98387
      vertex 9.1 -10.6073 8.91241
      vertex 10.1 -10.6073 8.91241
    endloop
  endfacet
  facet normal 0 0.959477 0.281786
    outer loop
      vertex 9.1 -10.6073 8.91241
      vertex 10.1 -10.3346 7.98387
      vertex 9.1 -10.3346 7.98387
    endloop
  endfacet
  facet normal 0 -0.142311 -0.989822
    outer loop
      vertex 10.1 -13.9881 4.14142
      vertex 10.1 -14.6579 4.23772
      vertex 10.0037 -14.6579 4.23772
    endloop
  endfacet
  facet normal 0 -0.654917 0.755701
    outer loop
      vertex 9.1 -15.5382 10.3603
      vertex 10.1 -16.2695 9.72653
      vertex 10.1 -15.5382 10.3603
    endloop
  endfacet
  facet normal 0 -0.654917 0.755701
    outer loop
      vertex 10.1 -16.2695 9.72653
      vertex 9.1 -15.5382 10.3603
      vertex 9.1 -16.2695 9.72653
    endloop
  endfacet
  facet normal 0 -1 0
    outer loop
      vertex 9.1 -17.0654 7.01613
      vertex 10.1 -17.0654 7.98387
      vertex 9.1 -17.0654 7.98387
    endloop
  endfacet
  facet normal 0 -1 -0
    outer loop
      vertex 10.1 -17.0654 7.98387
      vertex 9.1 -17.0654 7.01613
      vertex 10.1 -17.0654 7.01613
    endloop
  endfacet
  facet normal 0 0.841255 0.540639
    outer loop
      vertex 10.1 -10.6073 8.91241
      vertex 9.1 -11.1305 9.72653
      vertex 10.1 -11.1305 9.72653
    endloop
  endfacet
  facet normal 0 0.841255 0.540639
    outer loop
      vertex 9.1 -11.1305 9.72653
      vertex 10.1 -10.6073 8.91241
      vertex 9.1 -10.6073 8.91241
    endloop
  endfacet
  facet normal 0 0.654893 -0.755721
    outer loop
      vertex 9.60168 -11.8618 4.63974
      vertex 10.1 -11.1305 5.27347
      vertex 10.1 -11.8618 4.63974
    endloop
  endfacet
  facet normal 5.89067e-05 0.65487 -0.755741
    outer loop
      vertex 9.1 -11.2828 5.14142
      vertex 10.1 -11.1305 5.27347
      vertex 9.60168 -11.8618 4.63974
    endloop
  endfacet
  facet normal 0 0.655091 -0.75555
    outer loop
      vertex 10.1 -11.1305 5.27347
      vertex 9.1 -11.2828 5.14142
      vertex 9.1 -11.1305 5.27347
    endloop
  endfacet
  facet normal 1 0 0
    outer loop
      vertex 10.1 -10.6073 8.91241
      vertex 10.1 -10.3346 7.01613
      vertex 10.1 -10.3346 7.98387
    endloop
  endfacet
  facet normal 1 0 0
    outer loop
      vertex 10.1 -10.6073 8.91241
      vertex 10.1 -10.6073 6.08759
      vertex 10.1 -10.3346 7.01613
    endloop
  endfacet
  facet normal 1 0 0
    outer loop
      vertex 10.1 -11.1305 9.72653
      vertex 10.1 -10.6073 6.08759
      vertex 10.1 -10.6073 8.91241
    endloop
  endfacet
  facet normal 1 0 0
    outer loop
      vertex 10.1 -11.1305 9.72653
      vertex 10.1 -11.1305 5.27347
      vertex 10.1 -10.6073 6.08759
    endloop
  endfacet
  facet normal 1 0 0
    outer loop
      vertex 10.1 -11.8618 10.3603
      vertex 10.1 -11.1305 5.27347
      vertex 10.1 -11.1305 9.72653
    endloop
  endfacet
  facet normal 1 0 0
    outer loop
      vertex 10.1 -13.4119 4.14142
      vertex 10.1 -11.1305 5.27347
      vertex 10.1 -11.8618 10.3603
    endloop
  endfacet
  facet normal 1 0 0
    outer loop
      vertex 10.1 -13.4119 4.14142
      vertex 10.1 -11.8618 10.3603
      vertex 10.1 -12.7421 10.7623
    endloop
  endfacet
  facet normal 1 0 0
    outer loop
      vertex 10.1 -11.1305 5.27347
      vertex 10.1 -13.4119 4.14142
      vertex 10.1 -11.8618 4.63974
    endloop
  endfacet
  facet normal 1 0 0
    outer loop
      vertex 10.1 -11.8618 4.63974
      vertex 10.1 -13.4119 4.14142
      vertex 10.1 -12.7421 4.23772
    endloop
  endfacet
  facet normal 1 0 0
    outer loop
      vertex 10.1 -13.7 10.9
      vertex 10.1 -13.4119 4.14142
      vertex 10.1 -12.7421 10.7623
    endloop
  endfacet
  facet normal 1 0 0
    outer loop
      vertex 10.1 -13.7 10.9
      vertex 10.1 -13.9881 4.14142
      vertex 10.1 -13.4119 4.14142
    endloop
  endfacet
  facet normal 1 -0 0
    outer loop
      vertex 10.1 -14.6579 10.7623
      vertex 10.1 -13.9881 4.14142
      vertex 10.1 -13.7 10.9
    endloop
  endfacet
  facet normal 1 -0 0
    outer loop
      vertex 10.1 -15.5382 10.3603
      vertex 10.1 -13.9881 4.14142
      vertex 10.1 -14.6579 10.7623
    endloop
  endfacet
  facet normal 1 -0 0
    outer loop
      vertex 10.1 -16.2695 9.72653
      vertex 10.1 -13.9881 4.14142
      vertex 10.1 -15.5382 10.3603
    endloop
  endfacet
  facet normal 1 0 0
    outer loop
      vertex 10.1 -13.9881 4.14142
      vertex 10.1 -15.5382 4.63974
      vertex 10.1 -14.6579 4.23772
    endloop
  endfacet
  facet normal 1 -0 0
    outer loop
      vertex 10.1 -16.2695 5.27347
      vertex 10.1 -13.9881 4.14142
      vertex 10.1 -16.2695 9.72653
    endloop
  endfacet
  facet normal 1 0 0
    outer loop
      vertex 10.1 -13.9881 4.14142
      vertex 10.1 -16.2695 5.27347
      vertex 10.1 -15.5382 4.63974
    endloop
  endfacet
  facet normal 1 -0 0
    outer loop
      vertex 10.1 -16.7927 8.91241
      vertex 10.1 -16.2695 5.27347
      vertex 10.1 -16.2695 9.72653
    endloop
  endfacet
  facet normal 1 0 0
    outer loop
      vertex 10.1 -16.7927 8.91241
      vertex 10.1 -16.7927 6.08759
      vertex 10.1 -16.2695 5.27347
    endloop
  endfacet
  facet normal 1 -0 0
    outer loop
      vertex 10.1 -17.0654 7.98387
      vertex 10.1 -16.7927 6.08759
      vertex 10.1 -16.7927 8.91241
    endloop
  endfacet
  facet normal 1 0 0
    outer loop
      vertex 10.1 -16.7927 6.08759
      vertex 10.1 -17.0654 7.98387
      vertex 10.1 -17.0654 7.01613
    endloop
  endfacet
  facet normal -0.707107 1.702e-15 -0.707107
    outer loop
      vertex 10.1 -13.4119 4.14142
      vertex 9.60168 -11.8618 4.63974
      vertex 10.0037 -12.7421 4.23772
    endloop
  endfacet
  facet normal -0.707107 0 -0.707107
    outer loop
      vertex 9.60168 -11.8618 4.63974
      vertex 10.1 -13.4119 4.14142
      vertex 9.1 -11.2828 5.14142
    endloop
  endfacet
  facet normal -0.707107 0 -0.707107
    outer loop
      vertex 10.1 -13.9881 4.14142
      vertex 9.1 -11.2828 5.14142
      vertex 10.1 -13.4119 4.14142
    endloop
  endfacet
  facet normal -0.707107 -1.702e-15 -0.707107
    outer loop
      vertex 9.60168 -15.5382 4.63974
      vertex 10.1 -13.9881 4.14142
      vertex 10.0037 -14.6579 4.23772
    endloop
  endfacet
  facet normal -0.707107 0 -0.707107
    outer loop
      vertex 10.1 -13.9881 4.14142
      vertex 9.60168 -15.5382 4.63974
      vertex 9.1 -16.1172 5.14142
    endloop
  endfacet
  facet normal -0.707107 0 -0.707107
    outer loop
      vertex 10.1 -13.9881 4.14142
      vertex 9.1 -16.1172 5.14142
      vertex 9.1 -11.2828 5.14142
    endloop
  endfacet
  facet normal 0 0 1
    outer loop
      vertex 12 -3.8738 15
      vertex 10.1 -6 15
      vertex 12 -13.5 15
    endloop
  endfacet
  facet normal -0 0 1
    outer loop
      vertex 8 -3.8738 15
      vertex 10.1 -6 15
      vertex 12 -3.8738 15
    endloop
  endfacet
  facet normal 0 0 1
    outer loop
      vertex 10.1 -6 15
      vertex 8 -3.8738 15
      vertex 8 -6 15
    endloop
  endfacet
  facet normal 0 0 1
    outer loop
      vertex 12 -13.5 15
      vertex 10.1 -6 15
      vertex 10.1 -13.5 15
    endloop
  endfacet
  facet normal 1 0 0
    outer loop
      vertex -8 -3.8738 15
      vertex -8 -6 15
      vertex -8 -4.34999 13
    endloop
  endfacet
  facet normal 1 0 0
    outer loop
      vertex -8 0 15
      vertex -8 -1.65001 13
      vertex -8 0 2
    endloop
  endfacet
  facet normal 1 0 -0
    outer loop
      vertex -8 -1.65001 13
      vertex -8 0 15
      vertex -8 -2.1262 15
    endloop
  endfacet
  facet normal 1 -0 0
    outer loop
      vertex -8 -4.34999 13
      vertex -8 0 2
      vertex -8 -1.65001 13
    endloop
  endfacet
  facet normal 1 0 0
    outer loop
      vertex -8 -6 2
      vertex -8 -4.34999 13
      vertex -8 -6 15
    endloop
  endfacet
  facet normal 1 0 0
    outer loop
      vertex -8 -4.34999 13
      vertex -8 -6 2
      vertex -8 0 2
    endloop
  endfacet
  facet normal -0 0 1
    outer loop
      vertex -12 0 15
      vertex -8 -2.1262 15
      vertex -8 0 15
    endloop
  endfacet
  facet normal 0 0 1
    outer loop
      vertex -8 -2.1262 15
      vertex -12 0 15
      vertex -12 -2.1262 15
    endloop
  endfacet
  facet normal -0 0 1
    outer loop
      vertex 8 0 15
      vertex 12 -2.1262 15
      vertex 12 0 15
    endloop
  endfacet
  facet normal 0 0 1
    outer loop
      vertex 12 -2.1262 15
      vertex 8 0 15
      vertex 8 -2.1262 15
    endloop
  endfacet
  facet normal -1 0 0
    outer loop
      vertex 8 0 2
      vertex 8 -1.65001 13
      vertex 8 0 15
    endloop
  endfacet
  facet normal -1 0 0
    outer loop
      vertex 8 0 2
      vertex 8 -4.34999 13
      vertex 8 -1.65001 13
    endloop
  endfacet
  facet normal -1 0 -0
    outer loop
      vertex 8 -4.34999 13
      vertex 8 0 2
      vertex 8 -6 2
    endloop
  endfacet
  facet normal -1 -0 0
    outer loop
      vertex 8 0 15
      vertex 8 -1.65001 13
      vertex 8 -2.1262 15
    endloop
  endfacet
  facet normal -1 0 0
    outer loop
      vertex 8 -4.34999 13
      vertex 8 -6 15
      vertex 8 -3.8738 15
    endloop
  endfacet
  facet normal -1 0 0
    outer loop
      vertex 8 -6 15
      vertex 8 -4.34999 13
      vertex 8 -6 2
    endloop
  endfacet
  facet normal 0 0 1
    outer loop
      vertex 1.47219 6.94612 2
      vertex 11.0943 18.5659 2
      vertex 1.47219 17.0539 2
    endloop
  endfacet
  facet normal 0 0 1
    outer loop
      vertex 11.0943 18.5659 2
      vertex 1.47219 6.94612 2
      vertex 1.75 6 2
    endloop
  endfacet
  facet normal -0 0 1
    outer loop
      vertex 0.726975 16.4081 2
      vertex 1.47219 6.94612 2
      vertex 1.47219 17.0539 2
    endloop
  endfacet
  facet normal 0 0 1
    outer loop
      vertex 0.726975 16.4081 2
      vertex 0.726975 7.59186 2
      vertex 1.47219 6.94612 2
    endloop
  endfacet
  facet normal -0 0 1
    outer loop
      vertex -0.24905 16.2678 2
      vertex 0.726975 7.59186 2
      vertex 0.726975 16.4081 2
    endloop
  endfacet
  facet normal 0 0 1
    outer loop
      vertex -0.24905 16.2678 2
      vertex -0.24905 7.73219 2
      vertex 0.726975 7.59186 2
    endloop
  endfacet
  facet normal 0 0 1
    outer loop
      vertex -1.14601 16.6774 2
      vertex -0.24905 7.73219 2
      vertex -0.24905 16.2678 2
    endloop
  endfacet
  facet normal 0 0 1
    outer loop
      vertex -1.14601 16.6774 2
      vertex -1.14601 7.32256 2
      vertex -0.24905 7.73219 2
    endloop
  endfacet
  facet normal 0 0 1
    outer loop
      vertex -11.0943 18.5659 2
      vertex -1.14601 16.6774 2
      vertex -1.67911 17.507 2
    endloop
  endfacet
  facet normal 0 0 1
    outer loop
      vertex -1.14601 16.6774 2
      vertex -11.0943 18.5659 2
      vertex -1.14601 7.32256 2
    endloop
  endfacet
  facet normal 0 0 1
    outer loop
      vertex 12 24 2
      vertex 11.0943 18.5659 2
      vertex 12 18.5659 2
    endloop
  endfacet
  facet normal 0 0 1
    outer loop
      vertex 11.0943 18.5659 2
      vertex 1.75 6 2
      vertex 8 0 2
    endloop
  endfacet
  facet normal 0 0 1
    outer loop
      vertex 1.47219 17.0539 2
      vertex 11.0943 18.5659 2
      vertex 1.75 18 2
    endloop
  endfacet
  facet normal -0 0 1
    outer loop
      vertex 1.47219 18.9461 2
      vertex 11.0943 18.5659 2
      vertex 12 24 2
    endloop
  endfacet
  facet normal 0 0 1
    outer loop
      vertex 11.0943 18.5659 2
      vertex 1.47219 18.9461 2
      vertex 1.75 18 2
    endloop
  endfacet
  facet normal 0 0 1
    outer loop
      vertex 12 24 2
      vertex 0.726975 19.5919 2
      vertex 1.47219 18.9461 2
    endloop
  endfacet
  facet normal 0 0 1
    outer loop
      vertex 12 24 2
      vertex -0.24905 19.7322 2
      vertex 0.726975 19.5919 2
    endloop
  endfacet
  facet normal 0 0 1
    outer loop
      vertex -11.0943 18.5659 2
      vertex -1.67911 17.507 2
      vertex -1.67911 18.493 2
    endloop
  endfacet
  facet normal 0 0 1
    outer loop
      vertex -1.14601 7.32256 2
      vertex -11.0943 18.5659 2
      vertex -1.67911 6.49303 2
    endloop
  endfacet
  facet normal 0 -0 1
    outer loop
      vertex -8 0 2
      vertex -1.67911 6.49303 2
      vertex -11.0943 18.5659 2
    endloop
  endfacet
  facet normal 0 0 1
    outer loop
      vertex -1.67911 6.49303 2
      vertex -8 0 2
      vertex -1.67911 5.50697 2
    endloop
  endfacet
  facet normal 0 0 1
    outer loop
      vertex -1.14601 19.3226 2
      vertex -11.0943 18.5659 2
      vertex -1.67911 18.493 2
    endloop
  endfacet
  facet normal 0 0 1
    outer loop
      vertex -12 24 2
      vertex -1.14601 19.3226 2
      vertex -0.24905 19.7322 2
    endloop
  endfacet
  facet normal -0 0 1
    outer loop
      vertex -12 24 2
      vertex -0.24905 19.7322 2
      vertex 12 24 2
    endloop
  endfacet
  facet normal 0 0 1
    outer loop
      vertex -1.14601 19.3226 2
      vertex -12 24 2
      vertex -11.0943 18.5659 2
    endloop
  endfacet
  facet normal 0 0 1
    outer loop
      vertex -11.0943 18.5659 2
      vertex -12 24 2
      vertex -12 18.5659 2
    endloop
  endfacet
  facet normal -0 0 1
    outer loop
      vertex 1.47219 5.05388 2
      vertex 8 0 2
      vertex 1.75 6 2
    endloop
  endfacet
  facet normal -0 0 1
    outer loop
      vertex 0.726975 4.40814 2
      vertex 8 0 2
      vertex 1.47219 5.05388 2
    endloop
  endfacet
  facet normal -0 0 1
    outer loop
      vertex -0.24905 4.26781 2
      vertex 8 0 2
      vertex 0.726975 4.40814 2
    endloop
  endfacet
  facet normal 0 0 1
    outer loop
      vertex 8 0 2
      vertex -0.24905 4.26781 2
      vertex 8 -6 2
    endloop
  endfacet
  facet normal 0 0 1
    outer loop
      vertex -8 0 2
      vertex -0.24905 4.26781 2
      vertex -1.14601 4.67744 2
    endloop
  endfacet
  facet normal 0 0 1
    outer loop
      vertex -8 0 2
      vertex -1.14601 4.67744 2
      vertex -1.67911 5.50697 2
    endloop
  endfacet
  facet normal 0 0 1
    outer loop
      vertex -0.24905 4.26781 2
      vertex -8 0 2
      vertex -8 -6 2
    endloop
  endfacet
  facet normal 0 0 1
    outer loop
      vertex -0.24905 4.26781 2
      vertex -8 -6 2
      vertex 8 -6 2
    endloop
  endfacet
  facet normal -0 0 1
    outer loop
      vertex -12 -1.65001 13
      vertex -8 -4.34999 13
      vertex -8 -1.65001 13
    endloop
  endfacet
  facet normal 0 0 1
    outer loop
      vertex -8 -4.34999 13
      vertex -12 -1.65001 13
      vertex -12 -4.34999 13
    endloop
  endfacet
  facet normal -0 0 1
    outer loop
      vertex 8 -1.65001 13
      vertex 12 -4.34999 13
      vertex 12 -1.65001 13
    endloop
  endfacet
  facet normal 0 0 1
    outer loop
      vertex 12 -4.34999 13
      vertex 8 -1.65001 13
      vertex 8 -4.34999 13
    endloop
  endfacet
  facet normal 0 0.972806 -0.23162
    outer loop
      vertex -8 -4.34999 13
      vertex -12 -3.8738 15
      vertex -8 -3.8738 15
    endloop
  endfacet
  facet normal 0 0.972806 -0.23162
    outer loop
      vertex -12 -3.8738 15
      vertex -8 -4.34999 13
      vertex -12 -4.34999 13
    endloop
  endfacet
  facet normal 0 0.972806 -0.23162
    outer loop
      vertex 12 -4.34999 13
      vertex 8 -3.8738 15
      vertex 12 -3.8738 15
    endloop
  endfacet
  facet normal 0 0.972806 -0.23162
    outer loop
      vertex 8 -3.8738 15
      vertex 12 -4.34999 13
      vertex 8 -4.34999 13
    endloop
  endfacet
  facet normal 0 -0.972806 -0.23162
    outer loop
      vertex -12 -1.65001 13
      vertex -8 -2.1262 15
      vertex -12 -2.1262 15
    endloop
  endfacet
  facet normal 0 -0.972806 -0.23162
    outer loop
      vertex -8 -2.1262 15
      vertex -12 -1.65001 13
      vertex -8 -1.65001 13
    endloop
  endfacet
  facet normal 0 -0.972806 -0.23162
    outer loop
      vertex 8 -1.65001 13
      vertex 12 -2.1262 15
      vertex 8 -2.1262 15
    endloop
  endfacet
  facet normal 0 -0.972806 -0.23162
    outer loop
      vertex 12 -2.1262 15
      vertex 8 -1.65001 13
      vertex 12 -1.65001 13
    endloop
  endfacet
  facet normal 0 1 -0
    outer loop
      vertex 12 24 0
      vertex -12 24 2
      vertex 12 24 2
    endloop
  endfacet
  facet normal 0 1 0
    outer loop
      vertex -12 24 2
      vertex 12 24 0
      vertex -12 24 0
    endloop
  endfacet
  facet normal 0.841257 -0.540636 0
    outer loop
      vertex -1.67911 6.49303 2
      vertex -1.14601 7.32256 0
      vertex -1.14601 7.32256 2
    endloop
  endfacet
  facet normal 0.841257 -0.540636 0
    outer loop
      vertex -1.14601 7.32256 0
      vertex -1.67911 6.49303 2
      vertex -1.67911 6.49303 0
    endloop
  endfacet
  facet normal -0.959492 -0.281736 0
    outer loop
      vertex 1.75 6 0
      vertex 1.47219 6.94612 2
      vertex 1.47219 6.94612 0
    endloop
  endfacet
  facet normal -0.959492 -0.281736 0
    outer loop
      vertex 1.47219 6.94612 2
      vertex 1.75 6 0
      vertex 1.75 6 2
    endloop
  endfacet
  facet normal 0.415417 -0.909631 0
    outer loop
      vertex -1.14601 7.32256 0
      vertex -0.24905 7.73219 2
      vertex -1.14601 7.32256 2
    endloop
  endfacet
  facet normal 0.415417 -0.909631 0
    outer loop
      vertex -0.24905 7.73219 2
      vertex -1.14601 7.32256 0
      vertex -0.24905 7.73219 0
    endloop
  endfacet
  facet normal 0.415417 0.909631 -0
    outer loop
      vertex -0.24905 4.26781 0
      vertex -1.14601 4.67744 2
      vertex -0.24905 4.26781 2
    endloop
  endfacet
  facet normal 0.415417 0.909631 0
    outer loop
      vertex -1.14601 4.67744 2
      vertex -0.24905 4.26781 0
      vertex -1.14601 4.67744 0
    endloop
  endfacet
  facet normal 1 -0 0
    outer loop
      vertex -1.67911 5.50697 2
      vertex -1.67911 6.49303 0
      vertex -1.67911 6.49303 2
    endloop
  endfacet
  facet normal 1 0 0
    outer loop
      vertex -1.67911 6.49303 0
      vertex -1.67911 5.50697 2
      vertex -1.67911 5.50697 0
    endloop
  endfacet
  facet normal -0.142314 0.989822 0
    outer loop
      vertex 0.726975 4.40814 0
      vertex -0.24905 4.26781 2
      vertex 0.726975 4.40814 2
    endloop
  endfacet
  facet normal -0.142314 0.989822 0
    outer loop
      vertex -0.24905 4.26781 2
      vertex 0.726975 4.40814 0
      vertex -0.24905 4.26781 0
    endloop
  endfacet
  facet normal -0.959492 0.281736 0
    outer loop
      vertex 1.47219 5.05388 0
      vertex 1.75 6 2
      vertex 1.75 6 0
    endloop
  endfacet
  facet normal -0.959492 0.281736 0
    outer loop
      vertex 1.75 6 2
      vertex 1.47219 5.05388 0
      vertex 1.47219 5.05388 2
    endloop
  endfacet
  facet normal 0.841257 0.540636 0
    outer loop
      vertex -1.14601 4.67744 2
      vertex -1.67911 5.50697 0
      vertex -1.67911 5.50697 2
    endloop
  endfacet
  facet normal 0.841257 0.540636 0
    outer loop
      vertex -1.67911 5.50697 0
      vertex -1.14601 4.67744 2
      vertex -1.14601 4.67744 0
    endloop
  endfacet
  facet normal -0.654865 -0.755746 0
    outer loop
      vertex 0.726975 7.59186 0
      vertex 1.47219 6.94612 2
      vertex 0.726975 7.59186 2
    endloop
  endfacet
  facet normal -0.654865 -0.755746 -0
    outer loop
      vertex 1.47219 6.94612 2
      vertex 0.726975 7.59186 0
      vertex 1.47219 6.94612 0
    endloop
  endfacet
  facet normal -0.142314 -0.989822 0
    outer loop
      vertex -0.24905 7.73219 0
      vertex 0.726975 7.59186 2
      vertex -0.24905 7.73219 2
    endloop
  endfacet
  facet normal -0.142314 -0.989822 -0
    outer loop
      vertex 0.726975 7.59186 2
      vertex -0.24905 7.73219 0
      vertex 0.726975 7.59186 0
    endloop
  endfacet
  facet normal -0.654865 0.755746 0
    outer loop
      vertex 1.47219 5.05388 0
      vertex 0.726975 4.40814 2
      vertex 1.47219 5.05388 2
    endloop
  endfacet
  facet normal -0.654865 0.755746 0
    outer loop
      vertex 0.726975 4.40814 2
      vertex 1.47219 5.05388 0
      vertex 0.726975 4.40814 0
    endloop
  endfacet
  facet normal 0.841277 -0.540604 0
    outer loop
      vertex -1.67911 18.493 2
      vertex -1.14601 19.3226 0
      vertex -1.14601 19.3226 2
    endloop
  endfacet
  facet normal 0.841277 -0.540604 0
    outer loop
      vertex -1.14601 19.3226 0
      vertex -1.67911 18.493 2
      vertex -1.67911 18.493 0
    endloop
  endfacet
  facet normal -0.95949 -0.281742 0
    outer loop
      vertex 1.75 18 0
      vertex 1.47219 18.9461 2
      vertex 1.47219 18.9461 0
    endloop
  endfacet
  facet normal -0.95949 -0.281742 0
    outer loop
      vertex 1.47219 18.9461 2
      vertex 1.75 18 0
      vertex 1.75 18 2
    endloop
  endfacet
  facet normal 0.415392 -0.909643 0
    outer loop
      vertex -1.14601 19.3226 0
      vertex -0.24905 19.7322 2
      vertex -1.14601 19.3226 2
    endloop
  endfacet
  facet normal 0.415392 -0.909643 0
    outer loop
      vertex -0.24905 19.7322 2
      vertex -1.14601 19.3226 0
      vertex -0.24905 19.7322 0
    endloop
  endfacet
  facet normal 0.415392 0.909643 -0
    outer loop
      vertex -0.24905 16.2678 0
      vertex -1.14601 16.6774 2
      vertex -0.24905 16.2678 2
    endloop
  endfacet
  facet normal 0.415392 0.909643 0
    outer loop
      vertex -1.14601 16.6774 2
      vertex -0.24905 16.2678 0
      vertex -1.14601 16.6774 0
    endloop
  endfacet
  facet normal 1 -0 0
    outer loop
      vertex -1.67911 17.507 2
      vertex -1.67911 18.493 0
      vertex -1.67911 18.493 2
    endloop
  endfacet
  facet normal 1 0 0
    outer loop
      vertex -1.67911 18.493 0
      vertex -1.67911 17.507 2
      vertex -1.67911 17.507 0
    endloop
  endfacet
  facet normal -0.95949 0.281742 0
    outer loop
      vertex 1.47219 17.0539 0
      vertex 1.75 18 2
      vertex 1.75 18 0
    endloop
  endfacet
  facet normal -0.95949 0.281742 0
    outer loop
      vertex 1.75 18 2
      vertex 1.47219 17.0539 0
      vertex 1.47219 17.0539 2
    endloop
  endfacet
  facet normal 0.841277 0.540604 0
    outer loop
      vertex -1.14601 16.6774 2
      vertex -1.67911 17.507 0
      vertex -1.67911 17.507 2
    endloop
  endfacet
  facet normal 0.841277 0.540604 0
    outer loop
      vertex -1.67911 17.507 0
      vertex -1.14601 16.6774 2
      vertex -1.14601 16.6774 0
    endloop
  endfacet
  facet normal -0.6549 -0.755716 0
    outer loop
      vertex 0.726975 19.5919 0
      vertex 1.47219 18.9461 2
      vertex 0.726975 19.5919 2
    endloop
  endfacet
  facet normal -0.6549 -0.755716 -0
    outer loop
      vertex 1.47219 18.9461 2
      vertex 0.726975 19.5919 0
      vertex 1.47219 18.9461 0
    endloop
  endfacet
  facet normal -0.142284 -0.989826 0
    outer loop
      vertex -0.24905 19.7322 0
      vertex 0.726975 19.5919 2
      vertex -0.24905 19.7322 2
    endloop
  endfacet
  facet normal -0.142284 -0.989826 -0
    outer loop
      vertex 0.726975 19.5919 2
      vertex -0.24905 19.7322 0
      vertex 0.726975 19.5919 0
    endloop
  endfacet
  facet normal -0.142284 0.989826 0
    outer loop
      vertex 0.726975 16.4081 0
      vertex -0.24905 16.2678 2
      vertex 0.726975 16.4081 2
    endloop
  endfacet
  facet normal -0.142284 0.989826 0
    outer loop
      vertex -0.24905 16.2678 2
      vertex 0.726975 16.4081 0
      vertex -0.24905 16.2678 0
    endloop
  endfacet
  facet normal -0.6549 0.755716 0
    outer loop
      vertex 1.47219 17.0539 0
      vertex 0.726975 16.4081 2
      vertex 1.47219 17.0539 2
    endloop
  endfacet
  facet normal -0.6549 0.755716 0
    outer loop
      vertex 0.726975 16.4081 2
      vertex 1.47219 17.0539 0
      vertex 0.726975 16.4081 0
    endloop
  endfacet
  facet normal -0.986394 0.164398 0
    outer loop
      vertex 11.0943 18.5659 2
      vertex 8 0 2
      vertex 8 0 15
    endloop
  endfacet
  facet normal -0 0.573577 0.819152
    outer loop
      vertex 11.0943 18.5659 2
      vertex 12 0 15
      vertex 12 18.5659 2
    endloop
  endfacet
  facet normal 0 0.573577 0.819152
    outer loop
      vertex 12 0 15
      vertex 11.0943 18.5659 2
      vertex 8 0 15
    endloop
  endfacet
  facet normal 0.986394 0.164398 0
    outer loop
      vertex -8 0 15
      vertex -8 0 2
      vertex -11.0943 18.5659 2
    endloop
  endfacet
  facet normal 0 0.573577 0.819152
    outer loop
      vertex -12 0 15
      vertex -11.0943 18.5659 2
      vertex -12 18.5659 2
    endloop
  endfacet
  facet normal 0 0.573577 0.819152
    outer loop
      vertex -11.0943 18.5659 2
      vertex -12 0 15
      vertex -8 0 15
    endloop
  endfacet
endsolid OpenSCAD_Model
