solid OpenSCAD_Model
  facet normal 1 0 0
    outer loop
      vertex -8 2.1262 15
      vertex -8 0 15
      vertex -8 1.65001 13
    endloop
  endfacet
  facet normal 1 0 0
    outer loop
      vertex -8 19.9358 8.47895
      vertex -8 19.9358 6.52105
      vertex -8 20 7.5
    endloop
  endfacet
  facet normal 1 0 0
    outer loop
      vertex -8 19.7444 9.44114
      vertex -8 19.9358 6.52105
      vertex -8 19.9358 8.47895
    endloop
  endfacet
  facet normal 1 0 0
    outer loop
      vertex -8 19.7444 9.44114
      vertex -8 19.7444 5.55886
      vertex -8 19.9358 6.52105
    endloop
  endfacet
  facet normal 1 0 0
    outer loop
      vertex -8 19.4291 10.3701
      vertex -8 19.7444 5.55886
      vertex -8 19.7444 9.44114
    endloop
  endfacet
  facet normal 1 0 0
    outer loop
      vertex -8 19.4291 10.3701
      vertex -8 19.4291 4.62988
      vertex -8 19.7444 5.55886
    endloop
  endfacet
  facet normal 1 0 0
    outer loop
      vertex -8 18.9952 11.25
      vertex -8 19.4291 4.62988
      vertex -8 19.4291 10.3701
    endloop
  endfacet
  facet normal 1 0 0
    outer loop
      vertex -8 18.9952 11.25
      vertex -8 18.9952 3.75
      vertex -8 19.4291 4.62988
    endloop
  endfacet
  facet normal 1 0 0
    outer loop
      vertex -8 18.4501 12.0657
      vertex -8 18.9952 3.75
      vertex -8 18.9952 11.25
    endloop
  endfacet
  facet normal 1 0 0
    outer loop
      vertex -8 18.4501 12.0657
      vertex -8 18.4501 2.93429
      vertex -8 18.9952 3.75
    endloop
  endfacet
  facet normal 1 0 0
    outer loop
      vertex -8 17.8033 12.8033
      vertex -8 18.4501 2.93429
      vertex -8 18.4501 12.0657
    endloop
  endfacet
  facet normal 1 0 0
    outer loop
      vertex -8 17.8033 12.8033
      vertex -8 17.8033 2.1967
      vertex -8 18.4501 2.93429
    endloop
  endfacet
  facet normal 1 0 0
    outer loop
      vertex -8 17.0657 13.4501
      vertex -8 17.8033 2.1967
      vertex -8 17.8033 12.8033
    endloop
  endfacet
  facet normal 1 0 0
    outer loop
      vertex -8 17.0657 13.4501
      vertex -8 17.0657 1.54985
      vertex -8 17.8033 2.1967
    endloop
  endfacet
  facet normal 1 0 0
    outer loop
      vertex -8 16.25 13.9952
      vertex -8 17.0657 1.54985
      vertex -8 17.0657 13.4501
    endloop
  endfacet
  facet normal 1 0 0
    outer loop
      vertex -8 16.25 13.9952
      vertex -8 16.25 1.00481
      vertex -8 17.0657 1.54985
    endloop
  endfacet
  facet normal 1 0 0
    outer loop
      vertex -8 15.3701 14.4291
      vertex -8 16.25 1.00481
      vertex -8 16.25 13.9952
    endloop
  endfacet
  facet normal 1 0 0
    outer loop
      vertex -8 15.3701 14.4291
      vertex -8 15.3701 0.570904
      vertex -8 16.25 1.00481
    endloop
  endfacet
  facet normal 1 0 0
    outer loop
      vertex -8 14.4411 14.7444
      vertex -8 15.3701 0.570904
      vertex -8 15.3701 14.4291
    endloop
  endfacet
  facet normal 1 0 0
    outer loop
      vertex -8 14.4411 14.7444
      vertex -8 14.4411 0.255557
      vertex -8 15.3701 0.570904
    endloop
  endfacet
  facet normal 1 0 0
    outer loop
      vertex -8 13.4789 14.9358
      vertex -8 14.4411 0.255557
      vertex -8 14.4411 14.7444
    endloop
  endfacet
  facet normal 1 0 0
    outer loop
      vertex -8 13.4789 14.9358
      vertex -8 13.4789 0.0641642
      vertex -8 14.4411 0.255557
    endloop
  endfacet
  facet normal 1 0 0
    outer loop
      vertex -8 12.5 15
      vertex -8 13.4789 0.0641642
      vertex -8 13.4789 14.9358
    endloop
  endfacet
  facet normal 1 0 0
    outer loop
      vertex -8 12.5 15
      vertex -8 12.5 0
      vertex -8 13.4789 0.0641642
    endloop
  endfacet
  facet normal 1 0 0
    outer loop
      vertex -8 12.5 15
      vertex -8 6 2
      vertex -8 12.5 0
    endloop
  endfacet
  facet normal 1 0 0
    outer loop
      vertex -8 12.5 15
      vertex -8 4.34999 13
      vertex -8 6 2
    endloop
  endfacet
  facet normal 1 0 -0
    outer loop
      vertex -8 4.34999 13
      vertex -8 12.5 15
      vertex -8 3.8738 15
    endloop
  endfacet
  facet normal 1 0 0
    outer loop
      vertex -8 12.5 0
      vertex -8 6 2
      vertex -8 6 0
    endloop
  endfacet
  facet normal 1 -0 0
    outer loop
      vertex -8 1.65001 13
      vertex -8 6 2
      vertex -8 4.34999 13
    endloop
  endfacet
  facet normal 1 0 0
    outer loop
      vertex -8 0 2
      vertex -8 1.65001 13
      vertex -8 0 15
    endloop
  endfacet
  facet normal 1 0 0
    outer loop
      vertex -8 1.65001 13
      vertex -8 0 2
      vertex -8 6 2
    endloop
  endfacet
  facet normal 0 0 1
    outer loop
      vertex -9.9 6 15
      vertex -8 12.5 15
      vertex -9.9 12.5 15
    endloop
  endfacet
  facet normal 0 0 1
    outer loop
      vertex -8 12.5 15
      vertex -9.9 6 15
      vertex -8 3.8738 15
    endloop
  endfacet
  facet normal 0 0 1
    outer loop
      vertex -12 3.8738 15
      vertex -9.9 6 15
      vertex -12 6 15
    endloop
  endfacet
  facet normal 0 0 1
    outer loop
      vertex -9.9 6 15
      vertex -12 3.8738 15
      vertex -8 3.8738 15
    endloop
  endfacet
  facet normal -0 0 1
    outer loop
      vertex -12 2.1262 15
      vertex -8 0 15
      vertex -8 2.1262 15
    endloop
  endfacet
  facet normal 0 0 1
    outer loop
      vertex -8 0 15
      vertex -12 2.1262 15
      vertex -12 0 15
    endloop
  endfacet
  facet normal 0 0 -1
    outer loop
      vertex 1.14601 -16.6774 0
      vertex 1.67911 -6.49303 0
      vertex 1.67911 -17.507 0
    endloop
  endfacet
  facet normal 0 0 -1
    outer loop
      vertex 1.14601 -16.6774 0
      vertex 1.14601 -7.32256 0
      vertex 1.67911 -6.49303 0
    endloop
  endfacet
  facet normal 0 0 -1
    outer loop
      vertex 0.24905 -16.2678 0
      vertex 1.14601 -7.32256 0
      vertex 1.14601 -16.6774 0
    endloop
  endfacet
  facet normal 0 0 -1
    outer loop
      vertex 0.24905 -16.2678 0
      vertex 0.24905 -7.73219 0
      vertex 1.14601 -7.32256 0
    endloop
  endfacet
  facet normal 0 0 -1
    outer loop
      vertex -0.726975 -16.4081 0
      vertex 0.24905 -7.73219 0
      vertex 0.24905 -16.2678 0
    endloop
  endfacet
  facet normal 0 0 -1
    outer loop
      vertex -0.726975 -16.4081 0
      vertex -0.726975 -7.59186 0
      vertex 0.24905 -7.73219 0
    endloop
  endfacet
  facet normal 0 0 -1
    outer loop
      vertex -1.47219 -17.0539 0
      vertex -0.726975 -7.59186 0
      vertex -0.726975 -16.4081 0
    endloop
  endfacet
  facet normal 0 0 -1
    outer loop
      vertex -1.47219 -17.0539 0
      vertex -1.47219 -6.94612 0
      vertex -0.726975 -7.59186 0
    endloop
  endfacet
  facet normal 0 0 -1
    outer loop
      vertex -12 -24 0
      vertex -1.47219 -17.0539 0
      vertex -1.75 -18 0
    endloop
  endfacet
  facet normal -0 0 -1
    outer loop
      vertex -1.47219 -17.0539 0
      vertex -12 -24 0
      vertex -1.47219 -6.94612 0
    endloop
  endfacet
  facet normal 0 0 -1
    outer loop
      vertex 1.67911 -6.49303 0
      vertex 12 6 0
      vertex 12 -24 0
    endloop
  endfacet
  facet normal 0 0 -1
    outer loop
      vertex 9.9 6 0
      vertex 8 6 0
      vertex 9.9 12.5 0
    endloop
  endfacet
  facet normal 0 0 -1
    outer loop
      vertex 1.67911 -5.50697 0
      vertex 12 6 0
      vertex 1.67911 -6.49303 0
    endloop
  endfacet
  facet normal 0 0 -1
    outer loop
      vertex 1.67911 -17.507 0
      vertex 12 -24 0
      vertex 1.67911 -18.493 0
    endloop
  endfacet
  facet normal 0 0 -1
    outer loop
      vertex 12 -24 0
      vertex 1.14601 -19.3226 0
      vertex 1.67911 -18.493 0
    endloop
  endfacet
  facet normal 0 0 -1
    outer loop
      vertex 12 -24 0
      vertex 0.24905 -19.7322 0
      vertex 1.14601 -19.3226 0
    endloop
  endfacet
  facet normal 0 0 -1
    outer loop
      vertex -12 -24 0
      vertex 0.24905 -19.7322 0
      vertex 12 -24 0
    endloop
  endfacet
  facet normal -0 0 -1
    outer loop
      vertex -1.47219 -6.94612 0
      vertex -12 -24 0
      vertex -1.75 -6 0
    endloop
  endfacet
  facet normal 0 0 -1
    outer loop
      vertex -8 6 0
      vertex -9.9 6 0
      vertex -8 12.5 0
    endloop
  endfacet
  facet normal 0 0 -1
    outer loop
      vertex -1.75 -6 0
      vertex -9.9 6 0
      vertex -8 6 0
    endloop
  endfacet
  facet normal 0 0 -1
    outer loop
      vertex -12 -24 0
      vertex -1.75 -18 0
      vertex -1.47219 -18.9461 0
    endloop
  endfacet
  facet normal -0 0 -1
    outer loop
      vertex 0.24905 -19.7322 0
      vertex -12 -24 0
      vertex -0.726975 -19.5919 0
    endloop
  endfacet
  facet normal 0 0 -1
    outer loop
      vertex -12 -24 0
      vertex -1.47219 -18.9461 0
      vertex -0.726975 -19.5919 0
    endloop
  endfacet
  facet normal -0 0 -1
    outer loop
      vertex -1.75 -6 0
      vertex -12 -24 0
      vertex -12 6 0
    endloop
  endfacet
  facet normal 0 0 -1
    outer loop
      vertex -1.75 -6 0
      vertex -12 6 0
      vertex -9.9 6 0
    endloop
  endfacet
  facet normal -0 0 -1
    outer loop
      vertex 9.9 12.5 0
      vertex 8 6 0
      vertex 8 12.5 0
    endloop
  endfacet
  facet normal 0 0 -1
    outer loop
      vertex 1.67911 -6.49303 0
      vertex 12 -24 0
      vertex 1.67911 -17.507 0
    endloop
  endfacet
  facet normal -0 0 -1
    outer loop
      vertex 12 6 0
      vertex 1.67911 -5.50697 0
      vertex 9.9 6 0
    endloop
  endfacet
  facet normal -0 0 -1
    outer loop
      vertex 9.9 6 0
      vertex 1.67911 -5.50697 0
      vertex 8 6 0
    endloop
  endfacet
  facet normal 0 0 -1
    outer loop
      vertex 1.14601 -4.67744 0
      vertex 8 6 0
      vertex 1.67911 -5.50697 0
    endloop
  endfacet
  facet normal 0 0 -1
    outer loop
      vertex 0.24905 -4.26781 0
      vertex 8 6 0
      vertex 1.14601 -4.67744 0
    endloop
  endfacet
  facet normal 0 0 -1
    outer loop
      vertex -8 6 0
      vertex 0.24905 -4.26781 0
      vertex -0.726975 -4.40814 0
    endloop
  endfacet
  facet normal 0 0 -1
    outer loop
      vertex -8 6 0
      vertex -0.726975 -4.40814 0
      vertex -1.47219 -5.05388 0
    endloop
  endfacet
  facet normal 0 0 -1
    outer loop
      vertex 0.24905 -4.26781 0
      vertex -8 6 0
      vertex 8 6 0
    endloop
  endfacet
  facet normal 0 0 -1
    outer loop
      vertex -8 6 0
      vertex -1.47219 -5.05388 0
      vertex -1.75 -6 0
    endloop
  endfacet
  facet normal -0 0 -1
    outer loop
      vertex -8 12.5 0
      vertex -9.9 6 0
      vertex -9.9 12.5 0
    endloop
  endfacet
  facet normal -1 0 0
    outer loop
      vertex -12 6 0
      vertex -12 4.34999 13
      vertex -12 6 15
    endloop
  endfacet
  facet normal -1 0 0
    outer loop
      vertex -12 6 0
      vertex -12 1.65001 13
      vertex -12 4.34999 13
    endloop
  endfacet
  facet normal -1 0 0
    outer loop
      vertex -12 -18.5659 2
      vertex -12 1.65001 13
      vertex -12 6 0
    endloop
  endfacet
  facet normal -1 -0 0
    outer loop
      vertex -12 1.65001 13
      vertex -12 -18.5659 2
      vertex -12 0 15
    endloop
  endfacet
  facet normal -1 0 0
    outer loop
      vertex -12 -24 0
      vertex -12 -18.5659 2
      vertex -12 6 0
    endloop
  endfacet
  facet normal -1 -0 0
    outer loop
      vertex -12 -18.5659 2
      vertex -12 -24 0
      vertex -12 -24 2
    endloop
  endfacet
  facet normal -1 -0 0
    outer loop
      vertex -12 6 15
      vertex -12 4.34999 13
      vertex -12 3.8738 15
    endloop
  endfacet
  facet normal -1 -0 0
    outer loop
      vertex -12 2.1262 15
      vertex -12 1.65001 13
      vertex -12 0 15
    endloop
  endfacet
  facet normal 0 1 -0
    outer loop
      vertex 12 6 0
      vertex 9.9 6 15
      vertex 12 6 15
    endloop
  endfacet
  facet normal 0 1 0
    outer loop
      vertex 9.9 6 15
      vertex 12 6 0
      vertex 9.9 6 0
    endloop
  endfacet
  facet normal 0 1 -0
    outer loop
      vertex 8 6 0
      vertex -8 6 2
      vertex 8 6 2
    endloop
  endfacet
  facet normal 0 1 0
    outer loop
      vertex -8 6 2
      vertex 8 6 0
      vertex -8 6 0
    endloop
  endfacet
  facet normal 0 1 -0
    outer loop
      vertex -9.9 6 0
      vertex -12 6 15
      vertex -9.9 6 15
    endloop
  endfacet
  facet normal 0 1 0
    outer loop
      vertex -12 6 15
      vertex -9.9 6 0
      vertex -12 6 0
    endloop
  endfacet
  facet normal -0 0 1
    outer loop
      vertex 8 2.1262 15
      vertex 12 0 15
      vertex 12 2.1262 15
    endloop
  endfacet
  facet normal 0 0 1
    outer loop
      vertex 12 0 15
      vertex 8 2.1262 15
      vertex 8 0 15
    endloop
  endfacet
  facet normal 0 0 1
    outer loop
      vertex 9.9 12.5 15
      vertex 8 12.5 15
      vertex 9.9 6 15
    endloop
  endfacet
  facet normal -0 0 1
    outer loop
      vertex 9.9 6 15
      vertex 12 3.8738 15
      vertex 12 6 15
    endloop
  endfacet
  facet normal 0 0 1
    outer loop
      vertex 9.9 6 15
      vertex 8 3.8738 15
      vertex 12 3.8738 15
    endloop
  endfacet
  facet normal 0 0 1
    outer loop
      vertex 8 3.8738 15
      vertex 9.9 6 15
      vertex 8 12.5 15
    endloop
  endfacet
  facet normal 1 0 0
    outer loop
      vertex 12 2.1262 15
      vertex 12 0 15
      vertex 12 1.65001 13
    endloop
  endfacet
  facet normal 1 0 0
    outer loop
      vertex 12 6 15
      vertex 12 4.34999 13
      vertex 12 6 0
    endloop
  endfacet
  facet normal 1 0 -0
    outer loop
      vertex 12 4.34999 13
      vertex 12 6 15
      vertex 12 3.8738 15
    endloop
  endfacet
  facet normal 1 -0 0
    outer loop
      vertex 12 1.65001 13
      vertex 12 6 0
      vertex 12 4.34999 13
    endloop
  endfacet
  facet normal 1 0 0
    outer loop
      vertex 12 -18.5659 2
      vertex 12 1.65001 13
      vertex 12 0 15
    endloop
  endfacet
  facet normal 1 0 0
    outer loop
      vertex 12 1.65001 13
      vertex 12 -18.5659 2
      vertex 12 6 0
    endloop
  endfacet
  facet normal 1 0 0
    outer loop
      vertex 12 -24 0
      vertex 12 -18.5659 2
      vertex 12 -24 2
    endloop
  endfacet
  facet normal 1 0 0
    outer loop
      vertex 12 -18.5659 2
      vertex 12 -24 0
      vertex 12 6 0
    endloop
  endfacet
  facet normal -1 0 0
    outer loop
      vertex 8 6 2
      vertex 8 1.65001 13
      vertex 8 4.34999 13
    endloop
  endfacet
  facet normal -1 0 -0
    outer loop
      vertex 8 1.65001 13
      vertex 8 6 2
      vertex 8 0 2
    endloop
  endfacet
  facet normal -1 0 0
    outer loop
      vertex 8 19.9358 6.52105
      vertex 8 19.9358 8.47895
      vertex 8 20 7.5
    endloop
  endfacet
  facet normal -1 0 0
    outer loop
      vertex 8 19.7444 5.55886
      vertex 8 19.9358 8.47895
      vertex 8 19.9358 6.52105
    endloop
  endfacet
  facet normal -1 0 0
    outer loop
      vertex 8 19.7444 5.55886
      vertex 8 19.7444 9.44114
      vertex 8 19.9358 8.47895
    endloop
  endfacet
  facet normal -1 0 0
    outer loop
      vertex 8 19.4291 4.62988
      vertex 8 19.7444 9.44114
      vertex 8 19.7444 5.55886
    endloop
  endfacet
  facet normal -1 0 0
    outer loop
      vertex 8 19.4291 4.62988
      vertex 8 19.4291 10.3701
      vertex 8 19.7444 9.44114
    endloop
  endfacet
  facet normal -1 0 0
    outer loop
      vertex 8 18.9952 3.75
      vertex 8 19.4291 10.3701
      vertex 8 19.4291 4.62988
    endloop
  endfacet
  facet normal -1 0 0
    outer loop
      vertex 8 18.9952 3.75
      vertex 8 18.9952 11.25
      vertex 8 19.4291 10.3701
    endloop
  endfacet
  facet normal -1 0 0
    outer loop
      vertex 8 18.4501 2.93429
      vertex 8 18.9952 11.25
      vertex 8 18.9952 3.75
    endloop
  endfacet
  facet normal -1 0 0
    outer loop
      vertex 8 18.4501 2.93429
      vertex 8 18.4501 12.0657
      vertex 8 18.9952 11.25
    endloop
  endfacet
  facet normal -1 0 0
    outer loop
      vertex 8 17.8033 2.1967
      vertex 8 18.4501 12.0657
      vertex 8 18.4501 2.93429
    endloop
  endfacet
  facet normal -1 0 0
    outer loop
      vertex 8 17.8033 2.1967
      vertex 8 17.8033 12.8033
      vertex 8 18.4501 12.0657
    endloop
  endfacet
  facet normal -1 0 0
    outer loop
      vertex 8 17.0657 1.54985
      vertex 8 17.8033 12.8033
      vertex 8 17.8033 2.1967
    endloop
  endfacet
  facet normal -1 0 0
    outer loop
      vertex 8 17.0657 1.54985
      vertex 8 17.0657 13.4501
      vertex 8 17.8033 12.8033
    endloop
  endfacet
  facet normal -1 0 0
    outer loop
      vertex 8 16.25 1.00481
      vertex 8 17.0657 13.4501
      vertex 8 17.0657 1.54985
    endloop
  endfacet
  facet normal -1 0 0
    outer loop
      vertex 8 16.25 1.00481
      vertex 8 16.25 13.9952
      vertex 8 17.0657 13.4501
    endloop
  endfacet
  facet normal -1 0 0
    outer loop
      vertex 8 15.3701 0.570904
      vertex 8 16.25 13.9952
      vertex 8 16.25 1.00481
    endloop
  endfacet
  facet normal -1 0 0
    outer loop
      vertex 8 15.3701 0.570904
      vertex 8 15.3701 14.4291
      vertex 8 16.25 13.9952
    endloop
  endfacet
  facet normal -1 0 0
    outer loop
      vertex 8 14.4411 0.255557
      vertex 8 15.3701 14.4291
      vertex 8 15.3701 0.570904
    endloop
  endfacet
  facet normal -1 0 0
    outer loop
      vertex 8 14.4411 0.255557
      vertex 8 14.4411 14.7444
      vertex 8 15.3701 14.4291
    endloop
  endfacet
  facet normal -1 0 0
    outer loop
      vertex 8 13.4789 0.0641642
      vertex 8 14.4411 14.7444
      vertex 8 14.4411 0.255557
    endloop
  endfacet
  facet normal -1 0 0
    outer loop
      vertex 8 13.4789 0.0641642
      vertex 8 13.4789 14.9358
      vertex 8 14.4411 14.7444
    endloop
  endfacet
  facet normal -1 0 0
    outer loop
      vertex 8 12.5 0
      vertex 8 13.4789 14.9358
      vertex 8 13.4789 0.0641642
    endloop
  endfacet
  facet normal -1 0 0
    outer loop
      vertex 8 12.5 0
      vertex 8 12.5 15
      vertex 8 13.4789 14.9358
    endloop
  endfacet
  facet normal -1 0 0
    outer loop
      vertex 8 6 2
      vertex 8 12.5 0
      vertex 8 6 0
    endloop
  endfacet
  facet normal -1 0 0
    outer loop
      vertex 8 12.5 0
      vertex 8 6 2
      vertex 8 12.5 15
    endloop
  endfacet
  facet normal -1 0 0
    outer loop
      vertex 8 4.34999 13
      vertex 8 12.5 15
      vertex 8 6 2
    endloop
  endfacet
  facet normal -1 -0 0
    outer loop
      vertex 8 12.5 15
      vertex 8 4.34999 13
      vertex 8 3.8738 15
    endloop
  endfacet
  facet normal -1 0 0
    outer loop
      vertex 8 1.65001 13
      vertex 8 0 15
      vertex 8 2.1262 15
    endloop
  endfacet
  facet normal -1 0 0
    outer loop
      vertex 8 0 15
      vertex 8 1.65001 13
      vertex 8 0 2
    endloop
  endfacet
  facet normal -0 0 1
    outer loop
      vertex 1.14601 -16.6774 2
      vertex 11.0943 -18.5659 2
      vertex 1.14601 -7.32256 2
    endloop
  endfacet
  facet normal 0 0 1
    outer loop
      vertex 11.0943 -18.5659 2
      vertex 1.14601 -16.6774 2
      vertex 1.67911 -17.507 2
    endloop
  endfacet
  facet normal -0 0 1
    outer loop
      vertex 0.24905 -7.73219 2
      vertex 1.14601 -16.6774 2
      vertex 1.14601 -7.32256 2
    endloop
  endfacet
  facet normal 0 0 1
    outer loop
      vertex 0.24905 -7.73219 2
      vertex 0.24905 -16.2678 2
      vertex 1.14601 -16.6774 2
    endloop
  endfacet
  facet normal 0 0 1
    outer loop
      vertex -0.726975 -7.59186 2
      vertex 0.24905 -16.2678 2
      vertex 0.24905 -7.73219 2
    endloop
  endfacet
  facet normal 0 0 1
    outer loop
      vertex -0.726975 -7.59186 2
      vertex -0.726975 -16.4081 2
      vertex 0.24905 -16.2678 2
    endloop
  endfacet
  facet normal 0 0 1
    outer loop
      vertex -1.47219 -6.94612 2
      vertex -0.726975 -16.4081 2
      vertex -0.726975 -7.59186 2
    endloop
  endfacet
  facet normal 0 0 1
    outer loop
      vertex -1.47219 -6.94612 2
      vertex -1.47219 -17.0539 2
      vertex -0.726975 -16.4081 2
    endloop
  endfacet
  facet normal 0 0 1
    outer loop
      vertex -11.0943 -18.5659 2
      vertex -1.47219 -6.94612 2
      vertex -1.75 -6 2
    endloop
  endfacet
  facet normal 0 0 1
    outer loop
      vertex -1.47219 -6.94612 2
      vertex -11.0943 -18.5659 2
      vertex -1.47219 -17.0539 2
    endloop
  endfacet
  facet normal 0 0 1
    outer loop
      vertex 0.24905 -4.26781 2
      vertex 8 0 2
      vertex 8 6 2
    endloop
  endfacet
  facet normal 0 0 1
    outer loop
      vertex 8 0 2
      vertex 1.14601 -4.67744 2
      vertex 1.67911 -5.50697 2
    endloop
  endfacet
  facet normal 0 0 1
    outer loop
      vertex 8 0 2
      vertex 0.24905 -4.26781 2
      vertex 1.14601 -4.67744 2
    endloop
  endfacet
  facet normal -0 0 1
    outer loop
      vertex -8 6 2
      vertex 0.24905 -4.26781 2
      vertex 8 6 2
    endloop
  endfacet
  facet normal -0 0 1
    outer loop
      vertex -8 0 2
      vertex 0.24905 -4.26781 2
      vertex -8 6 2
    endloop
  endfacet
  facet normal 0 0 1
    outer loop
      vertex -1.47219 -5.05388 2
      vertex -8 0 2
      vertex -1.75 -6 2
    endloop
  endfacet
  facet normal 0 0 1
    outer loop
      vertex -0.726975 -4.40814 2
      vertex -8 0 2
      vertex -1.47219 -5.05388 2
    endloop
  endfacet
  facet normal 0 0 1
    outer loop
      vertex 0.24905 -4.26781 2
      vertex -8 0 2
      vertex -0.726975 -4.40814 2
    endloop
  endfacet
  facet normal -0 0 1
    outer loop
      vertex 11.0943 -18.5659 2
      vertex 12 -24 2
      vertex 12 -18.5659 2
    endloop
  endfacet
  facet normal 0 0 1
    outer loop
      vertex 1.67911 -6.49303 2
      vertex 8 0 2
      vertex 1.67911 -5.50697 2
    endloop
  endfacet
  facet normal 0 0 1
    outer loop
      vertex 8 0 2
      vertex 1.67911 -6.49303 2
      vertex 11.0943 -18.5659 2
    endloop
  endfacet
  facet normal -0 0 1
    outer loop
      vertex 1.14601 -7.32256 2
      vertex 11.0943 -18.5659 2
      vertex 1.67911 -6.49303 2
    endloop
  endfacet
  facet normal -0 0 1
    outer loop
      vertex 1.67911 -18.493 2
      vertex 11.0943 -18.5659 2
      vertex 1.67911 -17.507 2
    endloop
  endfacet
  facet normal 0 0 1
    outer loop
      vertex 11.0943 -18.5659 2
      vertex 1.67911 -18.493 2
      vertex 12 -24 2
    endloop
  endfacet
  facet normal -0 0 1
    outer loop
      vertex 1.14601 -19.3226 2
      vertex 12 -24 2
      vertex 1.67911 -18.493 2
    endloop
  endfacet
  facet normal -0 0 1
    outer loop
      vertex 0.24905 -19.7322 2
      vertex 12 -24 2
      vertex 1.14601 -19.3226 2
    endloop
  endfacet
  facet normal 0 0 1
    outer loop
      vertex -12 -24 2
      vertex 0.24905 -19.7322 2
      vertex -0.726975 -19.5919 2
    endloop
  endfacet
  facet normal 0 0 1
    outer loop
      vertex -11.0943 -18.5659 2
      vertex -1.75 -6 2
      vertex -8 0 2
    endloop
  endfacet
  facet normal 0 0 1
    outer loop
      vertex -1.47219 -17.0539 2
      vertex -11.0943 -18.5659 2
      vertex -1.75 -18 2
    endloop
  endfacet
  facet normal 0 0 1
    outer loop
      vertex -1.75 -18 2
      vertex -11.0943 -18.5659 2
      vertex -1.47219 -18.9461 2
    endloop
  endfacet
  facet normal 0 0 1
    outer loop
      vertex -12 -24 2
      vertex -1.47219 -18.9461 2
      vertex -11.0943 -18.5659 2
    endloop
  endfacet
  facet normal 0 0 1
    outer loop
      vertex -1.47219 -18.9461 2
      vertex -12 -24 2
      vertex -0.726975 -19.5919 2
    endloop
  endfacet
  facet normal 0 0 1
    outer loop
      vertex -12 -24 2
      vertex -11.0943 -18.5659 2
      vertex -12 -18.5659 2
    endloop
  endfacet
  facet normal 0 0 1
    outer loop
      vertex 0.24905 -19.7322 2
      vertex -12 -24 2
      vertex 12 -24 2
    endloop
  endfacet
  facet normal -0 0 1
    outer loop
      vertex -12 4.34999 13
      vertex -8 1.65001 13
      vertex -8 4.34999 13
    endloop
  endfacet
  facet normal 0 0 1
    outer loop
      vertex -8 1.65001 13
      vertex -12 4.34999 13
      vertex -12 1.65001 13
    endloop
  endfacet
  facet normal -0 0 1
    outer loop
      vertex 8 4.34999 13
      vertex 12 1.65001 13
      vertex 12 4.34999 13
    endloop
  endfacet
  facet normal 0 0 1
    outer loop
      vertex 12 1.65001 13
      vertex 8 4.34999 13
      vertex 8 1.65001 13
    endloop
  endfacet
  facet normal 0 0.972806 -0.23162
    outer loop
      vertex -8 1.65001 13
      vertex -12 2.1262 15
      vertex -8 2.1262 15
    endloop
  endfacet
  facet normal 0 0.972806 -0.23162
    outer loop
      vertex -12 2.1262 15
      vertex -8 1.65001 13
      vertex -12 1.65001 13
    endloop
  endfacet
  facet normal 0 0.972806 -0.23162
    outer loop
      vertex 12 1.65001 13
      vertex 8 2.1262 15
      vertex 12 2.1262 15
    endloop
  endfacet
  facet normal 0 0.972806 -0.23162
    outer loop
      vertex 8 2.1262 15
      vertex 12 1.65001 13
      vertex 8 1.65001 13
    endloop
  endfacet
  facet normal 0 -0.972806 -0.23162
    outer loop
      vertex -12 4.34999 13
      vertex -8 3.8738 15
      vertex -12 3.8738 15
    endloop
  endfacet
  facet normal 0 -0.972806 -0.23162
    outer loop
      vertex -8 3.8738 15
      vertex -12 4.34999 13
      vertex -8 4.34999 13
    endloop
  endfacet
  facet normal 0 -0.972806 -0.23162
    outer loop
      vertex 8 4.34999 13
      vertex 12 3.8738 15
      vertex 8 3.8738 15
    endloop
  endfacet
  facet normal 0 -0.972806 -0.23162
    outer loop
      vertex 12 3.8738 15
      vertex 8 4.34999 13
      vertex 12 4.34999 13
    endloop
  endfacet
  facet normal 0 0.321434 -0.946932
    outer loop
      vertex -9.9 14.4411 0.255557
      vertex -8 15.3701 0.570904
      vertex -8 14.4411 0.255557
    endloop
  endfacet
  facet normal 0 0.321434 -0.946932
    outer loop
      vertex -8 15.3701 0.570904
      vertex -9.9 14.4411 0.255557
      vertex -9.9 15.3701 0.570904
    endloop
  endfacet
  facet normal -0 0.0654432 0.997856
    outer loop
      vertex -9.9 13.4789 14.9358
      vertex -8 12.5 15
      vertex -8 13.4789 14.9358
    endloop
  endfacet
  facet normal 0 0.0654432 0.997856
    outer loop
      vertex -8 12.5 15
      vertex -9.9 13.4789 14.9358
      vertex -9.9 12.5 15
    endloop
  endfacet
  facet normal 0 0.997857 0.0654399
    outer loop
      vertex -8 20 7.5
      vertex -9.9 19.9358 8.47895
      vertex -8 19.9358 8.47895
    endloop
  endfacet
  facet normal 0 0.997857 0.0654399
    outer loop
      vertex -9.9 19.9358 8.47895
      vertex -8 20 7.5
      vertex -9.9 20 7.5
    endloop
  endfacet
  facet normal 0 0.442278 -0.896878
    outer loop
      vertex -9.9 15.3701 0.570904
      vertex -8 16.25 1.00481
      vertex -8 15.3701 0.570904
    endloop
  endfacet
  facet normal 0 0.442278 -0.896878
    outer loop
      vertex -8 16.25 1.00481
      vertex -9.9 15.3701 0.570904
      vertex -9.9 16.25 1.00481
    endloop
  endfacet
  facet normal 0 0.0654069 -0.997859
    outer loop
      vertex -9.9 12.5 0
      vertex -8 13.4789 0.0641642
      vertex -8 12.5 0
    endloop
  endfacet
  facet normal 0 0.0654069 -0.997859
    outer loop
      vertex -8 13.4789 0.0641642
      vertex -9.9 12.5 0
      vertex -9.9 13.4789 0.0641642
    endloop
  endfacet
  facet normal 0 0.751869 0.659312
    outer loop
      vertex -8 18.4501 12.0657
      vertex -9.9 17.8033 12.8033
      vertex -8 17.8033 12.8033
    endloop
  endfacet
  facet normal 0 0.751869 0.659312
    outer loop
      vertex -9.9 17.8033 12.8033
      vertex -8 18.4501 12.0657
      vertex -9.9 18.4501 12.0657
    endloop
  endfacet
  facet normal -0 0.659312 0.751869
    outer loop
      vertex -9.9 17.8033 12.8033
      vertex -8 17.0657 13.4501
      vertex -8 17.8033 12.8033
    endloop
  endfacet
  facet normal 0 0.659312 0.751869
    outer loop
      vertex -8 17.0657 13.4501
      vertex -9.9 17.8033 12.8033
      vertex -9.9 17.0657 13.4501
    endloop
  endfacet
  facet normal 0 0.946942 0.321403
    outer loop
      vertex -8 19.7444 9.44114
      vertex -9.9 19.4291 10.3701
      vertex -8 19.4291 10.3701
    endloop
  endfacet
  facet normal 0 0.946942 0.321403
    outer loop
      vertex -9.9 19.4291 10.3701
      vertex -8 19.7444 9.44114
      vertex -9.9 19.7444 9.44114
    endloop
  endfacet
  facet normal 0 0.896876 -0.442281
    outer loop
      vertex -8 18.9952 3.75
      vertex -9.9 19.4291 4.62988
      vertex -8 19.4291 4.62988
    endloop
  endfacet
  facet normal 0 0.896876 -0.442281
    outer loop
      vertex -9.9 19.4291 4.62988
      vertex -8 18.9952 3.75
      vertex -9.9 18.9952 3.75
    endloop
  endfacet
  facet normal 0 0.751865 -0.659318
    outer loop
      vertex -8 17.8033 2.1967
      vertex -9.9 18.4501 2.93429
      vertex -8 18.4501 2.93429
    endloop
  endfacet
  facet normal 0 0.751865 -0.659318
    outer loop
      vertex -9.9 18.4501 2.93429
      vertex -8 17.8033 2.1967
      vertex -9.9 17.8033 2.1967
    endloop
  endfacet
  facet normal 0 0.946944 -0.321397
    outer loop
      vertex -8 19.4291 4.62988
      vertex -9.9 19.7444 5.55886
      vertex -8 19.7444 5.55886
    endloop
  endfacet
  facet normal 0 0.946944 -0.321397
    outer loop
      vertex -9.9 19.7444 5.55886
      vertex -8 19.4291 4.62988
      vertex -9.9 19.4291 4.62988
    endloop
  endfacet
  facet normal 0 0.555575 -0.831466
    outer loop
      vertex -9.9 16.25 1.00481
      vertex -8 17.0657 1.54985
      vertex -8 16.25 1.00481
    endloop
  endfacet
  facet normal 0 0.555575 -0.831466
    outer loop
      vertex -8 17.0657 1.54985
      vertex -9.9 16.25 1.00481
      vertex -9.9 17.0657 1.54985
    endloop
  endfacet
  facet normal 0 0.980784 0.195099
    outer loop
      vertex -8 19.9358 8.47895
      vertex -9.9 19.7444 9.44114
      vertex -8 19.7444 9.44114
    endloop
  endfacet
  facet normal 0 0.980784 0.195099
    outer loop
      vertex -9.9 19.7444 9.44114
      vertex -8 19.9358 8.47895
      vertex -9.9 19.9358 8.47895
    endloop
  endfacet
  facet normal 0 0.659341 -0.751844
    outer loop
      vertex -9.9 17.0657 1.54985
      vertex -8 17.8033 2.1967
      vertex -8 17.0657 1.54985
    endloop
  endfacet
  facet normal 0 0.659341 -0.751844
    outer loop
      vertex -8 17.8033 2.1967
      vertex -9.9 17.0657 1.54985
      vertex -9.9 17.8033 2.1967
    endloop
  endfacet
  facet normal 0 0.831438 0.555617
    outer loop
      vertex -8 18.9952 11.25
      vertex -9.9 18.4501 12.0657
      vertex -8 18.4501 12.0657
    endloop
  endfacet
  facet normal 0 0.831438 0.555617
    outer loop
      vertex -9.9 18.4501 12.0657
      vertex -8 18.9952 11.25
      vertex -9.9 18.9952 11.25
    endloop
  endfacet
  facet normal -0 0.555617 0.831438
    outer loop
      vertex -9.9 17.0657 13.4501
      vertex -8 16.25 13.9952
      vertex -8 17.0657 13.4501
    endloop
  endfacet
  facet normal 0 0.555617 0.831438
    outer loop
      vertex -8 16.25 13.9952
      vertex -9.9 17.0657 13.4501
      vertex -9.9 16.25 13.9952
    endloop
  endfacet
  facet normal 0 0.19509 -0.980785
    outer loop
      vertex -9.9 13.4789 0.0641642
      vertex -8 14.4411 0.255557
      vertex -8 13.4789 0.0641642
    endloop
  endfacet
  facet normal 0 0.19509 -0.980785
    outer loop
      vertex -8 14.4411 0.255557
      vertex -9.9 13.4789 0.0641642
      vertex -9.9 14.4411 0.255557
    endloop
  endfacet
  facet normal 0 0.89688 0.442273
    outer loop
      vertex -8 19.4291 10.3701
      vertex -9.9 18.9952 11.25
      vertex -8 18.9952 11.25
    endloop
  endfacet
  facet normal 0 0.89688 0.442273
    outer loop
      vertex -9.9 18.9952 11.25
      vertex -8 19.4291 10.3701
      vertex -9.9 19.4291 10.3701
    endloop
  endfacet
  facet normal 0 0.997857 -0.0654399
    outer loop
      vertex -8 19.9358 6.52105
      vertex -9.9 20 7.5
      vertex -8 20 7.5
    endloop
  endfacet
  facet normal 0 0.997857 -0.0654399
    outer loop
      vertex -9.9 20 7.5
      vertex -8 19.9358 6.52105
      vertex -9.9 19.9358 6.52105
    endloop
  endfacet
  facet normal -0 0.321391 0.946947
    outer loop
      vertex -9.9 15.3701 14.4291
      vertex -8 14.4411 14.7444
      vertex -8 15.3701 14.4291
    endloop
  endfacet
  facet normal 0 0.321391 0.946947
    outer loop
      vertex -8 14.4411 14.7444
      vertex -9.9 15.3701 14.4291
      vertex -9.9 14.4411 14.7444
    endloop
  endfacet
  facet normal -0 0.195097 0.980784
    outer loop
      vertex -9.9 14.4411 14.7444
      vertex -8 13.4789 14.9358
      vertex -8 14.4411 14.7444
    endloop
  endfacet
  facet normal 0 0.195097 0.980784
    outer loop
      vertex -8 13.4789 14.9358
      vertex -9.9 14.4411 14.7444
      vertex -9.9 13.4789 14.9358
    endloop
  endfacet
  facet normal 0 0.831441 -0.555613
    outer loop
      vertex -8 18.4501 2.93429
      vertex -9.9 18.9952 3.75
      vertex -8 18.9952 3.75
    endloop
  endfacet
  facet normal 0 0.831441 -0.555613
    outer loop
      vertex -9.9 18.9952 3.75
      vertex -8 18.4501 2.93429
      vertex -9.9 18.4501 2.93429
    endloop
  endfacet
  facet normal -0 0.442273 0.89688
    outer loop
      vertex -9.9 16.25 13.9952
      vertex -8 15.3701 14.4291
      vertex -8 16.25 13.9952
    endloop
  endfacet
  facet normal 0 0.442273 0.89688
    outer loop
      vertex -8 15.3701 14.4291
      vertex -9.9 16.25 13.9952
      vertex -9.9 15.3701 14.4291
    endloop
  endfacet
  facet normal -1 0 0
    outer loop
      vertex -9.9 16.0916 7.74567
      vertex -9.9 20 7.5
      vertex -9.9 19.9358 6.52105
    endloop
  endfacet
  facet normal -1 0 0
    outer loop
      vertex -9.9 16.0247 6.76756
      vertex -9.9 19.9358 6.52105
      vertex -9.9 19.7444 5.55886
    endloop
  endfacet
  facet normal -1 0 0
    outer loop
      vertex -9.9 20 7.5
      vertex -9.9 16.0916 7.74567
      vertex -9.9 19.9358 8.47895
    endloop
  endfacet
  facet normal -1 0 0
    outer loop
      vertex -9.9 16.0247 6.76756
      vertex -9.9 19.7444 5.55886
      vertex -9.9 19.4291 4.62988
    endloop
  endfacet
  facet normal -1 -0 0
    outer loop
      vertex -9.9 19.9358 8.47895
      vertex -9.9 16.0916 7.74567
      vertex -9.9 19.7444 9.44114
    endloop
  endfacet
  facet normal -1 0 0
    outer loop
      vertex -9.9 15.6964 5.84377
      vertex -9.9 19.4291 4.62988
      vertex -9.9 18.9952 3.75
    endloop
  endfacet
  facet normal -1 0 0
    outer loop
      vertex -9.9 15.8921 8.70557
      vertex -9.9 19.7444 9.44114
      vertex -9.9 16.0916 7.74567
    endloop
  endfacet
  facet normal -1 0 0
    outer loop
      vertex -9.9 15.6964 5.84377
      vertex -9.9 18.9952 3.75
      vertex -9.9 18.4501 2.93429
    endloop
  endfacet
  facet normal -1 -0 0
    outer loop
      vertex -9.9 19.7444 9.44114
      vertex -9.9 15.8921 8.70557
      vertex -9.9 19.4291 10.3701
    endloop
  endfacet
  facet normal -1 0 0
    outer loop
      vertex -9.9 15.131 5.04281
      vertex -9.9 18.4501 2.93429
      vertex -9.9 17.8033 2.1967
    endloop
  endfacet
  facet normal -1 -0 0
    outer loop
      vertex -9.9 19.4291 10.3701
      vertex -9.9 15.8921 8.70557
      vertex -9.9 18.9952 11.25
    endloop
  endfacet
  facet normal -1 0 0
    outer loop
      vertex -9.9 15.131 5.04281
      vertex -9.9 17.8033 2.1967
      vertex -9.9 17.0657 1.54985
    endloop
  endfacet
  facet normal -1 0 0
    outer loop
      vertex -9.9 15.4411 9.57605
      vertex -9.9 18.9952 11.25
      vertex -9.9 15.8921 8.70557
    endloop
  endfacet
  facet normal -1 0 0
    outer loop
      vertex -9.9 14.3705 4.42409
      vertex -9.9 17.0657 1.54985
      vertex -9.9 16.25 1.00481
    endloop
  endfacet
  facet normal -1 -0 0
    outer loop
      vertex -9.9 18.9952 11.25
      vertex -9.9 15.4411 9.57605
      vertex -9.9 18.4501 12.0657
    endloop
  endfacet
  facet normal -1 -0 0
    outer loop
      vertex -9.9 18.4501 12.0657
      vertex -9.9 15.4411 9.57605
      vertex -9.9 17.8033 12.8033
    endloop
  endfacet
  facet normal -1 0 0
    outer loop
      vertex -9.9 19.9358 6.52105
      vertex -9.9 16.0247 6.76756
      vertex -9.9 16.0916 7.74567
    endloop
  endfacet
  facet normal -1 0 0
    outer loop
      vertex -9.9 19.4291 4.62988
      vertex -9.9 15.6964 5.84377
      vertex -9.9 16.0247 6.76756
    endloop
  endfacet
  facet normal -1 0 0
    outer loop
      vertex -9.9 14.3705 4.42409
      vertex -9.9 16.25 1.00481
      vertex -9.9 15.3701 0.570904
    endloop
  endfacet
  facet normal -1 0 0
    outer loop
      vertex -9.9 18.4501 2.93429
      vertex -9.9 15.131 5.04281
      vertex -9.9 15.6964 5.84377
    endloop
  endfacet
  facet normal -1 0 0
    outer loop
      vertex -9.9 13.4713 4.0335
      vertex -9.9 15.3701 0.570904
      vertex -9.9 14.4411 0.255557
    endloop
  endfacet
  facet normal -1 0 0
    outer loop
      vertex -9.9 17.0657 1.54985
      vertex -9.9 14.3705 4.42409
      vertex -9.9 15.131 5.04281
    endloop
  endfacet
  facet normal -1 0 0
    outer loop
      vertex -9.9 13.4713 4.0335
      vertex -9.9 14.4411 0.255557
      vertex -9.9 13.4789 0.0641642
    endloop
  endfacet
  facet normal -1 0 0
    outer loop
      vertex -9.9 15.3701 0.570904
      vertex -9.9 13.4713 4.0335
      vertex -9.9 14.3705 4.42409
    endloop
  endfacet
  facet normal -1 0 0
    outer loop
      vertex -9.9 12.5 3.9
      vertex -9.9 13.4789 0.0641642
      vertex -9.9 12.5 0
    endloop
  endfacet
  facet normal -1 0 0
    outer loop
      vertex -9.9 13.4789 0.0641642
      vertex -9.9 12.5 3.9
      vertex -9.9 13.4713 4.0335
    endloop
  endfacet
  facet normal -1 0 0
    outer loop
      vertex -9.9 12.5 0
      vertex -9.9 11.5287 4.0335
      vertex -9.9 12.5 3.9
    endloop
  endfacet
  facet normal -1 0 0
    outer loop
      vertex -9.9 12.5 0
      vertex -9.9 10.6295 4.42409
      vertex -9.9 11.5287 4.0335
    endloop
  endfacet
  facet normal -1 0 0
    outer loop
      vertex -9.9 6 0
      vertex -9.9 10.6295 4.42409
      vertex -9.9 12.5 0
    endloop
  endfacet
  facet normal -1 -0 0
    outer loop
      vertex -9.9 10.6295 4.42409
      vertex -9.9 6 0
      vertex -9.9 9.86899 5.04281
    endloop
  endfacet
  facet normal -1 -0 0
    outer loop
      vertex -9.9 8.9753 6.76756
      vertex -9.9 6 0
      vertex -9.9 8.90839 7.74567
    endloop
  endfacet
  facet normal -1 -0 0
    outer loop
      vertex -9.9 9.30361 5.84377
      vertex -9.9 6 0
      vertex -9.9 8.9753 6.76756
    endloop
  endfacet
  facet normal -1 -0 0
    outer loop
      vertex -9.9 9.86899 5.04281
      vertex -9.9 6 0
      vertex -9.9 9.30361 5.84377
    endloop
  endfacet
  facet normal -1 0 0
    outer loop
      vertex -9.9 14.7719 10.2926
      vertex -9.9 17.8033 12.8033
      vertex -9.9 15.4411 9.57605
    endloop
  endfacet
  facet normal -1 -0 0
    outer loop
      vertex -9.9 17.8033 12.8033
      vertex -9.9 14.7719 10.2926
      vertex -9.9 17.0657 13.4501
    endloop
  endfacet
  facet normal -1 -0 0
    outer loop
      vertex -9.9 17.0657 13.4501
      vertex -9.9 14.7719 10.2926
      vertex -9.9 16.25 13.9952
    endloop
  endfacet
  facet normal -1 0 0
    outer loop
      vertex -9.9 13.9342 10.802
      vertex -9.9 16.25 13.9952
      vertex -9.9 14.7719 10.2926
    endloop
  endfacet
  facet normal -1 -0 0
    outer loop
      vertex -9.9 16.25 13.9952
      vertex -9.9 13.9342 10.802
      vertex -9.9 15.3701 14.4291
    endloop
  endfacet
  facet normal -1 -0 0
    outer loop
      vertex -9.9 15.3701 14.4291
      vertex -9.9 13.9342 10.802
      vertex -9.9 14.4411 14.7444
    endloop
  endfacet
  facet normal -1 0 0
    outer loop
      vertex -9.9 12.9902 11.0665
      vertex -9.9 14.4411 14.7444
      vertex -9.9 13.9342 10.802
    endloop
  endfacet
  facet normal -1 -0 0
    outer loop
      vertex -9.9 14.4411 14.7444
      vertex -9.9 12.9902 11.0665
      vertex -9.9 13.4789 14.9358
    endloop
  endfacet
  facet normal -1 0 0
    outer loop
      vertex -9.9 12.9902 11.0665
      vertex -9.9 12.5 15
      vertex -9.9 13.4789 14.9358
    endloop
  endfacet
  facet normal -1 0 0
    outer loop
      vertex -9.9 12.0098 11.0665
      vertex -9.9 12.5 15
      vertex -9.9 12.9902 11.0665
    endloop
  endfacet
  facet normal -1 0 0
    outer loop
      vertex -9.9 11.0658 10.802
      vertex -9.9 12.5 15
      vertex -9.9 12.0098 11.0665
    endloop
  endfacet
  facet normal -1 0 0
    outer loop
      vertex -9.9 6 15
      vertex -9.9 11.0658 10.802
      vertex -9.9 10.2281 10.2926
    endloop
  endfacet
  facet normal -1 0 0
    outer loop
      vertex -9.9 6 15
      vertex -9.9 10.2281 10.2926
      vertex -9.9 9.55891 9.57605
    endloop
  endfacet
  facet normal -1 0 0
    outer loop
      vertex -9.9 6 15
      vertex -9.9 8.90839 7.74567
      vertex -9.9 6 0
    endloop
  endfacet
  facet normal -1 0 0
    outer loop
      vertex -9.9 11.0658 10.802
      vertex -9.9 6 15
      vertex -9.9 12.5 15
    endloop
  endfacet
  facet normal -1 0 0
    outer loop
      vertex -9.9 9.10786 8.70557
      vertex -9.9 6 15
      vertex -9.9 9.55891 9.57605
    endloop
  endfacet
  facet normal -1 0 0
    outer loop
      vertex -9.9 8.90839 7.74567
      vertex -9.9 6 15
      vertex -9.9 9.10786 8.70557
    endloop
  endfacet
  facet normal 0 0.980784 -0.195099
    outer loop
      vertex -8 19.7444 5.55886
      vertex -9.9 19.9358 6.52105
      vertex -8 19.9358 6.52105
    endloop
  endfacet
  facet normal 0 0.980784 -0.195099
    outer loop
      vertex -9.9 19.9358 6.52105
      vertex -8 19.7444 5.55886
      vertex -9.9 19.7444 5.55886
    endloop
  endfacet
  facet normal -0 0.136165 0.990686
    outer loop
      vertex -9.9 12.5 3.9
      vertex -8.7 11.5287 4.0335
      vertex -8.7 12.5 3.9
    endloop
  endfacet
  facet normal 0 0.136165 0.990686
    outer loop
      vertex -8.7 11.5287 4.0335
      vertex -9.9 12.5 3.9
      vertex -9.9 11.5287 4.0335
    endloop
  endfacet
  facet normal 0 0.942263 0.334875
    outer loop
      vertex -8.7 9.30361 5.84377
      vertex -9.9 8.9753 6.76756
      vertex -8.7 8.9753 6.76756
    endloop
  endfacet
  facet normal 0 0.942263 0.334875
    outer loop
      vertex -9.9 8.9753 6.76756
      vertex -8.7 9.30361 5.84377
      vertex -9.9 9.30361 5.84377
    endloop
  endfacet
  facet normal 0 -0.979078 -0.203486
    outer loop
      vertex -9.9 16.0916 7.74567
      vertex -8.7 15.8921 8.70557
      vertex -9.9 15.8921 8.70557
    endloop
  endfacet
  facet normal 0 -0.979078 -0.203486
    outer loop
      vertex -8.7 15.8921 8.70557
      vertex -9.9 16.0916 7.74567
      vertex -8.7 16.0916 7.74567
    endloop
  endfacet
  facet normal 0 -0.730842 -0.682547
    outer loop
      vertex -9.9 15.4411 9.57605
      vertex -8.7 14.7719 10.2926
      vertex -9.9 14.7719 10.2926
    endloop
  endfacet
  facet normal 0 -0.730842 -0.682547
    outer loop
      vertex -8.7 14.7719 10.2926
      vertex -9.9 15.4411 9.57605
      vertex -8.7 15.4411 9.57605
    endloop
  endfacet
  facet normal 0 -0.887905 -0.460028
    outer loop
      vertex -9.9 15.8921 8.70557
      vertex -8.7 15.4411 9.57605
      vertex -9.9 15.4411 9.57605
    endloop
  endfacet
  facet normal 0 -0.887905 -0.460028
    outer loop
      vertex -8.7 15.4411 9.57605
      vertex -9.9 15.8921 8.70557
      vertex -8.7 15.8921 8.70557
    endloop
  endfacet
  facet normal 0 -0.136165 0.990686
    outer loop
      vertex -9.9 13.4713 4.0335
      vertex -8.7 12.5 3.9
      vertex -8.7 13.4713 4.0335
    endloop
  endfacet
  facet normal 0 -0.136165 0.990686
    outer loop
      vertex -8.7 12.5 3.9
      vertex -9.9 13.4713 4.0335
      vertex -9.9 12.5 3.9
    endloop
  endfacet
  facet normal 0 -0.997669 0.0682378
    outer loop
      vertex -9.9 16.0247 6.76756
      vertex -8.7 16.0916 7.74567
      vertex -9.9 16.0916 7.74567
    endloop
  endfacet
  facet normal 0 -0.997669 0.0682378
    outer loop
      vertex -8.7 16.0916 7.74567
      vertex -9.9 16.0247 6.76756
      vertex -8.7 16.0247 6.76756
    endloop
  endfacet
  facet normal 0 0.2698 -0.962916
    outer loop
      vertex -9.9 11.0658 10.802
      vertex -8.7 12.0098 11.0665
      vertex -8.7 11.0658 10.802
    endloop
  endfacet
  facet normal 0 0.2698 -0.962916
    outer loop
      vertex -8.7 12.0098 11.0665
      vertex -9.9 11.0658 10.802
      vertex -9.9 12.0098 11.0665
    endloop
  endfacet
  facet normal 0 -0.398412 0.917207
    outer loop
      vertex -9.9 14.3705 4.42409
      vertex -8.7 13.4713 4.0335
      vertex -8.7 14.3705 4.42409
    endloop
  endfacet
  facet normal 0 -0.398412 0.917207
    outer loop
      vertex -8.7 13.4713 4.0335
      vertex -9.9 14.3705 4.42409
      vertex -9.9 13.4713 4.0335
    endloop
  endfacet
  facet normal 0 -0.519572 -0.854427
    outer loop
      vertex -9.9 13.9342 10.802
      vertex -8.7 14.7719 10.2926
      vertex -8.7 13.9342 10.802
    endloop
  endfacet
  facet normal -0 -0.519572 -0.854427
    outer loop
      vertex -8.7 14.7719 10.2926
      vertex -9.9 13.9342 10.802
      vertex -9.9 14.7719 10.2926
    endloop
  endfacet
  facet normal 0 0.997668 0.0682479
    outer loop
      vertex -8.7 8.9753 6.76756
      vertex -9.9 8.90839 7.74567
      vertex -8.7 8.90839 7.74567
    endloop
  endfacet
  facet normal 0 0.997668 0.0682479
    outer loop
      vertex -9.9 8.90839 7.74567
      vertex -8.7 8.9753 6.76756
      vertex -9.9 8.9753 6.76756
    endloop
  endfacet
  facet normal 0 -0.942266 0.334866
    outer loop
      vertex -9.9 15.6964 5.84377
      vertex -8.7 16.0247 6.76756
      vertex -9.9 16.0247 6.76756
    endloop
  endfacet
  facet normal 0 -0.942266 0.334866
    outer loop
      vertex -8.7 16.0247 6.76756
      vertex -9.9 15.6964 5.84377
      vertex -8.7 15.6964 5.84377
    endloop
  endfacet
  facet normal 0 0.519572 -0.854427
    outer loop
      vertex -9.9 10.2281 10.2926
      vertex -8.7 11.0658 10.802
      vertex -8.7 10.2281 10.2926
    endloop
  endfacet
  facet normal 0 0.519572 -0.854427
    outer loop
      vertex -8.7 11.0658 10.802
      vertex -9.9 10.2281 10.2926
      vertex -9.9 11.0658 10.802
    endloop
  endfacet
  facet normal 0 0 -1
    outer loop
      vertex -9.9 12.0098 11.0665
      vertex -8.7 12.9902 11.0665
      vertex -8.7 12.0098 11.0665
    endloop
  endfacet
  facet normal -0 0 -1
    outer loop
      vertex -8.7 12.9902 11.0665
      vertex -9.9 12.0098 11.0665
      vertex -9.9 12.9902 11.0665
    endloop
  endfacet
  facet normal -0 0.398412 0.917207
    outer loop
      vertex -9.9 11.5287 4.0335
      vertex -8.7 10.6295 4.42409
      vertex -8.7 11.5287 4.0335
    endloop
  endfacet
  facet normal 0 0.398412 0.917207
    outer loop
      vertex -8.7 10.6295 4.42409
      vertex -9.9 11.5287 4.0335
      vertex -9.9 10.6295 4.42409
    endloop
  endfacet
  facet normal 0 0.979084 -0.203456
    outer loop
      vertex -8.7 8.90839 7.74567
      vertex -9.9 9.10786 8.70557
      vertex -8.7 9.10786 8.70557
    endloop
  endfacet
  facet normal 0 0.979084 -0.203456
    outer loop
      vertex -9.9 9.10786 8.70557
      vertex -8.7 8.90839 7.74567
      vertex -9.9 8.90839 7.74567
    endloop
  endfacet
  facet normal 0 -0.2698 -0.962916
    outer loop
      vertex -9.9 12.9902 11.0665
      vertex -8.7 13.9342 10.802
      vertex -8.7 12.9902 11.0665
    endloop
  endfacet
  facet normal -0 -0.2698 -0.962916
    outer loop
      vertex -8.7 13.9342 10.802
      vertex -9.9 12.9902 11.0665
      vertex -9.9 13.9342 10.802
    endloop
  endfacet
  facet normal 0 0.81697 0.576681
    outer loop
      vertex -8.7 9.86899 5.04281
      vertex -9.9 9.30361 5.84377
      vertex -8.7 9.30361 5.84377
    endloop
  endfacet
  facet normal 0 0.81697 0.576681
    outer loop
      vertex -9.9 9.30361 5.84377
      vertex -8.7 9.86899 5.04281
      vertex -9.9 9.86899 5.04281
    endloop
  endfacet
  facet normal 0 0.730847 -0.682542
    outer loop
      vertex -8.7 9.55891 9.57605
      vertex -9.9 10.2281 10.2926
      vertex -8.7 10.2281 10.2926
    endloop
  endfacet
  facet normal 0 0.730847 -0.682542
    outer loop
      vertex -9.9 10.2281 10.2926
      vertex -8.7 9.55891 9.57605
      vertex -9.9 9.55891 9.57605
    endloop
  endfacet
  facet normal -0 0.631087 0.775712
    outer loop
      vertex -9.9 10.6295 4.42409
      vertex -8.7 9.86899 5.04281
      vertex -8.7 10.6295 4.42409
    endloop
  endfacet
  facet normal 0 0.631087 0.775712
    outer loop
      vertex -8.7 9.86899 5.04281
      vertex -9.9 10.6295 4.42409
      vertex -9.9 9.86899 5.04281
    endloop
  endfacet
  facet normal 0 -0.81696 0.576694
    outer loop
      vertex -9.9 15.131 5.04281
      vertex -8.7 15.6964 5.84377
      vertex -9.9 15.6964 5.84377
    endloop
  endfacet
  facet normal 0 -0.81696 0.576694
    outer loop
      vertex -8.7 15.6964 5.84377
      vertex -9.9 15.131 5.04281
      vertex -8.7 15.131 5.04281
    endloop
  endfacet
  facet normal 0 -0.631092 0.775708
    outer loop
      vertex -9.9 15.131 5.04281
      vertex -8.7 14.3705 4.42409
      vertex -8.7 15.131 5.04281
    endloop
  endfacet
  facet normal 0 -0.631092 0.775708
    outer loop
      vertex -8.7 14.3705 4.42409
      vertex -9.9 15.131 5.04281
      vertex -9.9 14.3705 4.42409
    endloop
  endfacet
  facet normal 0 0.887884 -0.460068
    outer loop
      vertex -8.7 9.10786 8.70557
      vertex -9.9 9.55891 9.57605
      vertex -8.7 9.55891 9.57605
    endloop
  endfacet
  facet normal 0 0.887884 -0.460068
    outer loop
      vertex -9.9 9.55891 9.57605
      vertex -8.7 9.10786 8.70557
      vertex -9.9 9.10786 8.70557
    endloop
  endfacet
  facet normal -1 0 0
    outer loop
      vertex -8.7 16.0247 6.76756
      vertex -8.7 15.8921 8.70557
      vertex -8.7 16.0916 7.74567
    endloop
  endfacet
  facet normal -1 0 0
    outer loop
      vertex -8.7 15.6964 5.84377
      vertex -8.7 15.8921 8.70557
      vertex -8.7 16.0247 6.76756
    endloop
  endfacet
  facet normal -1 0 0
    outer loop
      vertex -8.7 15.6964 5.84377
      vertex -8.7 15.4411 9.57605
      vertex -8.7 15.8921 8.70557
    endloop
  endfacet
  facet normal -1 0 0
    outer loop
      vertex -8.7 15.131 5.04281
      vertex -8.7 15.4411 9.57605
      vertex -8.7 15.6964 5.84377
    endloop
  endfacet
  facet normal -1 0 0
    outer loop
      vertex -8.7 15.131 5.04281
      vertex -8.7 14.7719 10.2926
      vertex -8.7 15.4411 9.57605
    endloop
  endfacet
  facet normal -1 0 0
    outer loop
      vertex -8.7 14.3705 4.42409
      vertex -8.7 14.7719 10.2926
      vertex -8.7 15.131 5.04281
    endloop
  endfacet
  facet normal -1 0 0
    outer loop
      vertex -8.7 14.3705 4.42409
      vertex -8.7 13.9342 10.802
      vertex -8.7 14.7719 10.2926
    endloop
  endfacet
  facet normal -1 0 0
    outer loop
      vertex -8.7 13.4713 4.0335
      vertex -8.7 13.9342 10.802
      vertex -8.7 14.3705 4.42409
    endloop
  endfacet
  facet normal -1 0 0
    outer loop
      vertex -8.7 13.4713 4.0335
      vertex -8.7 12.9902 11.0665
      vertex -8.7 13.9342 10.802
    endloop
  endfacet
  facet normal -1 0 0
    outer loop
      vertex -8.7 12.5 3.9
      vertex -8.7 12.9902 11.0665
      vertex -8.7 13.4713 4.0335
    endloop
  endfacet
  facet normal -1 0 0
    outer loop
      vertex -8.7 12.5 3.9
      vertex -8.7 12.0098 11.0665
      vertex -8.7 12.9902 11.0665
    endloop
  endfacet
  facet normal -1 0 0
    outer loop
      vertex -8.7 11.5287 4.0335
      vertex -8.7 12.0098 11.0665
      vertex -8.7 12.5 3.9
    endloop
  endfacet
  facet normal -1 0 0
    outer loop
      vertex -8.7 11.5287 4.0335
      vertex -8.7 11.0658 10.802
      vertex -8.7 12.0098 11.0665
    endloop
  endfacet
  facet normal -1 0 0
    outer loop
      vertex -8.7 10.6295 4.42409
      vertex -8.7 11.0658 10.802
      vertex -8.7 11.5287 4.0335
    endloop
  endfacet
  facet normal -1 0 0
    outer loop
      vertex -8.7 10.6295 4.42409
      vertex -8.7 10.2281 10.2926
      vertex -8.7 11.0658 10.802
    endloop
  endfacet
  facet normal -1 0 0
    outer loop
      vertex -8.7 9.86899 5.04281
      vertex -8.7 10.2281 10.2926
      vertex -8.7 10.6295 4.42409
    endloop
  endfacet
  facet normal -1 0 0
    outer loop
      vertex -8.7 9.86899 5.04281
      vertex -8.7 9.55891 9.57605
      vertex -8.7 10.2281 10.2926
    endloop
  endfacet
  facet normal -1 0 0
    outer loop
      vertex -8.7 9.30361 5.84377
      vertex -8.7 9.55891 9.57605
      vertex -8.7 9.86899 5.04281
    endloop
  endfacet
  facet normal -1 0 0
    outer loop
      vertex -8.7 9.30361 5.84377
      vertex -8.7 9.10786 8.70557
      vertex -8.7 9.55891 9.57605
    endloop
  endfacet
  facet normal -1 0 0
    outer loop
      vertex -8.7 8.9753 6.76756
      vertex -8.7 9.10786 8.70557
      vertex -8.7 9.30361 5.84377
    endloop
  endfacet
  facet normal -1 0 0
    outer loop
      vertex -8.7 9.10786 8.70557
      vertex -8.7 8.9753 6.76756
      vertex -8.7 8.90839 7.74567
    endloop
  endfacet
  facet normal 0 0.321434 -0.946932
    outer loop
      vertex 8 14.4411 0.255557
      vertex 9.9 15.3701 0.570904
      vertex 9.9 14.4411 0.255557
    endloop
  endfacet
  facet normal 0 0.321434 -0.946932
    outer loop
      vertex 9.9 15.3701 0.570904
      vertex 8 14.4411 0.255557
      vertex 8 15.3701 0.570904
    endloop
  endfacet
  facet normal -0 0.0654432 0.997856
    outer loop
      vertex 8 13.4789 14.9358
      vertex 9.9 12.5 15
      vertex 9.9 13.4789 14.9358
    endloop
  endfacet
  facet normal 0 0.0654432 0.997856
    outer loop
      vertex 9.9 12.5 15
      vertex 8 13.4789 14.9358
      vertex 8 12.5 15
    endloop
  endfacet
  facet normal 0 0.997857 0.0654399
    outer loop
      vertex 9.9 20 7.5
      vertex 8 19.9358 8.47895
      vertex 9.9 19.9358 8.47895
    endloop
  endfacet
  facet normal 0 0.997857 0.0654399
    outer loop
      vertex 8 19.9358 8.47895
      vertex 9.9 20 7.5
      vertex 8 20 7.5
    endloop
  endfacet
  facet normal 0 0.442278 -0.896878
    outer loop
      vertex 8 15.3701 0.570904
      vertex 9.9 16.25 1.00481
      vertex 9.9 15.3701 0.570904
    endloop
  endfacet
  facet normal 0 0.442278 -0.896878
    outer loop
      vertex 9.9 16.25 1.00481
      vertex 8 15.3701 0.570904
      vertex 8 16.25 1.00481
    endloop
  endfacet
  facet normal 0 0.0654069 -0.997859
    outer loop
      vertex 8 12.5 0
      vertex 9.9 13.4789 0.0641642
      vertex 9.9 12.5 0
    endloop
  endfacet
  facet normal 0 0.0654069 -0.997859
    outer loop
      vertex 9.9 13.4789 0.0641642
      vertex 8 12.5 0
      vertex 8 13.4789 0.0641642
    endloop
  endfacet
  facet normal 0 0.751869 0.659312
    outer loop
      vertex 9.9 18.4501 12.0657
      vertex 8 17.8033 12.8033
      vertex 9.9 17.8033 12.8033
    endloop
  endfacet
  facet normal 0 0.751869 0.659312
    outer loop
      vertex 8 17.8033 12.8033
      vertex 9.9 18.4501 12.0657
      vertex 8 18.4501 12.0657
    endloop
  endfacet
  facet normal -0 0.659312 0.751869
    outer loop
      vertex 8 17.8033 12.8033
      vertex 9.9 17.0657 13.4501
      vertex 9.9 17.8033 12.8033
    endloop
  endfacet
  facet normal 0 0.659312 0.751869
    outer loop
      vertex 9.9 17.0657 13.4501
      vertex 8 17.8033 12.8033
      vertex 8 17.0657 13.4501
    endloop
  endfacet
  facet normal 0 0.946942 0.321403
    outer loop
      vertex 9.9 19.7444 9.44114
      vertex 8 19.4291 10.3701
      vertex 9.9 19.4291 10.3701
    endloop
  endfacet
  facet normal 0 0.946942 0.321403
    outer loop
      vertex 8 19.4291 10.3701
      vertex 9.9 19.7444 9.44114
      vertex 8 19.7444 9.44114
    endloop
  endfacet
  facet normal 0 0.896876 -0.442281
    outer loop
      vertex 9.9 18.9952 3.75
      vertex 8 19.4291 4.62988
      vertex 9.9 19.4291 4.62988
    endloop
  endfacet
  facet normal 0 0.896876 -0.442281
    outer loop
      vertex 8 19.4291 4.62988
      vertex 9.9 18.9952 3.75
      vertex 8 18.9952 3.75
    endloop
  endfacet
  facet normal 0 0.751865 -0.659318
    outer loop
      vertex 9.9 17.8033 2.1967
      vertex 8 18.4501 2.93429
      vertex 9.9 18.4501 2.93429
    endloop
  endfacet
  facet normal 0 0.751865 -0.659318
    outer loop
      vertex 8 18.4501 2.93429
      vertex 9.9 17.8033 2.1967
      vertex 8 17.8033 2.1967
    endloop
  endfacet
  facet normal 0 0.946944 -0.321397
    outer loop
      vertex 9.9 19.4291 4.62988
      vertex 8 19.7444 5.55886
      vertex 9.9 19.7444 5.55886
    endloop
  endfacet
  facet normal 0 0.946944 -0.321397
    outer loop
      vertex 8 19.7444 5.55886
      vertex 9.9 19.4291 4.62988
      vertex 8 19.4291 4.62988
    endloop
  endfacet
  facet normal 0 0.555575 -0.831466
    outer loop
      vertex 8 16.25 1.00481
      vertex 9.9 17.0657 1.54985
      vertex 9.9 16.25 1.00481
    endloop
  endfacet
  facet normal 0 0.555575 -0.831466
    outer loop
      vertex 9.9 17.0657 1.54985
      vertex 8 16.25 1.00481
      vertex 8 17.0657 1.54985
    endloop
  endfacet
  facet normal 0 0.980784 0.195099
    outer loop
      vertex 9.9 19.9358 8.47895
      vertex 8 19.7444 9.44114
      vertex 9.9 19.7444 9.44114
    endloop
  endfacet
  facet normal 0 0.980784 0.195099
    outer loop
      vertex 8 19.7444 9.44114
      vertex 9.9 19.9358 8.47895
      vertex 8 19.9358 8.47895
    endloop
  endfacet
  facet normal 0 0.659341 -0.751844
    outer loop
      vertex 8 17.0657 1.54985
      vertex 9.9 17.8033 2.1967
      vertex 9.9 17.0657 1.54985
    endloop
  endfacet
  facet normal 0 0.659341 -0.751844
    outer loop
      vertex 9.9 17.8033 2.1967
      vertex 8 17.0657 1.54985
      vertex 8 17.8033 2.1967
    endloop
  endfacet
  facet normal 0 0.831438 0.555617
    outer loop
      vertex 9.9 18.9952 11.25
      vertex 8 18.4501 12.0657
      vertex 9.9 18.4501 12.0657
    endloop
  endfacet
  facet normal 0 0.831438 0.555617
    outer loop
      vertex 8 18.4501 12.0657
      vertex 9.9 18.9952 11.25
      vertex 8 18.9952 11.25
    endloop
  endfacet
  facet normal -0 0.555617 0.831438
    outer loop
      vertex 8 17.0657 13.4501
      vertex 9.9 16.25 13.9952
      vertex 9.9 17.0657 13.4501
    endloop
  endfacet
  facet normal 0 0.555617 0.831438
    outer loop
      vertex 9.9 16.25 13.9952
      vertex 8 17.0657 13.4501
      vertex 8 16.25 13.9952
    endloop
  endfacet
  facet normal 0 0.19509 -0.980785
    outer loop
      vertex 8 13.4789 0.0641642
      vertex 9.9 14.4411 0.255557
      vertex 9.9 13.4789 0.0641642
    endloop
  endfacet
  facet normal 0 0.19509 -0.980785
    outer loop
      vertex 9.9 14.4411 0.255557
      vertex 8 13.4789 0.0641642
      vertex 8 14.4411 0.255557
    endloop
  endfacet
  facet normal 0 0.89688 0.442273
    outer loop
      vertex 9.9 19.4291 10.3701
      vertex 8 18.9952 11.25
      vertex 9.9 18.9952 11.25
    endloop
  endfacet
  facet normal 0 0.89688 0.442273
    outer loop
      vertex 8 18.9952 11.25
      vertex 9.9 19.4291 10.3701
      vertex 8 19.4291 10.3701
    endloop
  endfacet
  facet normal 0 0.997857 -0.0654399
    outer loop
      vertex 9.9 19.9358 6.52105
      vertex 8 20 7.5
      vertex 9.9 20 7.5
    endloop
  endfacet
  facet normal 0 0.997857 -0.0654399
    outer loop
      vertex 8 20 7.5
      vertex 9.9 19.9358 6.52105
      vertex 8 19.9358 6.52105
    endloop
  endfacet
  facet normal -0 0.321391 0.946947
    outer loop
      vertex 8 15.3701 14.4291
      vertex 9.9 14.4411 14.7444
      vertex 9.9 15.3701 14.4291
    endloop
  endfacet
  facet normal 0 0.321391 0.946947
    outer loop
      vertex 9.9 14.4411 14.7444
      vertex 8 15.3701 14.4291
      vertex 8 14.4411 14.7444
    endloop
  endfacet
  facet normal -0 0.195097 0.980784
    outer loop
      vertex 8 14.4411 14.7444
      vertex 9.9 13.4789 14.9358
      vertex 9.9 14.4411 14.7444
    endloop
  endfacet
  facet normal 0 0.195097 0.980784
    outer loop
      vertex 9.9 13.4789 14.9358
      vertex 8 14.4411 14.7444
      vertex 8 13.4789 14.9358
    endloop
  endfacet
  facet normal 0 0.831441 -0.555613
    outer loop
      vertex 9.9 18.4501 2.93429
      vertex 8 18.9952 3.75
      vertex 9.9 18.9952 3.75
    endloop
  endfacet
  facet normal 0 0.831441 -0.555613
    outer loop
      vertex 8 18.9952 3.75
      vertex 9.9 18.4501 2.93429
      vertex 8 18.4501 2.93429
    endloop
  endfacet
  facet normal -0 0.442273 0.89688
    outer loop
      vertex 8 16.25 13.9952
      vertex 9.9 15.3701 14.4291
      vertex 9.9 16.25 13.9952
    endloop
  endfacet
  facet normal 0 0.442273 0.89688
    outer loop
      vertex 9.9 15.3701 14.4291
      vertex 8 16.25 13.9952
      vertex 8 15.3701 14.4291
    endloop
  endfacet
  facet normal 1 -0 0
    outer loop
      vertex 9.9 16.0916 7.74567
      vertex 9.9 20 7.5
      vertex 9.9 19.9358 8.47895
    endloop
  endfacet
  facet normal 1 0 0
    outer loop
      vertex 9.9 16.0916 7.74567
      vertex 9.9 19.9358 8.47895
      vertex 9.9 19.7444 9.44114
    endloop
  endfacet
  facet normal 1 0 0
    outer loop
      vertex 9.9 20 7.5
      vertex 9.9 16.0916 7.74567
      vertex 9.9 19.9358 6.52105
    endloop
  endfacet
  facet normal 1 0 0
    outer loop
      vertex 9.9 15.8921 8.70557
      vertex 9.9 19.7444 9.44114
      vertex 9.9 19.4291 10.3701
    endloop
  endfacet
  facet normal 1 -0 0
    outer loop
      vertex 9.9 16.0247 6.76756
      vertex 9.9 19.9358 6.52105
      vertex 9.9 16.0916 7.74567
    endloop
  endfacet
  facet normal 1 0 0
    outer loop
      vertex 9.9 15.8921 8.70557
      vertex 9.9 19.4291 10.3701
      vertex 9.9 18.9952 11.25
    endloop
  endfacet
  facet normal 1 0 0
    outer loop
      vertex 9.9 19.9358 6.52105
      vertex 9.9 16.0247 6.76756
      vertex 9.9 19.7444 5.55886
    endloop
  endfacet
  facet normal 1 0 0
    outer loop
      vertex 9.9 15.4411 9.57605
      vertex 9.9 18.9952 11.25
      vertex 9.9 18.4501 12.0657
    endloop
  endfacet
  facet normal 1 0 0
    outer loop
      vertex 9.9 19.7444 5.55886
      vertex 9.9 16.0247 6.76756
      vertex 9.9 19.4291 4.62988
    endloop
  endfacet
  facet normal 1 0 0
    outer loop
      vertex 9.9 15.4411 9.57605
      vertex 9.9 18.4501 12.0657
      vertex 9.9 17.8033 12.8033
    endloop
  endfacet
  facet normal 1 -0 0
    outer loop
      vertex 9.9 15.6964 5.84377
      vertex 9.9 19.4291 4.62988
      vertex 9.9 16.0247 6.76756
    endloop
  endfacet
  facet normal 1 0 0
    outer loop
      vertex 9.9 14.7719 10.2926
      vertex 9.9 17.8033 12.8033
      vertex 9.9 17.0657 13.4501
    endloop
  endfacet
  facet normal 1 0 0
    outer loop
      vertex 9.9 19.4291 4.62988
      vertex 9.9 15.6964 5.84377
      vertex 9.9 18.9952 3.75
    endloop
  endfacet
  facet normal 1 0 0
    outer loop
      vertex 9.9 14.7719 10.2926
      vertex 9.9 17.0657 13.4501
      vertex 9.9 16.25 13.9952
    endloop
  endfacet
  facet normal 1 0 0
    outer loop
      vertex 9.9 18.9952 3.75
      vertex 9.9 15.6964 5.84377
      vertex 9.9 18.4501 2.93429
    endloop
  endfacet
  facet normal 1 -0 0
    outer loop
      vertex 9.9 15.131 5.04281
      vertex 9.9 18.4501 2.93429
      vertex 9.9 15.6964 5.84377
    endloop
  endfacet
  facet normal 1 0 0
    outer loop
      vertex 9.9 19.7444 9.44114
      vertex 9.9 15.8921 8.70557
      vertex 9.9 16.0916 7.74567
    endloop
  endfacet
  facet normal 1 0 0
    outer loop
      vertex 9.9 18.9952 11.25
      vertex 9.9 15.4411 9.57605
      vertex 9.9 15.8921 8.70557
    endloop
  endfacet
  facet normal 1 0 0
    outer loop
      vertex 9.9 13.9342 10.802
      vertex 9.9 16.25 13.9952
      vertex 9.9 15.3701 14.4291
    endloop
  endfacet
  facet normal 1 0 0
    outer loop
      vertex 9.9 17.8033 12.8033
      vertex 9.9 14.7719 10.2926
      vertex 9.9 15.4411 9.57605
    endloop
  endfacet
  facet normal 1 0 0
    outer loop
      vertex 9.9 13.9342 10.802
      vertex 9.9 15.3701 14.4291
      vertex 9.9 14.4411 14.7444
    endloop
  endfacet
  facet normal 1 0 0
    outer loop
      vertex 9.9 16.25 13.9952
      vertex 9.9 13.9342 10.802
      vertex 9.9 14.7719 10.2926
    endloop
  endfacet
  facet normal 1 0 0
    outer loop
      vertex 9.9 12.9902 11.0665
      vertex 9.9 14.4411 14.7444
      vertex 9.9 13.4789 14.9358
    endloop
  endfacet
  facet normal 1 0 0
    outer loop
      vertex 9.9 14.4411 14.7444
      vertex 9.9 12.9902 11.0665
      vertex 9.9 13.9342 10.802
    endloop
  endfacet
  facet normal 1 0 0
    outer loop
      vertex 9.9 12.5 15
      vertex 9.9 12.9902 11.0665
      vertex 9.9 13.4789 14.9358
    endloop
  endfacet
  facet normal 1 0 0
    outer loop
      vertex 9.9 12.5 15
      vertex 9.9 12.0098 11.0665
      vertex 9.9 12.9902 11.0665
    endloop
  endfacet
  facet normal 1 0 0
    outer loop
      vertex 9.9 12.5 15
      vertex 9.9 11.0658 10.802
      vertex 9.9 12.0098 11.0665
    endloop
  endfacet
  facet normal 1 -0 0
    outer loop
      vertex 9.9 6 15
      vertex 9.9 11.0658 10.802
      vertex 9.9 12.5 15
    endloop
  endfacet
  facet normal 1 0 0
    outer loop
      vertex 9.9 11.0658 10.802
      vertex 9.9 6 15
      vertex 9.9 10.2281 10.2926
    endloop
  endfacet
  facet normal 1 0 0
    outer loop
      vertex 9.9 9.10786 8.70557
      vertex 9.9 6 15
      vertex 9.9 8.90839 7.74567
    endloop
  endfacet
  facet normal 1 0 0
    outer loop
      vertex 9.9 9.55891 9.57605
      vertex 9.9 6 15
      vertex 9.9 9.10786 8.70557
    endloop
  endfacet
  facet normal 1 0 0
    outer loop
      vertex 9.9 10.2281 10.2926
      vertex 9.9 6 15
      vertex 9.9 9.55891 9.57605
    endloop
  endfacet
  facet normal 1 0 0
    outer loop
      vertex 9.9 18.4501 2.93429
      vertex 9.9 15.131 5.04281
      vertex 9.9 17.8033 2.1967
    endloop
  endfacet
  facet normal 1 0 0
    outer loop
      vertex 9.9 17.8033 2.1967
      vertex 9.9 15.131 5.04281
      vertex 9.9 17.0657 1.54985
    endloop
  endfacet
  facet normal 1 -0 0
    outer loop
      vertex 9.9 14.3705 4.42409
      vertex 9.9 17.0657 1.54985
      vertex 9.9 15.131 5.04281
    endloop
  endfacet
  facet normal 1 0 0
    outer loop
      vertex 9.9 17.0657 1.54985
      vertex 9.9 14.3705 4.42409
      vertex 9.9 16.25 1.00481
    endloop
  endfacet
  facet normal 1 0 0
    outer loop
      vertex 9.9 16.25 1.00481
      vertex 9.9 14.3705 4.42409
      vertex 9.9 15.3701 0.570904
    endloop
  endfacet
  facet normal 1 -0 0
    outer loop
      vertex 9.9 13.4713 4.0335
      vertex 9.9 15.3701 0.570904
      vertex 9.9 14.3705 4.42409
    endloop
  endfacet
  facet normal 1 0 0
    outer loop
      vertex 9.9 15.3701 0.570904
      vertex 9.9 13.4713 4.0335
      vertex 9.9 14.4411 0.255557
    endloop
  endfacet
  facet normal 1 0 0
    outer loop
      vertex 9.9 14.4411 0.255557
      vertex 9.9 13.4713 4.0335
      vertex 9.9 13.4789 0.0641642
    endloop
  endfacet
  facet normal 1 -0 0
    outer loop
      vertex 9.9 12.5 3.9
      vertex 9.9 13.4789 0.0641642
      vertex 9.9 13.4713 4.0335
    endloop
  endfacet
  facet normal 1 0 0
    outer loop
      vertex 9.9 12.5 3.9
      vertex 9.9 12.5 0
      vertex 9.9 13.4789 0.0641642
    endloop
  endfacet
  facet normal 1 0 0
    outer loop
      vertex 9.9 11.5287 4.0335
      vertex 9.9 12.5 0
      vertex 9.9 12.5 3.9
    endloop
  endfacet
  facet normal 1 0 0
    outer loop
      vertex 9.9 10.6295 4.42409
      vertex 9.9 12.5 0
      vertex 9.9 11.5287 4.0335
    endloop
  endfacet
  facet normal 1 0 0
    outer loop
      vertex 9.9 6 0
      vertex 9.9 10.6295 4.42409
      vertex 9.9 9.86899 5.04281
    endloop
  endfacet
  facet normal 1 0 0
    outer loop
      vertex 9.9 6 0
      vertex 9.9 9.86899 5.04281
      vertex 9.9 9.30361 5.84377
    endloop
  endfacet
  facet normal 1 0 0
    outer loop
      vertex 9.9 6 0
      vertex 9.9 8.90839 7.74567
      vertex 9.9 6 15
    endloop
  endfacet
  facet normal 1 0 0
    outer loop
      vertex 9.9 8.90839 7.74567
      vertex 9.9 6 0
      vertex 9.9 8.9753 6.76756
    endloop
  endfacet
  facet normal 1 0 0
    outer loop
      vertex 9.9 10.6295 4.42409
      vertex 9.9 6 0
      vertex 9.9 12.5 0
    endloop
  endfacet
  facet normal 1 0 0
    outer loop
      vertex 9.9 8.9753 6.76756
      vertex 9.9 6 0
      vertex 9.9 9.30361 5.84377
    endloop
  endfacet
  facet normal 0 0.980784 -0.195099
    outer loop
      vertex 9.9 19.7444 5.55886
      vertex 8 19.9358 6.52105
      vertex 9.9 19.9358 6.52105
    endloop
  endfacet
  facet normal 0 0.980784 -0.195099
    outer loop
      vertex 8 19.9358 6.52105
      vertex 9.9 19.7444 5.55886
      vertex 8 19.7444 5.55886
    endloop
  endfacet
  facet normal -0 0.136165 0.990686
    outer loop
      vertex 8.7 12.5 3.9
      vertex 9.9 11.5287 4.0335
      vertex 9.9 12.5 3.9
    endloop
  endfacet
  facet normal 0 0.136165 0.990686
    outer loop
      vertex 9.9 11.5287 4.0335
      vertex 8.7 12.5 3.9
      vertex 8.7 11.5287 4.0335
    endloop
  endfacet
  facet normal 0 0.942263 0.334875
    outer loop
      vertex 9.9 9.30361 5.84377
      vertex 8.7 8.9753 6.76756
      vertex 9.9 8.9753 6.76756
    endloop
  endfacet
  facet normal 0 0.942263 0.334875
    outer loop
      vertex 8.7 8.9753 6.76756
      vertex 9.9 9.30361 5.84377
      vertex 8.7 9.30361 5.84377
    endloop
  endfacet
  facet normal 0 -0.979078 -0.203486
    outer loop
      vertex 8.7 16.0916 7.74567
      vertex 9.9 15.8921 8.70557
      vertex 8.7 15.8921 8.70557
    endloop
  endfacet
  facet normal 0 -0.979078 -0.203486
    outer loop
      vertex 9.9 15.8921 8.70557
      vertex 8.7 16.0916 7.74567
      vertex 9.9 16.0916 7.74567
    endloop
  endfacet
  facet normal 0 -0.730842 -0.682547
    outer loop
      vertex 8.7 15.4411 9.57605
      vertex 9.9 14.7719 10.2926
      vertex 8.7 14.7719 10.2926
    endloop
  endfacet
  facet normal 0 -0.730842 -0.682547
    outer loop
      vertex 9.9 14.7719 10.2926
      vertex 8.7 15.4411 9.57605
      vertex 9.9 15.4411 9.57605
    endloop
  endfacet
  facet normal 0 -0.887905 -0.460028
    outer loop
      vertex 8.7 15.8921 8.70557
      vertex 9.9 15.4411 9.57605
      vertex 8.7 15.4411 9.57605
    endloop
  endfacet
  facet normal 0 -0.887905 -0.460028
    outer loop
      vertex 9.9 15.4411 9.57605
      vertex 8.7 15.8921 8.70557
      vertex 9.9 15.8921 8.70557
    endloop
  endfacet
  facet normal 0 -0.136165 0.990686
    outer loop
      vertex 8.7 13.4713 4.0335
      vertex 9.9 12.5 3.9
      vertex 9.9 13.4713 4.0335
    endloop
  endfacet
  facet normal 0 -0.136165 0.990686
    outer loop
      vertex 9.9 12.5 3.9
      vertex 8.7 13.4713 4.0335
      vertex 8.7 12.5 3.9
    endloop
  endfacet
  facet normal 0 -0.997669 0.0682378
    outer loop
      vertex 8.7 16.0247 6.76756
      vertex 9.9 16.0916 7.74567
      vertex 8.7 16.0916 7.74567
    endloop
  endfacet
  facet normal 0 -0.997669 0.0682378
    outer loop
      vertex 9.9 16.0916 7.74567
      vertex 8.7 16.0247 6.76756
      vertex 9.9 16.0247 6.76756
    endloop
  endfacet
  facet normal 0 0.2698 -0.962916
    outer loop
      vertex 8.7 11.0658 10.802
      vertex 9.9 12.0098 11.0665
      vertex 9.9 11.0658 10.802
    endloop
  endfacet
  facet normal 0 0.2698 -0.962916
    outer loop
      vertex 9.9 12.0098 11.0665
      vertex 8.7 11.0658 10.802
      vertex 8.7 12.0098 11.0665
    endloop
  endfacet
  facet normal 0 -0.398412 0.917207
    outer loop
      vertex 8.7 14.3705 4.42409
      vertex 9.9 13.4713 4.0335
      vertex 9.9 14.3705 4.42409
    endloop
  endfacet
  facet normal 0 -0.398412 0.917207
    outer loop
      vertex 9.9 13.4713 4.0335
      vertex 8.7 14.3705 4.42409
      vertex 8.7 13.4713 4.0335
    endloop
  endfacet
  facet normal 0 -0.519572 -0.854427
    outer loop
      vertex 8.7 13.9342 10.802
      vertex 9.9 14.7719 10.2926
      vertex 9.9 13.9342 10.802
    endloop
  endfacet
  facet normal -0 -0.519572 -0.854427
    outer loop
      vertex 9.9 14.7719 10.2926
      vertex 8.7 13.9342 10.802
      vertex 8.7 14.7719 10.2926
    endloop
  endfacet
  facet normal 0 0.997668 0.0682479
    outer loop
      vertex 9.9 8.9753 6.76756
      vertex 8.7 8.90839 7.74567
      vertex 9.9 8.90839 7.74567
    endloop
  endfacet
  facet normal 0 0.997668 0.0682479
    outer loop
      vertex 8.7 8.90839 7.74567
      vertex 9.9 8.9753 6.76756
      vertex 8.7 8.9753 6.76756
    endloop
  endfacet
  facet normal 0 -0.942266 0.334866
    outer loop
      vertex 8.7 15.6964 5.84377
      vertex 9.9 16.0247 6.76756
      vertex 8.7 16.0247 6.76756
    endloop
  endfacet
  facet normal 0 -0.942266 0.334866
    outer loop
      vertex 9.9 16.0247 6.76756
      vertex 8.7 15.6964 5.84377
      vertex 9.9 15.6964 5.84377
    endloop
  endfacet
  facet normal 0 0.519572 -0.854427
    outer loop
      vertex 8.7 10.2281 10.2926
      vertex 9.9 11.0658 10.802
      vertex 9.9 10.2281 10.2926
    endloop
  endfacet
  facet normal 0 0.519572 -0.854427
    outer loop
      vertex 9.9 11.0658 10.802
      vertex 8.7 10.2281 10.2926
      vertex 8.7 11.0658 10.802
    endloop
  endfacet
  facet normal 0 0 -1
    outer loop
      vertex 8.7 12.0098 11.0665
      vertex 9.9 12.9902 11.0665
      vertex 9.9 12.0098 11.0665
    endloop
  endfacet
  facet normal -0 0 -1
    outer loop
      vertex 9.9 12.9902 11.0665
      vertex 8.7 12.0098 11.0665
      vertex 8.7 12.9902 11.0665
    endloop
  endfacet
  facet normal -0 0.398412 0.917207
    outer loop
      vertex 8.7 11.5287 4.0335
      vertex 9.9 10.6295 4.42409
      vertex 9.9 11.5287 4.0335
    endloop
  endfacet
  facet normal 0 0.398412 0.917207
    outer loop
      vertex 9.9 10.6295 4.42409
      vertex 8.7 11.5287 4.0335
      vertex 8.7 10.6295 4.42409
    endloop
  endfacet
  facet normal 0 0.979084 -0.203456
    outer loop
      vertex 9.9 8.90839 7.74567
      vertex 8.7 9.10786 8.70557
      vertex 9.9 9.10786 8.70557
    endloop
  endfacet
  facet normal 0 0.979084 -0.203456
    outer loop
      vertex 8.7 9.10786 8.70557
      vertex 9.9 8.90839 7.74567
      vertex 8.7 8.90839 7.74567
    endloop
  endfacet
  facet normal 0 -0.2698 -0.962916
    outer loop
      vertex 8.7 12.9902 11.0665
      vertex 9.9 13.9342 10.802
      vertex 9.9 12.9902 11.0665
    endloop
  endfacet
  facet normal -0 -0.2698 -0.962916
    outer loop
      vertex 9.9 13.9342 10.802
      vertex 8.7 12.9902 11.0665
      vertex 8.7 13.9342 10.802
    endloop
  endfacet
  facet normal 0 0.81697 0.576681
    outer loop
      vertex 9.9 9.86899 5.04281
      vertex 8.7 9.30361 5.84377
      vertex 9.9 9.30361 5.84377
    endloop
  endfacet
  facet normal 0 0.81697 0.576681
    outer loop
      vertex 8.7 9.30361 5.84377
      vertex 9.9 9.86899 5.04281
      vertex 8.7 9.86899 5.04281
    endloop
  endfacet
  facet normal 0 0.730847 -0.682542
    outer loop
      vertex 9.9 9.55891 9.57605
      vertex 8.7 10.2281 10.2926
      vertex 9.9 10.2281 10.2926
    endloop
  endfacet
  facet normal 0 0.730847 -0.682542
    outer loop
      vertex 8.7 10.2281 10.2926
      vertex 9.9 9.55891 9.57605
      vertex 8.7 9.55891 9.57605
    endloop
  endfacet
  facet normal -0 0.631087 0.775712
    outer loop
      vertex 8.7 10.6295 4.42409
      vertex 9.9 9.86899 5.04281
      vertex 9.9 10.6295 4.42409
    endloop
  endfacet
  facet normal 0 0.631087 0.775712
    outer loop
      vertex 9.9 9.86899 5.04281
      vertex 8.7 10.6295 4.42409
      vertex 8.7 9.86899 5.04281
    endloop
  endfacet
  facet normal 0 -0.81696 0.576694
    outer loop
      vertex 8.7 15.131 5.04281
      vertex 9.9 15.6964 5.84377
      vertex 8.7 15.6964 5.84377
    endloop
  endfacet
  facet normal 0 -0.81696 0.576694
    outer loop
      vertex 9.9 15.6964 5.84377
      vertex 8.7 15.131 5.04281
      vertex 9.9 15.131 5.04281
    endloop
  endfacet
  facet normal 0 -0.631092 0.775708
    outer loop
      vertex 8.7 15.131 5.04281
      vertex 9.9 14.3705 4.42409
      vertex 9.9 15.131 5.04281
    endloop
  endfacet
  facet normal 0 -0.631092 0.775708
    outer loop
      vertex 9.9 14.3705 4.42409
      vertex 8.7 15.131 5.04281
      vertex 8.7 14.3705 4.42409
    endloop
  endfacet
  facet normal 0 0.887884 -0.460068
    outer loop
      vertex 9.9 9.10786 8.70557
      vertex 8.7 9.55891 9.57605
      vertex 9.9 9.55891 9.57605
    endloop
  endfacet
  facet normal 0 0.887884 -0.460068
    outer loop
      vertex 8.7 9.55891 9.57605
      vertex 9.9 9.10786 8.70557
      vertex 8.7 9.10786 8.70557
    endloop
  endfacet
  facet normal 1 0 0
    outer loop
      vertex 8.7 15.8921 8.70557
      vertex 8.7 16.0247 6.76756
      vertex 8.7 16.0916 7.74567
    endloop
  endfacet
  facet normal 1 0 0
    outer loop
      vertex 8.7 15.8921 8.70557
      vertex 8.7 15.6964 5.84377
      vertex 8.7 16.0247 6.76756
    endloop
  endfacet
  facet normal 1 0 0
    outer loop
      vertex 8.7 15.4411 9.57605
      vertex 8.7 15.6964 5.84377
      vertex 8.7 15.8921 8.70557
    endloop
  endfacet
  facet normal 1 0 0
    outer loop
      vertex 8.7 15.4411 9.57605
      vertex 8.7 15.131 5.04281
      vertex 8.7 15.6964 5.84377
    endloop
  endfacet
  facet normal 1 0 0
    outer loop
      vertex 8.7 14.7719 10.2926
      vertex 8.7 15.131 5.04281
      vertex 8.7 15.4411 9.57605
    endloop
  endfacet
  facet normal 1 0 0
    outer loop
      vertex 8.7 14.7719 10.2926
      vertex 8.7 14.3705 4.42409
      vertex 8.7 15.131 5.04281
    endloop
  endfacet
  facet normal 1 0 0
    outer loop
      vertex 8.7 13.9342 10.802
      vertex 8.7 14.3705 4.42409
      vertex 8.7 14.7719 10.2926
    endloop
  endfacet
  facet normal 1 0 0
    outer loop
      vertex 8.7 13.9342 10.802
      vertex 8.7 13.4713 4.0335
      vertex 8.7 14.3705 4.42409
    endloop
  endfacet
  facet normal 1 0 0
    outer loop
      vertex 8.7 12.9902 11.0665
      vertex 8.7 13.4713 4.0335
      vertex 8.7 13.9342 10.802
    endloop
  endfacet
  facet normal 1 0 0
    outer loop
      vertex 8.7 12.9902 11.0665
      vertex 8.7 12.5 3.9
      vertex 8.7 13.4713 4.0335
    endloop
  endfacet
  facet normal 1 -0 0
    outer loop
      vertex 8.7 12.0098 11.0665
      vertex 8.7 12.5 3.9
      vertex 8.7 12.9902 11.0665
    endloop
  endfacet
  facet normal 1 0 0
    outer loop
      vertex 8.7 12.0098 11.0665
      vertex 8.7 11.5287 4.0335
      vertex 8.7 12.5 3.9
    endloop
  endfacet
  facet normal 1 -0 0
    outer loop
      vertex 8.7 11.0658 10.802
      vertex 8.7 11.5287 4.0335
      vertex 8.7 12.0098 11.0665
    endloop
  endfacet
  facet normal 1 0 0
    outer loop
      vertex 8.7 11.0658 10.802
      vertex 8.7 10.6295 4.42409
      vertex 8.7 11.5287 4.0335
    endloop
  endfacet
  facet normal 1 -0 0
    outer loop
      vertex 8.7 10.2281 10.2926
      vertex 8.7 10.6295 4.42409
      vertex 8.7 11.0658 10.802
    endloop
  endfacet
  facet normal 1 0 0
    outer loop
      vertex 8.7 10.2281 10.2926
      vertex 8.7 9.86899 5.04281
      vertex 8.7 10.6295 4.42409
    endloop
  endfacet
  facet normal 1 -0 0
    outer loop
      vertex 8.7 9.55891 9.57605
      vertex 8.7 9.86899 5.04281
      vertex 8.7 10.2281 10.2926
    endloop
  endfacet
  facet normal 1 0 0
    outer loop
      vertex 8.7 9.55891 9.57605
      vertex 8.7 9.30361 5.84377
      vertex 8.7 9.86899 5.04281
    endloop
  endfacet
  facet normal 1 -0 0
    outer loop
      vertex 8.7 9.10786 8.70557
      vertex 8.7 9.30361 5.84377
      vertex 8.7 9.55891 9.57605
    endloop
  endfacet
  facet normal 1 0 0
    outer loop
      vertex 8.7 9.10786 8.70557
      vertex 8.7 8.9753 6.76756
      vertex 8.7 9.30361 5.84377
    endloop
  endfacet
  facet normal 1 0 -0
    outer loop
      vertex 8.7 8.9753 6.76756
      vertex 8.7 9.10786 8.70557
      vertex 8.7 8.90839 7.74567
    endloop
  endfacet
  facet normal 0 -1 0
    outer loop
      vertex -12 -24 0
      vertex 12 -24 2
      vertex -12 -24 2
    endloop
  endfacet
  facet normal 0 -1 -0
    outer loop
      vertex 12 -24 2
      vertex -12 -24 0
      vertex 12 -24 0
    endloop
  endfacet
  facet normal -0.841257 0.540636 0
    outer loop
      vertex 1.14601 -7.32256 0
      vertex 1.67911 -6.49303 2
      vertex 1.67911 -6.49303 0
    endloop
  endfacet
  facet normal -0.841257 0.540636 0
    outer loop
      vertex 1.67911 -6.49303 2
      vertex 1.14601 -7.32256 0
      vertex 1.14601 -7.32256 2
    endloop
  endfacet
  facet normal 0.959492 0.281736 0
    outer loop
      vertex -1.47219 -6.94612 2
      vertex -1.75 -6 0
      vertex -1.75 -6 2
    endloop
  endfacet
  facet normal 0.959492 0.281736 0
    outer loop
      vertex -1.75 -6 0
      vertex -1.47219 -6.94612 2
      vertex -1.47219 -6.94612 0
    endloop
  endfacet
  facet normal -0.415417 0.909631 0
    outer loop
      vertex 1.14601 -7.32256 0
      vertex 0.24905 -7.73219 2
      vertex 1.14601 -7.32256 2
    endloop
  endfacet
  facet normal -0.415417 0.909631 0
    outer loop
      vertex 0.24905 -7.73219 2
      vertex 1.14601 -7.32256 0
      vertex 0.24905 -7.73219 0
    endloop
  endfacet
  facet normal -0.415417 -0.909631 0
    outer loop
      vertex 0.24905 -4.26781 0
      vertex 1.14601 -4.67744 2
      vertex 0.24905 -4.26781 2
    endloop
  endfacet
  facet normal -0.415417 -0.909631 -0
    outer loop
      vertex 1.14601 -4.67744 2
      vertex 0.24905 -4.26781 0
      vertex 1.14601 -4.67744 0
    endloop
  endfacet
  facet normal -1 0 0
    outer loop
      vertex 1.67911 -6.49303 0
      vertex 1.67911 -5.50697 2
      vertex 1.67911 -5.50697 0
    endloop
  endfacet
  facet normal -1 -0 0
    outer loop
      vertex 1.67911 -5.50697 2
      vertex 1.67911 -6.49303 0
      vertex 1.67911 -6.49303 2
    endloop
  endfacet
  facet normal 0.142314 -0.989822 0
    outer loop
      vertex -0.726975 -4.40814 0
      vertex 0.24905 -4.26781 2
      vertex -0.726975 -4.40814 2
    endloop
  endfacet
  facet normal 0.142314 -0.989822 0
    outer loop
      vertex 0.24905 -4.26781 2
      vertex -0.726975 -4.40814 0
      vertex 0.24905 -4.26781 0
    endloop
  endfacet
  facet normal 0.959492 -0.281736 0
    outer loop
      vertex -1.75 -6 2
      vertex -1.47219 -5.05388 0
      vertex -1.47219 -5.05388 2
    endloop
  endfacet
  facet normal 0.959492 -0.281736 0
    outer loop
      vertex -1.47219 -5.05388 0
      vertex -1.75 -6 2
      vertex -1.75 -6 0
    endloop
  endfacet
  facet normal -0.841257 -0.540636 0
    outer loop
      vertex 1.67911 -5.50697 0
      vertex 1.14601 -4.67744 2
      vertex 1.14601 -4.67744 0
    endloop
  endfacet
  facet normal -0.841257 -0.540636 0
    outer loop
      vertex 1.14601 -4.67744 2
      vertex 1.67911 -5.50697 0
      vertex 1.67911 -5.50697 2
    endloop
  endfacet
  facet normal 0.654865 0.755746 -0
    outer loop
      vertex -0.726975 -7.59186 0
      vertex -1.47219 -6.94612 2
      vertex -0.726975 -7.59186 2
    endloop
  endfacet
  facet normal 0.654865 0.755746 0
    outer loop
      vertex -1.47219 -6.94612 2
      vertex -0.726975 -7.59186 0
      vertex -1.47219 -6.94612 0
    endloop
  endfacet
  facet normal 0.142314 0.989822 -0
    outer loop
      vertex 0.24905 -7.73219 0
      vertex -0.726975 -7.59186 2
      vertex 0.24905 -7.73219 2
    endloop
  endfacet
  facet normal 0.142314 0.989822 0
    outer loop
      vertex -0.726975 -7.59186 2
      vertex 0.24905 -7.73219 0
      vertex -0.726975 -7.59186 0
    endloop
  endfacet
  facet normal 0.654865 -0.755746 0
    outer loop
      vertex -1.47219 -5.05388 0
      vertex -0.726975 -4.40814 2
      vertex -1.47219 -5.05388 2
    endloop
  endfacet
  facet normal 0.654865 -0.755746 0
    outer loop
      vertex -0.726975 -4.40814 2
      vertex -1.47219 -5.05388 0
      vertex -0.726975 -4.40814 0
    endloop
  endfacet
  facet normal -0.841277 0.540604 0
    outer loop
      vertex 1.14601 -19.3226 0
      vertex 1.67911 -18.493 2
      vertex 1.67911 -18.493 0
    endloop
  endfacet
  facet normal -0.841277 0.540604 0
    outer loop
      vertex 1.67911 -18.493 2
      vertex 1.14601 -19.3226 0
      vertex 1.14601 -19.3226 2
    endloop
  endfacet
  facet normal 0.95949 0.281742 0
    outer loop
      vertex -1.47219 -18.9461 2
      vertex -1.75 -18 0
      vertex -1.75 -18 2
    endloop
  endfacet
  facet normal 0.95949 0.281742 0
    outer loop
      vertex -1.75 -18 0
      vertex -1.47219 -18.9461 2
      vertex -1.47219 -18.9461 0
    endloop
  endfacet
  facet normal -0.415392 0.909643 0
    outer loop
      vertex 1.14601 -19.3226 0
      vertex 0.24905 -19.7322 2
      vertex 1.14601 -19.3226 2
    endloop
  endfacet
  facet normal -0.415392 0.909643 0
    outer loop
      vertex 0.24905 -19.7322 2
      vertex 1.14601 -19.3226 0
      vertex 0.24905 -19.7322 0
    endloop
  endfacet
  facet normal -0.415392 -0.909643 0
    outer loop
      vertex 0.24905 -16.2678 0
      vertex 1.14601 -16.6774 2
      vertex 0.24905 -16.2678 2
    endloop
  endfacet
  facet normal -0.415392 -0.909643 -0
    outer loop
      vertex 1.14601 -16.6774 2
      vertex 0.24905 -16.2678 0
      vertex 1.14601 -16.6774 0
    endloop
  endfacet
  facet normal -1 0 0
    outer loop
      vertex 1.67911 -18.493 0
      vertex 1.67911 -17.507 2
      vertex 1.67911 -17.507 0
    endloop
  endfacet
  facet normal -1 -0 0
    outer loop
      vertex 1.67911 -17.507 2
      vertex 1.67911 -18.493 0
      vertex 1.67911 -18.493 2
    endloop
  endfacet
  facet normal 0.95949 -0.281742 0
    outer loop
      vertex -1.75 -18 2
      vertex -1.47219 -17.0539 0
      vertex -1.47219 -17.0539 2
    endloop
  endfacet
  facet normal 0.95949 -0.281742 0
    outer loop
      vertex -1.47219 -17.0539 0
      vertex -1.75 -18 2
      vertex -1.75 -18 0
    endloop
  endfacet
  facet normal -0.841277 -0.540604 0
    outer loop
      vertex 1.67911 -17.507 0
      vertex 1.14601 -16.6774 2
      vertex 1.14601 -16.6774 0
    endloop
  endfacet
  facet normal -0.841277 -0.540604 0
    outer loop
      vertex 1.14601 -16.6774 2
      vertex 1.67911 -17.507 0
      vertex 1.67911 -17.507 2
    endloop
  endfacet
  facet normal 0.6549 0.755716 -0
    outer loop
      vertex -0.726975 -19.5919 0
      vertex -1.47219 -18.9461 2
      vertex -0.726975 -19.5919 2
    endloop
  endfacet
  facet normal 0.6549 0.755716 0
    outer loop
      vertex -1.47219 -18.9461 2
      vertex -0.726975 -19.5919 0
      vertex -1.47219 -18.9461 0
    endloop
  endfacet
  facet normal 0.142284 0.989826 -0
    outer loop
      vertex 0.24905 -19.7322 0
      vertex -0.726975 -19.5919 2
      vertex 0.24905 -19.7322 2
    endloop
  endfacet
  facet normal 0.142284 0.989826 0
    outer loop
      vertex -0.726975 -19.5919 2
      vertex 0.24905 -19.7322 0
      vertex -0.726975 -19.5919 0
    endloop
  endfacet
  facet normal 0.142284 -0.989826 0
    outer loop
      vertex -0.726975 -16.4081 0
      vertex 0.24905 -16.2678 2
      vertex -0.726975 -16.4081 2
    endloop
  endfacet
  facet normal 0.142284 -0.989826 0
    outer loop
      vertex 0.24905 -16.2678 2
      vertex -0.726975 -16.4081 0
      vertex 0.24905 -16.2678 0
    endloop
  endfacet
  facet normal 0.6549 -0.755716 0
    outer loop
      vertex -1.47219 -17.0539 0
      vertex -0.726975 -16.4081 2
      vertex -1.47219 -17.0539 2
    endloop
  endfacet
  facet normal 0.6549 -0.755716 0
    outer loop
      vertex -0.726975 -16.4081 2
      vertex -1.47219 -17.0539 0
      vertex -0.726975 -16.4081 0
    endloop
  endfacet
  facet normal 0.986394 -0.164398 0
    outer loop
      vertex -8 0 15
      vertex -11.0943 -18.5659 2
      vertex -8 0 2
    endloop
  endfacet
  facet normal 0 -0.573577 0.819152
    outer loop
      vertex -12 0 15
      vertex -11.0943 -18.5659 2
      vertex -8 0 15
    endloop
  endfacet
  facet normal 0 -0.573577 0.819152
    outer loop
      vertex -11.0943 -18.5659 2
      vertex -12 0 15
      vertex -12 -18.5659 2
    endloop
  endfacet
  facet normal -0.986394 -0.164398 0
    outer loop
      vertex 11.0943 -18.5659 2
      vertex 8 0 15
      vertex 8 0 2
    endloop
  endfacet
  facet normal 0 -0.573577 0.819152
    outer loop
      vertex 12 0 15
      vertex 11.0943 -18.5659 2
      vertex 12 -18.5659 2
    endloop
  endfacet
  facet normal 0 -0.573577 0.819152
    outer loop
      vertex 11.0943 -18.5659 2
      vertex 12 0 15
      vertex 8 0 15
    endloop
  endfacet
endsolid OpenSCAD_Model
