solid OpenSCAD_Model
  facet normal 1 0 0
    outer loop
      vertex 12.25 5.69856 4.875
      vertex 12.25 31 19
      vertex 12.25 5.88988 14.5547
    endloop
  endfacet
  facet normal 1 0 0
    outer loop
      vertex 12.25 31 19
      vertex 12.25 5.69856 4.875
      vertex 12.25 5.98767 3.98519
    endloop
  endfacet
  facet normal 1 -0 0
    outer loop
      vertex 12.25 5.42208 13.7445
      vertex 12.25 5.69856 4.875
      vertex 12.25 5.88988 14.5547
    endloop
  endfacet
  facet normal 1 0 0
    outer loop
      vertex 12.25 5.42208 13.7445
      vertex 12.25 5.07252 5.57029
      vertex 12.25 5.69856 4.875
    endloop
  endfacet
  facet normal 1 -0 0
    outer loop
      vertex 12.25 4.66516 13.1945
      vertex 12.25 5.07252 5.57029
      vertex 12.25 5.42208 13.7445
    endloop
  endfacet
  facet normal 1 0 0
    outer loop
      vertex 12.25 4.66516 13.1945
      vertex 12.25 4.2178 5.95083
      vertex 12.25 5.07252 5.57029
    endloop
  endfacet
  facet normal 1 -0 0
    outer loop
      vertex 12.25 3.75 13
      vertex 12.25 4.2178 5.95083
      vertex 12.25 4.66516 13.1945
    endloop
  endfacet
  facet normal 1 0 0
    outer loop
      vertex 12.25 3.75 13
      vertex 12.25 3.2822 5.95083
      vertex 12.25 4.2178 5.95083
    endloop
  endfacet
  facet normal 1 0 0
    outer loop
      vertex 12.25 2.83484 13.1945
      vertex 12.25 3.2822 5.95083
      vertex 12.25 3.75 13
    endloop
  endfacet
  facet normal 1 0 0
    outer loop
      vertex 12.25 2.83484 13.1945
      vertex 12.25 2.42748 5.57029
      vertex 12.25 3.2822 5.95083
    endloop
  endfacet
  facet normal 1 0 0
    outer loop
      vertex 12.25 2.07792 13.7445
      vertex 12.25 2.42748 5.57029
      vertex 12.25 2.83484 13.1945
    endloop
  endfacet
  facet normal 1 0 0
    outer loop
      vertex 12.25 2.07792 13.7445
      vertex 12.25 1.80144 4.875
      vertex 12.25 2.42748 5.57029
    endloop
  endfacet
  facet normal 1 0 0
    outer loop
      vertex 12.25 1.61012 14.5547
      vertex 12.25 1.80144 4.875
      vertex 12.25 2.07792 13.7445
    endloop
  endfacet
  facet normal 1 0 0
    outer loop
      vertex 12.25 0 19
      vertex 12.25 1.61012 14.5547
      vertex 12.25 1.51233 15.4852
    endloop
  endfacet
  facet normal 1 0 0
    outer loop
      vertex 12.25 1.61012 14.5547
      vertex 12.25 1.51233 3.98519
      vertex 12.25 1.80144 4.875
    endloop
  endfacet
  facet normal 1 0 0
    outer loop
      vertex 12.25 5.88988 14.5547
      vertex 12.25 31 19
      vertex 12.25 5.98767 15.4852
    endloop
  endfacet
  facet normal 1 0 0
    outer loop
      vertex 12.25 31 19
      vertex 12.25 5.69856 16.375
      vertex 12.25 5.98767 15.4852
    endloop
  endfacet
  facet normal 1 0 0
    outer loop
      vertex 12.25 31 19
      vertex 12.25 5.07252 17.0703
      vertex 12.25 5.69856 16.375
    endloop
  endfacet
  facet normal 1 0 0
    outer loop
      vertex 12.25 31 19
      vertex 12.25 4.2178 17.4508
      vertex 12.25 5.07252 17.0703
    endloop
  endfacet
  facet normal 1 -0 0
    outer loop
      vertex 12.25 0 19
      vertex 12.25 4.2178 17.4508
      vertex 12.25 31 19
    endloop
  endfacet
  facet normal 1 0 0
    outer loop
      vertex 12.25 1.61012 14.5547
      vertex 12.25 0 19
      vertex 12.25 1.51233 3.98519
    endloop
  endfacet
  facet normal 1 0 0
    outer loop
      vertex 12.25 1.80144 16.375
      vertex 12.25 0 19
      vertex 12.25 1.51233 15.4852
    endloop
  endfacet
  facet normal 1 0 0
    outer loop
      vertex 12.25 2.42748 17.0703
      vertex 12.25 0 19
      vertex 12.25 1.80144 16.375
    endloop
  endfacet
  facet normal 1 0 0
    outer loop
      vertex 12.25 3.2822 17.4508
      vertex 12.25 0 19
      vertex 12.25 2.42748 17.0703
    endloop
  endfacet
  facet normal 1 0 0
    outer loop
      vertex 12.25 4.2178 17.4508
      vertex 12.25 0 19
      vertex 12.25 3.2822 17.4508
    endloop
  endfacet
  facet normal 1 0 0
    outer loop
      vertex 12.25 31 19
      vertex 12.25 5.98767 3.98519
      vertex 12.25 31 0
    endloop
  endfacet
  facet normal 1 -0 0
    outer loop
      vertex 12.25 5.88988 3.05471
      vertex 12.25 31 0
      vertex 12.25 5.98767 3.98519
    endloop
  endfacet
  facet normal 1 -0 0
    outer loop
      vertex 12.25 5.42208 2.24446
      vertex 12.25 31 0
      vertex 12.25 5.88988 3.05471
    endloop
  endfacet
  facet normal 1 -0 0
    outer loop
      vertex 12.25 4.66516 1.69452
      vertex 12.25 31 0
      vertex 12.25 5.42208 2.24446
    endloop
  endfacet
  facet normal 1 0 0
    outer loop
      vertex 12.25 0 0
      vertex 12.25 4.66516 1.69452
      vertex 12.25 3.75 1.5
    endloop
  endfacet
  facet normal 1 0 0
    outer loop
      vertex 12.25 4.66516 1.69452
      vertex 12.25 0 0
      vertex 12.25 31 0
    endloop
  endfacet
  facet normal 1 0 0
    outer loop
      vertex 12.25 2.83484 1.69452
      vertex 12.25 0 0
      vertex 12.25 3.75 1.5
    endloop
  endfacet
  facet normal 1 0 0
    outer loop
      vertex 12.25 2.07792 2.24446
      vertex 12.25 0 0
      vertex 12.25 2.83484 1.69452
    endloop
  endfacet
  facet normal 1 0 0
    outer loop
      vertex 12.25 1.61012 3.05471
      vertex 12.25 0 0
      vertex 12.25 2.07792 2.24446
    endloop
  endfacet
  facet normal 1 0 0
    outer loop
      vertex 12.25 1.51233 3.98519
      vertex 12.25 0 0
      vertex 12.25 1.61012 3.05471
    endloop
  endfacet
  facet normal 1 0 0
    outer loop
      vertex 12.25 0 0
      vertex 12.25 1.51233 3.98519
      vertex 12.25 0 19
    endloop
  endfacet
  facet normal 0 0 1
    outer loop
      vertex 12.25 31 19
      vertex 9.75 28.5 19
      vertex 12.25 0 19
    endloop
  endfacet
  facet normal 0 0 1
    outer loop
      vertex 12.25 31 19
      vertex 2.5 28.5 19
      vertex 9.75 28.5 19
    endloop
  endfacet
  facet normal -0 0 1
    outer loop
      vertex 0 31 19
      vertex 2.5 28.5 19
      vertex 12.25 31 19
    endloop
  endfacet
  facet normal 0 0 1
    outer loop
      vertex 0 0 19
      vertex 2.5 28.5 19
      vertex 0 31 19
    endloop
  endfacet
  facet normal 0 0 1
    outer loop
      vertex 2.5 28.5 19
      vertex 0 0 19
      vertex 2.5 0 19
    endloop
  endfacet
  facet normal 0 0 1
    outer loop
      vertex 12.25 0 19
      vertex 9.75 28.5 19
      vertex 9.75 0 19
    endloop
  endfacet
  facet normal 0 0 -1
    outer loop
      vertex 0 0 0
      vertex 2.5 28.5 0
      vertex 2.5 0 0
    endloop
  endfacet
  facet normal -0 0 -1
    outer loop
      vertex 2.5 28.5 0
      vertex 0 0 0
      vertex 2.5 31 0
    endloop
  endfacet
  facet normal 0 0 -1
    outer loop
      vertex 0 109.5 0
      vertex 2.5 31 0
      vertex 0 0 0
    endloop
  endfacet
  facet normal 0 0 -1
    outer loop
      vertex 9.75 28.5 0
      vertex 12.25 0 0
      vertex 9.75 0 0
    endloop
  endfacet
  facet normal 0 0 -1
    outer loop
      vertex 12.25 0 0
      vertex 9.75 28.5 0
      vertex 12.25 31 0
    endloop
  endfacet
  facet normal 0 0 -1
    outer loop
      vertex 2.5 31 0
      vertex 9.75 28.5 0
      vertex 2.5 28.5 0
    endloop
  endfacet
  facet normal 0 0 -1
    outer loop
      vertex 9.75 28.5 0
      vertex 2.5 31 0
      vertex 12.25 31 0
    endloop
  endfacet
  facet normal 0 0 -1
    outer loop
      vertex 4.4 92 0
      vertex 2.5 92 0
      vertex 4.4 107 0
    endloop
  endfacet
  facet normal 0 0 -1
    outer loop
      vertex 24.6 107 0
      vertex 26.5 92 0
      vertex 24.6 92 0
    endloop
  endfacet
  facet normal 0 0 -1
    outer loop
      vertex 26.5 92 0
      vertex 24.6 107 0
      vertex 26.5 109.5 0
    endloop
  endfacet
  facet normal 0 0 -1
    outer loop
      vertex 4.4 107 0
      vertex 26.5 109.5 0
      vertex 24.6 107 0
    endloop
  endfacet
  facet normal 0 0 -1
    outer loop
      vertex 4.4 107 0
      vertex 0 109.5 0
      vertex 26.5 109.5 0
    endloop
  endfacet
  facet normal 0 0 -1
    outer loop
      vertex 2.5 92 0
      vertex 0 109.5 0
      vertex 4.4 107 0
    endloop
  endfacet
  facet normal 0 0 -1
    outer loop
      vertex 2.5 31 0
      vertex 0 109.5 0
      vertex 2.5 92 0
    endloop
  endfacet
  facet normal -1 0 0
    outer loop
      vertex 0 31 18.9402
      vertex 0 5.88988 14.5547
      vertex 0 5.98767 15.4852
    endloop
  endfacet
  facet normal -1 0 0
    outer loop
      vertex 0 31 18.9402
      vertex 0 5.69856 4.875
      vertex 0 5.88988 14.5547
    endloop
  endfacet
  facet normal -1 0 0
    outer loop
      vertex 0 5.69856 4.875
      vertex 0 5.42208 13.7445
      vertex 0 5.88988 14.5547
    endloop
  endfacet
  facet normal -1 0 0
    outer loop
      vertex 0 5.07252 5.57029
      vertex 0 5.42208 13.7445
      vertex 0 5.69856 4.875
    endloop
  endfacet
  facet normal -1 0 0
    outer loop
      vertex 0 5.07252 5.57029
      vertex 0 4.66516 13.1945
      vertex 0 5.42208 13.7445
    endloop
  endfacet
  facet normal -1 0 0
    outer loop
      vertex 0 4.2178 5.95083
      vertex 0 4.66516 13.1945
      vertex 0 5.07252 5.57029
    endloop
  endfacet
  facet normal -1 0 0
    outer loop
      vertex 0 4.2178 5.95083
      vertex 0 3.75 13
      vertex 0 4.66516 13.1945
    endloop
  endfacet
  facet normal -1 0 0
    outer loop
      vertex 0 3.2822 5.95083
      vertex 0 3.75 13
      vertex 0 4.2178 5.95083
    endloop
  endfacet
  facet normal -1 0 0
    outer loop
      vertex 0 3.2822 5.95083
      vertex 0 2.83484 13.1945
      vertex 0 3.75 13
    endloop
  endfacet
  facet normal -1 0 0
    outer loop
      vertex 0 2.42748 5.57029
      vertex 0 2.83484 13.1945
      vertex 0 3.2822 5.95083
    endloop
  endfacet
  facet normal -1 0 0
    outer loop
      vertex 0 2.42748 5.57029
      vertex 0 2.07792 13.7445
      vertex 0 2.83484 13.1945
    endloop
  endfacet
  facet normal -1 0 0
    outer loop
      vertex 0 1.80144 4.875
      vertex 0 2.07792 13.7445
      vertex 0 2.42748 5.57029
    endloop
  endfacet
  facet normal -1 0 0
    outer loop
      vertex 0 1.80144 4.875
      vertex 0 1.61012 14.5547
      vertex 0 2.07792 13.7445
    endloop
  endfacet
  facet normal -1 0 0
    outer loop
      vertex 0 1.51233 3.98519
      vertex 0 1.61012 14.5547
      vertex 0 1.80144 4.875
    endloop
  endfacet
  facet normal -1 0 0
    outer loop
      vertex 0 0 19
      vertex 0 1.61012 14.5547
      vertex 0 1.51233 3.98519
    endloop
  endfacet
  facet normal -1 0 0
    outer loop
      vertex 0 109.5 0
      vertex 0 101.648 14
      vertex 0 109.5 14
    endloop
  endfacet
  facet normal -1 0 0
    outer loop
      vertex 0 109.5 0
      vertex 0 31 18.9402
      vertex 0 101.648 14
    endloop
  endfacet
  facet normal -1 0 0
    outer loop
      vertex 0 5.69856 4.875
      vertex 0 31 18.9402
      vertex 0 5.98767 3.98519
    endloop
  endfacet
  facet normal -1 0 0
    outer loop
      vertex 0 5.42208 2.24446
      vertex 0 31 18.9402
      vertex 0 109.5 0
    endloop
  endfacet
  facet normal -1 0 0
    outer loop
      vertex 0 31 18.9402
      vertex 0 5.88988 3.05471
      vertex 0 5.98767 3.98519
    endloop
  endfacet
  facet normal -1 0 0
    outer loop
      vertex 0 31 18.9402
      vertex 0 5.42208 2.24446
      vertex 0 5.88988 3.05471
    endloop
  endfacet
  facet normal -1 0 0
    outer loop
      vertex 0 109.5 0
      vertex 0 4.66516 1.69452
      vertex 0 5.42208 2.24446
    endloop
  endfacet
  facet normal -1 0 0
    outer loop
      vertex 0 0 0
      vertex 0 4.66516 1.69452
      vertex 0 109.5 0
    endloop
  endfacet
  facet normal -1 0 0
    outer loop
      vertex 0 0 19
      vertex 0 1.51233 3.98519
      vertex 0 0 0
    endloop
  endfacet
  facet normal -1 -0 0
    outer loop
      vertex 0 1.61012 3.05471
      vertex 0 0 0
      vertex 0 1.51233 3.98519
    endloop
  endfacet
  facet normal -1 -0 0
    outer loop
      vertex 0 2.07792 2.24446
      vertex 0 0 0
      vertex 0 1.61012 3.05471
    endloop
  endfacet
  facet normal -1 -0 0
    outer loop
      vertex 0 2.83484 1.69452
      vertex 0 0 0
      vertex 0 2.07792 2.24446
    endloop
  endfacet
  facet normal -1 -0 0
    outer loop
      vertex 0 3.75 1.5
      vertex 0 0 0
      vertex 0 2.83484 1.69452
    endloop
  endfacet
  facet normal -1 0 0
    outer loop
      vertex 0 4.66516 1.69452
      vertex 0 0 0
      vertex 0 3.75 1.5
    endloop
  endfacet
  facet normal -1 -0 0
    outer loop
      vertex 0 31 18.9402
      vertex 0 5.98767 15.4852
      vertex 0 31 19
    endloop
  endfacet
  facet normal -1 0 0
    outer loop
      vertex 0 5.69856 16.375
      vertex 0 31 19
      vertex 0 5.98767 15.4852
    endloop
  endfacet
  facet normal -1 0 0
    outer loop
      vertex 0 5.07252 17.0703
      vertex 0 31 19
      vertex 0 5.69856 16.375
    endloop
  endfacet
  facet normal -1 0 0
    outer loop
      vertex 0 4.2178 17.4508
      vertex 0 31 19
      vertex 0 5.07252 17.0703
    endloop
  endfacet
  facet normal -1 0 0
    outer loop
      vertex 0 0 19
      vertex 0 4.2178 17.4508
      vertex 0 3.2822 17.4508
    endloop
  endfacet
  facet normal -1 0 0
    outer loop
      vertex 0 4.2178 17.4508
      vertex 0 0 19
      vertex 0 31 19
    endloop
  endfacet
  facet normal -1 0 0
    outer loop
      vertex 0 2.42748 17.0703
      vertex 0 0 19
      vertex 0 3.2822 17.4508
    endloop
  endfacet
  facet normal -1 0 0
    outer loop
      vertex 0 1.80144 16.375
      vertex 0 0 19
      vertex 0 2.42748 17.0703
    endloop
  endfacet
  facet normal -1 0 0
    outer loop
      vertex 0 1.51233 15.4852
      vertex 0 0 19
      vertex 0 1.80144 16.375
    endloop
  endfacet
  facet normal -1 0 0
    outer loop
      vertex 0 1.61012 14.5547
      vertex 0 0 19
      vertex 0 1.51233 15.4852
    endloop
  endfacet
  facet normal 0 1 0
    outer loop
      vertex 12.25 31 19
      vertex 2.5 31 18.9402
      vertex 0 31 19
    endloop
  endfacet
  facet normal 0 1 -0
    outer loop
      vertex 12.25 31 0
      vertex 2.5 31 18.9402
      vertex 12.25 31 19
    endloop
  endfacet
  facet normal 0 1 0
    outer loop
      vertex 2.5 31 18.9402
      vertex 12.25 31 0
      vertex 2.5 31 0
    endloop
  endfacet
  facet normal 0 1 0
    outer loop
      vertex 0 31 19
      vertex 2.5 31 18.9402
      vertex 0 31 18.9402
    endloop
  endfacet
  facet normal 0 -1 0
    outer loop
      vertex 0 0 0
      vertex 2.5 0 19
      vertex 0 0 19
    endloop
  endfacet
  facet normal 0 -1 -0
    outer loop
      vertex 2.5 0 19
      vertex 0 0 0
      vertex 2.5 0 0
    endloop
  endfacet
  facet normal 0 -1 0
    outer loop
      vertex 9.75 0 0
      vertex 12.25 0 19
      vertex 9.75 0 19
    endloop
  endfacet
  facet normal 0 -1 -0
    outer loop
      vertex 12.25 0 19
      vertex 9.75 0 0
      vertex 12.25 0 0
    endloop
  endfacet
  facet normal -1 0 0
    outer loop
      vertex 9.75 28.5 19
      vertex 9.75 5.88988 14.5547
      vertex 9.75 5.98767 15.4852
    endloop
  endfacet
  facet normal -1 0 0
    outer loop
      vertex 9.75 28.5 19
      vertex 9.75 5.69856 4.875
      vertex 9.75 5.88988 14.5547
    endloop
  endfacet
  facet normal -1 0 0
    outer loop
      vertex 9.75 5.69856 4.875
      vertex 9.75 5.42208 13.7445
      vertex 9.75 5.88988 14.5547
    endloop
  endfacet
  facet normal -1 0 0
    outer loop
      vertex 9.75 5.07252 5.57029
      vertex 9.75 5.42208 13.7445
      vertex 9.75 5.69856 4.875
    endloop
  endfacet
  facet normal -1 0 0
    outer loop
      vertex 9.75 5.07252 5.57029
      vertex 9.75 4.66516 13.1945
      vertex 9.75 5.42208 13.7445
    endloop
  endfacet
  facet normal -1 0 0
    outer loop
      vertex 9.75 4.2178 5.95083
      vertex 9.75 4.66516 13.1945
      vertex 9.75 5.07252 5.57029
    endloop
  endfacet
  facet normal -1 0 0
    outer loop
      vertex 9.75 4.2178 5.95083
      vertex 9.75 3.75 13
      vertex 9.75 4.66516 13.1945
    endloop
  endfacet
  facet normal -1 0 0
    outer loop
      vertex 9.75 3.2822 5.95083
      vertex 9.75 3.75 13
      vertex 9.75 4.2178 5.95083
    endloop
  endfacet
  facet normal -1 0 0
    outer loop
      vertex 9.75 3.2822 5.95083
      vertex 9.75 2.83484 13.1945
      vertex 9.75 3.75 13
    endloop
  endfacet
  facet normal -1 0 0
    outer loop
      vertex 9.75 2.42748 5.57029
      vertex 9.75 2.83484 13.1945
      vertex 9.75 3.2822 5.95083
    endloop
  endfacet
  facet normal -1 0 0
    outer loop
      vertex 9.75 2.42748 5.57029
      vertex 9.75 2.07792 13.7445
      vertex 9.75 2.83484 13.1945
    endloop
  endfacet
  facet normal -1 0 0
    outer loop
      vertex 9.75 1.80144 4.875
      vertex 9.75 2.07792 13.7445
      vertex 9.75 2.42748 5.57029
    endloop
  endfacet
  facet normal -1 0 0
    outer loop
      vertex 9.75 1.80144 4.875
      vertex 9.75 1.61012 14.5547
      vertex 9.75 2.07792 13.7445
    endloop
  endfacet
  facet normal -1 0 0
    outer loop
      vertex 9.75 1.51233 3.98519
      vertex 9.75 1.61012 14.5547
      vertex 9.75 1.80144 4.875
    endloop
  endfacet
  facet normal -1 0 0
    outer loop
      vertex 9.75 0 19
      vertex 9.75 1.61012 14.5547
      vertex 9.75 1.51233 3.98519
    endloop
  endfacet
  facet normal -1 0 0
    outer loop
      vertex 9.75 5.69856 4.875
      vertex 9.75 28.5 0
      vertex 9.75 5.98767 3.98519
    endloop
  endfacet
  facet normal -1 0 0
    outer loop
      vertex 9.75 28.5 0
      vertex 9.75 5.88988 3.05471
      vertex 9.75 5.98767 3.98519
    endloop
  endfacet
  facet normal -1 0 0
    outer loop
      vertex 9.75 28.5 0
      vertex 9.75 5.42208 2.24446
      vertex 9.75 5.88988 3.05471
    endloop
  endfacet
  facet normal -1 0 0
    outer loop
      vertex 9.75 28.5 0
      vertex 9.75 4.66516 1.69452
      vertex 9.75 5.42208 2.24446
    endloop
  endfacet
  facet normal -1 0 0
    outer loop
      vertex 9.75 0 0
      vertex 9.75 4.66516 1.69452
      vertex 9.75 28.5 0
    endloop
  endfacet
  facet normal -1 0 0
    outer loop
      vertex 9.75 0 19
      vertex 9.75 1.51233 3.98519
      vertex 9.75 0 0
    endloop
  endfacet
  facet normal -1 -0 0
    outer loop
      vertex 9.75 1.61012 3.05471
      vertex 9.75 0 0
      vertex 9.75 1.51233 3.98519
    endloop
  endfacet
  facet normal -1 -0 0
    outer loop
      vertex 9.75 2.07792 2.24446
      vertex 9.75 0 0
      vertex 9.75 1.61012 3.05471
    endloop
  endfacet
  facet normal -1 -0 0
    outer loop
      vertex 9.75 2.83484 1.69452
      vertex 9.75 0 0
      vertex 9.75 2.07792 2.24446
    endloop
  endfacet
  facet normal -1 -0 0
    outer loop
      vertex 9.75 3.75 1.5
      vertex 9.75 0 0
      vertex 9.75 2.83484 1.69452
    endloop
  endfacet
  facet normal -1 0 0
    outer loop
      vertex 9.75 4.66516 1.69452
      vertex 9.75 0 0
      vertex 9.75 3.75 1.5
    endloop
  endfacet
  facet normal -1 0 0
    outer loop
      vertex 9.75 28.5 0
      vertex 9.75 5.69856 4.875
      vertex 9.75 28.5 19
    endloop
  endfacet
  facet normal -1 0 0
    outer loop
      vertex 9.75 5.69856 16.375
      vertex 9.75 28.5 19
      vertex 9.75 5.98767 15.4852
    endloop
  endfacet
  facet normal -1 0 0
    outer loop
      vertex 9.75 5.07252 17.0703
      vertex 9.75 28.5 19
      vertex 9.75 5.69856 16.375
    endloop
  endfacet
  facet normal -1 0 0
    outer loop
      vertex 9.75 4.2178 17.4508
      vertex 9.75 28.5 19
      vertex 9.75 5.07252 17.0703
    endloop
  endfacet
  facet normal -1 0 0
    outer loop
      vertex 9.75 0 19
      vertex 9.75 4.2178 17.4508
      vertex 9.75 3.2822 17.4508
    endloop
  endfacet
  facet normal -1 0 0
    outer loop
      vertex 9.75 4.2178 17.4508
      vertex 9.75 0 19
      vertex 9.75 28.5 19
    endloop
  endfacet
  facet normal -1 0 0
    outer loop
      vertex 9.75 2.42748 17.0703
      vertex 9.75 0 19
      vertex 9.75 3.2822 17.4508
    endloop
  endfacet
  facet normal -1 0 0
    outer loop
      vertex 9.75 1.80144 16.375
      vertex 9.75 0 19
      vertex 9.75 2.42748 17.0703
    endloop
  endfacet
  facet normal -1 0 0
    outer loop
      vertex 9.75 1.51233 15.4852
      vertex 9.75 0 19
      vertex 9.75 1.80144 16.375
    endloop
  endfacet
  facet normal -1 0 0
    outer loop
      vertex 9.75 1.61012 14.5547
      vertex 9.75 0 19
      vertex 9.75 1.51233 15.4852
    endloop
  endfacet
  facet normal 1 0 0
    outer loop
      vertex 2.5 5.69856 4.875
      vertex 2.5 28.5 19
      vertex 2.5 5.88988 14.5547
    endloop
  endfacet
  facet normal 1 0 0
    outer loop
      vertex 2.5 28.5 19
      vertex 2.5 5.69856 4.875
      vertex 2.5 5.98767 3.98519
    endloop
  endfacet
  facet normal 1 -0 0
    outer loop
      vertex 2.5 5.42208 13.7445
      vertex 2.5 5.69856 4.875
      vertex 2.5 5.88988 14.5547
    endloop
  endfacet
  facet normal 1 0 0
    outer loop
      vertex 2.5 5.42208 13.7445
      vertex 2.5 5.07252 5.57029
      vertex 2.5 5.69856 4.875
    endloop
  endfacet
  facet normal 1 -0 0
    outer loop
      vertex 2.5 4.66516 13.1945
      vertex 2.5 5.07252 5.57029
      vertex 2.5 5.42208 13.7445
    endloop
  endfacet
  facet normal 1 0 0
    outer loop
      vertex 2.5 4.66516 13.1945
      vertex 2.5 4.2178 5.95083
      vertex 2.5 5.07252 5.57029
    endloop
  endfacet
  facet normal 1 -0 0
    outer loop
      vertex 2.5 3.75 13
      vertex 2.5 4.2178 5.95083
      vertex 2.5 4.66516 13.1945
    endloop
  endfacet
  facet normal 1 0 0
    outer loop
      vertex 2.5 3.75 13
      vertex 2.5 3.2822 5.95083
      vertex 2.5 4.2178 5.95083
    endloop
  endfacet
  facet normal 1 0 0
    outer loop
      vertex 2.5 2.83484 13.1945
      vertex 2.5 3.2822 5.95083
      vertex 2.5 3.75 13
    endloop
  endfacet
  facet normal 1 0 0
    outer loop
      vertex 2.5 2.83484 13.1945
      vertex 2.5 2.42748 5.57029
      vertex 2.5 3.2822 5.95083
    endloop
  endfacet
  facet normal 1 0 0
    outer loop
      vertex 2.5 2.07792 13.7445
      vertex 2.5 2.42748 5.57029
      vertex 2.5 2.83484 13.1945
    endloop
  endfacet
  facet normal 1 0 0
    outer loop
      vertex 2.5 2.07792 13.7445
      vertex 2.5 1.80144 4.875
      vertex 2.5 2.42748 5.57029
    endloop
  endfacet
  facet normal 1 0 0
    outer loop
      vertex 2.5 1.61012 14.5547
      vertex 2.5 1.80144 4.875
      vertex 2.5 2.07792 13.7445
    endloop
  endfacet
  facet normal 1 0 0
    outer loop
      vertex 2.5 0 19
      vertex 2.5 1.61012 14.5547
      vertex 2.5 1.51233 15.4852
    endloop
  endfacet
  facet normal 1 0 0
    outer loop
      vertex 2.5 1.61012 14.5547
      vertex 2.5 1.51233 3.98519
      vertex 2.5 1.80144 4.875
    endloop
  endfacet
  facet normal 1 0 0
    outer loop
      vertex 2.5 5.88988 14.5547
      vertex 2.5 28.5 19
      vertex 2.5 5.98767 15.4852
    endloop
  endfacet
  facet normal 1 0 0
    outer loop
      vertex 2.5 28.5 19
      vertex 2.5 5.69856 16.375
      vertex 2.5 5.98767 15.4852
    endloop
  endfacet
  facet normal 1 0 0
    outer loop
      vertex 2.5 28.5 19
      vertex 2.5 5.07252 17.0703
      vertex 2.5 5.69856 16.375
    endloop
  endfacet
  facet normal 1 0 0
    outer loop
      vertex 2.5 28.5 19
      vertex 2.5 4.2178 17.4508
      vertex 2.5 5.07252 17.0703
    endloop
  endfacet
  facet normal 1 -0 0
    outer loop
      vertex 2.5 0 19
      vertex 2.5 4.2178 17.4508
      vertex 2.5 28.5 19
    endloop
  endfacet
  facet normal 1 0 0
    outer loop
      vertex 2.5 1.61012 14.5547
      vertex 2.5 0 19
      vertex 2.5 1.51233 3.98519
    endloop
  endfacet
  facet normal 1 0 0
    outer loop
      vertex 2.5 1.80144 16.375
      vertex 2.5 0 19
      vertex 2.5 1.51233 15.4852
    endloop
  endfacet
  facet normal 1 0 0
    outer loop
      vertex 2.5 2.42748 17.0703
      vertex 2.5 0 19
      vertex 2.5 1.80144 16.375
    endloop
  endfacet
  facet normal 1 0 0
    outer loop
      vertex 2.5 3.2822 17.4508
      vertex 2.5 0 19
      vertex 2.5 2.42748 17.0703
    endloop
  endfacet
  facet normal 1 0 0
    outer loop
      vertex 2.5 4.2178 17.4508
      vertex 2.5 0 19
      vertex 2.5 3.2822 17.4508
    endloop
  endfacet
  facet normal 1 0 0
    outer loop
      vertex 2.5 28.5 19
      vertex 2.5 5.98767 3.98519
      vertex 2.5 28.5 0
    endloop
  endfacet
  facet normal 1 -0 0
    outer loop
      vertex 2.5 5.88988 3.05471
      vertex 2.5 28.5 0
      vertex 2.5 5.98767 3.98519
    endloop
  endfacet
  facet normal 1 -0 0
    outer loop
      vertex 2.5 5.42208 2.24446
      vertex 2.5 28.5 0
      vertex 2.5 5.88988 3.05471
    endloop
  endfacet
  facet normal 1 -0 0
    outer loop
      vertex 2.5 4.66516 1.69452
      vertex 2.5 28.5 0
      vertex 2.5 5.42208 2.24446
    endloop
  endfacet
  facet normal 1 0 0
    outer loop
      vertex 2.5 0 0
      vertex 2.5 4.66516 1.69452
      vertex 2.5 3.75 1.5
    endloop
  endfacet
  facet normal 1 0 0
    outer loop
      vertex 2.5 4.66516 1.69452
      vertex 2.5 0 0
      vertex 2.5 28.5 0
    endloop
  endfacet
  facet normal 1 0 0
    outer loop
      vertex 2.5 2.83484 1.69452
      vertex 2.5 0 0
      vertex 2.5 3.75 1.5
    endloop
  endfacet
  facet normal 1 0 0
    outer loop
      vertex 2.5 2.07792 2.24446
      vertex 2.5 0 0
      vertex 2.5 2.83484 1.69452
    endloop
  endfacet
  facet normal 1 0 0
    outer loop
      vertex 2.5 1.61012 3.05471
      vertex 2.5 0 0
      vertex 2.5 2.07792 2.24446
    endloop
  endfacet
  facet normal 1 0 0
    outer loop
      vertex 2.5 1.51233 3.98519
      vertex 2.5 0 0
      vertex 2.5 1.61012 3.05471
    endloop
  endfacet
  facet normal 1 0 0
    outer loop
      vertex 2.5 0 0
      vertex 2.5 1.51233 3.98519
      vertex 2.5 0 19
    endloop
  endfacet
  facet normal 0 -1 0
    outer loop
      vertex 2.5 28.5 0
      vertex 9.75 28.5 19
      vertex 2.5 28.5 19
    endloop
  endfacet
  facet normal 0 -1 -0
    outer loop
      vertex 9.75 28.5 19
      vertex 2.5 28.5 0
      vertex 9.75 28.5 0
    endloop
  endfacet
  facet normal 0 -0.866025 0.500002
    outer loop
      vertex 0 5.42208 2.24446
      vertex 2.5 5.88988 3.05471
      vertex 0 5.88988 3.05471
    endloop
  endfacet
  facet normal 0 -0.866025 0.500002
    outer loop
      vertex 2.5 5.88988 3.05471
      vertex 0 5.42208 2.24446
      vertex 2.5 5.42208 2.24446
    endloop
  endfacet
  facet normal 0 -0.866025 0.500002
    outer loop
      vertex 9.75 5.42208 2.24446
      vertex 12.25 5.88988 3.05471
      vertex 9.75 5.88988 3.05471
    endloop
  endfacet
  facet normal 0 -0.866025 0.500002
    outer loop
      vertex 12.25 5.88988 3.05471
      vertex 9.75 5.42208 2.24446
      vertex 12.25 5.42208 2.24446
    endloop
  endfacet
  facet normal 0 0.866025 0.500002
    outer loop
      vertex 2.5 2.07792 2.24446
      vertex 0 1.61012 3.05471
      vertex 2.5 1.61012 3.05471
    endloop
  endfacet
  facet normal 0 0.866025 0.500002
    outer loop
      vertex 0 1.61012 3.05471
      vertex 2.5 2.07792 2.24446
      vertex 0 2.07792 2.24446
    endloop
  endfacet
  facet normal 0 0.866025 0.500002
    outer loop
      vertex 12.25 2.07792 2.24446
      vertex 9.75 1.61012 3.05471
      vertex 12.25 1.61012 3.05471
    endloop
  endfacet
  facet normal 0 0.866025 0.500002
    outer loop
      vertex 9.75 1.61012 3.05471
      vertex 12.25 2.07792 2.24446
      vertex 9.75 2.07792 2.24446
    endloop
  endfacet
  facet normal 0 0 -1
    outer loop
      vertex 0 3.2822 5.95083
      vertex 2.5 4.2178 5.95083
      vertex 2.5 3.2822 5.95083
    endloop
  endfacet
  facet normal -0 0 -1
    outer loop
      vertex 2.5 4.2178 5.95083
      vertex 0 3.2822 5.95083
      vertex 0 4.2178 5.95083
    endloop
  endfacet
  facet normal 0 0 -1
    outer loop
      vertex 9.75 3.2822 5.95083
      vertex 12.25 4.2178 5.95083
      vertex 12.25 3.2822 5.95083
    endloop
  endfacet
  facet normal -0 0 -1
    outer loop
      vertex 12.25 4.2178 5.95083
      vertex 9.75 3.2822 5.95083
      vertex 9.75 4.2178 5.95083
    endloop
  endfacet
  facet normal 0 -0.207908 0.978148
    outer loop
      vertex 0 4.66516 1.69452
      vertex 2.5 3.75 1.5
      vertex 2.5 4.66516 1.69452
    endloop
  endfacet
  facet normal 0 -0.207908 0.978148
    outer loop
      vertex 2.5 3.75 1.5
      vertex 0 4.66516 1.69452
      vertex 0 3.75 1.5
    endloop
  endfacet
  facet normal 0 -0.207908 0.978148
    outer loop
      vertex 9.75 4.66516 1.69452
      vertex 12.25 3.75 1.5
      vertex 12.25 4.66516 1.69452
    endloop
  endfacet
  facet normal 0 -0.207908 0.978148
    outer loop
      vertex 12.25 3.75 1.5
      vertex 9.75 4.66516 1.69452
      vertex 9.75 3.75 1.5
    endloop
  endfacet
  facet normal 0 0.994523 0.104521
    outer loop
      vertex 2.5 1.61012 3.05471
      vertex 0 1.51233 3.98519
      vertex 2.5 1.51233 3.98519
    endloop
  endfacet
  facet normal 0 0.994523 0.104521
    outer loop
      vertex 0 1.51233 3.98519
      vertex 2.5 1.61012 3.05471
      vertex 0 1.61012 3.05471
    endloop
  endfacet
  facet normal 0 0.994523 0.104521
    outer loop
      vertex 12.25 1.61012 3.05471
      vertex 9.75 1.51233 3.98519
      vertex 12.25 1.51233 3.98519
    endloop
  endfacet
  facet normal 0 0.994523 0.104521
    outer loop
      vertex 9.75 1.51233 3.98519
      vertex 12.25 1.61012 3.05471
      vertex 9.75 1.61012 3.05471
    endloop
  endfacet
  facet normal 0 -0.743146 -0.669129
    outer loop
      vertex 0 5.69856 4.875
      vertex 2.5 5.07252 5.57029
      vertex 0 5.07252 5.57029
    endloop
  endfacet
  facet normal 0 -0.743146 -0.669129
    outer loop
      vertex 2.5 5.07252 5.57029
      vertex 0 5.69856 4.875
      vertex 2.5 5.69856 4.875
    endloop
  endfacet
  facet normal 0 -0.743146 -0.669129
    outer loop
      vertex 9.75 5.69856 4.875
      vertex 12.25 5.07252 5.57029
      vertex 9.75 5.07252 5.57029
    endloop
  endfacet
  facet normal 0 -0.743146 -0.669129
    outer loop
      vertex 12.25 5.07252 5.57029
      vertex 9.75 5.69856 4.875
      vertex 12.25 5.69856 4.875
    endloop
  endfacet
  facet normal -0 0.207908 0.978148
    outer loop
      vertex 0 3.75 1.5
      vertex 2.5 2.83484 1.69452
      vertex 2.5 3.75 1.5
    endloop
  endfacet
  facet normal 0 0.207908 0.978148
    outer loop
      vertex 2.5 2.83484 1.69452
      vertex 0 3.75 1.5
      vertex 0 2.83484 1.69452
    endloop
  endfacet
  facet normal -0 0.207908 0.978148
    outer loop
      vertex 9.75 3.75 1.5
      vertex 12.25 2.83484 1.69452
      vertex 12.25 3.75 1.5
    endloop
  endfacet
  facet normal 0 0.207908 0.978148
    outer loop
      vertex 12.25 2.83484 1.69452
      vertex 9.75 3.75 1.5
      vertex 9.75 2.83484 1.69452
    endloop
  endfacet
  facet normal 0 -0.951059 -0.30901
    outer loop
      vertex 0 5.98767 3.98519
      vertex 2.5 5.69856 4.875
      vertex 0 5.69856 4.875
    endloop
  endfacet
  facet normal 0 -0.951059 -0.30901
    outer loop
      vertex 2.5 5.69856 4.875
      vertex 0 5.98767 3.98519
      vertex 2.5 5.98767 3.98519
    endloop
  endfacet
  facet normal 0 -0.951059 -0.30901
    outer loop
      vertex 9.75 5.98767 3.98519
      vertex 12.25 5.69856 4.875
      vertex 9.75 5.69856 4.875
    endloop
  endfacet
  facet normal 0 -0.951059 -0.30901
    outer loop
      vertex 12.25 5.69856 4.875
      vertex 9.75 5.98767 3.98519
      vertex 12.25 5.98767 3.98519
    endloop
  endfacet
  facet normal 0 0.951059 -0.30901
    outer loop
      vertex 2.5 1.51233 3.98519
      vertex 0 1.80144 4.875
      vertex 2.5 1.80144 4.875
    endloop
  endfacet
  facet normal 0 0.951059 -0.30901
    outer loop
      vertex 0 1.80144 4.875
      vertex 2.5 1.51233 3.98519
      vertex 0 1.51233 3.98519
    endloop
  endfacet
  facet normal 0 0.951059 -0.30901
    outer loop
      vertex 12.25 1.51233 3.98519
      vertex 9.75 1.80144 4.875
      vertex 12.25 1.80144 4.875
    endloop
  endfacet
  facet normal 0 0.951059 -0.30901
    outer loop
      vertex 9.75 1.80144 4.875
      vertex 12.25 1.51233 3.98519
      vertex 9.75 1.51233 3.98519
    endloop
  endfacet
  facet normal 0 -0.587789 0.809014
    outer loop
      vertex 0 5.42208 2.24446
      vertex 2.5 4.66516 1.69452
      vertex 2.5 5.42208 2.24446
    endloop
  endfacet
  facet normal 0 -0.587789 0.809014
    outer loop
      vertex 2.5 4.66516 1.69452
      vertex 0 5.42208 2.24446
      vertex 0 4.66516 1.69452
    endloop
  endfacet
  facet normal 0 -0.587789 0.809014
    outer loop
      vertex 9.75 5.42208 2.24446
      vertex 12.25 4.66516 1.69452
      vertex 12.25 5.42208 2.24446
    endloop
  endfacet
  facet normal 0 -0.587789 0.809014
    outer loop
      vertex 12.25 4.66516 1.69452
      vertex 9.75 5.42208 2.24446
      vertex 9.75 4.66516 1.69452
    endloop
  endfacet
  facet normal -0 0.587789 0.809014
    outer loop
      vertex 0 2.83484 1.69452
      vertex 2.5 2.07792 2.24446
      vertex 2.5 2.83484 1.69452
    endloop
  endfacet
  facet normal 0 0.587789 0.809014
    outer loop
      vertex 2.5 2.07792 2.24446
      vertex 0 2.83484 1.69452
      vertex 0 2.07792 2.24446
    endloop
  endfacet
  facet normal -0 0.587789 0.809014
    outer loop
      vertex 9.75 2.83484 1.69452
      vertex 12.25 2.07792 2.24446
      vertex 12.25 2.83484 1.69452
    endloop
  endfacet
  facet normal 0 0.587789 0.809014
    outer loop
      vertex 12.25 2.07792 2.24446
      vertex 9.75 2.83484 1.69452
      vertex 9.75 2.07792 2.24446
    endloop
  endfacet
  facet normal 0 -0.406731 -0.913548
    outer loop
      vertex 0 4.2178 5.95083
      vertex 2.5 5.07252 5.57029
      vertex 2.5 4.2178 5.95083
    endloop
  endfacet
  facet normal -0 -0.406731 -0.913548
    outer loop
      vertex 2.5 5.07252 5.57029
      vertex 0 4.2178 5.95083
      vertex 0 5.07252 5.57029
    endloop
  endfacet
  facet normal 0 -0.406731 -0.913548
    outer loop
      vertex 9.75 4.2178 5.95083
      vertex 12.25 5.07252 5.57029
      vertex 12.25 4.2178 5.95083
    endloop
  endfacet
  facet normal -0 -0.406731 -0.913548
    outer loop
      vertex 12.25 5.07252 5.57029
      vertex 9.75 4.2178 5.95083
      vertex 9.75 5.07252 5.57029
    endloop
  endfacet
  facet normal 0 -0.994523 0.104521
    outer loop
      vertex 0 5.88988 3.05471
      vertex 2.5 5.98767 3.98519
      vertex 0 5.98767 3.98519
    endloop
  endfacet
  facet normal 0 -0.994523 0.104521
    outer loop
      vertex 2.5 5.98767 3.98519
      vertex 0 5.88988 3.05471
      vertex 2.5 5.88988 3.05471
    endloop
  endfacet
  facet normal 0 -0.994523 0.104521
    outer loop
      vertex 9.75 5.88988 3.05471
      vertex 12.25 5.98767 3.98519
      vertex 9.75 5.98767 3.98519
    endloop
  endfacet
  facet normal 0 -0.994523 0.104521
    outer loop
      vertex 12.25 5.98767 3.98519
      vertex 9.75 5.88988 3.05471
      vertex 12.25 5.88988 3.05471
    endloop
  endfacet
  facet normal 0 0.743146 -0.669129
    outer loop
      vertex 2.5 1.80144 4.875
      vertex 0 2.42748 5.57029
      vertex 2.5 2.42748 5.57029
    endloop
  endfacet
  facet normal 0 0.743146 -0.669129
    outer loop
      vertex 0 2.42748 5.57029
      vertex 2.5 1.80144 4.875
      vertex 0 1.80144 4.875
    endloop
  endfacet
  facet normal 0 0.743146 -0.669129
    outer loop
      vertex 12.25 1.80144 4.875
      vertex 9.75 2.42748 5.57029
      vertex 12.25 2.42748 5.57029
    endloop
  endfacet
  facet normal 0 0.743146 -0.669129
    outer loop
      vertex 9.75 2.42748 5.57029
      vertex 12.25 1.80144 4.875
      vertex 9.75 1.80144 4.875
    endloop
  endfacet
  facet normal 0 0.406731 -0.913548
    outer loop
      vertex 0 2.42748 5.57029
      vertex 2.5 3.2822 5.95083
      vertex 2.5 2.42748 5.57029
    endloop
  endfacet
  facet normal 0 0.406731 -0.913548
    outer loop
      vertex 2.5 3.2822 5.95083
      vertex 0 2.42748 5.57029
      vertex 0 3.2822 5.95083
    endloop
  endfacet
  facet normal 0 0.406731 -0.913548
    outer loop
      vertex 9.75 2.42748 5.57029
      vertex 12.25 3.2822 5.95083
      vertex 12.25 2.42748 5.57029
    endloop
  endfacet
  facet normal 0 0.406731 -0.913548
    outer loop
      vertex 12.25 3.2822 5.95083
      vertex 9.75 2.42748 5.57029
      vertex 9.75 3.2822 5.95083
    endloop
  endfacet
  facet normal 0 -0.866011 0.500025
    outer loop
      vertex 0 5.42208 13.7445
      vertex 2.5 5.88988 14.5547
      vertex 0 5.88988 14.5547
    endloop
  endfacet
  facet normal 0 -0.866011 0.500025
    outer loop
      vertex 2.5 5.88988 14.5547
      vertex 0 5.42208 13.7445
      vertex 2.5 5.42208 13.7445
    endloop
  endfacet
  facet normal 0 -0.866011 0.500025
    outer loop
      vertex 9.75 5.42208 13.7445
      vertex 12.25 5.88988 14.5547
      vertex 9.75 5.88988 14.5547
    endloop
  endfacet
  facet normal 0 -0.866011 0.500025
    outer loop
      vertex 12.25 5.88988 14.5547
      vertex 9.75 5.42208 13.7445
      vertex 12.25 5.42208 13.7445
    endloop
  endfacet
  facet normal -0 0.587831 0.808984
    outer loop
      vertex 0 2.83484 13.1945
      vertex 2.5 2.07792 13.7445
      vertex 2.5 2.83484 13.1945
    endloop
  endfacet
  facet normal 0 0.587831 0.808984
    outer loop
      vertex 2.5 2.07792 13.7445
      vertex 0 2.83484 13.1945
      vertex 0 2.07792 13.7445
    endloop
  endfacet
  facet normal -0 0.587831 0.808984
    outer loop
      vertex 9.75 2.83484 13.1945
      vertex 12.25 2.07792 13.7445
      vertex 12.25 2.83484 13.1945
    endloop
  endfacet
  facet normal 0 0.587831 0.808984
    outer loop
      vertex 12.25 2.07792 13.7445
      vertex 9.75 2.83484 13.1945
      vertex 9.75 2.07792 13.7445
    endloop
  endfacet
  facet normal 0 0.866011 0.500025
    outer loop
      vertex 2.5 2.07792 13.7445
      vertex 0 1.61012 14.5547
      vertex 2.5 1.61012 14.5547
    endloop
  endfacet
  facet normal 0 0.866011 0.500025
    outer loop
      vertex 0 1.61012 14.5547
      vertex 2.5 2.07792 13.7445
      vertex 0 2.07792 13.7445
    endloop
  endfacet
  facet normal 0 0.866011 0.500025
    outer loop
      vertex 12.25 2.07792 13.7445
      vertex 9.75 1.61012 14.5547
      vertex 12.25 1.61012 14.5547
    endloop
  endfacet
  facet normal 0 0.866011 0.500025
    outer loop
      vertex 9.75 1.61012 14.5547
      vertex 12.25 2.07792 13.7445
      vertex 9.75 2.07792 13.7445
    endloop
  endfacet
  facet normal 0 0 -1
    outer loop
      vertex 0 3.2822 17.4508
      vertex 2.5 4.2178 17.4508
      vertex 2.5 3.2822 17.4508
    endloop
  endfacet
  facet normal -0 0 -1
    outer loop
      vertex 2.5 4.2178 17.4508
      vertex 0 3.2822 17.4508
      vertex 0 4.2178 17.4508
    endloop
  endfacet
  facet normal 0 0 -1
    outer loop
      vertex 9.75 3.2822 17.4508
      vertex 12.25 4.2178 17.4508
      vertex 12.25 3.2822 17.4508
    endloop
  endfacet
  facet normal -0 0 -1
    outer loop
      vertex 12.25 4.2178 17.4508
      vertex 9.75 3.2822 17.4508
      vertex 9.75 4.2178 17.4508
    endloop
  endfacet
  facet normal 0 -0.207888 0.978153
    outer loop
      vertex 0 4.66516 13.1945
      vertex 2.5 3.75 13
      vertex 2.5 4.66516 13.1945
    endloop
  endfacet
  facet normal 0 -0.207888 0.978153
    outer loop
      vertex 2.5 3.75 13
      vertex 0 4.66516 13.1945
      vertex 0 3.75 13
    endloop
  endfacet
  facet normal 0 -0.207888 0.978153
    outer loop
      vertex 9.75 4.66516 13.1945
      vertex 12.25 3.75 13
      vertex 12.25 4.66516 13.1945
    endloop
  endfacet
  facet normal 0 -0.207888 0.978153
    outer loop
      vertex 12.25 3.75 13
      vertex 9.75 4.66516 13.1945
      vertex 9.75 3.75 13
    endloop
  endfacet
  facet normal 0 0.994523 0.104518
    outer loop
      vertex 2.5 1.61012 14.5547
      vertex 0 1.51233 15.4852
      vertex 2.5 1.51233 15.4852
    endloop
  endfacet
  facet normal 0 0.994523 0.104518
    outer loop
      vertex 0 1.51233 15.4852
      vertex 2.5 1.61012 14.5547
      vertex 0 1.61012 14.5547
    endloop
  endfacet
  facet normal 0 0.994523 0.104518
    outer loop
      vertex 12.25 1.61012 14.5547
      vertex 9.75 1.51233 15.4852
      vertex 12.25 1.51233 15.4852
    endloop
  endfacet
  facet normal 0 0.994523 0.104518
    outer loop
      vertex 9.75 1.51233 15.4852
      vertex 12.25 1.61012 14.5547
      vertex 9.75 1.61012 14.5547
    endloop
  endfacet
  facet normal 0 -0.743151 -0.669124
    outer loop
      vertex 0 5.69856 16.375
      vertex 2.5 5.07252 17.0703
      vertex 0 5.07252 17.0703
    endloop
  endfacet
  facet normal 0 -0.743151 -0.669124
    outer loop
      vertex 2.5 5.07252 17.0703
      vertex 0 5.69856 16.375
      vertex 2.5 5.69856 16.375
    endloop
  endfacet
  facet normal 0 -0.743151 -0.669124
    outer loop
      vertex 9.75 5.69856 16.375
      vertex 12.25 5.07252 17.0703
      vertex 9.75 5.07252 17.0703
    endloop
  endfacet
  facet normal 0 -0.743151 -0.669124
    outer loop
      vertex 12.25 5.07252 17.0703
      vertex 9.75 5.69856 16.375
      vertex 12.25 5.69856 16.375
    endloop
  endfacet
  facet normal -0 0.207888 0.978153
    outer loop
      vertex 0 3.75 13
      vertex 2.5 2.83484 13.1945
      vertex 2.5 3.75 13
    endloop
  endfacet
  facet normal 0 0.207888 0.978153
    outer loop
      vertex 2.5 2.83484 13.1945
      vertex 0 3.75 13
      vertex 0 2.83484 13.1945
    endloop
  endfacet
  facet normal -0 0.207888 0.978153
    outer loop
      vertex 9.75 3.75 13
      vertex 12.25 2.83484 13.1945
      vertex 12.25 3.75 13
    endloop
  endfacet
  facet normal 0 0.207888 0.978153
    outer loop
      vertex 12.25 2.83484 13.1945
      vertex 9.75 3.75 13
      vertex 9.75 2.83484 13.1945
    endloop
  endfacet
  facet normal 0 -0.951058 -0.309014
    outer loop
      vertex 0 5.98767 15.4852
      vertex 2.5 5.69856 16.375
      vertex 0 5.69856 16.375
    endloop
  endfacet
  facet normal 0 -0.951058 -0.309014
    outer loop
      vertex 2.5 5.69856 16.375
      vertex 0 5.98767 15.4852
      vertex 2.5 5.98767 15.4852
    endloop
  endfacet
  facet normal 0 -0.951058 -0.309014
    outer loop
      vertex 9.75 5.98767 15.4852
      vertex 12.25 5.69856 16.375
      vertex 9.75 5.69856 16.375
    endloop
  endfacet
  facet normal 0 -0.951058 -0.309014
    outer loop
      vertex 12.25 5.69856 16.375
      vertex 9.75 5.98767 15.4852
      vertex 12.25 5.98767 15.4852
    endloop
  endfacet
  facet normal 0 0.951058 -0.309014
    outer loop
      vertex 2.5 1.51233 15.4852
      vertex 0 1.80144 16.375
      vertex 2.5 1.80144 16.375
    endloop
  endfacet
  facet normal 0 0.951058 -0.309014
    outer loop
      vertex 0 1.80144 16.375
      vertex 2.5 1.51233 15.4852
      vertex 0 1.51233 15.4852
    endloop
  endfacet
  facet normal 0 0.951058 -0.309014
    outer loop
      vertex 12.25 1.51233 15.4852
      vertex 9.75 1.80144 16.375
      vertex 12.25 1.80144 16.375
    endloop
  endfacet
  facet normal 0 0.951058 -0.309014
    outer loop
      vertex 9.75 1.80144 16.375
      vertex 12.25 1.51233 15.4852
      vertex 9.75 1.51233 15.4852
    endloop
  endfacet
  facet normal 0 -0.587831 0.808984
    outer loop
      vertex 0 5.42208 13.7445
      vertex 2.5 4.66516 13.1945
      vertex 2.5 5.42208 13.7445
    endloop
  endfacet
  facet normal 0 -0.587831 0.808984
    outer loop
      vertex 2.5 4.66516 13.1945
      vertex 0 5.42208 13.7445
      vertex 0 4.66516 13.1945
    endloop
  endfacet
  facet normal 0 -0.587831 0.808984
    outer loop
      vertex 9.75 5.42208 13.7445
      vertex 12.25 4.66516 13.1945
      vertex 12.25 5.42208 13.7445
    endloop
  endfacet
  facet normal 0 -0.587831 0.808984
    outer loop
      vertex 12.25 4.66516 13.1945
      vertex 9.75 5.42208 13.7445
      vertex 9.75 4.66516 13.1945
    endloop
  endfacet
  facet normal 0 -0.406696 -0.913564
    outer loop
      vertex 0 4.2178 17.4508
      vertex 2.5 5.07252 17.0703
      vertex 2.5 4.2178 17.4508
    endloop
  endfacet
  facet normal -0 -0.406696 -0.913564
    outer loop
      vertex 2.5 5.07252 17.0703
      vertex 0 4.2178 17.4508
      vertex 0 5.07252 17.0703
    endloop
  endfacet
  facet normal 0 -0.406696 -0.913564
    outer loop
      vertex 9.75 4.2178 17.4508
      vertex 12.25 5.07252 17.0703
      vertex 12.25 4.2178 17.4508
    endloop
  endfacet
  facet normal -0 -0.406696 -0.913564
    outer loop
      vertex 12.25 5.07252 17.0703
      vertex 9.75 4.2178 17.4508
      vertex 9.75 5.07252 17.0703
    endloop
  endfacet
  facet normal 0 -0.994523 0.104518
    outer loop
      vertex 0 5.88988 14.5547
      vertex 2.5 5.98767 15.4852
      vertex 0 5.98767 15.4852
    endloop
  endfacet
  facet normal 0 -0.994523 0.104518
    outer loop
      vertex 2.5 5.98767 15.4852
      vertex 0 5.88988 14.5547
      vertex 2.5 5.88988 14.5547
    endloop
  endfacet
  facet normal 0 -0.994523 0.104518
    outer loop
      vertex 9.75 5.88988 14.5547
      vertex 12.25 5.98767 15.4852
      vertex 9.75 5.98767 15.4852
    endloop
  endfacet
  facet normal 0 -0.994523 0.104518
    outer loop
      vertex 12.25 5.98767 15.4852
      vertex 9.75 5.88988 14.5547
      vertex 12.25 5.88988 14.5547
    endloop
  endfacet
  facet normal 0 0.406696 -0.913564
    outer loop
      vertex 0 2.42748 17.0703
      vertex 2.5 3.2822 17.4508
      vertex 2.5 2.42748 17.0703
    endloop
  endfacet
  facet normal 0 0.406696 -0.913564
    outer loop
      vertex 2.5 3.2822 17.4508
      vertex 0 2.42748 17.0703
      vertex 0 3.2822 17.4508
    endloop
  endfacet
  facet normal 0 0.406696 -0.913564
    outer loop
      vertex 9.75 2.42748 17.0703
      vertex 12.25 3.2822 17.4508
      vertex 12.25 2.42748 17.0703
    endloop
  endfacet
  facet normal 0 0.406696 -0.913564
    outer loop
      vertex 12.25 3.2822 17.4508
      vertex 9.75 2.42748 17.0703
      vertex 9.75 3.2822 17.4508
    endloop
  endfacet
  facet normal 0 0.743151 -0.669124
    outer loop
      vertex 2.5 1.80144 16.375
      vertex 0 2.42748 17.0703
      vertex 2.5 2.42748 17.0703
    endloop
  endfacet
  facet normal 0 0.743151 -0.669124
    outer loop
      vertex 0 2.42748 17.0703
      vertex 2.5 1.80144 16.375
      vertex 0 1.80144 16.375
    endloop
  endfacet
  facet normal 0 0.743151 -0.669124
    outer loop
      vertex 12.25 1.80144 16.375
      vertex 9.75 2.42748 17.0703
      vertex 12.25 2.42748 17.0703
    endloop
  endfacet
  facet normal 0 0.743151 -0.669124
    outer loop
      vertex 9.75 2.42748 17.0703
      vertex 12.25 1.80144 16.375
      vertex 9.75 1.80144 16.375
    endloop
  endfacet
  facet normal 0 -0.195097 0.980784
    outer loop
      vertex 24.6 98.5211 13.9358
      vertex 26.5 97.5589 13.7444
      vertex 26.5 98.5211 13.9358
    endloop
  endfacet
  facet normal 0 -0.195097 0.980784
    outer loop
      vertex 26.5 97.5589 13.7444
      vertex 24.6 98.5211 13.9358
      vertex 24.6 97.5589 13.7444
    endloop
  endfacet
  facet normal 0 -0.555617 0.831438
    outer loop
      vertex 24.6 95.75 12.9952
      vertex 26.5 94.9343 12.4501
      vertex 26.5 95.75 12.9952
    endloop
  endfacet
  facet normal 0 -0.555617 0.831438
    outer loop
      vertex 26.5 94.9343 12.4501
      vertex 24.6 95.75 12.9952
      vertex 24.6 94.9343 12.4501
    endloop
  endfacet
  facet normal 0 -0.659312 0.751869
    outer loop
      vertex 24.6 94.9343 12.4501
      vertex 26.5 94.1967 11.8033
      vertex 26.5 94.9343 12.4501
    endloop
  endfacet
  facet normal 0 -0.659312 0.751869
    outer loop
      vertex 26.5 94.1967 11.8033
      vertex 24.6 94.9343 12.4501
      vertex 24.6 94.1967 11.8033
    endloop
  endfacet
  facet normal 0 -0.0654432 0.997856
    outer loop
      vertex 24.6 99.5 14
      vertex 26.5 98.5211 13.9358
      vertex 26.5 99.5 14
    endloop
  endfacet
  facet normal 0 -0.0654432 0.997856
    outer loop
      vertex 26.5 98.5211 13.9358
      vertex 24.6 99.5 14
      vertex 24.6 98.5211 13.9358
    endloop
  endfacet
  facet normal 0 -0.321391 0.946947
    outer loop
      vertex 24.6 97.5589 13.7444
      vertex 26.5 96.6299 13.4291
      vertex 26.5 97.5589 13.7444
    endloop
  endfacet
  facet normal 0 -0.321391 0.946947
    outer loop
      vertex 26.5 96.6299 13.4291
      vertex 24.6 97.5589 13.7444
      vertex 24.6 96.6299 13.4291
    endloop
  endfacet
  facet normal 0 -0.442273 0.89688
    outer loop
      vertex 24.6 96.6299 13.4291
      vertex 26.5 95.75 12.9952
      vertex 26.5 96.6299 13.4291
    endloop
  endfacet
  facet normal 0 -0.442273 0.89688
    outer loop
      vertex 26.5 95.75 12.9952
      vertex 24.6 96.6299 13.4291
      vertex 24.6 95.75 12.9952
    endloop
  endfacet
  facet normal -1 0 0
    outer loop
      vertex 24.6 107 0
      vertex 24.6 99.5 14
      vertex 24.6 107 14
    endloop
  endfacet
  facet normal -1 0 0
    outer loop
      vertex 24.6 92 7.5
      vertex 24.6 99.5 14
      vertex 24.6 107 0
    endloop
  endfacet
  facet normal -1 0 0
    outer loop
      vertex 24.6 99.5 14
      vertex 24.6 92 7.5
      vertex 24.6 98.5211 13.9358
    endloop
  endfacet
  facet normal -1 0 0
    outer loop
      vertex 24.6 98.5211 13.9358
      vertex 24.6 92 7.5
      vertex 24.6 97.5589 13.7444
    endloop
  endfacet
  facet normal -1 0 0
    outer loop
      vertex 24.6 97.5589 13.7444
      vertex 24.6 92 7.5
      vertex 24.6 96.6299 13.4291
    endloop
  endfacet
  facet normal -1 0 0
    outer loop
      vertex 24.6 96.6299 13.4291
      vertex 24.6 92 7.5
      vertex 24.6 95.75 12.9952
    endloop
  endfacet
  facet normal -1 0 0
    outer loop
      vertex 24.6 95.75 12.9952
      vertex 24.6 92 7.5
      vertex 24.6 94.9343 12.4501
    endloop
  endfacet
  facet normal -1 0 0
    outer loop
      vertex 24.6 94.9343 12.4501
      vertex 24.6 92 7.5
      vertex 24.6 94.1967 11.8033
    endloop
  endfacet
  facet normal -1 0 0
    outer loop
      vertex 24.6 92 0
      vertex 24.6 92 7.5
      vertex 24.6 107 0
    endloop
  endfacet
  facet normal -1 0 0
    outer loop
      vertex 24.6 94.1967 11.8033
      vertex 24.6 92 7.5
      vertex 24.6 92 9.60662
    endloop
  endfacet
  facet normal 1 -0 0
    outer loop
      vertex 26.5 99.5 14
      vertex 26.5 109.5 0
      vertex 26.5 109.5 14
    endloop
  endfacet
  facet normal 1 0 0
    outer loop
      vertex 26.5 92 7.5
      vertex 26.5 99.5 14
      vertex 26.5 98.5211 13.9358
    endloop
  endfacet
  facet normal 1 0 0
    outer loop
      vertex 26.5 92 7.5
      vertex 26.5 98.5211 13.9358
      vertex 26.5 97.5589 13.7444
    endloop
  endfacet
  facet normal 1 0 0
    outer loop
      vertex 26.5 92 7.5
      vertex 26.5 97.5589 13.7444
      vertex 26.5 96.6299 13.4291
    endloop
  endfacet
  facet normal 1 0 0
    outer loop
      vertex 26.5 92 7.5
      vertex 26.5 96.6299 13.4291
      vertex 26.5 95.75 12.9952
    endloop
  endfacet
  facet normal 1 0 0
    outer loop
      vertex 26.5 92 7.5
      vertex 26.5 95.75 12.9952
      vertex 26.5 94.9343 12.4501
    endloop
  endfacet
  facet normal 1 0 0
    outer loop
      vertex 26.5 92 7.5
      vertex 26.5 94.9343 12.4501
      vertex 26.5 94.1967 11.8033
    endloop
  endfacet
  facet normal 1 0 0
    outer loop
      vertex 26.5 92 7.5
      vertex 26.5 94.1967 11.8033
      vertex 26.5 92 9.60662
    endloop
  endfacet
  facet normal 1 0 0
    outer loop
      vertex 26.5 99.5 14
      vertex 26.5 92 7.5
      vertex 26.5 109.5 0
    endloop
  endfacet
  facet normal 1 0 0
    outer loop
      vertex 26.5 92 7.5
      vertex 26.5 92 0
      vertex 26.5 109.5 0
    endloop
  endfacet
  facet normal 0 -1 0
    outer loop
      vertex 4.4 107 0
      vertex 24.6 107 14
      vertex 4.4 107 14
    endloop
  endfacet
  facet normal 0 -1 -0
    outer loop
      vertex 24.6 107 14
      vertex 4.4 107 0
      vertex 24.6 107 0
    endloop
  endfacet
  facet normal 0 0 1
    outer loop
      vertex 26.5 109.5 14
      vertex 24.6 107 14
      vertex 26.5 99.5 14
    endloop
  endfacet
  facet normal 0 0 1
    outer loop
      vertex 26.5 109.5 14
      vertex 4.4 107 14
      vertex 24.6 107 14
    endloop
  endfacet
  facet normal 0 0 1
    outer loop
      vertex 4.4 107 14
      vertex 2.5 101.648 14
      vertex 4.4 99.5 14
    endloop
  endfacet
  facet normal -0 0 1
    outer loop
      vertex 0 109.5 14
      vertex 4.4 107 14
      vertex 26.5 109.5 14
    endloop
  endfacet
  facet normal 0 0 1
    outer loop
      vertex 0 101.648 14
      vertex 4.4 107 14
      vertex 0 109.5 14
    endloop
  endfacet
  facet normal 0 0 1
    outer loop
      vertex 4.4 107 14
      vertex 0 101.648 14
      vertex 2.5 101.648 14
    endloop
  endfacet
  facet normal 0 0 1
    outer loop
      vertex 26.5 99.5 14
      vertex 24.6 107 14
      vertex 24.6 99.5 14
    endloop
  endfacet
  facet normal 0 0 1
    outer loop
      vertex 4.4 99.5 14
      vertex 2.5 101.648 14
      vertex 2.5 99.5 14
    endloop
  endfacet
  facet normal 0 -0.707104 0.70711
    outer loop
      vertex 24.6 92 9.60662
      vertex 26.5 94.1967 11.8033
      vertex 24.6 94.1967 11.8033
    endloop
  endfacet
  facet normal 0 -0.707104 0.70711
    outer loop
      vertex 26.5 94.1967 11.8033
      vertex 24.6 92 9.60662
      vertex 26.5 92 9.60662
    endloop
  endfacet
  facet normal 0 -1 0
    outer loop
      vertex 24.6 92 7.5
      vertex 26.5 92 9.60662
      vertex 24.6 92 9.60662
    endloop
  endfacet
  facet normal 0 -1 -0
    outer loop
      vertex 26.5 92 9.60662
      vertex 24.6 92 7.5
      vertex 26.5 92 7.5
    endloop
  endfacet
  facet normal 0 -0.540648 0.841249
    outer loop
      vertex 23.6 98.0876 10.7927
      vertex 24.6 97.2735 10.2695
      vertex 24.6 98.0876 10.7927
    endloop
  endfacet
  facet normal 0 -0.540648 0.841249
    outer loop
      vertex 24.6 97.2735 10.2695
      vertex 23.6 98.0876 10.7927
      vertex 23.6 97.2735 10.2695
    endloop
  endfacet
  facet normal 0 0.909638 -0.415402
    outer loop
      vertex 24.6 102.36 5.86182
      vertex 24.5037 102.762 6.74211
      vertex 24.6 102.762 6.74211
    endloop
  endfacet
  facet normal 0 0.909638 -0.415402
    outer loop
      vertex 24.5037 102.762 6.74211
      vertex 24.6 102.36 5.86182
      vertex 24.1017 102.36 5.86182
    endloop
  endfacet
  facet normal 0 0.989676 -0.143324
    outer loop
      vertex 24.6 102.762 6.74211
      vertex 24.5037 102.762 6.74211
      vertex 24.6 102.859 7.41191
    endloop
  endfacet
  facet normal 0 -0.909638 -0.415402
    outer loop
      vertex 23.6 96.6397 5.86182
      vertex 24.6 96.2377 6.74211
      vertex 23.6 96.2377 6.74211
    endloop
  endfacet
  facet normal 0 -0.909638 -0.415402
    outer loop
      vertex 24.6 96.2377 6.74211
      vertex 23.6 96.6397 5.86182
      vertex 24.6 96.6397 5.86182
    endloop
  endfacet
  facet normal -0 0.281909 0.959441
    outer loop
      vertex 23.6 100.912 10.7927
      vertex 24.6 99.9839 11.0654
      vertex 24.6 100.912 10.7927
    endloop
  endfacet
  facet normal 0 0.281909 0.959441
    outer loop
      vertex 24.6 99.9839 11.0654
      vertex 23.6 100.912 10.7927
      vertex 23.6 99.9839 11.0654
    endloop
  endfacet
  facet normal 0 -0.755717 -0.654899
    outer loop
      vertex 23.6 97.2735 5.13045
      vertex 24.6 96.6397 5.86182
      vertex 23.6 96.6397 5.86182
    endloop
  endfacet
  facet normal 0 -0.755717 -0.654899
    outer loop
      vertex 24.6 96.6397 5.86182
      vertex 23.6 97.2735 5.13045
      vertex 24.6 97.2735 5.13045
    endloop
  endfacet
  facet normal -1 0 0
    outer loop
      vertex 23.6 100.912 4.60725
      vertex 23.6 101.859 5.28285
      vertex 23.6 101.727 5.13045
    endloop
  endfacet
  facet normal -1 0 0
    outer loop
      vertex 23.6 99.9839 4.33461
      vertex 23.6 101.859 5.28285
      vertex 23.6 100.912 4.60725
    endloop
  endfacet
  facet normal -1 0 0
    outer loop
      vertex 23.6 99.0161 4.33461
      vertex 23.6 101.859 5.28285
      vertex 23.6 99.9839 4.33461
    endloop
  endfacet
  facet normal -1 0 0
    outer loop
      vertex 23.6 101.859 10.1172
      vertex 23.6 100.912 10.7927
      vertex 23.6 101.727 10.2695
    endloop
  endfacet
  facet normal -1 -0 0
    outer loop
      vertex 23.6 101.859 5.28285
      vertex 23.6 99.0161 4.33461
      vertex 23.6 101.859 10.1172
    endloop
  endfacet
  facet normal -1 0 0
    outer loop
      vertex 23.6 101.859 10.1172
      vertex 23.6 99.9839 11.0654
      vertex 23.6 100.912 10.7927
    endloop
  endfacet
  facet normal -1 0 0
    outer loop
      vertex 23.6 99.0161 11.0654
      vertex 23.6 101.859 10.1172
      vertex 23.6 99.0161 4.33461
    endloop
  endfacet
  facet normal -1 0 0
    outer loop
      vertex 23.6 101.859 10.1172
      vertex 23.6 99.0161 11.0654
      vertex 23.6 99.9839 11.0654
    endloop
  endfacet
  facet normal -1 0 0
    outer loop
      vertex 23.6 98.0876 4.60725
      vertex 23.6 99.0161 11.0654
      vertex 23.6 99.0161 4.33461
    endloop
  endfacet
  facet normal -1 0 0
    outer loop
      vertex 23.6 98.0876 4.60725
      vertex 23.6 98.0876 10.7927
      vertex 23.6 99.0161 11.0654
    endloop
  endfacet
  facet normal -1 0 0
    outer loop
      vertex 23.6 97.2735 5.13045
      vertex 23.6 98.0876 10.7927
      vertex 23.6 98.0876 4.60725
    endloop
  endfacet
  facet normal -1 0 0
    outer loop
      vertex 23.6 97.2735 5.13045
      vertex 23.6 97.2735 10.2695
      vertex 23.6 98.0876 10.7927
    endloop
  endfacet
  facet normal -1 0 0
    outer loop
      vertex 23.6 96.6397 5.86182
      vertex 23.6 97.2735 10.2695
      vertex 23.6 97.2735 5.13045
    endloop
  endfacet
  facet normal -1 0 0
    outer loop
      vertex 23.6 96.6397 5.86182
      vertex 23.6 96.6397 9.53818
      vertex 23.6 97.2735 10.2695
    endloop
  endfacet
  facet normal -1 0 0
    outer loop
      vertex 23.6 96.2377 6.74211
      vertex 23.6 96.6397 9.53818
      vertex 23.6 96.6397 5.86182
    endloop
  endfacet
  facet normal -1 0 0
    outer loop
      vertex 23.6 96.2377 6.74211
      vertex 23.6 96.2377 8.65789
      vertex 23.6 96.6397 9.53818
    endloop
  endfacet
  facet normal -1 0 -0
    outer loop
      vertex 23.6 96.2377 8.65789
      vertex 23.6 96.2377 6.74211
      vertex 23.6 96.1 7.7
    endloop
  endfacet
  facet normal -0 0.909638 0.415402
    outer loop
      vertex 24.5037 102.762 8.65789
      vertex 24.6 102.36 9.53818
      vertex 24.6 102.762 8.65789
    endloop
  endfacet
  facet normal 0 0.909638 0.415402
    outer loop
      vertex 24.6 102.36 9.53818
      vertex 24.5037 102.762 8.65789
      vertex 24.1017 102.36 9.53818
    endloop
  endfacet
  facet normal 0 -0.989825 -0.142291
    outer loop
      vertex 23.6 96.2377 6.74211
      vertex 24.6 96.1 7.7
      vertex 23.6 96.1 7.7
    endloop
  endfacet
  facet normal 0 -0.989825 -0.142291
    outer loop
      vertex 24.6 96.1 7.7
      vertex 23.6 96.2377 6.74211
      vertex 24.6 96.2377 6.74211
    endloop
  endfacet
  facet normal 0 -0.909638 0.415402
    outer loop
      vertex 23.6 96.2377 8.65789
      vertex 24.6 96.6397 9.53818
      vertex 23.6 96.6397 9.53818
    endloop
  endfacet
  facet normal 0 -0.909638 0.415402
    outer loop
      vertex 24.6 96.6397 9.53818
      vertex 23.6 96.2377 8.65789
      vertex 24.6 96.2377 8.65789
    endloop
  endfacet
  facet normal 0 -0.281797 0.959474
    outer loop
      vertex 23.6 99.0161 11.0654
      vertex 24.6 98.0876 10.7927
      vertex 24.6 99.0161 11.0654
    endloop
  endfacet
  facet normal 0 -0.281797 0.959474
    outer loop
      vertex 24.6 98.0876 10.7927
      vertex 23.6 99.0161 11.0654
      vertex 23.6 98.0876 10.7927
    endloop
  endfacet
  facet normal -0 0.540225 0.84152
    outer loop
      vertex 23.6 101.727 10.2695
      vertex 24.6 100.912 10.7927
      vertex 24.6 101.727 10.2695
    endloop
  endfacet
  facet normal 0 0.540225 0.84152
    outer loop
      vertex 24.6 100.912 10.7927
      vertex 23.6 101.727 10.2695
      vertex 23.6 100.912 10.7927
    endloop
  endfacet
  facet normal 0 0.281852 -0.959458
    outer loop
      vertex 23.6 99.9839 4.33461
      vertex 24.6 100.912 4.60725
      vertex 24.6 99.9839 4.33461
    endloop
  endfacet
  facet normal 0 0.281852 -0.959458
    outer loop
      vertex 24.6 100.912 4.60725
      vertex 23.6 99.9839 4.33461
      vertex 23.6 100.912 4.60725
    endloop
  endfacet
  facet normal 0 0.540225 -0.84152
    outer loop
      vertex 23.6 100.912 4.60725
      vertex 24.6 101.727 5.13045
      vertex 24.6 100.912 4.60725
    endloop
  endfacet
  facet normal 0 0.540225 -0.84152
    outer loop
      vertex 24.6 101.727 5.13045
      vertex 23.6 100.912 4.60725
      vertex 23.6 101.727 5.13045
    endloop
  endfacet
  facet normal 0 -0.989825 0.142291
    outer loop
      vertex 23.6 96.1 7.7
      vertex 24.6 96.2377 8.65789
      vertex 23.6 96.2377 8.65789
    endloop
  endfacet
  facet normal 0 -0.989825 0.142291
    outer loop
      vertex 24.6 96.2377 8.65789
      vertex 23.6 96.1 7.7
      vertex 24.6 96.1 7.7
    endloop
  endfacet
  facet normal 0 0 -1
    outer loop
      vertex 23.6 99.0161 4.33461
      vertex 24.6 99.9839 4.33461
      vertex 24.6 99.0161 4.33461
    endloop
  endfacet
  facet normal -0 0 -1
    outer loop
      vertex 24.6 99.9839 4.33461
      vertex 23.6 99.0161 4.33461
      vertex 23.6 99.9839 4.33461
    endloop
  endfacet
  facet normal 0 0.755673 0.654949
    outer loop
      vertex 24.6 101.727 10.2695
      vertex 23.6 101.859 10.1172
      vertex 23.6 101.727 10.2695
    endloop
  endfacet
  facet normal -0 0.756104 0.654452
    outer loop
      vertex 24.1017 102.36 9.53818
      vertex 24.6 101.727 10.2695
      vertex 24.6 102.36 9.53818
    endloop
  endfacet
  facet normal 0.000148063 0.756154 0.654394
    outer loop
      vertex 24.6 101.727 10.2695
      vertex 24.1017 102.36 9.53818
      vertex 23.6 101.859 10.1172
    endloop
  endfacet
  facet normal 0 -0.28174 -0.959491
    outer loop
      vertex 23.6 98.0876 4.60725
      vertex 24.6 99.0161 4.33461
      vertex 24.6 98.0876 4.60725
    endloop
  endfacet
  facet normal -0 -0.28174 -0.959491
    outer loop
      vertex 24.6 99.0161 4.33461
      vertex 23.6 98.0876 4.60725
      vertex 23.6 99.0161 4.33461
    endloop
  endfacet
  facet normal 0 0.989676 0.143324
    outer loop
      vertex 24.6 102.859 7.98809
      vertex 24.5037 102.762 8.65789
      vertex 24.6 102.762 8.65789
    endloop
  endfacet
  facet normal 0 -0.755695 0.654924
    outer loop
      vertex 23.6 96.6397 9.53818
      vertex 24.6 97.2735 10.2695
      vertex 23.6 97.2735 10.2695
    endloop
  endfacet
  facet normal 0 -0.755695 0.654924
    outer loop
      vertex 24.6 97.2735 10.2695
      vertex 23.6 96.6397 9.53818
      vertex 24.6 96.6397 9.53818
    endloop
  endfacet
  facet normal -0 0 1
    outer loop
      vertex 23.6 99.9839 11.0654
      vertex 24.6 99.0161 11.0654
      vertex 24.6 99.9839 11.0654
    endloop
  endfacet
  facet normal 0 0 1
    outer loop
      vertex 24.6 99.0161 11.0654
      vertex 23.6 99.9839 11.0654
      vertex 23.6 99.0161 11.0654
    endloop
  endfacet
  facet normal 0 -0.540648 -0.841249
    outer loop
      vertex 23.6 97.2735 5.13045
      vertex 24.6 98.0876 4.60725
      vertex 24.6 97.2735 5.13045
    endloop
  endfacet
  facet normal -0 -0.540648 -0.841249
    outer loop
      vertex 24.6 98.0876 4.60725
      vertex 23.6 97.2735 5.13045
      vertex 23.6 98.0876 4.60725
    endloop
  endfacet
  facet normal 0 0.756126 -0.654426
    outer loop
      vertex 24.6 101.727 5.13045
      vertex 24.1017 102.36 5.86182
      vertex 24.6 102.36 5.86182
    endloop
  endfacet
  facet normal 8.26495e-05 0.756154 -0.654394
    outer loop
      vertex 24.1017 102.36 5.86182
      vertex 24.6 101.727 5.13045
      vertex 23.6 101.859 5.28285
    endloop
  endfacet
  facet normal 0 0.755885 -0.654704
    outer loop
      vertex 23.6 101.859 5.28285
      vertex 24.6 101.727 5.13045
      vertex 23.6 101.727 5.13045
    endloop
  endfacet
  facet normal 1 0 0
    outer loop
      vertex 24.6 102.36 9.53818
      vertex 24.6 102.859 7.98809
      vertex 24.6 102.762 8.65789
    endloop
  endfacet
  facet normal 1 0 0
    outer loop
      vertex 24.6 101.727 10.2695
      vertex 24.6 102.859 7.98809
      vertex 24.6 102.36 9.53818
    endloop
  endfacet
  facet normal 1 0 0
    outer loop
      vertex 24.6 100.912 10.7927
      vertex 24.6 102.859 7.98809
      vertex 24.6 101.727 10.2695
    endloop
  endfacet
  facet normal 1 0 0
    outer loop
      vertex 24.6 102.859 7.41191
      vertex 24.6 102.36 5.86182
      vertex 24.6 102.762 6.74211
    endloop
  endfacet
  facet normal 1 0 0
    outer loop
      vertex 24.6 99.9839 11.0654
      vertex 24.6 102.859 7.98809
      vertex 24.6 100.912 10.7927
    endloop
  endfacet
  facet normal 1 0 0
    outer loop
      vertex 24.6 102.859 7.41191
      vertex 24.6 101.727 5.13045
      vertex 24.6 102.36 5.86182
    endloop
  endfacet
  facet normal 1 0 0
    outer loop
      vertex 24.6 102.859 7.98809
      vertex 24.6 99.9839 11.0654
      vertex 24.6 102.859 7.41191
    endloop
  endfacet
  facet normal 1 0 0
    outer loop
      vertex 24.6 102.859 7.41191
      vertex 24.6 100.912 4.60725
      vertex 24.6 101.727 5.13045
    endloop
  endfacet
  facet normal 1 0 0
    outer loop
      vertex 24.6 99.9839 4.33461
      vertex 24.6 102.859 7.41191
      vertex 24.6 99.9839 11.0654
    endloop
  endfacet
  facet normal 1 0 0
    outer loop
      vertex 24.6 102.859 7.41191
      vertex 24.6 99.9839 4.33461
      vertex 24.6 100.912 4.60725
    endloop
  endfacet
  facet normal 1 -0 0
    outer loop
      vertex 24.6 99.0161 11.0654
      vertex 24.6 99.9839 4.33461
      vertex 24.6 99.9839 11.0654
    endloop
  endfacet
  facet normal 1 0 0
    outer loop
      vertex 24.6 99.0161 11.0654
      vertex 24.6 99.0161 4.33461
      vertex 24.6 99.9839 4.33461
    endloop
  endfacet
  facet normal 1 -0 0
    outer loop
      vertex 24.6 98.0876 10.7927
      vertex 24.6 99.0161 4.33461
      vertex 24.6 99.0161 11.0654
    endloop
  endfacet
  facet normal 1 0 0
    outer loop
      vertex 24.6 98.0876 10.7927
      vertex 24.6 98.0876 4.60725
      vertex 24.6 99.0161 4.33461
    endloop
  endfacet
  facet normal 1 -0 0
    outer loop
      vertex 24.6 97.2735 10.2695
      vertex 24.6 98.0876 4.60725
      vertex 24.6 98.0876 10.7927
    endloop
  endfacet
  facet normal 1 0 0
    outer loop
      vertex 24.6 97.2735 10.2695
      vertex 24.6 97.2735 5.13045
      vertex 24.6 98.0876 4.60725
    endloop
  endfacet
  facet normal 1 -0 0
    outer loop
      vertex 24.6 96.6397 9.53818
      vertex 24.6 97.2735 5.13045
      vertex 24.6 97.2735 10.2695
    endloop
  endfacet
  facet normal 1 0 0
    outer loop
      vertex 24.6 96.6397 9.53818
      vertex 24.6 96.6397 5.86182
      vertex 24.6 97.2735 5.13045
    endloop
  endfacet
  facet normal 1 -0 0
    outer loop
      vertex 24.6 96.2377 8.65789
      vertex 24.6 96.6397 5.86182
      vertex 24.6 96.6397 9.53818
    endloop
  endfacet
  facet normal 1 0 0
    outer loop
      vertex 24.6 96.2377 8.65789
      vertex 24.6 96.2377 6.74211
      vertex 24.6 96.6397 5.86182
    endloop
  endfacet
  facet normal 1 0 -0
    outer loop
      vertex 24.6 96.2377 6.74211
      vertex 24.6 96.2377 8.65789
      vertex 24.6 96.1 7.7
    endloop
  endfacet
  facet normal -0.705923 0.708288 -0.00108036
    outer loop
      vertex 24.1017 102.36 5.86182
      vertex 24.6 102.859 7.41191
      vertex 24.5037 102.762 6.74211
    endloop
  endfacet
  facet normal -0.707107 0.707107 0
    outer loop
      vertex 24.6 102.859 7.41191
      vertex 23.6 101.859 5.28285
      vertex 24.6 102.859 7.98809
    endloop
  endfacet
  facet normal -0.706027 0.708184 -0.00101339
    outer loop
      vertex 24.6 102.859 7.41191
      vertex 24.1017 102.36 5.86182
      vertex 23.6 101.859 5.28285
    endloop
  endfacet
  facet normal -0.707107 0.707107 0
    outer loop
      vertex 23.6 101.859 10.1172
      vertex 24.6 102.859 7.98809
      vertex 23.6 101.859 5.28285
    endloop
  endfacet
  facet normal -0.706027 0.708184 0.00101344
    outer loop
      vertex 24.1017 102.36 9.53818
      vertex 24.6 102.859 7.98809
      vertex 23.6 101.859 10.1172
    endloop
  endfacet
  facet normal -0.705923 0.708288 0.00108036
    outer loop
      vertex 24.6 102.859 7.98809
      vertex 24.1017 102.36 9.53818
      vertex 24.5037 102.762 8.65789
    endloop
  endfacet
  facet normal 0 -1 0
    outer loop
      vertex 24.6 92 0
      vertex 26.5 92 7.5
      vertex 24.6 92 7.5
    endloop
  endfacet
  facet normal 0 -1 -0
    outer loop
      vertex 26.5 92 7.5
      vertex 24.6 92 0
      vertex 26.5 92 0
    endloop
  endfacet
  facet normal 0 -0.195097 0.980784
    outer loop
      vertex 2.5 98.5211 13.9358
      vertex 4.4 97.5589 13.7444
      vertex 4.4 98.5211 13.9358
    endloop
  endfacet
  facet normal 0 -0.195097 0.980784
    outer loop
      vertex 4.4 97.5589 13.7444
      vertex 2.5 98.5211 13.9358
      vertex 2.5 97.5589 13.7444
    endloop
  endfacet
  facet normal 0 -0.555617 0.831438
    outer loop
      vertex 2.5 95.75 12.9952
      vertex 4.4 94.9343 12.4501
      vertex 4.4 95.75 12.9952
    endloop
  endfacet
  facet normal 0 -0.555617 0.831438
    outer loop
      vertex 4.4 94.9343 12.4501
      vertex 2.5 95.75 12.9952
      vertex 2.5 94.9343 12.4501
    endloop
  endfacet
  facet normal 0 -0.659312 0.751869
    outer loop
      vertex 2.5 94.9343 12.4501
      vertex 4.4 94.1967 11.8033
      vertex 4.4 94.9343 12.4501
    endloop
  endfacet
  facet normal 0 -0.659312 0.751869
    outer loop
      vertex 4.4 94.1967 11.8033
      vertex 2.5 94.9343 12.4501
      vertex 2.5 94.1967 11.8033
    endloop
  endfacet
  facet normal 0 -0.0654432 0.997856
    outer loop
      vertex 2.5 99.5 14
      vertex 4.4 98.5211 13.9358
      vertex 4.4 99.5 14
    endloop
  endfacet
  facet normal 0 -0.0654432 0.997856
    outer loop
      vertex 4.4 98.5211 13.9358
      vertex 2.5 99.5 14
      vertex 2.5 98.5211 13.9358
    endloop
  endfacet
  facet normal 0 -0.321391 0.946947
    outer loop
      vertex 2.5 97.5589 13.7444
      vertex 4.4 96.6299 13.4291
      vertex 4.4 97.5589 13.7444
    endloop
  endfacet
  facet normal 0 -0.321391 0.946947
    outer loop
      vertex 4.4 96.6299 13.4291
      vertex 2.5 97.5589 13.7444
      vertex 2.5 96.6299 13.4291
    endloop
  endfacet
  facet normal 0 -0.442273 0.89688
    outer loop
      vertex 2.5 96.6299 13.4291
      vertex 4.4 95.75 12.9952
      vertex 4.4 96.6299 13.4291
    endloop
  endfacet
  facet normal 0 -0.442273 0.89688
    outer loop
      vertex 4.4 95.75 12.9952
      vertex 2.5 96.6299 13.4291
      vertex 2.5 95.75 12.9952
    endloop
  endfacet
  facet normal 1 -0 0
    outer loop
      vertex 4.4 99.5 14
      vertex 4.4 107 0
      vertex 4.4 107 14
    endloop
  endfacet
  facet normal 1 0 0
    outer loop
      vertex 4.4 92 7.5
      vertex 4.4 99.5 14
      vertex 4.4 98.5211 13.9358
    endloop
  endfacet
  facet normal 1 0 0
    outer loop
      vertex 4.4 92 7.5
      vertex 4.4 98.5211 13.9358
      vertex 4.4 97.5589 13.7444
    endloop
  endfacet
  facet normal 1 0 0
    outer loop
      vertex 4.4 92 7.5
      vertex 4.4 97.5589 13.7444
      vertex 4.4 96.6299 13.4291
    endloop
  endfacet
  facet normal 1 0 0
    outer loop
      vertex 4.4 92 7.5
      vertex 4.4 96.6299 13.4291
      vertex 4.4 95.75 12.9952
    endloop
  endfacet
  facet normal 1 0 0
    outer loop
      vertex 4.4 92 7.5
      vertex 4.4 95.75 12.9952
      vertex 4.4 94.9343 12.4501
    endloop
  endfacet
  facet normal 1 0 0
    outer loop
      vertex 4.4 92 7.5
      vertex 4.4 94.9343 12.4501
      vertex 4.4 94.1967 11.8033
    endloop
  endfacet
  facet normal 1 0 0
    outer loop
      vertex 4.4 92 7.5
      vertex 4.4 94.1967 11.8033
      vertex 4.4 92 9.60662
    endloop
  endfacet
  facet normal 1 0 0
    outer loop
      vertex 4.4 99.5 14
      vertex 4.4 92 7.5
      vertex 4.4 107 0
    endloop
  endfacet
  facet normal 1 0 0
    outer loop
      vertex 4.4 92 7.5
      vertex 4.4 92 0
      vertex 4.4 107 0
    endloop
  endfacet
  facet normal 1 0 0
    outer loop
      vertex 2.5 31 18.9402
      vertex 2.5 99.5 14
      vertex 2.5 101.648 14
    endloop
  endfacet
  facet normal 1 0 0
    outer loop
      vertex 2.5 31 18.9402
      vertex 2.5 98.5211 13.9358
      vertex 2.5 99.5 14
    endloop
  endfacet
  facet normal 1 0 0
    outer loop
      vertex 2.5 31 18.9402
      vertex 2.5 97.5589 13.7444
      vertex 2.5 98.5211 13.9358
    endloop
  endfacet
  facet normal 1 0 0
    outer loop
      vertex 2.5 31 18.9402
      vertex 2.5 96.6299 13.4291
      vertex 2.5 97.5589 13.7444
    endloop
  endfacet
  facet normal 1 0 0
    outer loop
      vertex 2.5 31 18.9402
      vertex 2.5 95.75 12.9952
      vertex 2.5 96.6299 13.4291
    endloop
  endfacet
  facet normal 1 0 0
    outer loop
      vertex 2.5 31 18.9402
      vertex 2.5 94.9343 12.4501
      vertex 2.5 95.75 12.9952
    endloop
  endfacet
  facet normal 1 0 0
    outer loop
      vertex 2.5 31 18.9402
      vertex 2.5 94.1967 11.8033
      vertex 2.5 94.9343 12.4501
    endloop
  endfacet
  facet normal 1 0 0
    outer loop
      vertex 2.5 31 18.9402
      vertex 2.5 92 9.60662
      vertex 2.5 94.1967 11.8033
    endloop
  endfacet
  facet normal 1 0 0
    outer loop
      vertex 2.5 31 0
      vertex 2.5 92 9.60662
      vertex 2.5 31 18.9402
    endloop
  endfacet
  facet normal 1 0 0
    outer loop
      vertex 2.5 92 9.60662
      vertex 2.5 31 0
      vertex 2.5 92 7.5
    endloop
  endfacet
  facet normal 1 0 0
    outer loop
      vertex 2.5 92 7.5
      vertex 2.5 31 0
      vertex 2.5 92 0
    endloop
  endfacet
  facet normal 0 -0.707104 0.70711
    outer loop
      vertex 2.5 92 9.60662
      vertex 4.4 94.1967 11.8033
      vertex 2.5 94.1967 11.8033
    endloop
  endfacet
  facet normal 0 -0.707104 0.70711
    outer loop
      vertex 4.4 94.1967 11.8033
      vertex 2.5 92 9.60662
      vertex 4.4 92 9.60662
    endloop
  endfacet
  facet normal 0 -1 0
    outer loop
      vertex 2.5 92 7.5
      vertex 4.4 92 9.60662
      vertex 2.5 92 9.60662
    endloop
  endfacet
  facet normal 0 -1 -0
    outer loop
      vertex 4.4 92 9.60662
      vertex 2.5 92 7.5
      vertex 4.4 92 7.5
    endloop
  endfacet
  facet normal 0 -0.540648 0.841249
    outer loop
      vertex 4.4 98.0876 10.7927
      vertex 5.4 97.2735 10.2695
      vertex 5.4 98.0876 10.7927
    endloop
  endfacet
  facet normal 0 -0.540648 0.841249
    outer loop
      vertex 5.4 97.2735 10.2695
      vertex 4.4 98.0876 10.7927
      vertex 4.4 97.2735 10.2695
    endloop
  endfacet
  facet normal 0 0.909638 -0.415402
    outer loop
      vertex 4.4 102.36 5.86182
      vertex 4.4963 102.762 6.74211
      vertex 4.89832 102.36 5.86182
    endloop
  endfacet
  facet normal 0 0.909638 -0.415402
    outer loop
      vertex 4.4963 102.762 6.74211
      vertex 4.4 102.36 5.86182
      vertex 4.4 102.762 6.74211
    endloop
  endfacet
  facet normal 0 0.989676 -0.143324
    outer loop
      vertex 4.4 102.859 7.41191
      vertex 4.4963 102.762 6.74211
      vertex 4.4 102.762 6.74211
    endloop
  endfacet
  facet normal 0 -0.909638 -0.415402
    outer loop
      vertex 4.4 96.6397 5.86182
      vertex 5.4 96.2377 6.74211
      vertex 4.4 96.2377 6.74211
    endloop
  endfacet
  facet normal 0 -0.909638 -0.415402
    outer loop
      vertex 5.4 96.2377 6.74211
      vertex 4.4 96.6397 5.86182
      vertex 5.4 96.6397 5.86182
    endloop
  endfacet
  facet normal -0 0.281909 0.959441
    outer loop
      vertex 4.4 100.912 10.7927
      vertex 5.4 99.9839 11.0654
      vertex 5.4 100.912 10.7927
    endloop
  endfacet
  facet normal 0 0.281909 0.959441
    outer loop
      vertex 5.4 99.9839 11.0654
      vertex 4.4 100.912 10.7927
      vertex 4.4 99.9839 11.0654
    endloop
  endfacet
  facet normal 0 -0.755717 -0.654899
    outer loop
      vertex 4.4 97.2735 5.13045
      vertex 5.4 96.6397 5.86182
      vertex 4.4 96.6397 5.86182
    endloop
  endfacet
  facet normal 0 -0.755717 -0.654899
    outer loop
      vertex 5.4 96.6397 5.86182
      vertex 4.4 97.2735 5.13045
      vertex 5.4 97.2735 5.13045
    endloop
  endfacet
  facet normal 1 0 0
    outer loop
      vertex 5.4 100.912 10.7927
      vertex 5.4 101.859 10.1172
      vertex 5.4 101.727 10.2695
    endloop
  endfacet
  facet normal 1 0 0
    outer loop
      vertex 5.4 99.9839 11.0654
      vertex 5.4 101.859 10.1172
      vertex 5.4 100.912 10.7927
    endloop
  endfacet
  facet normal 1 -0 0
    outer loop
      vertex 5.4 99.0161 11.0654
      vertex 5.4 101.859 10.1172
      vertex 5.4 99.9839 11.0654
    endloop
  endfacet
  facet normal 1 0 0
    outer loop
      vertex 5.4 101.859 5.28285
      vertex 5.4 100.912 4.60725
      vertex 5.4 101.727 5.13045
    endloop
  endfacet
  facet normal 1 0 0
    outer loop
      vertex 5.4 101.859 10.1172
      vertex 5.4 99.0161 11.0654
      vertex 5.4 101.859 5.28285
    endloop
  endfacet
  facet normal 1 0 0
    outer loop
      vertex 5.4 101.859 5.28285
      vertex 5.4 99.9839 4.33461
      vertex 5.4 100.912 4.60725
    endloop
  endfacet
  facet normal 1 0 0
    outer loop
      vertex 5.4 99.0161 4.33461
      vertex 5.4 101.859 5.28285
      vertex 5.4 99.0161 11.0654
    endloop
  endfacet
  facet normal 1 0 0
    outer loop
      vertex 5.4 101.859 5.28285
      vertex 5.4 99.0161 4.33461
      vertex 5.4 99.9839 4.33461
    endloop
  endfacet
  facet normal 1 -0 0
    outer loop
      vertex 5.4 98.0876 10.7927
      vertex 5.4 99.0161 4.33461
      vertex 5.4 99.0161 11.0654
    endloop
  endfacet
  facet normal 1 0 0
    outer loop
      vertex 5.4 98.0876 10.7927
      vertex 5.4 98.0876 4.60725
      vertex 5.4 99.0161 4.33461
    endloop
  endfacet
  facet normal 1 -0 0
    outer loop
      vertex 5.4 97.2735 10.2695
      vertex 5.4 98.0876 4.60725
      vertex 5.4 98.0876 10.7927
    endloop
  endfacet
  facet normal 1 0 0
    outer loop
      vertex 5.4 97.2735 10.2695
      vertex 5.4 97.2735 5.13045
      vertex 5.4 98.0876 4.60725
    endloop
  endfacet
  facet normal 1 -0 0
    outer loop
      vertex 5.4 96.6397 9.53818
      vertex 5.4 97.2735 5.13045
      vertex 5.4 97.2735 10.2695
    endloop
  endfacet
  facet normal 1 0 0
    outer loop
      vertex 5.4 96.6397 9.53818
      vertex 5.4 96.6397 5.86182
      vertex 5.4 97.2735 5.13045
    endloop
  endfacet
  facet normal 1 -0 0
    outer loop
      vertex 5.4 96.2377 8.65789
      vertex 5.4 96.6397 5.86182
      vertex 5.4 96.6397 9.53818
    endloop
  endfacet
  facet normal 1 0 0
    outer loop
      vertex 5.4 96.2377 8.65789
      vertex 5.4 96.2377 6.74211
      vertex 5.4 96.6397 5.86182
    endloop
  endfacet
  facet normal 1 0 -0
    outer loop
      vertex 5.4 96.2377 6.74211
      vertex 5.4 96.2377 8.65789
      vertex 5.4 96.1 7.7
    endloop
  endfacet
  facet normal 0 0.909638 0.415402
    outer loop
      vertex 4.4963 102.762 8.65789
      vertex 4.4 102.36 9.53818
      vertex 4.89832 102.36 9.53818
    endloop
  endfacet
  facet normal 0 0.909638 0.415402
    outer loop
      vertex 4.4 102.36 9.53818
      vertex 4.4963 102.762 8.65789
      vertex 4.4 102.762 8.65789
    endloop
  endfacet
  facet normal 0 -0.989825 -0.142291
    outer loop
      vertex 4.4 96.2377 6.74211
      vertex 5.4 96.1 7.7
      vertex 4.4 96.1 7.7
    endloop
  endfacet
  facet normal 0 -0.989825 -0.142291
    outer loop
      vertex 5.4 96.1 7.7
      vertex 4.4 96.2377 6.74211
      vertex 5.4 96.2377 6.74211
    endloop
  endfacet
  facet normal 0 -0.909638 0.415402
    outer loop
      vertex 4.4 96.2377 8.65789
      vertex 5.4 96.6397 9.53818
      vertex 4.4 96.6397 9.53818
    endloop
  endfacet
  facet normal 0 -0.909638 0.415402
    outer loop
      vertex 5.4 96.6397 9.53818
      vertex 4.4 96.2377 8.65789
      vertex 5.4 96.2377 8.65789
    endloop
  endfacet
  facet normal 0 -0.281797 0.959474
    outer loop
      vertex 4.4 99.0161 11.0654
      vertex 5.4 98.0876 10.7927
      vertex 5.4 99.0161 11.0654
    endloop
  endfacet
  facet normal 0 -0.281797 0.959474
    outer loop
      vertex 5.4 98.0876 10.7927
      vertex 4.4 99.0161 11.0654
      vertex 4.4 98.0876 10.7927
    endloop
  endfacet
  facet normal -0 0.540225 0.84152
    outer loop
      vertex 4.4 101.727 10.2695
      vertex 5.4 100.912 10.7927
      vertex 5.4 101.727 10.2695
    endloop
  endfacet
  facet normal 0 0.540225 0.84152
    outer loop
      vertex 5.4 100.912 10.7927
      vertex 4.4 101.727 10.2695
      vertex 4.4 100.912 10.7927
    endloop
  endfacet
  facet normal 0 0.281852 -0.959458
    outer loop
      vertex 4.4 99.9839 4.33461
      vertex 5.4 100.912 4.60725
      vertex 5.4 99.9839 4.33461
    endloop
  endfacet
  facet normal 0 0.281852 -0.959458
    outer loop
      vertex 5.4 100.912 4.60725
      vertex 4.4 99.9839 4.33461
      vertex 4.4 100.912 4.60725
    endloop
  endfacet
  facet normal 0 0.540225 -0.84152
    outer loop
      vertex 4.4 100.912 4.60725
      vertex 5.4 101.727 5.13045
      vertex 5.4 100.912 4.60725
    endloop
  endfacet
  facet normal 0 0.540225 -0.84152
    outer loop
      vertex 5.4 101.727 5.13045
      vertex 4.4 100.912 4.60725
      vertex 4.4 101.727 5.13045
    endloop
  endfacet
  facet normal 0 -0.989825 0.142291
    outer loop
      vertex 4.4 96.1 7.7
      vertex 5.4 96.2377 8.65789
      vertex 4.4 96.2377 8.65789
    endloop
  endfacet
  facet normal 0 -0.989825 0.142291
    outer loop
      vertex 5.4 96.2377 8.65789
      vertex 4.4 96.1 7.7
      vertex 5.4 96.1 7.7
    endloop
  endfacet
  facet normal 0 0 -1
    outer loop
      vertex 4.4 99.0161 4.33461
      vertex 5.4 99.9839 4.33461
      vertex 5.4 99.0161 4.33461
    endloop
  endfacet
  facet normal -0 0 -1
    outer loop
      vertex 5.4 99.9839 4.33461
      vertex 4.4 99.0161 4.33461
      vertex 4.4 99.9839 4.33461
    endloop
  endfacet
  facet normal 0 0.755673 0.654949
    outer loop
      vertex 5.4 101.859 10.1172
      vertex 4.4 101.727 10.2695
      vertex 5.4 101.727 10.2695
    endloop
  endfacet
  facet normal -0.000148064 0.756154 0.654394
    outer loop
      vertex 4.89832 102.36 9.53818
      vertex 4.4 101.727 10.2695
      vertex 5.4 101.859 10.1172
    endloop
  endfacet
  facet normal 0 0.756104 0.654452
    outer loop
      vertex 4.4 101.727 10.2695
      vertex 4.89832 102.36 9.53818
      vertex 4.4 102.36 9.53818
    endloop
  endfacet
  facet normal 0 -0.28174 -0.959491
    outer loop
      vertex 4.4 98.0876 4.60725
      vertex 5.4 99.0161 4.33461
      vertex 5.4 98.0876 4.60725
    endloop
  endfacet
  facet normal -0 -0.28174 -0.959491
    outer loop
      vertex 5.4 99.0161 4.33461
      vertex 4.4 98.0876 4.60725
      vertex 4.4 99.0161 4.33461
    endloop
  endfacet
  facet normal 0 0.989676 0.143324
    outer loop
      vertex 4.4963 102.762 8.65789
      vertex 4.4 102.859 7.98809
      vertex 4.4 102.762 8.65789
    endloop
  endfacet
  facet normal 0 -0.755695 0.654924
    outer loop
      vertex 4.4 96.6397 9.53818
      vertex 5.4 97.2735 10.2695
      vertex 4.4 97.2735 10.2695
    endloop
  endfacet
  facet normal 0 -0.755695 0.654924
    outer loop
      vertex 5.4 97.2735 10.2695
      vertex 4.4 96.6397 9.53818
      vertex 5.4 96.6397 9.53818
    endloop
  endfacet
  facet normal -0 0 1
    outer loop
      vertex 4.4 99.9839 11.0654
      vertex 5.4 99.0161 11.0654
      vertex 5.4 99.9839 11.0654
    endloop
  endfacet
  facet normal 0 0 1
    outer loop
      vertex 5.4 99.0161 11.0654
      vertex 4.4 99.9839 11.0654
      vertex 4.4 99.0161 11.0654
    endloop
  endfacet
  facet normal 0 -0.540648 -0.841249
    outer loop
      vertex 4.4 97.2735 5.13045
      vertex 5.4 98.0876 4.60725
      vertex 5.4 97.2735 5.13045
    endloop
  endfacet
  facet normal -0 -0.540648 -0.841249
    outer loop
      vertex 5.4 98.0876 4.60725
      vertex 4.4 97.2735 5.13045
      vertex 4.4 98.0876 4.60725
    endloop
  endfacet
  facet normal -8.26498e-05 0.756154 -0.654394
    outer loop
      vertex 4.4 101.727 5.13045
      vertex 4.89832 102.36 5.86182
      vertex 5.4 101.859 5.28285
    endloop
  endfacet
  facet normal 0 0.755885 -0.654704
    outer loop
      vertex 4.4 101.727 5.13045
      vertex 5.4 101.859 5.28285
      vertex 5.4 101.727 5.13045
    endloop
  endfacet
  facet normal 0 0.756126 -0.654426
    outer loop
      vertex 4.89832 102.36 5.86182
      vertex 4.4 101.727 5.13045
      vertex 4.4 102.36 5.86182
    endloop
  endfacet
  facet normal -1 0 0
    outer loop
      vertex 4.4 102.36 5.86182
      vertex 4.4 102.859 7.41191
      vertex 4.4 102.762 6.74211
    endloop
  endfacet
  facet normal -1 0 0
    outer loop
      vertex 4.4 101.727 5.13045
      vertex 4.4 102.859 7.41191
      vertex 4.4 102.36 5.86182
    endloop
  endfacet
  facet normal -1 0 0
    outer loop
      vertex 4.4 100.912 4.60725
      vertex 4.4 102.859 7.41191
      vertex 4.4 101.727 5.13045
    endloop
  endfacet
  facet normal -1 0 0
    outer loop
      vertex 4.4 102.859 7.98809
      vertex 4.4 102.36 9.53818
      vertex 4.4 102.762 8.65789
    endloop
  endfacet
  facet normal -1 0 0
    outer loop
      vertex 4.4 99.9839 4.33461
      vertex 4.4 102.859 7.41191
      vertex 4.4 100.912 4.60725
    endloop
  endfacet
  facet normal -1 0 0
    outer loop
      vertex 4.4 102.859 7.98809
      vertex 4.4 101.727 10.2695
      vertex 4.4 102.36 9.53818
    endloop
  endfacet
  facet normal -1 -0 0
    outer loop
      vertex 4.4 102.859 7.41191
      vertex 4.4 99.9839 4.33461
      vertex 4.4 102.859 7.98809
    endloop
  endfacet
  facet normal -1 0 0
    outer loop
      vertex 4.4 102.859 7.98809
      vertex 4.4 100.912 10.7927
      vertex 4.4 101.727 10.2695
    endloop
  endfacet
  facet normal -1 0 0
    outer loop
      vertex 4.4 99.9839 11.0654
      vertex 4.4 102.859 7.98809
      vertex 4.4 99.9839 4.33461
    endloop
  endfacet
  facet normal -1 0 0
    outer loop
      vertex 4.4 102.859 7.98809
      vertex 4.4 99.9839 11.0654
      vertex 4.4 100.912 10.7927
    endloop
  endfacet
  facet normal -1 0 0
    outer loop
      vertex 4.4 99.0161 4.33461
      vertex 4.4 99.9839 11.0654
      vertex 4.4 99.9839 4.33461
    endloop
  endfacet
  facet normal -1 0 0
    outer loop
      vertex 4.4 99.0161 4.33461
      vertex 4.4 99.0161 11.0654
      vertex 4.4 99.9839 11.0654
    endloop
  endfacet
  facet normal -1 0 0
    outer loop
      vertex 4.4 98.0876 4.60725
      vertex 4.4 99.0161 11.0654
      vertex 4.4 99.0161 4.33461
    endloop
  endfacet
  facet normal -1 0 0
    outer loop
      vertex 4.4 98.0876 4.60725
      vertex 4.4 98.0876 10.7927
      vertex 4.4 99.0161 11.0654
    endloop
  endfacet
  facet normal -1 0 0
    outer loop
      vertex 4.4 97.2735 5.13045
      vertex 4.4 98.0876 10.7927
      vertex 4.4 98.0876 4.60725
    endloop
  endfacet
  facet normal -1 0 0
    outer loop
      vertex 4.4 97.2735 5.13045
      vertex 4.4 97.2735 10.2695
      vertex 4.4 98.0876 10.7927
    endloop
  endfacet
  facet normal -1 0 0
    outer loop
      vertex 4.4 96.6397 5.86182
      vertex 4.4 97.2735 10.2695
      vertex 4.4 97.2735 5.13045
    endloop
  endfacet
  facet normal -1 0 0
    outer loop
      vertex 4.4 96.6397 5.86182
      vertex 4.4 96.6397 9.53818
      vertex 4.4 97.2735 10.2695
    endloop
  endfacet
  facet normal -1 0 0
    outer loop
      vertex 4.4 96.2377 6.74211
      vertex 4.4 96.6397 9.53818
      vertex 4.4 96.6397 5.86182
    endloop
  endfacet
  facet normal -1 0 0
    outer loop
      vertex 4.4 96.2377 6.74211
      vertex 4.4 96.2377 8.65789
      vertex 4.4 96.6397 9.53818
    endloop
  endfacet
  facet normal -1 0 -0
    outer loop
      vertex 4.4 96.2377 8.65789
      vertex 4.4 96.2377 6.74211
      vertex 4.4 96.1 7.7
    endloop
  endfacet
  facet normal 0.705897 0.708314 0.00108776
    outer loop
      vertex 4.89832 102.36 9.53818
      vertex 4.4 102.859 7.98809
      vertex 4.4963 102.762 8.65789
    endloop
  endfacet
  facet normal 0.707107 0.707107 0
    outer loop
      vertex 4.4 102.859 7.98809
      vertex 5.4 101.859 10.1172
      vertex 4.4 102.859 7.41191
    endloop
  endfacet
  facet normal 0.706058 0.708154 0.000984528
    outer loop
      vertex 4.4 102.859 7.98809
      vertex 4.89832 102.36 9.53818
      vertex 5.4 101.859 10.1172
    endloop
  endfacet
  facet normal 0.707107 0.707107 -0
    outer loop
      vertex 5.4 101.859 5.28285
      vertex 4.4 102.859 7.41191
      vertex 5.4 101.859 10.1172
    endloop
  endfacet
  facet normal 0.706058 0.708154 -0.000984478
    outer loop
      vertex 4.89832 102.36 5.86182
      vertex 4.4 102.859 7.41191
      vertex 5.4 101.859 5.28285
    endloop
  endfacet
  facet normal 0.705897 0.708314 -0.00108776
    outer loop
      vertex 4.4 102.859 7.41191
      vertex 4.89832 102.36 5.86182
      vertex 4.4963 102.762 6.74211
    endloop
  endfacet
  facet normal 0 -1 0
    outer loop
      vertex 2.5 92 0
      vertex 4.4 92 7.5
      vertex 2.5 92 7.5
    endloop
  endfacet
  facet normal 0 -1 -0
    outer loop
      vertex 4.4 92 7.5
      vertex 2.5 92 0
      vertex 4.4 92 0
    endloop
  endfacet
  facet normal -0 0.0697566 0.997564
    outer loop
      vertex 0 101.648 14
      vertex 2.5 31 18.9402
      vertex 2.5 101.648 14
    endloop
  endfacet
  facet normal 0 0.0697566 0.997564
    outer loop
      vertex 2.5 31 18.9402
      vertex 0 101.648 14
      vertex 0 31 18.9402
    endloop
  endfacet
  facet normal 0 1 -0
    outer loop
      vertex 26.5 109.5 0
      vertex 0 109.5 14
      vertex 26.5 109.5 14
    endloop
  endfacet
  facet normal 0 1 0
    outer loop
      vertex 0 109.5 14
      vertex 26.5 109.5 0
      vertex 0 109.5 0
    endloop
  endfacet
endsolid OpenSCAD_Model
