solid OpenSCAD_Model
  facet normal 1 0 0
    outer loop
      vertex 13.25 32.5 19
      vertex 13.25 6.38988 14.0547
      vertex 13.25 6.48767 4.48519
    endloop
  endfacet
  facet normal 1 0 0
    outer loop
      vertex 13.25 6.38988 14.0547
      vertex 13.25 6.19856 5.375
      vertex 13.25 6.48767 4.48519
    endloop
  endfacet
  facet normal 1 -0 0
    outer loop
      vertex 13.25 5.92208 13.2445
      vertex 13.25 6.19856 5.375
      vertex 13.25 6.38988 14.0547
    endloop
  endfacet
  facet normal 1 0 0
    outer loop
      vertex 13.25 5.92208 13.2445
      vertex 13.25 5.57252 6.07029
      vertex 13.25 6.19856 5.375
    endloop
  endfacet
  facet normal 1 -0 0
    outer loop
      vertex 13.25 5.16516 12.6945
      vertex 13.25 5.57252 6.07029
      vertex 13.25 5.92208 13.2445
    endloop
  endfacet
  facet normal 1 0 0
    outer loop
      vertex 13.25 5.16516 12.6945
      vertex 13.25 4.7178 6.45083
      vertex 13.25 5.57252 6.07029
    endloop
  endfacet
  facet normal 1 -0 0
    outer loop
      vertex 13.25 4.25 12.5
      vertex 13.25 4.7178 6.45083
      vertex 13.25 5.16516 12.6945
    endloop
  endfacet
  facet normal 1 0 0
    outer loop
      vertex 13.25 4.25 12.5
      vertex 13.25 3.7822 6.45083
      vertex 13.25 4.7178 6.45083
    endloop
  endfacet
  facet normal 1 0 0
    outer loop
      vertex 13.25 3.33484 12.6945
      vertex 13.25 3.7822 6.45083
      vertex 13.25 4.25 12.5
    endloop
  endfacet
  facet normal 1 0 0
    outer loop
      vertex 13.25 3.33484 12.6945
      vertex 13.25 2.92748 6.07029
      vertex 13.25 3.7822 6.45083
    endloop
  endfacet
  facet normal 1 0 0
    outer loop
      vertex 13.25 2.57792 13.2445
      vertex 13.25 2.92748 6.07029
      vertex 13.25 3.33484 12.6945
    endloop
  endfacet
  facet normal 1 0 0
    outer loop
      vertex 13.25 2.57792 13.2445
      vertex 13.25 2.30144 5.375
      vertex 13.25 2.92748 6.07029
    endloop
  endfacet
  facet normal 1 0 0
    outer loop
      vertex 13.25 2.11012 14.0547
      vertex 13.25 2.30144 5.375
      vertex 13.25 2.57792 13.2445
    endloop
  endfacet
  facet normal 1 0 0
    outer loop
      vertex 13.25 0 19
      vertex 13.25 2.11012 14.0547
      vertex 13.25 2.01233 14.9852
    endloop
  endfacet
  facet normal 1 0 0
    outer loop
      vertex 13.25 2.11012 14.0547
      vertex 13.25 2.01233 4.48519
      vertex 13.25 2.30144 5.375
    endloop
  endfacet
  facet normal 1 0 0
    outer loop
      vertex 13.25 6.38988 14.0547
      vertex 13.25 32.5 19
      vertex 13.25 6.48767 14.9852
    endloop
  endfacet
  facet normal 1 0 0
    outer loop
      vertex 13.25 32.5 19
      vertex 13.25 6.19856 15.875
      vertex 13.25 6.48767 14.9852
    endloop
  endfacet
  facet normal 1 0 0
    outer loop
      vertex 13.25 32.5 19
      vertex 13.25 5.57252 16.5703
      vertex 13.25 6.19856 15.875
    endloop
  endfacet
  facet normal 1 0 0
    outer loop
      vertex 13.25 32.5 19
      vertex 13.25 4.7178 16.9508
      vertex 13.25 5.57252 16.5703
    endloop
  endfacet
  facet normal 1 -0 0
    outer loop
      vertex 13.25 0 19
      vertex 13.25 4.7178 16.9508
      vertex 13.25 32.5 19
    endloop
  endfacet
  facet normal 1 0 0
    outer loop
      vertex 13.25 2.11012 14.0547
      vertex 13.25 0 19
      vertex 13.25 2.01233 4.48519
    endloop
  endfacet
  facet normal 1 0 0
    outer loop
      vertex 13.25 2.30144 15.875
      vertex 13.25 0 19
      vertex 13.25 2.01233 14.9852
    endloop
  endfacet
  facet normal 1 0 0
    outer loop
      vertex 13.25 2.92748 16.5703
      vertex 13.25 0 19
      vertex 13.25 2.30144 15.875
    endloop
  endfacet
  facet normal 1 0 0
    outer loop
      vertex 13.25 3.7822 16.9508
      vertex 13.25 0 19
      vertex 13.25 2.92748 16.5703
    endloop
  endfacet
  facet normal 1 0 0
    outer loop
      vertex 13.25 4.7178 16.9508
      vertex 13.25 0 19
      vertex 13.25 3.7822 16.9508
    endloop
  endfacet
  facet normal 1 0 0
    outer loop
      vertex 13.25 32.5 19
      vertex 13.25 6.48767 4.48519
      vertex 13.25 32.5 0
    endloop
  endfacet
  facet normal 1 -0 0
    outer loop
      vertex 13.25 6.38988 3.55471
      vertex 13.25 32.5 0
      vertex 13.25 6.48767 4.48519
    endloop
  endfacet
  facet normal 1 -0 0
    outer loop
      vertex 13.25 5.92208 2.74446
      vertex 13.25 32.5 0
      vertex 13.25 6.38988 3.55471
    endloop
  endfacet
  facet normal 1 -0 0
    outer loop
      vertex 13.25 5.16516 2.19452
      vertex 13.25 32.5 0
      vertex 13.25 5.92208 2.74446
    endloop
  endfacet
  facet normal 1 0 0
    outer loop
      vertex 13.25 0 0
      vertex 13.25 5.16516 2.19452
      vertex 13.25 4.25 2
    endloop
  endfacet
  facet normal 1 0 0
    outer loop
      vertex 13.25 0 0
      vertex 13.25 2.01233 4.48519
      vertex 13.25 0 19
    endloop
  endfacet
  facet normal 1 0 0
    outer loop
      vertex 13.25 5.16516 2.19452
      vertex 13.25 0 0
      vertex 13.25 32.5 0
    endloop
  endfacet
  facet normal 1 0 0
    outer loop
      vertex 13.25 3.33484 2.19452
      vertex 13.25 0 0
      vertex 13.25 4.25 2
    endloop
  endfacet
  facet normal 1 0 0
    outer loop
      vertex 13.25 2.57792 2.74446
      vertex 13.25 0 0
      vertex 13.25 3.33484 2.19452
    endloop
  endfacet
  facet normal 1 0 0
    outer loop
      vertex 13.25 2.11012 3.55471
      vertex 13.25 0 0
      vertex 13.25 2.57792 2.74446
    endloop
  endfacet
  facet normal 1 0 0
    outer loop
      vertex 13.25 2.01233 4.48519
      vertex 13.25 0 0
      vertex 13.25 2.11012 3.55471
    endloop
  endfacet
  facet normal 0 0 1
    outer loop
      vertex 13.25 32.5 19
      vertex 10.25 29.5 19
      vertex 13.25 0 19
    endloop
  endfacet
  facet normal 0 0 1
    outer loop
      vertex 13.25 32.5 19
      vertex 3 29.5 19
      vertex 10.25 29.5 19
    endloop
  endfacet
  facet normal -0 0 1
    outer loop
      vertex 0 32.5 19
      vertex 3 29.5 19
      vertex 13.25 32.5 19
    endloop
  endfacet
  facet normal 0 0 1
    outer loop
      vertex 0 0 19
      vertex 3 29.5 19
      vertex 0 32.5 19
    endloop
  endfacet
  facet normal 0 0 1
    outer loop
      vertex 3 29.5 19
      vertex 0 0 19
      vertex 3 0 19
    endloop
  endfacet
  facet normal 0 0 1
    outer loop
      vertex 13.25 0 19
      vertex 10.25 29.5 19
      vertex 10.25 0 19
    endloop
  endfacet
  facet normal 0 0 -1
    outer loop
      vertex 0 0 0
      vertex 3 29.5 0
      vertex 3 0 0
    endloop
  endfacet
  facet normal -0 0 -1
    outer loop
      vertex 3 29.5 0
      vertex 0 0 0
      vertex 3 32.5 0
    endloop
  endfacet
  facet normal 0 0 -1
    outer loop
      vertex 0 124.5 0
      vertex 3 32.5 0
      vertex 0 0 0
    endloop
  endfacet
  facet normal 0 0 -1
    outer loop
      vertex 3 32.5 0
      vertex 0 124.5 0
      vertex 3 97.5 0
    endloop
  endfacet
  facet normal 0 0 -1
    outer loop
      vertex 3 97.5 0
      vertex 0 124.5 0
      vertex 3 100.5 0
    endloop
  endfacet
  facet normal 0 0 -1
    outer loop
      vertex 10.25 29.5 0
      vertex 13.25 0 0
      vertex 10.25 0 0
    endloop
  endfacet
  facet normal 0 0 -1
    outer loop
      vertex 13.25 0 0
      vertex 10.25 29.5 0
      vertex 13.25 32.5 0
    endloop
  endfacet
  facet normal 0 0 -1
    outer loop
      vertex 3 32.5 0
      vertex 10.25 29.5 0
      vertex 3 29.5 0
    endloop
  endfacet
  facet normal 0 0 -1
    outer loop
      vertex 10.25 29.5 0
      vertex 3 32.5 0
      vertex 13.25 32.5 0
    endloop
  endfacet
  facet normal 0 0 -1
    outer loop
      vertex 3 97.5 0
      vertex 20 100.5 0
      vertex 20 97.5 0
    endloop
  endfacet
  facet normal -0 0 -1
    outer loop
      vertex 20 100.5 0
      vertex 3 97.5 0
      vertex 3 100.5 0
    endloop
  endfacet
  facet normal 0 0 -1
    outer loop
      vertex 4.9 103.5 0
      vertex 3 103.5 0
      vertex 4.9 118.5 0
    endloop
  endfacet
  facet normal 0 0 -1
    outer loop
      vertex 25.1 118.5 0
      vertex 27 103.5 0
      vertex 25.1 103.5 0
    endloop
  endfacet
  facet normal 0 0 -1
    outer loop
      vertex 27 103.5 0
      vertex 25.1 118.5 0
      vertex 27 124.5 0
    endloop
  endfacet
  facet normal 0 0 -1
    outer loop
      vertex 4.9 118.5 0
      vertex 27 124.5 0
      vertex 25.1 118.5 0
    endloop
  endfacet
  facet normal 0 0 -1
    outer loop
      vertex 4.9 118.5 0
      vertex 0 124.5 0
      vertex 27 124.5 0
    endloop
  endfacet
  facet normal 0 0 -1
    outer loop
      vertex 3 103.5 0
      vertex 0 124.5 0
      vertex 4.9 118.5 0
    endloop
  endfacet
  facet normal 0 0 -1
    outer loop
      vertex 3 100.5 0
      vertex 0 124.5 0
      vertex 3 103.5 0
    endloop
  endfacet
  facet normal -1 0 0
    outer loop
      vertex 0 32.5 18.9402
      vertex 0 6.38988 14.0547
      vertex 0 6.48767 14.9852
    endloop
  endfacet
  facet normal -1 0 0
    outer loop
      vertex 0 6.19856 5.375
      vertex 0 6.38988 14.0547
      vertex 0 6.48767 4.48519
    endloop
  endfacet
  facet normal -1 0 0
    outer loop
      vertex 0 6.19856 5.375
      vertex 0 5.92208 13.2445
      vertex 0 6.38988 14.0547
    endloop
  endfacet
  facet normal -1 0 0
    outer loop
      vertex 0 5.57252 6.07029
      vertex 0 5.92208 13.2445
      vertex 0 6.19856 5.375
    endloop
  endfacet
  facet normal -1 0 0
    outer loop
      vertex 0 5.57252 6.07029
      vertex 0 5.16516 12.6945
      vertex 0 5.92208 13.2445
    endloop
  endfacet
  facet normal -1 0 0
    outer loop
      vertex 0 4.7178 6.45083
      vertex 0 5.16516 12.6945
      vertex 0 5.57252 6.07029
    endloop
  endfacet
  facet normal -1 0 0
    outer loop
      vertex 0 4.7178 6.45083
      vertex 0 4.25 12.5
      vertex 0 5.16516 12.6945
    endloop
  endfacet
  facet normal -1 0 0
    outer loop
      vertex 0 3.7822 6.45083
      vertex 0 4.25 12.5
      vertex 0 4.7178 6.45083
    endloop
  endfacet
  facet normal -1 0 0
    outer loop
      vertex 0 3.7822 6.45083
      vertex 0 3.33484 12.6945
      vertex 0 4.25 12.5
    endloop
  endfacet
  facet normal -1 0 0
    outer loop
      vertex 0 2.92748 6.07029
      vertex 0 3.33484 12.6945
      vertex 0 3.7822 6.45083
    endloop
  endfacet
  facet normal -1 0 0
    outer loop
      vertex 0 2.92748 6.07029
      vertex 0 2.57792 13.2445
      vertex 0 3.33484 12.6945
    endloop
  endfacet
  facet normal -1 0 0
    outer loop
      vertex 0 2.30144 5.375
      vertex 0 2.57792 13.2445
      vertex 0 2.92748 6.07029
    endloop
  endfacet
  facet normal -1 0 0
    outer loop
      vertex 0 2.30144 5.375
      vertex 0 2.11012 14.0547
      vertex 0 2.57792 13.2445
    endloop
  endfacet
  facet normal -1 0 0
    outer loop
      vertex 0 2.01233 4.48519
      vertex 0 2.11012 14.0547
      vertex 0 2.30144 5.375
    endloop
  endfacet
  facet normal -1 0 0
    outer loop
      vertex 0 0 19
      vertex 0 2.11012 14.0547
      vertex 0 2.01233 4.48519
    endloop
  endfacet
  facet normal -1 0 0
    outer loop
      vertex 0 124.5 0
      vertex 0 103.148 14
      vertex 0 124.5 14
    endloop
  endfacet
  facet normal -1 0 0
    outer loop
      vertex 0 5.92208 2.74446
      vertex 0 103.148 14
      vertex 0 124.5 0
    endloop
  endfacet
  facet normal -1 0 0
    outer loop
      vertex 0 6.38988 14.0547
      vertex 0 32.5 18.9402
      vertex 0 6.48767 4.48519
    endloop
  endfacet
  facet normal -1 -0 0
    outer loop
      vertex 0 103.148 14
      vertex 0 5.92208 2.74446
      vertex 0 32.5 18.9402
    endloop
  endfacet
  facet normal -1 0 0
    outer loop
      vertex 0 32.5 18.9402
      vertex 0 6.38988 3.55471
      vertex 0 6.48767 4.48519
    endloop
  endfacet
  facet normal -1 0 0
    outer loop
      vertex 0 32.5 18.9402
      vertex 0 5.92208 2.74446
      vertex 0 6.38988 3.55471
    endloop
  endfacet
  facet normal -1 0 0
    outer loop
      vertex 0 124.5 0
      vertex 0 5.16516 2.19452
      vertex 0 5.92208 2.74446
    endloop
  endfacet
  facet normal -1 0 0
    outer loop
      vertex 0 0 0
      vertex 0 5.16516 2.19452
      vertex 0 124.5 0
    endloop
  endfacet
  facet normal -1 0 0
    outer loop
      vertex 0 0 19
      vertex 0 2.01233 4.48519
      vertex 0 0 0
    endloop
  endfacet
  facet normal -1 -0 0
    outer loop
      vertex 0 2.11012 3.55471
      vertex 0 0 0
      vertex 0 2.01233 4.48519
    endloop
  endfacet
  facet normal -1 -0 0
    outer loop
      vertex 0 2.57792 2.74446
      vertex 0 0 0
      vertex 0 2.11012 3.55471
    endloop
  endfacet
  facet normal -1 -0 0
    outer loop
      vertex 0 3.33484 2.19452
      vertex 0 0 0
      vertex 0 2.57792 2.74446
    endloop
  endfacet
  facet normal -1 -0 0
    outer loop
      vertex 0 4.25 2
      vertex 0 0 0
      vertex 0 3.33484 2.19452
    endloop
  endfacet
  facet normal -1 0 0
    outer loop
      vertex 0 5.16516 2.19452
      vertex 0 0 0
      vertex 0 4.25 2
    endloop
  endfacet
  facet normal -1 -0 0
    outer loop
      vertex 0 32.5 18.9402
      vertex 0 6.48767 14.9852
      vertex 0 32.5 19
    endloop
  endfacet
  facet normal -1 0 0
    outer loop
      vertex 0 6.19856 15.875
      vertex 0 32.5 19
      vertex 0 6.48767 14.9852
    endloop
  endfacet
  facet normal -1 0 0
    outer loop
      vertex 0 5.57252 16.5703
      vertex 0 32.5 19
      vertex 0 6.19856 15.875
    endloop
  endfacet
  facet normal -1 0 0
    outer loop
      vertex 0 4.7178 16.9508
      vertex 0 32.5 19
      vertex 0 5.57252 16.5703
    endloop
  endfacet
  facet normal -1 0 0
    outer loop
      vertex 0 0 19
      vertex 0 4.7178 16.9508
      vertex 0 3.7822 16.9508
    endloop
  endfacet
  facet normal -1 0 0
    outer loop
      vertex 0 4.7178 16.9508
      vertex 0 0 19
      vertex 0 32.5 19
    endloop
  endfacet
  facet normal -1 0 0
    outer loop
      vertex 0 2.92748 16.5703
      vertex 0 0 19
      vertex 0 3.7822 16.9508
    endloop
  endfacet
  facet normal -1 0 0
    outer loop
      vertex 0 2.30144 15.875
      vertex 0 0 19
      vertex 0 2.92748 16.5703
    endloop
  endfacet
  facet normal -1 0 0
    outer loop
      vertex 0 2.01233 14.9852
      vertex 0 0 19
      vertex 0 2.30144 15.875
    endloop
  endfacet
  facet normal -1 0 0
    outer loop
      vertex 0 2.11012 14.0547
      vertex 0 0 19
      vertex 0 2.01233 14.9852
    endloop
  endfacet
  facet normal 0 1 0
    outer loop
      vertex 13.25 32.5 19
      vertex 3 32.5 18.9402
      vertex 0 32.5 19
    endloop
  endfacet
  facet normal 0 1 -0
    outer loop
      vertex 13.25 32.5 0
      vertex 3 32.5 18.9402
      vertex 13.25 32.5 19
    endloop
  endfacet
  facet normal 0 1 0
    outer loop
      vertex 3 32.5 18.9402
      vertex 13.25 32.5 0
      vertex 3 32.5 0
    endloop
  endfacet
  facet normal 0 1 0
    outer loop
      vertex 0 32.5 19
      vertex 3 32.5 18.9402
      vertex 0 32.5 18.9402
    endloop
  endfacet
  facet normal 0 -1 0
    outer loop
      vertex 0 0 0
      vertex 3 0 19
      vertex 0 0 19
    endloop
  endfacet
  facet normal 0 -1 -0
    outer loop
      vertex 3 0 19
      vertex 0 0 0
      vertex 3 0 0
    endloop
  endfacet
  facet normal 0 -1 0
    outer loop
      vertex 10.25 0 0
      vertex 13.25 0 19
      vertex 10.25 0 19
    endloop
  endfacet
  facet normal 0 -1 -0
    outer loop
      vertex 13.25 0 19
      vertex 10.25 0 0
      vertex 13.25 0 0
    endloop
  endfacet
  facet normal -1 0 0
    outer loop
      vertex 10.25 29.5 19
      vertex 10.25 6.38988 14.0547
      vertex 10.25 6.48767 14.9852
    endloop
  endfacet
  facet normal -1 0 0
    outer loop
      vertex 10.25 29.5 19
      vertex 10.25 6.19856 5.375
      vertex 10.25 6.38988 14.0547
    endloop
  endfacet
  facet normal -1 0 0
    outer loop
      vertex 10.25 6.19856 5.375
      vertex 10.25 5.92208 13.2445
      vertex 10.25 6.38988 14.0547
    endloop
  endfacet
  facet normal -1 0 0
    outer loop
      vertex 10.25 5.57252 6.07029
      vertex 10.25 5.92208 13.2445
      vertex 10.25 6.19856 5.375
    endloop
  endfacet
  facet normal -1 0 0
    outer loop
      vertex 10.25 5.57252 6.07029
      vertex 10.25 5.16516 12.6945
      vertex 10.25 5.92208 13.2445
    endloop
  endfacet
  facet normal -1 0 0
    outer loop
      vertex 10.25 4.7178 6.45083
      vertex 10.25 5.16516 12.6945
      vertex 10.25 5.57252 6.07029
    endloop
  endfacet
  facet normal -1 0 0
    outer loop
      vertex 10.25 4.7178 6.45083
      vertex 10.25 4.25 12.5
      vertex 10.25 5.16516 12.6945
    endloop
  endfacet
  facet normal -1 0 0
    outer loop
      vertex 10.25 3.7822 6.45083
      vertex 10.25 4.25 12.5
      vertex 10.25 4.7178 6.45083
    endloop
  endfacet
  facet normal -1 0 0
    outer loop
      vertex 10.25 3.7822 6.45083
      vertex 10.25 3.33484 12.6945
      vertex 10.25 4.25 12.5
    endloop
  endfacet
  facet normal -1 0 0
    outer loop
      vertex 10.25 2.92748 6.07029
      vertex 10.25 3.33484 12.6945
      vertex 10.25 3.7822 6.45083
    endloop
  endfacet
  facet normal -1 0 0
    outer loop
      vertex 10.25 2.92748 6.07029
      vertex 10.25 2.57792 13.2445
      vertex 10.25 3.33484 12.6945
    endloop
  endfacet
  facet normal -1 0 0
    outer loop
      vertex 10.25 2.30144 5.375
      vertex 10.25 2.57792 13.2445
      vertex 10.25 2.92748 6.07029
    endloop
  endfacet
  facet normal -1 0 0
    outer loop
      vertex 10.25 2.30144 5.375
      vertex 10.25 2.11012 14.0547
      vertex 10.25 2.57792 13.2445
    endloop
  endfacet
  facet normal -1 0 0
    outer loop
      vertex 10.25 2.01233 4.48519
      vertex 10.25 2.11012 14.0547
      vertex 10.25 2.30144 5.375
    endloop
  endfacet
  facet normal -1 0 0
    outer loop
      vertex 10.25 0 19
      vertex 10.25 2.11012 14.0547
      vertex 10.25 2.01233 4.48519
    endloop
  endfacet
  facet normal -1 0 0
    outer loop
      vertex 10.25 6.19856 5.375
      vertex 10.25 29.5 0
      vertex 10.25 6.48767 4.48519
    endloop
  endfacet
  facet normal -1 0 0
    outer loop
      vertex 10.25 29.5 0
      vertex 10.25 6.38988 3.55471
      vertex 10.25 6.48767 4.48519
    endloop
  endfacet
  facet normal -1 0 0
    outer loop
      vertex 10.25 29.5 0
      vertex 10.25 5.92208 2.74446
      vertex 10.25 6.38988 3.55471
    endloop
  endfacet
  facet normal -1 0 0
    outer loop
      vertex 10.25 29.5 0
      vertex 10.25 5.16516 2.19452
      vertex 10.25 5.92208 2.74446
    endloop
  endfacet
  facet normal -1 0 0
    outer loop
      vertex 10.25 0 0
      vertex 10.25 5.16516 2.19452
      vertex 10.25 29.5 0
    endloop
  endfacet
  facet normal -1 0 0
    outer loop
      vertex 10.25 0 19
      vertex 10.25 2.01233 4.48519
      vertex 10.25 0 0
    endloop
  endfacet
  facet normal -1 -0 0
    outer loop
      vertex 10.25 2.11012 3.55471
      vertex 10.25 0 0
      vertex 10.25 2.01233 4.48519
    endloop
  endfacet
  facet normal -1 -0 0
    outer loop
      vertex 10.25 2.57792 2.74446
      vertex 10.25 0 0
      vertex 10.25 2.11012 3.55471
    endloop
  endfacet
  facet normal -1 -0 0
    outer loop
      vertex 10.25 3.33484 2.19452
      vertex 10.25 0 0
      vertex 10.25 2.57792 2.74446
    endloop
  endfacet
  facet normal -1 -0 0
    outer loop
      vertex 10.25 4.25 2
      vertex 10.25 0 0
      vertex 10.25 3.33484 2.19452
    endloop
  endfacet
  facet normal -1 0 0
    outer loop
      vertex 10.25 5.16516 2.19452
      vertex 10.25 0 0
      vertex 10.25 4.25 2
    endloop
  endfacet
  facet normal -1 0 0
    outer loop
      vertex 10.25 29.5 0
      vertex 10.25 6.19856 5.375
      vertex 10.25 29.5 19
    endloop
  endfacet
  facet normal -1 0 0
    outer loop
      vertex 10.25 6.19856 15.875
      vertex 10.25 29.5 19
      vertex 10.25 6.48767 14.9852
    endloop
  endfacet
  facet normal -1 0 0
    outer loop
      vertex 10.25 5.57252 16.5703
      vertex 10.25 29.5 19
      vertex 10.25 6.19856 15.875
    endloop
  endfacet
  facet normal -1 0 0
    outer loop
      vertex 10.25 4.7178 16.9508
      vertex 10.25 29.5 19
      vertex 10.25 5.57252 16.5703
    endloop
  endfacet
  facet normal -1 0 0
    outer loop
      vertex 10.25 0 19
      vertex 10.25 4.7178 16.9508
      vertex 10.25 3.7822 16.9508
    endloop
  endfacet
  facet normal -1 0 0
    outer loop
      vertex 10.25 4.7178 16.9508
      vertex 10.25 0 19
      vertex 10.25 29.5 19
    endloop
  endfacet
  facet normal -1 0 0
    outer loop
      vertex 10.25 2.92748 16.5703
      vertex 10.25 0 19
      vertex 10.25 3.7822 16.9508
    endloop
  endfacet
  facet normal -1 0 0
    outer loop
      vertex 10.25 2.30144 15.875
      vertex 10.25 0 19
      vertex 10.25 2.92748 16.5703
    endloop
  endfacet
  facet normal -1 0 0
    outer loop
      vertex 10.25 2.01233 14.9852
      vertex 10.25 0 19
      vertex 10.25 2.30144 15.875
    endloop
  endfacet
  facet normal -1 0 0
    outer loop
      vertex 10.25 2.11012 14.0547
      vertex 10.25 0 19
      vertex 10.25 2.01233 14.9852
    endloop
  endfacet
  facet normal 1 0 0
    outer loop
      vertex 3 6.19856 5.375
      vertex 3 29.5 19
      vertex 3 6.38988 14.0547
    endloop
  endfacet
  facet normal 1 0 0
    outer loop
      vertex 3 29.5 19
      vertex 3 6.19856 5.375
      vertex 3 6.48767 4.48519
    endloop
  endfacet
  facet normal 1 -0 0
    outer loop
      vertex 3 5.92208 13.2445
      vertex 3 6.19856 5.375
      vertex 3 6.38988 14.0547
    endloop
  endfacet
  facet normal 1 0 0
    outer loop
      vertex 3 5.92208 13.2445
      vertex 3 5.57252 6.07029
      vertex 3 6.19856 5.375
    endloop
  endfacet
  facet normal 1 -0 0
    outer loop
      vertex 3 5.16516 12.6945
      vertex 3 5.57252 6.07029
      vertex 3 5.92208 13.2445
    endloop
  endfacet
  facet normal 1 0 0
    outer loop
      vertex 3 5.16516 12.6945
      vertex 3 4.7178 6.45083
      vertex 3 5.57252 6.07029
    endloop
  endfacet
  facet normal 1 -0 0
    outer loop
      vertex 3 4.25 12.5
      vertex 3 4.7178 6.45083
      vertex 3 5.16516 12.6945
    endloop
  endfacet
  facet normal 1 0 0
    outer loop
      vertex 3 4.25 12.5
      vertex 3 3.7822 6.45083
      vertex 3 4.7178 6.45083
    endloop
  endfacet
  facet normal 1 0 0
    outer loop
      vertex 3 3.33484 12.6945
      vertex 3 3.7822 6.45083
      vertex 3 4.25 12.5
    endloop
  endfacet
  facet normal 1 0 0
    outer loop
      vertex 3 3.33484 12.6945
      vertex 3 2.92748 6.07029
      vertex 3 3.7822 6.45083
    endloop
  endfacet
  facet normal 1 0 0
    outer loop
      vertex 3 2.57792 13.2445
      vertex 3 2.92748 6.07029
      vertex 3 3.33484 12.6945
    endloop
  endfacet
  facet normal 1 0 0
    outer loop
      vertex 3 2.57792 13.2445
      vertex 3 2.30144 5.375
      vertex 3 2.92748 6.07029
    endloop
  endfacet
  facet normal 1 0 0
    outer loop
      vertex 3 2.11012 14.0547
      vertex 3 2.30144 5.375
      vertex 3 2.57792 13.2445
    endloop
  endfacet
  facet normal 1 0 0
    outer loop
      vertex 3 0 19
      vertex 3 2.11012 14.0547
      vertex 3 2.01233 14.9852
    endloop
  endfacet
  facet normal 1 0 0
    outer loop
      vertex 3 2.11012 14.0547
      vertex 3 2.01233 4.48519
      vertex 3 2.30144 5.375
    endloop
  endfacet
  facet normal 1 0 0
    outer loop
      vertex 3 6.38988 14.0547
      vertex 3 29.5 19
      vertex 3 6.48767 14.9852
    endloop
  endfacet
  facet normal 1 0 0
    outer loop
      vertex 3 29.5 19
      vertex 3 6.19856 15.875
      vertex 3 6.48767 14.9852
    endloop
  endfacet
  facet normal 1 0 0
    outer loop
      vertex 3 29.5 19
      vertex 3 5.57252 16.5703
      vertex 3 6.19856 15.875
    endloop
  endfacet
  facet normal 1 0 0
    outer loop
      vertex 3 29.5 19
      vertex 3 4.7178 16.9508
      vertex 3 5.57252 16.5703
    endloop
  endfacet
  facet normal 1 -0 0
    outer loop
      vertex 3 0 19
      vertex 3 4.7178 16.9508
      vertex 3 29.5 19
    endloop
  endfacet
  facet normal 1 0 0
    outer loop
      vertex 3 2.11012 14.0547
      vertex 3 0 19
      vertex 3 2.01233 4.48519
    endloop
  endfacet
  facet normal 1 0 0
    outer loop
      vertex 3 2.30144 15.875
      vertex 3 0 19
      vertex 3 2.01233 14.9852
    endloop
  endfacet
  facet normal 1 0 0
    outer loop
      vertex 3 2.92748 16.5703
      vertex 3 0 19
      vertex 3 2.30144 15.875
    endloop
  endfacet
  facet normal 1 0 0
    outer loop
      vertex 3 3.7822 16.9508
      vertex 3 0 19
      vertex 3 2.92748 16.5703
    endloop
  endfacet
  facet normal 1 0 0
    outer loop
      vertex 3 4.7178 16.9508
      vertex 3 0 19
      vertex 3 3.7822 16.9508
    endloop
  endfacet
  facet normal 1 0 0
    outer loop
      vertex 3 29.5 19
      vertex 3 6.48767 4.48519
      vertex 3 29.5 0
    endloop
  endfacet
  facet normal 1 -0 0
    outer loop
      vertex 3 6.38988 3.55471
      vertex 3 29.5 0
      vertex 3 6.48767 4.48519
    endloop
  endfacet
  facet normal 1 -0 0
    outer loop
      vertex 3 5.92208 2.74446
      vertex 3 29.5 0
      vertex 3 6.38988 3.55471
    endloop
  endfacet
  facet normal 1 -0 0
    outer loop
      vertex 3 5.16516 2.19452
      vertex 3 29.5 0
      vertex 3 5.92208 2.74446
    endloop
  endfacet
  facet normal 1 0 0
    outer loop
      vertex 3 0 0
      vertex 3 5.16516 2.19452
      vertex 3 4.25 2
    endloop
  endfacet
  facet normal 1 0 0
    outer loop
      vertex 3 0 0
      vertex 3 2.01233 4.48519
      vertex 3 0 19
    endloop
  endfacet
  facet normal 1 0 0
    outer loop
      vertex 3 5.16516 2.19452
      vertex 3 0 0
      vertex 3 29.5 0
    endloop
  endfacet
  facet normal 1 0 0
    outer loop
      vertex 3 3.33484 2.19452
      vertex 3 0 0
      vertex 3 4.25 2
    endloop
  endfacet
  facet normal 1 0 0
    outer loop
      vertex 3 2.57792 2.74446
      vertex 3 0 0
      vertex 3 3.33484 2.19452
    endloop
  endfacet
  facet normal 1 0 0
    outer loop
      vertex 3 2.11012 3.55471
      vertex 3 0 0
      vertex 3 2.57792 2.74446
    endloop
  endfacet
  facet normal 1 0 0
    outer loop
      vertex 3 2.01233 4.48519
      vertex 3 0 0
      vertex 3 2.11012 3.55471
    endloop
  endfacet
  facet normal 0 -1 0
    outer loop
      vertex 3 29.5 0
      vertex 10.25 29.5 19
      vertex 3 29.5 19
    endloop
  endfacet
  facet normal 0 -1 -0
    outer loop
      vertex 10.25 29.5 19
      vertex 3 29.5 0
      vertex 10.25 29.5 0
    endloop
  endfacet
  facet normal 0 -0.866025 0.500002
    outer loop
      vertex 0 5.92208 2.74446
      vertex 3 6.38988 3.55471
      vertex 0 6.38988 3.55471
    endloop
  endfacet
  facet normal 0 -0.866025 0.500002
    outer loop
      vertex 3 6.38988 3.55471
      vertex 0 5.92208 2.74446
      vertex 3 5.92208 2.74446
    endloop
  endfacet
  facet normal 0 -0.866025 0.500002
    outer loop
      vertex 10.25 5.92208 2.74446
      vertex 13.25 6.38988 3.55471
      vertex 10.25 6.38988 3.55471
    endloop
  endfacet
  facet normal 0 -0.866025 0.500002
    outer loop
      vertex 13.25 6.38988 3.55471
      vertex 10.25 5.92208 2.74446
      vertex 13.25 5.92208 2.74446
    endloop
  endfacet
  facet normal 0 0.866025 0.500002
    outer loop
      vertex 3 2.57792 2.74446
      vertex 0 2.11012 3.55471
      vertex 3 2.11012 3.55471
    endloop
  endfacet
  facet normal 0 0.866025 0.500002
    outer loop
      vertex 0 2.11012 3.55471
      vertex 3 2.57792 2.74446
      vertex 0 2.57792 2.74446
    endloop
  endfacet
  facet normal 0 0.866025 0.500002
    outer loop
      vertex 13.25 2.57792 2.74446
      vertex 10.25 2.11012 3.55471
      vertex 13.25 2.11012 3.55471
    endloop
  endfacet
  facet normal 0 0.866025 0.500002
    outer loop
      vertex 10.25 2.11012 3.55471
      vertex 13.25 2.57792 2.74446
      vertex 10.25 2.57792 2.74446
    endloop
  endfacet
  facet normal 0 0 -1
    outer loop
      vertex 0 3.7822 6.45083
      vertex 3 4.7178 6.45083
      vertex 3 3.7822 6.45083
    endloop
  endfacet
  facet normal -0 0 -1
    outer loop
      vertex 3 4.7178 6.45083
      vertex 0 3.7822 6.45083
      vertex 0 4.7178 6.45083
    endloop
  endfacet
  facet normal 0 0 -1
    outer loop
      vertex 10.25 3.7822 6.45083
      vertex 13.25 4.7178 6.45083
      vertex 13.25 3.7822 6.45083
    endloop
  endfacet
  facet normal -0 0 -1
    outer loop
      vertex 13.25 4.7178 6.45083
      vertex 10.25 3.7822 6.45083
      vertex 10.25 4.7178 6.45083
    endloop
  endfacet
  facet normal 0 -0.207908 0.978148
    outer loop
      vertex 0 5.16516 2.19452
      vertex 3 4.25 2
      vertex 3 5.16516 2.19452
    endloop
  endfacet
  facet normal 0 -0.207908 0.978148
    outer loop
      vertex 3 4.25 2
      vertex 0 5.16516 2.19452
      vertex 0 4.25 2
    endloop
  endfacet
  facet normal 0 -0.207908 0.978148
    outer loop
      vertex 10.25 5.16516 2.19452
      vertex 13.25 4.25 2
      vertex 13.25 5.16516 2.19452
    endloop
  endfacet
  facet normal 0 -0.207908 0.978148
    outer loop
      vertex 13.25 4.25 2
      vertex 10.25 5.16516 2.19452
      vertex 10.25 4.25 2
    endloop
  endfacet
  facet normal 0 0.994523 0.104521
    outer loop
      vertex 3 2.11012 3.55471
      vertex 0 2.01233 4.48519
      vertex 3 2.01233 4.48519
    endloop
  endfacet
  facet normal 0 0.994523 0.104521
    outer loop
      vertex 0 2.01233 4.48519
      vertex 3 2.11012 3.55471
      vertex 0 2.11012 3.55471
    endloop
  endfacet
  facet normal 0 0.994523 0.104521
    outer loop
      vertex 13.25 2.11012 3.55471
      vertex 10.25 2.01233 4.48519
      vertex 13.25 2.01233 4.48519
    endloop
  endfacet
  facet normal 0 0.994523 0.104521
    outer loop
      vertex 10.25 2.01233 4.48519
      vertex 13.25 2.11012 3.55471
      vertex 10.25 2.11012 3.55471
    endloop
  endfacet
  facet normal 0 -0.743146 -0.669129
    outer loop
      vertex 0 6.19856 5.375
      vertex 3 5.57252 6.07029
      vertex 0 5.57252 6.07029
    endloop
  endfacet
  facet normal 0 -0.743146 -0.669129
    outer loop
      vertex 3 5.57252 6.07029
      vertex 0 6.19856 5.375
      vertex 3 6.19856 5.375
    endloop
  endfacet
  facet normal 0 -0.743146 -0.669129
    outer loop
      vertex 10.25 6.19856 5.375
      vertex 13.25 5.57252 6.07029
      vertex 10.25 5.57252 6.07029
    endloop
  endfacet
  facet normal 0 -0.743146 -0.669129
    outer loop
      vertex 13.25 5.57252 6.07029
      vertex 10.25 6.19856 5.375
      vertex 13.25 6.19856 5.375
    endloop
  endfacet
  facet normal -0 0.207908 0.978148
    outer loop
      vertex 0 4.25 2
      vertex 3 3.33484 2.19452
      vertex 3 4.25 2
    endloop
  endfacet
  facet normal 0 0.207908 0.978148
    outer loop
      vertex 3 3.33484 2.19452
      vertex 0 4.25 2
      vertex 0 3.33484 2.19452
    endloop
  endfacet
  facet normal -0 0.207908 0.978148
    outer loop
      vertex 10.25 4.25 2
      vertex 13.25 3.33484 2.19452
      vertex 13.25 4.25 2
    endloop
  endfacet
  facet normal 0 0.207908 0.978148
    outer loop
      vertex 13.25 3.33484 2.19452
      vertex 10.25 4.25 2
      vertex 10.25 3.33484 2.19452
    endloop
  endfacet
  facet normal 0 -0.951059 -0.30901
    outer loop
      vertex 0 6.48767 4.48519
      vertex 3 6.19856 5.375
      vertex 0 6.19856 5.375
    endloop
  endfacet
  facet normal 0 -0.951059 -0.30901
    outer loop
      vertex 3 6.19856 5.375
      vertex 0 6.48767 4.48519
      vertex 3 6.48767 4.48519
    endloop
  endfacet
  facet normal 0 -0.951059 -0.30901
    outer loop
      vertex 10.25 6.48767 4.48519
      vertex 13.25 6.19856 5.375
      vertex 10.25 6.19856 5.375
    endloop
  endfacet
  facet normal 0 -0.951059 -0.30901
    outer loop
      vertex 13.25 6.19856 5.375
      vertex 10.25 6.48767 4.48519
      vertex 13.25 6.48767 4.48519
    endloop
  endfacet
  facet normal 0 0.951059 -0.30901
    outer loop
      vertex 3 2.01233 4.48519
      vertex 0 2.30144 5.375
      vertex 3 2.30144 5.375
    endloop
  endfacet
  facet normal 0 0.951059 -0.30901
    outer loop
      vertex 0 2.30144 5.375
      vertex 3 2.01233 4.48519
      vertex 0 2.01233 4.48519
    endloop
  endfacet
  facet normal 0 0.951059 -0.30901
    outer loop
      vertex 13.25 2.01233 4.48519
      vertex 10.25 2.30144 5.375
      vertex 13.25 2.30144 5.375
    endloop
  endfacet
  facet normal 0 0.951059 -0.30901
    outer loop
      vertex 10.25 2.30144 5.375
      vertex 13.25 2.01233 4.48519
      vertex 10.25 2.01233 4.48519
    endloop
  endfacet
  facet normal 0 -0.587789 0.809014
    outer loop
      vertex 0 5.92208 2.74446
      vertex 3 5.16516 2.19452
      vertex 3 5.92208 2.74446
    endloop
  endfacet
  facet normal 0 -0.587789 0.809014
    outer loop
      vertex 3 5.16516 2.19452
      vertex 0 5.92208 2.74446
      vertex 0 5.16516 2.19452
    endloop
  endfacet
  facet normal 0 -0.587789 0.809014
    outer loop
      vertex 10.25 5.92208 2.74446
      vertex 13.25 5.16516 2.19452
      vertex 13.25 5.92208 2.74446
    endloop
  endfacet
  facet normal 0 -0.587789 0.809014
    outer loop
      vertex 13.25 5.16516 2.19452
      vertex 10.25 5.92208 2.74446
      vertex 10.25 5.16516 2.19452
    endloop
  endfacet
  facet normal -0 0.587789 0.809014
    outer loop
      vertex 0 3.33484 2.19452
      vertex 3 2.57792 2.74446
      vertex 3 3.33484 2.19452
    endloop
  endfacet
  facet normal 0 0.587789 0.809014
    outer loop
      vertex 3 2.57792 2.74446
      vertex 0 3.33484 2.19452
      vertex 0 2.57792 2.74446
    endloop
  endfacet
  facet normal -0 0.587789 0.809014
    outer loop
      vertex 10.25 3.33484 2.19452
      vertex 13.25 2.57792 2.74446
      vertex 13.25 3.33484 2.19452
    endloop
  endfacet
  facet normal 0 0.587789 0.809014
    outer loop
      vertex 13.25 2.57792 2.74446
      vertex 10.25 3.33484 2.19452
      vertex 10.25 2.57792 2.74446
    endloop
  endfacet
  facet normal 0 -0.406731 -0.913548
    outer loop
      vertex 0 4.7178 6.45083
      vertex 3 5.57252 6.07029
      vertex 3 4.7178 6.45083
    endloop
  endfacet
  facet normal -0 -0.406731 -0.913548
    outer loop
      vertex 3 5.57252 6.07029
      vertex 0 4.7178 6.45083
      vertex 0 5.57252 6.07029
    endloop
  endfacet
  facet normal 0 -0.406731 -0.913548
    outer loop
      vertex 10.25 4.7178 6.45083
      vertex 13.25 5.57252 6.07029
      vertex 13.25 4.7178 6.45083
    endloop
  endfacet
  facet normal -0 -0.406731 -0.913548
    outer loop
      vertex 13.25 5.57252 6.07029
      vertex 10.25 4.7178 6.45083
      vertex 10.25 5.57252 6.07029
    endloop
  endfacet
  facet normal 0 -0.994523 0.104521
    outer loop
      vertex 0 6.38988 3.55471
      vertex 3 6.48767 4.48519
      vertex 0 6.48767 4.48519
    endloop
  endfacet
  facet normal 0 -0.994523 0.104521
    outer loop
      vertex 3 6.48767 4.48519
      vertex 0 6.38988 3.55471
      vertex 3 6.38988 3.55471
    endloop
  endfacet
  facet normal 0 -0.994523 0.104521
    outer loop
      vertex 10.25 6.38988 3.55471
      vertex 13.25 6.48767 4.48519
      vertex 10.25 6.48767 4.48519
    endloop
  endfacet
  facet normal 0 -0.994523 0.104521
    outer loop
      vertex 13.25 6.48767 4.48519
      vertex 10.25 6.38988 3.55471
      vertex 13.25 6.38988 3.55471
    endloop
  endfacet
  facet normal 0 0.743146 -0.669129
    outer loop
      vertex 3 2.30144 5.375
      vertex 0 2.92748 6.07029
      vertex 3 2.92748 6.07029
    endloop
  endfacet
  facet normal 0 0.743146 -0.669129
    outer loop
      vertex 0 2.92748 6.07029
      vertex 3 2.30144 5.375
      vertex 0 2.30144 5.375
    endloop
  endfacet
  facet normal 0 0.743146 -0.669129
    outer loop
      vertex 13.25 2.30144 5.375
      vertex 10.25 2.92748 6.07029
      vertex 13.25 2.92748 6.07029
    endloop
  endfacet
  facet normal 0 0.743146 -0.669129
    outer loop
      vertex 10.25 2.92748 6.07029
      vertex 13.25 2.30144 5.375
      vertex 10.25 2.30144 5.375
    endloop
  endfacet
  facet normal 0 0.406731 -0.913548
    outer loop
      vertex 0 2.92748 6.07029
      vertex 3 3.7822 6.45083
      vertex 3 2.92748 6.07029
    endloop
  endfacet
  facet normal 0 0.406731 -0.913548
    outer loop
      vertex 3 3.7822 6.45083
      vertex 0 2.92748 6.07029
      vertex 0 3.7822 6.45083
    endloop
  endfacet
  facet normal 0 0.406731 -0.913548
    outer loop
      vertex 10.25 2.92748 6.07029
      vertex 13.25 3.7822 6.45083
      vertex 13.25 2.92748 6.07029
    endloop
  endfacet
  facet normal 0 0.406731 -0.913548
    outer loop
      vertex 13.25 3.7822 6.45083
      vertex 10.25 2.92748 6.07029
      vertex 10.25 3.7822 6.45083
    endloop
  endfacet
  facet normal 0 -0.866011 0.500025
    outer loop
      vertex 0 5.92208 13.2445
      vertex 3 6.38988 14.0547
      vertex 0 6.38988 14.0547
    endloop
  endfacet
  facet normal 0 -0.866011 0.500025
    outer loop
      vertex 3 6.38988 14.0547
      vertex 0 5.92208 13.2445
      vertex 3 5.92208 13.2445
    endloop
  endfacet
  facet normal 0 -0.866011 0.500025
    outer loop
      vertex 10.25 5.92208 13.2445
      vertex 13.25 6.38988 14.0547
      vertex 10.25 6.38988 14.0547
    endloop
  endfacet
  facet normal 0 -0.866011 0.500025
    outer loop
      vertex 13.25 6.38988 14.0547
      vertex 10.25 5.92208 13.2445
      vertex 13.25 5.92208 13.2445
    endloop
  endfacet
  facet normal 0 0.866011 0.500025
    outer loop
      vertex 3 2.57792 13.2445
      vertex 0 2.11012 14.0547
      vertex 3 2.11012 14.0547
    endloop
  endfacet
  facet normal 0 0.866011 0.500025
    outer loop
      vertex 0 2.11012 14.0547
      vertex 3 2.57792 13.2445
      vertex 0 2.57792 13.2445
    endloop
  endfacet
  facet normal 0 0.866011 0.500025
    outer loop
      vertex 13.25 2.57792 13.2445
      vertex 10.25 2.11012 14.0547
      vertex 13.25 2.11012 14.0547
    endloop
  endfacet
  facet normal 0 0.866011 0.500025
    outer loop
      vertex 10.25 2.11012 14.0547
      vertex 13.25 2.57792 13.2445
      vertex 10.25 2.57792 13.2445
    endloop
  endfacet
  facet normal 0 0 -1
    outer loop
      vertex 0 3.7822 16.9508
      vertex 3 4.7178 16.9508
      vertex 3 3.7822 16.9508
    endloop
  endfacet
  facet normal -0 0 -1
    outer loop
      vertex 3 4.7178 16.9508
      vertex 0 3.7822 16.9508
      vertex 0 4.7178 16.9508
    endloop
  endfacet
  facet normal 0 0 -1
    outer loop
      vertex 10.25 3.7822 16.9508
      vertex 13.25 4.7178 16.9508
      vertex 13.25 3.7822 16.9508
    endloop
  endfacet
  facet normal -0 0 -1
    outer loop
      vertex 13.25 4.7178 16.9508
      vertex 10.25 3.7822 16.9508
      vertex 10.25 4.7178 16.9508
    endloop
  endfacet
  facet normal 0 -0.207888 0.978153
    outer loop
      vertex 0 5.16516 12.6945
      vertex 3 4.25 12.5
      vertex 3 5.16516 12.6945
    endloop
  endfacet
  facet normal 0 -0.207888 0.978153
    outer loop
      vertex 3 4.25 12.5
      vertex 0 5.16516 12.6945
      vertex 0 4.25 12.5
    endloop
  endfacet
  facet normal 0 -0.207888 0.978153
    outer loop
      vertex 10.25 5.16516 12.6945
      vertex 13.25 4.25 12.5
      vertex 13.25 5.16516 12.6945
    endloop
  endfacet
  facet normal 0 -0.207888 0.978153
    outer loop
      vertex 13.25 4.25 12.5
      vertex 10.25 5.16516 12.6945
      vertex 10.25 4.25 12.5
    endloop
  endfacet
  facet normal 0 0.994523 0.104518
    outer loop
      vertex 3 2.11012 14.0547
      vertex 0 2.01233 14.9852
      vertex 3 2.01233 14.9852
    endloop
  endfacet
  facet normal 0 0.994523 0.104518
    outer loop
      vertex 0 2.01233 14.9852
      vertex 3 2.11012 14.0547
      vertex 0 2.11012 14.0547
    endloop
  endfacet
  facet normal 0 0.994523 0.104518
    outer loop
      vertex 13.25 2.11012 14.0547
      vertex 10.25 2.01233 14.9852
      vertex 13.25 2.01233 14.9852
    endloop
  endfacet
  facet normal 0 0.994523 0.104518
    outer loop
      vertex 10.25 2.01233 14.9852
      vertex 13.25 2.11012 14.0547
      vertex 10.25 2.11012 14.0547
    endloop
  endfacet
  facet normal 0 -0.743151 -0.669124
    outer loop
      vertex 0 6.19856 15.875
      vertex 3 5.57252 16.5703
      vertex 0 5.57252 16.5703
    endloop
  endfacet
  facet normal 0 -0.743151 -0.669124
    outer loop
      vertex 3 5.57252 16.5703
      vertex 0 6.19856 15.875
      vertex 3 6.19856 15.875
    endloop
  endfacet
  facet normal 0 -0.743151 -0.669124
    outer loop
      vertex 10.25 6.19856 15.875
      vertex 13.25 5.57252 16.5703
      vertex 10.25 5.57252 16.5703
    endloop
  endfacet
  facet normal 0 -0.743151 -0.669124
    outer loop
      vertex 13.25 5.57252 16.5703
      vertex 10.25 6.19856 15.875
      vertex 13.25 6.19856 15.875
    endloop
  endfacet
  facet normal -0 0.207888 0.978153
    outer loop
      vertex 0 4.25 12.5
      vertex 3 3.33484 12.6945
      vertex 3 4.25 12.5
    endloop
  endfacet
  facet normal 0 0.207888 0.978153
    outer loop
      vertex 3 3.33484 12.6945
      vertex 0 4.25 12.5
      vertex 0 3.33484 12.6945
    endloop
  endfacet
  facet normal -0 0.207888 0.978153
    outer loop
      vertex 10.25 4.25 12.5
      vertex 13.25 3.33484 12.6945
      vertex 13.25 4.25 12.5
    endloop
  endfacet
  facet normal 0 0.207888 0.978153
    outer loop
      vertex 13.25 3.33484 12.6945
      vertex 10.25 4.25 12.5
      vertex 10.25 3.33484 12.6945
    endloop
  endfacet
  facet normal 0 -0.951058 -0.309014
    outer loop
      vertex 0 6.48767 14.9852
      vertex 3 6.19856 15.875
      vertex 0 6.19856 15.875
    endloop
  endfacet
  facet normal 0 -0.951058 -0.309014
    outer loop
      vertex 3 6.19856 15.875
      vertex 0 6.48767 14.9852
      vertex 3 6.48767 14.9852
    endloop
  endfacet
  facet normal 0 -0.951058 -0.309014
    outer loop
      vertex 10.25 6.48767 14.9852
      vertex 13.25 6.19856 15.875
      vertex 10.25 6.19856 15.875
    endloop
  endfacet
  facet normal 0 -0.951058 -0.309014
    outer loop
      vertex 13.25 6.19856 15.875
      vertex 10.25 6.48767 14.9852
      vertex 13.25 6.48767 14.9852
    endloop
  endfacet
  facet normal 0 0.951058 -0.309014
    outer loop
      vertex 3 2.01233 14.9852
      vertex 0 2.30144 15.875
      vertex 3 2.30144 15.875
    endloop
  endfacet
  facet normal 0 0.951058 -0.309014
    outer loop
      vertex 0 2.30144 15.875
      vertex 3 2.01233 14.9852
      vertex 0 2.01233 14.9852
    endloop
  endfacet
  facet normal 0 0.951058 -0.309014
    outer loop
      vertex 13.25 2.01233 14.9852
      vertex 10.25 2.30144 15.875
      vertex 13.25 2.30144 15.875
    endloop
  endfacet
  facet normal 0 0.951058 -0.309014
    outer loop
      vertex 10.25 2.30144 15.875
      vertex 13.25 2.01233 14.9852
      vertex 10.25 2.01233 14.9852
    endloop
  endfacet
  facet normal 0 -0.587831 0.808984
    outer loop
      vertex 0 5.92208 13.2445
      vertex 3 5.16516 12.6945
      vertex 3 5.92208 13.2445
    endloop
  endfacet
  facet normal 0 -0.587831 0.808984
    outer loop
      vertex 3 5.16516 12.6945
      vertex 0 5.92208 13.2445
      vertex 0 5.16516 12.6945
    endloop
  endfacet
  facet normal 0 -0.587831 0.808984
    outer loop
      vertex 10.25 5.92208 13.2445
      vertex 13.25 5.16516 12.6945
      vertex 13.25 5.92208 13.2445
    endloop
  endfacet
  facet normal 0 -0.587831 0.808984
    outer loop
      vertex 13.25 5.16516 12.6945
      vertex 10.25 5.92208 13.2445
      vertex 10.25 5.16516 12.6945
    endloop
  endfacet
  facet normal -0 0.587831 0.808984
    outer loop
      vertex 0 3.33484 12.6945
      vertex 3 2.57792 13.2445
      vertex 3 3.33484 12.6945
    endloop
  endfacet
  facet normal 0 0.587831 0.808984
    outer loop
      vertex 3 2.57792 13.2445
      vertex 0 3.33484 12.6945
      vertex 0 2.57792 13.2445
    endloop
  endfacet
  facet normal -0 0.587831 0.808984
    outer loop
      vertex 10.25 3.33484 12.6945
      vertex 13.25 2.57792 13.2445
      vertex 13.25 3.33484 12.6945
    endloop
  endfacet
  facet normal 0 0.587831 0.808984
    outer loop
      vertex 13.25 2.57792 13.2445
      vertex 10.25 3.33484 12.6945
      vertex 10.25 2.57792 13.2445
    endloop
  endfacet
  facet normal 0 -0.406696 -0.913564
    outer loop
      vertex 0 4.7178 16.9508
      vertex 3 5.57252 16.5703
      vertex 3 4.7178 16.9508
    endloop
  endfacet
  facet normal -0 -0.406696 -0.913564
    outer loop
      vertex 3 5.57252 16.5703
      vertex 0 4.7178 16.9508
      vertex 0 5.57252 16.5703
    endloop
  endfacet
  facet normal 0 -0.406696 -0.913564
    outer loop
      vertex 10.25 4.7178 16.9508
      vertex 13.25 5.57252 16.5703
      vertex 13.25 4.7178 16.9508
    endloop
  endfacet
  facet normal -0 -0.406696 -0.913564
    outer loop
      vertex 13.25 5.57252 16.5703
      vertex 10.25 4.7178 16.9508
      vertex 10.25 5.57252 16.5703
    endloop
  endfacet
  facet normal 0 -0.994523 0.104518
    outer loop
      vertex 0 6.38988 14.0547
      vertex 3 6.48767 14.9852
      vertex 0 6.48767 14.9852
    endloop
  endfacet
  facet normal 0 -0.994523 0.104518
    outer loop
      vertex 3 6.48767 14.9852
      vertex 0 6.38988 14.0547
      vertex 3 6.38988 14.0547
    endloop
  endfacet
  facet normal 0 -0.994523 0.104518
    outer loop
      vertex 10.25 6.38988 14.0547
      vertex 13.25 6.48767 14.9852
      vertex 10.25 6.48767 14.9852
    endloop
  endfacet
  facet normal 0 -0.994523 0.104518
    outer loop
      vertex 13.25 6.48767 14.9852
      vertex 10.25 6.38988 14.0547
      vertex 13.25 6.38988 14.0547
    endloop
  endfacet
  facet normal 0 0.406696 -0.913564
    outer loop
      vertex 0 2.92748 16.5703
      vertex 3 3.7822 16.9508
      vertex 3 2.92748 16.5703
    endloop
  endfacet
  facet normal 0 0.406696 -0.913564
    outer loop
      vertex 3 3.7822 16.9508
      vertex 0 2.92748 16.5703
      vertex 0 3.7822 16.9508
    endloop
  endfacet
  facet normal 0 0.406696 -0.913564
    outer loop
      vertex 10.25 2.92748 16.5703
      vertex 13.25 3.7822 16.9508
      vertex 13.25 2.92748 16.5703
    endloop
  endfacet
  facet normal 0 0.406696 -0.913564
    outer loop
      vertex 13.25 3.7822 16.9508
      vertex 10.25 2.92748 16.5703
      vertex 10.25 3.7822 16.9508
    endloop
  endfacet
  facet normal 0 0.743151 -0.669124
    outer loop
      vertex 3 2.30144 15.875
      vertex 0 2.92748 16.5703
      vertex 3 2.92748 16.5703
    endloop
  endfacet
  facet normal 0 0.743151 -0.669124
    outer loop
      vertex 0 2.92748 16.5703
      vertex 3 2.30144 15.875
      vertex 0 2.30144 15.875
    endloop
  endfacet
  facet normal 0 0.743151 -0.669124
    outer loop
      vertex 13.25 2.30144 15.875
      vertex 10.25 2.92748 16.5703
      vertex 13.25 2.92748 16.5703
    endloop
  endfacet
  facet normal 0 0.743151 -0.669124
    outer loop
      vertex 10.25 2.92748 16.5703
      vertex 13.25 2.30144 15.875
      vertex 10.25 2.30144 15.875
    endloop
  endfacet
  facet normal 0 -0.195136 0.980776
    outer loop
      vertex 25.1 110.021 13.9358
      vertex 27 109.059 13.7444
      vertex 27 110.021 13.9358
    endloop
  endfacet
  facet normal 0 -0.195136 0.980776
    outer loop
      vertex 27 109.059 13.7444
      vertex 25.1 110.021 13.9358
      vertex 25.1 109.059 13.7444
    endloop
  endfacet
  facet normal 0 -0.555476 0.831533
    outer loop
      vertex 25.1 107.25 12.9952
      vertex 27 106.434 12.4501
      vertex 27 107.25 12.9952
    endloop
  endfacet
  facet normal 0 -0.555476 0.831533
    outer loop
      vertex 27 106.434 12.4501
      vertex 25.1 107.25 12.9952
      vertex 25.1 106.434 12.4501
    endloop
  endfacet
  facet normal 0 -0.659616 0.751603
    outer loop
      vertex 25.1 106.434 12.4501
      vertex 27 105.697 11.8033
      vertex 27 106.434 12.4501
    endloop
  endfacet
  facet normal 0 -0.659616 0.751603
    outer loop
      vertex 27 105.697 11.8033
      vertex 25.1 106.434 12.4501
      vertex 25.1 105.697 11.8033
    endloop
  endfacet
  facet normal 0 -0.0654366 0.997857
    outer loop
      vertex 25.1 111 14
      vertex 27 110.021 13.9358
      vertex 27 111 14
    endloop
  endfacet
  facet normal 0 -0.0654366 0.997857
    outer loop
      vertex 27 110.021 13.9358
      vertex 25.1 111 14
      vertex 25.1 110.021 13.9358
    endloop
  endfacet
  facet normal 0 -0.321391 0.946947
    outer loop
      vertex 25.1 109.059 13.7444
      vertex 27 108.13 13.4291
      vertex 27 109.059 13.7444
    endloop
  endfacet
  facet normal 0 -0.321391 0.946947
    outer loop
      vertex 27 108.13 13.4291
      vertex 25.1 109.059 13.7444
      vertex 25.1 108.13 13.4291
    endloop
  endfacet
  facet normal 0 -0.442233 0.8969
    outer loop
      vertex 25.1 108.13 13.4291
      vertex 27 107.25 12.9952
      vertex 27 108.13 13.4291
    endloop
  endfacet
  facet normal 0 -0.442233 0.8969
    outer loop
      vertex 27 107.25 12.9952
      vertex 25.1 108.13 13.4291
      vertex 25.1 107.25 12.9952
    endloop
  endfacet
  facet normal -1 0 0
    outer loop
      vertex 25.1 118.5 0
      vertex 25.1 111 14
      vertex 25.1 118.5 14
    endloop
  endfacet
  facet normal -1 0 0
    outer loop
      vertex 25.1 103.5 7.5
      vertex 25.1 111 14
      vertex 25.1 118.5 0
    endloop
  endfacet
  facet normal -1 0 0
    outer loop
      vertex 25.1 111 14
      vertex 25.1 103.5 7.5
      vertex 25.1 110.021 13.9358
    endloop
  endfacet
  facet normal -1 0 0
    outer loop
      vertex 25.1 110.021 13.9358
      vertex 25.1 103.5 7.5
      vertex 25.1 109.059 13.7444
    endloop
  endfacet
  facet normal -1 0 0
    outer loop
      vertex 25.1 109.059 13.7444
      vertex 25.1 103.5 7.5
      vertex 25.1 108.13 13.4291
    endloop
  endfacet
  facet normal -1 0 0
    outer loop
      vertex 25.1 108.13 13.4291
      vertex 25.1 103.5 7.5
      vertex 25.1 107.25 12.9952
    endloop
  endfacet
  facet normal -1 0 0
    outer loop
      vertex 25.1 107.25 12.9952
      vertex 25.1 103.5 7.5
      vertex 25.1 106.434 12.4501
    endloop
  endfacet
  facet normal -1 0 0
    outer loop
      vertex 25.1 106.434 12.4501
      vertex 25.1 103.5 7.5
      vertex 25.1 105.697 11.8033
    endloop
  endfacet
  facet normal -1 0 0
    outer loop
      vertex 25.1 103.5 0
      vertex 25.1 103.5 7.5
      vertex 25.1 118.5 0
    endloop
  endfacet
  facet normal -1 0 0
    outer loop
      vertex 25.1 105.697 11.8033
      vertex 25.1 103.5 7.5
      vertex 25.1 103.5 9.60662
    endloop
  endfacet
  facet normal 1 -0 0
    outer loop
      vertex 27 111 14
      vertex 27 124.5 0
      vertex 27 124.5 14
    endloop
  endfacet
  facet normal 1 0 0
    outer loop
      vertex 27 103.5 7.5
      vertex 27 111 14
      vertex 27 110.021 13.9358
    endloop
  endfacet
  facet normal 1 0 0
    outer loop
      vertex 27 103.5 7.5
      vertex 27 110.021 13.9358
      vertex 27 109.059 13.7444
    endloop
  endfacet
  facet normal 1 0 0
    outer loop
      vertex 27 103.5 7.5
      vertex 27 109.059 13.7444
      vertex 27 108.13 13.4291
    endloop
  endfacet
  facet normal 1 0 0
    outer loop
      vertex 27 103.5 7.5
      vertex 27 108.13 13.4291
      vertex 27 107.25 12.9952
    endloop
  endfacet
  facet normal 1 0 0
    outer loop
      vertex 27 103.5 7.5
      vertex 27 107.25 12.9952
      vertex 27 106.434 12.4501
    endloop
  endfacet
  facet normal 1 0 0
    outer loop
      vertex 27 103.5 7.5
      vertex 27 106.434 12.4501
      vertex 27 105.697 11.8033
    endloop
  endfacet
  facet normal 1 0 0
    outer loop
      vertex 27 103.5 7.5
      vertex 27 105.697 11.8033
      vertex 27 103.5 9.60662
    endloop
  endfacet
  facet normal 1 0 0
    outer loop
      vertex 27 111 14
      vertex 27 103.5 7.5
      vertex 27 103.5 0
    endloop
  endfacet
  facet normal 1 0 0
    outer loop
      vertex 27 111 14
      vertex 27 103.5 0
      vertex 27 124.5 0
    endloop
  endfacet
  facet normal 0 -1 0
    outer loop
      vertex 4.9 118.5 0
      vertex 25.1 118.5 14
      vertex 4.9 118.5 14
    endloop
  endfacet
  facet normal 0 -1 -0
    outer loop
      vertex 25.1 118.5 14
      vertex 4.9 118.5 0
      vertex 25.1 118.5 0
    endloop
  endfacet
  facet normal 0 0 1
    outer loop
      vertex 27 124.5 14
      vertex 25.1 118.5 14
      vertex 27 111 14
    endloop
  endfacet
  facet normal 0 0 1
    outer loop
      vertex 27 124.5 14
      vertex 4.9 118.5 14
      vertex 25.1 118.5 14
    endloop
  endfacet
  facet normal 0 0 1
    outer loop
      vertex 4.9 118.5 14
      vertex 3 111 14
      vertex 4.9 111 14
    endloop
  endfacet
  facet normal -0 0 1
    outer loop
      vertex 0 124.5 14
      vertex 4.9 118.5 14
      vertex 27 124.5 14
    endloop
  endfacet
  facet normal 0 0 1
    outer loop
      vertex 0 124.5 14
      vertex 3 111 14
      vertex 4.9 118.5 14
    endloop
  endfacet
  facet normal 0 0 1
    outer loop
      vertex 0 103.148 14
      vertex 3 111 14
      vertex 0 124.5 14
    endloop
  endfacet
  facet normal 0 0 1
    outer loop
      vertex 3 111 14
      vertex 0 103.148 14
      vertex 3 103.148 14
    endloop
  endfacet
  facet normal 0 0 1
    outer loop
      vertex 27 111 14
      vertex 25.1 118.5 14
      vertex 25.1 111 14
    endloop
  endfacet
  facet normal 0 -0.707055 0.707158
    outer loop
      vertex 25.1 103.5 9.60662
      vertex 27 105.697 11.8033
      vertex 25.1 105.697 11.8033
    endloop
  endfacet
  facet normal 0 -0.707055 0.707158
    outer loop
      vertex 27 105.697 11.8033
      vertex 25.1 103.5 9.60662
      vertex 27 103.5 9.60662
    endloop
  endfacet
  facet normal 0 -1 0
    outer loop
      vertex 25.1 103.5 7.5
      vertex 27 103.5 9.60662
      vertex 25.1 103.5 9.60662
    endloop
  endfacet
  facet normal 0 -1 -0
    outer loop
      vertex 27 103.5 9.60662
      vertex 25.1 103.5 7.5
      vertex 27 103.5 7.5
    endloop
  endfacet
  facet normal 0 -0.909638 -0.415402
    outer loop
      vertex 24.1 108.14 5.86182
      vertex 25.1 107.738 6.74211
      vertex 24.1 107.738 6.74211
    endloop
  endfacet
  facet normal 0 -0.909638 -0.415402
    outer loop
      vertex 25.1 107.738 6.74211
      vertex 24.1 108.14 5.86182
      vertex 25.1 108.14 5.86182
    endloop
  endfacet
  facet normal -0 0 1
    outer loop
      vertex 24.1 111.484 11.0654
      vertex 25.1 110.516 11.0654
      vertex 25.1 111.484 11.0654
    endloop
  endfacet
  facet normal 0 0 1
    outer loop
      vertex 25.1 110.516 11.0654
      vertex 24.1 111.484 11.0654
      vertex 24.1 110.516 11.0654
    endloop
  endfacet
  facet normal 0 0.989676 -0.143324
    outer loop
      vertex 25.1 114.262 6.74211
      vertex 25.0037 114.262 6.74211
      vertex 25.1 114.359 7.41191
    endloop
  endfacet
  facet normal 0 -0.540225 -0.84152
    outer loop
      vertex 24.1 108.773 5.13045
      vertex 25.1 109.588 4.60725
      vertex 25.1 108.773 5.13045
    endloop
  endfacet
  facet normal -0 -0.540225 -0.84152
    outer loop
      vertex 25.1 109.588 4.60725
      vertex 24.1 108.773 5.13045
      vertex 24.1 109.588 4.60725
    endloop
  endfacet
  facet normal 0 0.909638 -0.415402
    outer loop
      vertex 25.1 113.86 5.86182
      vertex 25.0037 114.262 6.74211
      vertex 25.1 114.262 6.74211
    endloop
  endfacet
  facet normal 0 0.909638 -0.415402
    outer loop
      vertex 25.0037 114.262 6.74211
      vertex 25.1 113.86 5.86182
      vertex 24.6017 113.86 5.86182
    endloop
  endfacet
  facet normal 0 -0.989781 0.142594
    outer loop
      vertex 24.1 107.6 7.7
      vertex 25.1 107.738 8.65789
      vertex 24.1 107.738 8.65789
    endloop
  endfacet
  facet normal 0 -0.989781 0.142594
    outer loop
      vertex 25.1 107.738 8.65789
      vertex 24.1 107.6 7.7
      vertex 25.1 107.6 7.7
    endloop
  endfacet
  facet normal -0 0.281937 0.959433
    outer loop
      vertex 24.1 112.412 10.7927
      vertex 25.1 111.484 11.0654
      vertex 25.1 112.412 10.7927
    endloop
  endfacet
  facet normal 0 0.281937 0.959433
    outer loop
      vertex 25.1 111.484 11.0654
      vertex 24.1 112.412 10.7927
      vertex 24.1 111.484 11.0654
    endloop
  endfacet
  facet normal 0 -0.909638 0.415402
    outer loop
      vertex 24.1 107.738 8.65789
      vertex 25.1 108.14 9.53818
      vertex 24.1 108.14 9.53818
    endloop
  endfacet
  facet normal 0 -0.909638 0.415402
    outer loop
      vertex 25.1 108.14 9.53818
      vertex 24.1 107.738 8.65789
      vertex 25.1 107.738 8.65789
    endloop
  endfacet
  facet normal 0 -0.989781 -0.142594
    outer loop
      vertex 24.1 107.738 6.74211
      vertex 25.1 107.6 7.7
      vertex 24.1 107.6 7.7
    endloop
  endfacet
  facet normal 0 -0.989781 -0.142594
    outer loop
      vertex 25.1 107.6 7.7
      vertex 24.1 107.738 6.74211
      vertex 25.1 107.738 6.74211
    endloop
  endfacet
  facet normal -0 0.909638 0.415402
    outer loop
      vertex 25.0037 114.262 8.65789
      vertex 25.1 113.86 9.53818
      vertex 25.1 114.262 8.65789
    endloop
  endfacet
  facet normal 0 0.909638 0.415402
    outer loop
      vertex 25.1 113.86 9.53818
      vertex 25.0037 114.262 8.65789
      vertex 24.6017 113.86 9.53818
    endloop
  endfacet
  facet normal 0 0.755673 0.654949
    outer loop
      vertex 25.1 113.227 10.2695
      vertex 24.1 113.359 10.1172
      vertex 24.1 113.227 10.2695
    endloop
  endfacet
  facet normal -0 0.756104 0.654452
    outer loop
      vertex 24.6017 113.86 9.53818
      vertex 25.1 113.227 10.2695
      vertex 25.1 113.86 9.53818
    endloop
  endfacet
  facet normal 0.000148063 0.756154 0.654394
    outer loop
      vertex 25.1 113.227 10.2695
      vertex 24.6017 113.86 9.53818
      vertex 24.1 113.359 10.1172
    endloop
  endfacet
  facet normal 0 -0.756104 0.654452
    outer loop
      vertex 24.1 108.14 9.53818
      vertex 25.1 108.773 10.2695
      vertex 24.1 108.773 10.2695
    endloop
  endfacet
  facet normal 0 -0.756104 0.654452
    outer loop
      vertex 25.1 108.773 10.2695
      vertex 24.1 108.14 9.53818
      vertex 25.1 108.14 9.53818
    endloop
  endfacet
  facet normal 0 0.28188 -0.95945
    outer loop
      vertex 24.1 111.484 4.33461
      vertex 25.1 112.412 4.60725
      vertex 25.1 111.484 4.33461
    endloop
  endfacet
  facet normal 0 0.28188 -0.95945
    outer loop
      vertex 25.1 112.412 4.60725
      vertex 24.1 111.484 4.33461
      vertex 24.1 112.412 4.60725
    endloop
  endfacet
  facet normal 0 -0.28188 -0.95945
    outer loop
      vertex 24.1 109.588 4.60725
      vertex 25.1 110.516 4.33461
      vertex 25.1 109.588 4.60725
    endloop
  endfacet
  facet normal -0 -0.28188 -0.95945
    outer loop
      vertex 25.1 110.516 4.33461
      vertex 24.1 109.588 4.60725
      vertex 24.1 110.516 4.33461
    endloop
  endfacet
  facet normal 0 0 -1
    outer loop
      vertex 24.1 110.516 4.33461
      vertex 25.1 111.484 4.33461
      vertex 25.1 110.516 4.33461
    endloop
  endfacet
  facet normal -0 0 -1
    outer loop
      vertex 25.1 111.484 4.33461
      vertex 24.1 110.516 4.33461
      vertex 24.1 111.484 4.33461
    endloop
  endfacet
  facet normal 0 0.540225 -0.84152
    outer loop
      vertex 24.1 112.412 4.60725
      vertex 25.1 113.227 5.13045
      vertex 25.1 112.412 4.60725
    endloop
  endfacet
  facet normal 0 0.540225 -0.84152
    outer loop
      vertex 25.1 113.227 5.13045
      vertex 24.1 112.412 4.60725
      vertex 24.1 113.227 5.13045
    endloop
  endfacet
  facet normal 0 -0.281937 0.959433
    outer loop
      vertex 24.1 110.516 11.0654
      vertex 25.1 109.588 10.7927
      vertex 25.1 110.516 11.0654
    endloop
  endfacet
  facet normal 0 -0.281937 0.959433
    outer loop
      vertex 25.1 109.588 10.7927
      vertex 24.1 110.516 11.0654
      vertex 24.1 109.588 10.7927
    endloop
  endfacet
  facet normal -0 0.540225 0.84152
    outer loop
      vertex 24.1 113.227 10.2695
      vertex 25.1 112.412 10.7927
      vertex 25.1 113.227 10.2695
    endloop
  endfacet
  facet normal 0 0.540225 0.84152
    outer loop
      vertex 25.1 112.412 10.7927
      vertex 24.1 113.227 10.2695
      vertex 24.1 112.412 10.7927
    endloop
  endfacet
  facet normal 0 0.756126 -0.654426
    outer loop
      vertex 25.1 113.227 5.13045
      vertex 24.6017 113.86 5.86182
      vertex 25.1 113.86 5.86182
    endloop
  endfacet
  facet normal 8.26495e-05 0.756154 -0.654394
    outer loop
      vertex 24.6017 113.86 5.86182
      vertex 25.1 113.227 5.13045
      vertex 24.1 113.359 5.28285
    endloop
  endfacet
  facet normal 0 0.755885 -0.654704
    outer loop
      vertex 24.1 113.359 5.28285
      vertex 25.1 113.227 5.13045
      vertex 24.1 113.227 5.13045
    endloop
  endfacet
  facet normal 0 -0.756126 -0.654426
    outer loop
      vertex 24.1 108.773 5.13045
      vertex 25.1 108.14 5.86182
      vertex 24.1 108.14 5.86182
    endloop
  endfacet
  facet normal 0 -0.756126 -0.654426
    outer loop
      vertex 25.1 108.14 5.86182
      vertex 24.1 108.773 5.13045
      vertex 25.1 108.773 5.13045
    endloop
  endfacet
  facet normal 0 0.989676 0.143324
    outer loop
      vertex 25.1 114.359 7.98809
      vertex 25.0037 114.262 8.65789
      vertex 25.1 114.262 8.65789
    endloop
  endfacet
  facet normal 1 0 0
    outer loop
      vertex 25.1 113.86 9.53818
      vertex 25.1 114.359 7.98809
      vertex 25.1 114.262 8.65789
    endloop
  endfacet
  facet normal 1 0 0
    outer loop
      vertex 25.1 113.227 10.2695
      vertex 25.1 114.359 7.98809
      vertex 25.1 113.86 9.53818
    endloop
  endfacet
  facet normal 1 0 0
    outer loop
      vertex 25.1 112.412 10.7927
      vertex 25.1 114.359 7.98809
      vertex 25.1 113.227 10.2695
    endloop
  endfacet
  facet normal 1 0 0
    outer loop
      vertex 25.1 114.359 7.41191
      vertex 25.1 113.86 5.86182
      vertex 25.1 114.262 6.74211
    endloop
  endfacet
  facet normal 1 0 0
    outer loop
      vertex 25.1 111.484 11.0654
      vertex 25.1 114.359 7.98809
      vertex 25.1 112.412 10.7927
    endloop
  endfacet
  facet normal 1 0 0
    outer loop
      vertex 25.1 114.359 7.41191
      vertex 25.1 113.227 5.13045
      vertex 25.1 113.86 5.86182
    endloop
  endfacet
  facet normal 1 0 0
    outer loop
      vertex 25.1 114.359 7.98809
      vertex 25.1 111.484 11.0654
      vertex 25.1 114.359 7.41191
    endloop
  endfacet
  facet normal 1 0 0
    outer loop
      vertex 25.1 114.359 7.41191
      vertex 25.1 112.412 4.60725
      vertex 25.1 113.227 5.13045
    endloop
  endfacet
  facet normal 1 0 0
    outer loop
      vertex 25.1 111.484 4.33461
      vertex 25.1 114.359 7.41191
      vertex 25.1 111.484 11.0654
    endloop
  endfacet
  facet normal 1 0 0
    outer loop
      vertex 25.1 114.359 7.41191
      vertex 25.1 111.484 4.33461
      vertex 25.1 112.412 4.60725
    endloop
  endfacet
  facet normal 1 -0 0
    outer loop
      vertex 25.1 110.516 11.0654
      vertex 25.1 111.484 4.33461
      vertex 25.1 111.484 11.0654
    endloop
  endfacet
  facet normal 1 0 0
    outer loop
      vertex 25.1 110.516 11.0654
      vertex 25.1 110.516 4.33461
      vertex 25.1 111.484 4.33461
    endloop
  endfacet
  facet normal 1 -0 0
    outer loop
      vertex 25.1 109.588 10.7927
      vertex 25.1 110.516 4.33461
      vertex 25.1 110.516 11.0654
    endloop
  endfacet
  facet normal 1 0 0
    outer loop
      vertex 25.1 109.588 10.7927
      vertex 25.1 109.588 4.60725
      vertex 25.1 110.516 4.33461
    endloop
  endfacet
  facet normal 1 -0 0
    outer loop
      vertex 25.1 108.773 10.2695
      vertex 25.1 109.588 4.60725
      vertex 25.1 109.588 10.7927
    endloop
  endfacet
  facet normal 1 0 0
    outer loop
      vertex 25.1 108.773 10.2695
      vertex 25.1 108.773 5.13045
      vertex 25.1 109.588 4.60725
    endloop
  endfacet
  facet normal 1 -0 0
    outer loop
      vertex 25.1 108.14 9.53818
      vertex 25.1 108.773 5.13045
      vertex 25.1 108.773 10.2695
    endloop
  endfacet
  facet normal 1 0 0
    outer loop
      vertex 25.1 108.14 9.53818
      vertex 25.1 108.14 5.86182
      vertex 25.1 108.773 5.13045
    endloop
  endfacet
  facet normal 1 -0 0
    outer loop
      vertex 25.1 107.738 8.65789
      vertex 25.1 108.14 5.86182
      vertex 25.1 108.14 9.53818
    endloop
  endfacet
  facet normal 1 0 0
    outer loop
      vertex 25.1 107.738 8.65789
      vertex 25.1 107.738 6.74211
      vertex 25.1 108.14 5.86182
    endloop
  endfacet
  facet normal 1 0 -0
    outer loop
      vertex 25.1 107.738 6.74211
      vertex 25.1 107.738 8.65789
      vertex 25.1 107.6 7.7
    endloop
  endfacet
  facet normal 0 -0.540225 0.84152
    outer loop
      vertex 24.1 109.588 10.7927
      vertex 25.1 108.773 10.2695
      vertex 25.1 109.588 10.7927
    endloop
  endfacet
  facet normal 0 -0.540225 0.84152
    outer loop
      vertex 25.1 108.773 10.2695
      vertex 24.1 109.588 10.7927
      vertex 24.1 108.773 10.2695
    endloop
  endfacet
  facet normal -1 0 0
    outer loop
      vertex 24.1 112.412 4.60725
      vertex 24.1 113.359 5.28285
      vertex 24.1 113.227 5.13045
    endloop
  endfacet
  facet normal -1 0 0
    outer loop
      vertex 24.1 111.484 4.33461
      vertex 24.1 113.359 5.28285
      vertex 24.1 112.412 4.60725
    endloop
  endfacet
  facet normal -1 0 0
    outer loop
      vertex 24.1 110.516 4.33461
      vertex 24.1 113.359 5.28285
      vertex 24.1 111.484 4.33461
    endloop
  endfacet
  facet normal -1 0 0
    outer loop
      vertex 24.1 113.359 10.1172
      vertex 24.1 112.412 10.7927
      vertex 24.1 113.227 10.2695
    endloop
  endfacet
  facet normal -1 -0 0
    outer loop
      vertex 24.1 113.359 5.28285
      vertex 24.1 110.516 4.33461
      vertex 24.1 113.359 10.1172
    endloop
  endfacet
  facet normal -1 0 0
    outer loop
      vertex 24.1 113.359 10.1172
      vertex 24.1 111.484 11.0654
      vertex 24.1 112.412 10.7927
    endloop
  endfacet
  facet normal -1 0 0
    outer loop
      vertex 24.1 110.516 11.0654
      vertex 24.1 113.359 10.1172
      vertex 24.1 110.516 4.33461
    endloop
  endfacet
  facet normal -1 0 0
    outer loop
      vertex 24.1 113.359 10.1172
      vertex 24.1 110.516 11.0654
      vertex 24.1 111.484 11.0654
    endloop
  endfacet
  facet normal -1 0 0
    outer loop
      vertex 24.1 109.588 4.60725
      vertex 24.1 110.516 11.0654
      vertex 24.1 110.516 4.33461
    endloop
  endfacet
  facet normal -1 0 0
    outer loop
      vertex 24.1 109.588 4.60725
      vertex 24.1 109.588 10.7927
      vertex 24.1 110.516 11.0654
    endloop
  endfacet
  facet normal -1 0 0
    outer loop
      vertex 24.1 108.773 5.13045
      vertex 24.1 109.588 10.7927
      vertex 24.1 109.588 4.60725
    endloop
  endfacet
  facet normal -1 0 0
    outer loop
      vertex 24.1 108.773 5.13045
      vertex 24.1 108.773 10.2695
      vertex 24.1 109.588 10.7927
    endloop
  endfacet
  facet normal -1 0 0
    outer loop
      vertex 24.1 108.14 5.86182
      vertex 24.1 108.773 10.2695
      vertex 24.1 108.773 5.13045
    endloop
  endfacet
  facet normal -1 0 0
    outer loop
      vertex 24.1 108.14 5.86182
      vertex 24.1 108.14 9.53818
      vertex 24.1 108.773 10.2695
    endloop
  endfacet
  facet normal -1 0 0
    outer loop
      vertex 24.1 107.738 6.74211
      vertex 24.1 108.14 9.53818
      vertex 24.1 108.14 5.86182
    endloop
  endfacet
  facet normal -1 0 0
    outer loop
      vertex 24.1 107.738 6.74211
      vertex 24.1 107.738 8.65789
      vertex 24.1 108.14 9.53818
    endloop
  endfacet
  facet normal -1 0 -0
    outer loop
      vertex 24.1 107.738 8.65789
      vertex 24.1 107.738 6.74211
      vertex 24.1 107.6 7.7
    endloop
  endfacet
  facet normal -0.705923 0.708288 -0.00108036
    outer loop
      vertex 24.6017 113.86 5.86182
      vertex 25.1 114.359 7.41191
      vertex 25.0037 114.262 6.74211
    endloop
  endfacet
  facet normal -0.707107 0.707107 0
    outer loop
      vertex 25.1 114.359 7.41191
      vertex 24.1 113.359 5.28285
      vertex 25.1 114.359 7.98809
    endloop
  endfacet
  facet normal -0.706027 0.708184 -0.00101339
    outer loop
      vertex 25.1 114.359 7.41191
      vertex 24.6017 113.86 5.86182
      vertex 24.1 113.359 5.28285
    endloop
  endfacet
  facet normal -0.707107 0.707107 0
    outer loop
      vertex 24.1 113.359 10.1172
      vertex 25.1 114.359 7.98809
      vertex 24.1 113.359 5.28285
    endloop
  endfacet
  facet normal -0.706027 0.708184 0.00101344
    outer loop
      vertex 24.6017 113.86 9.53818
      vertex 25.1 114.359 7.98809
      vertex 24.1 113.359 10.1172
    endloop
  endfacet
  facet normal -0.705923 0.708288 0.00108036
    outer loop
      vertex 25.1 114.359 7.98809
      vertex 24.6017 113.86 9.53818
      vertex 25.0037 114.262 8.65789
    endloop
  endfacet
  facet normal 0 -1 0
    outer loop
      vertex 25.1 103.5 0
      vertex 27 103.5 7.5
      vertex 25.1 103.5 7.5
    endloop
  endfacet
  facet normal 0 -1 -0
    outer loop
      vertex 27 103.5 7.5
      vertex 25.1 103.5 0
      vertex 27 103.5 0
    endloop
  endfacet
  facet normal 0 -0.195136 0.980776
    outer loop
      vertex 3 110.021 13.9358
      vertex 4.9 109.059 13.7444
      vertex 4.9 110.021 13.9358
    endloop
  endfacet
  facet normal 0 -0.195136 0.980776
    outer loop
      vertex 4.9 109.059 13.7444
      vertex 3 110.021 13.9358
      vertex 3 109.059 13.7444
    endloop
  endfacet
  facet normal 0 -0.555476 0.831533
    outer loop
      vertex 3 107.25 12.9952
      vertex 4.9 106.434 12.4501
      vertex 4.9 107.25 12.9952
    endloop
  endfacet
  facet normal 0 -0.555476 0.831533
    outer loop
      vertex 4.9 106.434 12.4501
      vertex 3 107.25 12.9952
      vertex 3 106.434 12.4501
    endloop
  endfacet
  facet normal 0 -0.659616 0.751603
    outer loop
      vertex 3 106.434 12.4501
      vertex 4.9 105.697 11.8033
      vertex 4.9 106.434 12.4501
    endloop
  endfacet
  facet normal 0 -0.659616 0.751603
    outer loop
      vertex 4.9 105.697 11.8033
      vertex 3 106.434 12.4501
      vertex 3 105.697 11.8033
    endloop
  endfacet
  facet normal 0 -0.0654366 0.997857
    outer loop
      vertex 3 111 14
      vertex 4.9 110.021 13.9358
      vertex 4.9 111 14
    endloop
  endfacet
  facet normal 0 -0.0654366 0.997857
    outer loop
      vertex 4.9 110.021 13.9358
      vertex 3 111 14
      vertex 3 110.021 13.9358
    endloop
  endfacet
  facet normal 0 -0.321391 0.946947
    outer loop
      vertex 3 109.059 13.7444
      vertex 4.9 108.13 13.4291
      vertex 4.9 109.059 13.7444
    endloop
  endfacet
  facet normal 0 -0.321391 0.946947
    outer loop
      vertex 4.9 108.13 13.4291
      vertex 3 109.059 13.7444
      vertex 3 108.13 13.4291
    endloop
  endfacet
  facet normal 0 -0.442233 0.8969
    outer loop
      vertex 3 108.13 13.4291
      vertex 4.9 107.25 12.9952
      vertex 4.9 108.13 13.4291
    endloop
  endfacet
  facet normal 0 -0.442233 0.8969
    outer loop
      vertex 4.9 107.25 12.9952
      vertex 3 108.13 13.4291
      vertex 3 107.25 12.9952
    endloop
  endfacet
  facet normal 1 -0 0
    outer loop
      vertex 4.9 111 14
      vertex 4.9 118.5 0
      vertex 4.9 118.5 14
    endloop
  endfacet
  facet normal 1 0 0
    outer loop
      vertex 4.9 103.5 7.5
      vertex 4.9 111 14
      vertex 4.9 110.021 13.9358
    endloop
  endfacet
  facet normal 1 0 0
    outer loop
      vertex 4.9 103.5 7.5
      vertex 4.9 110.021 13.9358
      vertex 4.9 109.059 13.7444
    endloop
  endfacet
  facet normal 1 0 0
    outer loop
      vertex 4.9 103.5 7.5
      vertex 4.9 109.059 13.7444
      vertex 4.9 108.13 13.4291
    endloop
  endfacet
  facet normal 1 0 0
    outer loop
      vertex 4.9 103.5 7.5
      vertex 4.9 108.13 13.4291
      vertex 4.9 107.25 12.9952
    endloop
  endfacet
  facet normal 1 0 0
    outer loop
      vertex 4.9 103.5 7.5
      vertex 4.9 107.25 12.9952
      vertex 4.9 106.434 12.4501
    endloop
  endfacet
  facet normal 1 0 0
    outer loop
      vertex 4.9 103.5 7.5
      vertex 4.9 106.434 12.4501
      vertex 4.9 105.697 11.8033
    endloop
  endfacet
  facet normal 1 0 0
    outer loop
      vertex 4.9 103.5 7.5
      vertex 4.9 105.697 11.8033
      vertex 4.9 103.5 9.60662
    endloop
  endfacet
  facet normal 1 0 0
    outer loop
      vertex 4.9 111 14
      vertex 4.9 103.5 7.5
      vertex 4.9 118.5 0
    endloop
  endfacet
  facet normal 1 0 0
    outer loop
      vertex 4.9 103.5 7.5
      vertex 4.9 103.5 0
      vertex 4.9 118.5 0
    endloop
  endfacet
  facet normal 0 0 0
    outer loop
      vertex 3 103.148 14
      vertex 3 97.5 14
      vertex 3 100.5 14
    endloop
  endfacet
  facet normal 1 0 0
    outer loop
      vertex 3 32.5 18.9402
      vertex 3 97.5 14
      vertex 3 103.148 14
    endloop
  endfacet
  facet normal 1 0 0
    outer loop
      vertex 3 32.5 0
      vertex 3 97.5 14
      vertex 3 32.5 18.9402
    endloop
  endfacet
  facet normal 1 0 0
    outer loop
      vertex 3 97.5 14
      vertex 3 32.5 0
      vertex 3 97.5 0
    endloop
  endfacet
  facet normal 1 -0 0
    outer loop
      vertex 3 103.148 14
      vertex 3 110.021 13.9358
      vertex 3 111 14
    endloop
  endfacet
  facet normal 1 0 0
    outer loop
      vertex 3 103.148 14
      vertex 3 109.059 13.7444
      vertex 3 110.021 13.9358
    endloop
  endfacet
  facet normal 1 0 0
    outer loop
      vertex 3 103.148 14
      vertex 3 108.13 13.4291
      vertex 3 109.059 13.7444
    endloop
  endfacet
  facet normal 1 0 0
    outer loop
      vertex 3 103.148 14
      vertex 3 107.25 12.9952
      vertex 3 108.13 13.4291
    endloop
  endfacet
  facet normal 1 0 0
    outer loop
      vertex 3 103.148 14
      vertex 3 106.434 12.4501
      vertex 3 107.25 12.9952
    endloop
  endfacet
  facet normal 1 0 0
    outer loop
      vertex 3 103.148 14
      vertex 3 105.697 11.8033
      vertex 3 106.434 12.4501
    endloop
  endfacet
  facet normal 1 0 0
    outer loop
      vertex 3 103.148 14
      vertex 3 103.5 9.60662
      vertex 3 105.697 11.8033
    endloop
  endfacet
  facet normal 1 -0 0
    outer loop
      vertex 3 100.5 14
      vertex 3 103.5 9.60662
      vertex 3 103.148 14
    endloop
  endfacet
  facet normal 1 0 0
    outer loop
      vertex 3 103.5 9.60662
      vertex 3 100.5 14
      vertex 3 103.5 7.5
    endloop
  endfacet
  facet normal 1 0 0
    outer loop
      vertex 3 103.5 7.5
      vertex 3 100.5 14
      vertex 3 100.5 0
    endloop
  endfacet
  facet normal 1 0 0
    outer loop
      vertex 3 103.5 7.5
      vertex 3 100.5 0
      vertex 3 103.5 0
    endloop
  endfacet
  facet normal 0 -0.707055 0.707158
    outer loop
      vertex 3 103.5 9.60662
      vertex 4.9 105.697 11.8033
      vertex 3 105.697 11.8033
    endloop
  endfacet
  facet normal 0 -0.707055 0.707158
    outer loop
      vertex 4.9 105.697 11.8033
      vertex 3 103.5 9.60662
      vertex 4.9 103.5 9.60662
    endloop
  endfacet
  facet normal 0 -1 0
    outer loop
      vertex 3 103.5 7.5
      vertex 4.9 103.5 9.60662
      vertex 3 103.5 9.60662
    endloop
  endfacet
  facet normal 0 -1 -0
    outer loop
      vertex 4.9 103.5 9.60662
      vertex 3 103.5 7.5
      vertex 4.9 103.5 7.5
    endloop
  endfacet
  facet normal 0 -0.909638 -0.415402
    outer loop
      vertex 4.9 108.14 5.86182
      vertex 5.9 107.738 6.74211
      vertex 4.9 107.738 6.74211
    endloop
  endfacet
  facet normal 0 -0.909638 -0.415402
    outer loop
      vertex 5.9 107.738 6.74211
      vertex 4.9 108.14 5.86182
      vertex 5.9 108.14 5.86182
    endloop
  endfacet
  facet normal -0 0 1
    outer loop
      vertex 4.9 111.484 11.0654
      vertex 5.9 110.516 11.0654
      vertex 5.9 111.484 11.0654
    endloop
  endfacet
  facet normal 0 0 1
    outer loop
      vertex 5.9 110.516 11.0654
      vertex 4.9 111.484 11.0654
      vertex 4.9 110.516 11.0654
    endloop
  endfacet
  facet normal 0 0.989676 -0.143324
    outer loop
      vertex 4.9 114.359 7.41191
      vertex 4.9963 114.262 6.74211
      vertex 4.9 114.262 6.74211
    endloop
  endfacet
  facet normal 0 -0.540225 -0.84152
    outer loop
      vertex 4.9 108.773 5.13045
      vertex 5.9 109.588 4.60725
      vertex 5.9 108.773 5.13045
    endloop
  endfacet
  facet normal -0 -0.540225 -0.84152
    outer loop
      vertex 5.9 109.588 4.60725
      vertex 4.9 108.773 5.13045
      vertex 4.9 109.588 4.60725
    endloop
  endfacet
  facet normal 0 0.909638 -0.415402
    outer loop
      vertex 4.9 113.86 5.86182
      vertex 4.9963 114.262 6.74211
      vertex 5.39832 113.86 5.86182
    endloop
  endfacet
  facet normal 0 0.909638 -0.415402
    outer loop
      vertex 4.9963 114.262 6.74211
      vertex 4.9 113.86 5.86182
      vertex 4.9 114.262 6.74211
    endloop
  endfacet
  facet normal 0 -0.989781 0.142594
    outer loop
      vertex 4.9 107.6 7.7
      vertex 5.9 107.738 8.65789
      vertex 4.9 107.738 8.65789
    endloop
  endfacet
  facet normal 0 -0.989781 0.142594
    outer loop
      vertex 5.9 107.738 8.65789
      vertex 4.9 107.6 7.7
      vertex 5.9 107.6 7.7
    endloop
  endfacet
  facet normal -0 0.281937 0.959433
    outer loop
      vertex 4.9 112.412 10.7927
      vertex 5.9 111.484 11.0654
      vertex 5.9 112.412 10.7927
    endloop
  endfacet
  facet normal 0 0.281937 0.959433
    outer loop
      vertex 5.9 111.484 11.0654
      vertex 4.9 112.412 10.7927
      vertex 4.9 111.484 11.0654
    endloop
  endfacet
  facet normal 0 -0.909638 0.415402
    outer loop
      vertex 4.9 107.738 8.65789
      vertex 5.9 108.14 9.53818
      vertex 4.9 108.14 9.53818
    endloop
  endfacet
  facet normal 0 -0.909638 0.415402
    outer loop
      vertex 5.9 108.14 9.53818
      vertex 4.9 107.738 8.65789
      vertex 5.9 107.738 8.65789
    endloop
  endfacet
  facet normal 0 -0.989781 -0.142594
    outer loop
      vertex 4.9 107.738 6.74211
      vertex 5.9 107.6 7.7
      vertex 4.9 107.6 7.7
    endloop
  endfacet
  facet normal 0 -0.989781 -0.142594
    outer loop
      vertex 5.9 107.6 7.7
      vertex 4.9 107.738 6.74211
      vertex 5.9 107.738 6.74211
    endloop
  endfacet
  facet normal 0 0.909638 0.415402
    outer loop
      vertex 4.9963 114.262 8.65789
      vertex 4.9 113.86 9.53818
      vertex 5.39832 113.86 9.53818
    endloop
  endfacet
  facet normal 0 0.909638 0.415402
    outer loop
      vertex 4.9 113.86 9.53818
      vertex 4.9963 114.262 8.65789
      vertex 4.9 114.262 8.65789
    endloop
  endfacet
  facet normal 0 0.755673 0.654949
    outer loop
      vertex 5.9 113.359 10.1172
      vertex 4.9 113.227 10.2695
      vertex 5.9 113.227 10.2695
    endloop
  endfacet
  facet normal -0.000148064 0.756154 0.654394
    outer loop
      vertex 5.39832 113.86 9.53818
      vertex 4.9 113.227 10.2695
      vertex 5.9 113.359 10.1172
    endloop
  endfacet
  facet normal 0 0.756104 0.654452
    outer loop
      vertex 4.9 113.227 10.2695
      vertex 5.39832 113.86 9.53818
      vertex 4.9 113.86 9.53818
    endloop
  endfacet
  facet normal 0 -0.756104 0.654452
    outer loop
      vertex 4.9 108.14 9.53818
      vertex 5.9 108.773 10.2695
      vertex 4.9 108.773 10.2695
    endloop
  endfacet
  facet normal 0 -0.756104 0.654452
    outer loop
      vertex 5.9 108.773 10.2695
      vertex 4.9 108.14 9.53818
      vertex 5.9 108.14 9.53818
    endloop
  endfacet
  facet normal 0 0.28188 -0.95945
    outer loop
      vertex 4.9 111.484 4.33461
      vertex 5.9 112.412 4.60725
      vertex 5.9 111.484 4.33461
    endloop
  endfacet
  facet normal 0 0.28188 -0.95945
    outer loop
      vertex 5.9 112.412 4.60725
      vertex 4.9 111.484 4.33461
      vertex 4.9 112.412 4.60725
    endloop
  endfacet
  facet normal 0 -0.28188 -0.95945
    outer loop
      vertex 4.9 109.588 4.60725
      vertex 5.9 110.516 4.33461
      vertex 5.9 109.588 4.60725
    endloop
  endfacet
  facet normal -0 -0.28188 -0.95945
    outer loop
      vertex 5.9 110.516 4.33461
      vertex 4.9 109.588 4.60725
      vertex 4.9 110.516 4.33461
    endloop
  endfacet
  facet normal 0 0 -1
    outer loop
      vertex 4.9 110.516 4.33461
      vertex 5.9 111.484 4.33461
      vertex 5.9 110.516 4.33461
    endloop
  endfacet
  facet normal -0 0 -1
    outer loop
      vertex 5.9 111.484 4.33461
      vertex 4.9 110.516 4.33461
      vertex 4.9 111.484 4.33461
    endloop
  endfacet
  facet normal 0 0.540225 -0.84152
    outer loop
      vertex 4.9 112.412 4.60725
      vertex 5.9 113.227 5.13045
      vertex 5.9 112.412 4.60725
    endloop
  endfacet
  facet normal 0 0.540225 -0.84152
    outer loop
      vertex 5.9 113.227 5.13045
      vertex 4.9 112.412 4.60725
      vertex 4.9 113.227 5.13045
    endloop
  endfacet
  facet normal 0 -0.281937 0.959433
    outer loop
      vertex 4.9 110.516 11.0654
      vertex 5.9 109.588 10.7927
      vertex 5.9 110.516 11.0654
    endloop
  endfacet
  facet normal 0 -0.281937 0.959433
    outer loop
      vertex 5.9 109.588 10.7927
      vertex 4.9 110.516 11.0654
      vertex 4.9 109.588 10.7927
    endloop
  endfacet
  facet normal -0 0.540225 0.84152
    outer loop
      vertex 4.9 113.227 10.2695
      vertex 5.9 112.412 10.7927
      vertex 5.9 113.227 10.2695
    endloop
  endfacet
  facet normal 0 0.540225 0.84152
    outer loop
      vertex 5.9 112.412 10.7927
      vertex 4.9 113.227 10.2695
      vertex 4.9 112.412 10.7927
    endloop
  endfacet
  facet normal -8.26498e-05 0.756154 -0.654394
    outer loop
      vertex 4.9 113.227 5.13045
      vertex 5.39832 113.86 5.86182
      vertex 5.9 113.359 5.28285
    endloop
  endfacet
  facet normal 0 0.755885 -0.654704
    outer loop
      vertex 4.9 113.227 5.13045
      vertex 5.9 113.359 5.28285
      vertex 5.9 113.227 5.13045
    endloop
  endfacet
  facet normal 0 0.756126 -0.654426
    outer loop
      vertex 5.39832 113.86 5.86182
      vertex 4.9 113.227 5.13045
      vertex 4.9 113.86 5.86182
    endloop
  endfacet
  facet normal 0 -0.756126 -0.654426
    outer loop
      vertex 4.9 108.773 5.13045
      vertex 5.9 108.14 5.86182
      vertex 4.9 108.14 5.86182
    endloop
  endfacet
  facet normal 0 -0.756126 -0.654426
    outer loop
      vertex 5.9 108.14 5.86182
      vertex 4.9 108.773 5.13045
      vertex 5.9 108.773 5.13045
    endloop
  endfacet
  facet normal 0 0.989676 0.143324
    outer loop
      vertex 4.9963 114.262 8.65789
      vertex 4.9 114.359 7.98809
      vertex 4.9 114.262 8.65789
    endloop
  endfacet
  facet normal -1 0 0
    outer loop
      vertex 4.9 113.86 5.86182
      vertex 4.9 114.359 7.41191
      vertex 4.9 114.262 6.74211
    endloop
  endfacet
  facet normal -1 0 0
    outer loop
      vertex 4.9 113.227 5.13045
      vertex 4.9 114.359 7.41191
      vertex 4.9 113.86 5.86182
    endloop
  endfacet
  facet normal -1 0 0
    outer loop
      vertex 4.9 112.412 4.60725
      vertex 4.9 114.359 7.41191
      vertex 4.9 113.227 5.13045
    endloop
  endfacet
  facet normal -1 0 0
    outer loop
      vertex 4.9 114.359 7.98809
      vertex 4.9 113.86 9.53818
      vertex 4.9 114.262 8.65789
    endloop
  endfacet
  facet normal -1 0 0
    outer loop
      vertex 4.9 111.484 4.33461
      vertex 4.9 114.359 7.41191
      vertex 4.9 112.412 4.60725
    endloop
  endfacet
  facet normal -1 0 0
    outer loop
      vertex 4.9 114.359 7.98809
      vertex 4.9 113.227 10.2695
      vertex 4.9 113.86 9.53818
    endloop
  endfacet
  facet normal -1 -0 0
    outer loop
      vertex 4.9 114.359 7.41191
      vertex 4.9 111.484 4.33461
      vertex 4.9 114.359 7.98809
    endloop
  endfacet
  facet normal -1 0 0
    outer loop
      vertex 4.9 114.359 7.98809
      vertex 4.9 112.412 10.7927
      vertex 4.9 113.227 10.2695
    endloop
  endfacet
  facet normal -1 0 0
    outer loop
      vertex 4.9 111.484 11.0654
      vertex 4.9 114.359 7.98809
      vertex 4.9 111.484 4.33461
    endloop
  endfacet
  facet normal -1 0 0
    outer loop
      vertex 4.9 114.359 7.98809
      vertex 4.9 111.484 11.0654
      vertex 4.9 112.412 10.7927
    endloop
  endfacet
  facet normal -1 0 0
    outer loop
      vertex 4.9 110.516 4.33461
      vertex 4.9 111.484 11.0654
      vertex 4.9 111.484 4.33461
    endloop
  endfacet
  facet normal -1 0 0
    outer loop
      vertex 4.9 110.516 4.33461
      vertex 4.9 110.516 11.0654
      vertex 4.9 111.484 11.0654
    endloop
  endfacet
  facet normal -1 0 0
    outer loop
      vertex 4.9 109.588 4.60725
      vertex 4.9 110.516 11.0654
      vertex 4.9 110.516 4.33461
    endloop
  endfacet
  facet normal -1 0 0
    outer loop
      vertex 4.9 109.588 4.60725
      vertex 4.9 109.588 10.7927
      vertex 4.9 110.516 11.0654
    endloop
  endfacet
  facet normal -1 0 0
    outer loop
      vertex 4.9 108.773 5.13045
      vertex 4.9 109.588 10.7927
      vertex 4.9 109.588 4.60725
    endloop
  endfacet
  facet normal -1 0 0
    outer loop
      vertex 4.9 108.773 5.13045
      vertex 4.9 108.773 10.2695
      vertex 4.9 109.588 10.7927
    endloop
  endfacet
  facet normal -1 0 0
    outer loop
      vertex 4.9 108.14 5.86182
      vertex 4.9 108.773 10.2695
      vertex 4.9 108.773 5.13045
    endloop
  endfacet
  facet normal -1 0 0
    outer loop
      vertex 4.9 108.14 5.86182
      vertex 4.9 108.14 9.53818
      vertex 4.9 108.773 10.2695
    endloop
  endfacet
  facet normal -1 0 0
    outer loop
      vertex 4.9 107.738 6.74211
      vertex 4.9 108.14 9.53818
      vertex 4.9 108.14 5.86182
    endloop
  endfacet
  facet normal -1 0 0
    outer loop
      vertex 4.9 107.738 6.74211
      vertex 4.9 107.738 8.65789
      vertex 4.9 108.14 9.53818
    endloop
  endfacet
  facet normal -1 0 -0
    outer loop
      vertex 4.9 107.738 8.65789
      vertex 4.9 107.738 6.74211
      vertex 4.9 107.6 7.7
    endloop
  endfacet
  facet normal 0 -0.540225 0.84152
    outer loop
      vertex 4.9 109.588 10.7927
      vertex 5.9 108.773 10.2695
      vertex 5.9 109.588 10.7927
    endloop
  endfacet
  facet normal 0 -0.540225 0.84152
    outer loop
      vertex 5.9 108.773 10.2695
      vertex 4.9 109.588 10.7927
      vertex 4.9 108.773 10.2695
    endloop
  endfacet
  facet normal 1 0 0
    outer loop
      vertex 5.9 112.412 10.7927
      vertex 5.9 113.359 10.1172
      vertex 5.9 113.227 10.2695
    endloop
  endfacet
  facet normal 1 0 0
    outer loop
      vertex 5.9 111.484 11.0654
      vertex 5.9 113.359 10.1172
      vertex 5.9 112.412 10.7927
    endloop
  endfacet
  facet normal 1 -0 0
    outer loop
      vertex 5.9 110.516 11.0654
      vertex 5.9 113.359 10.1172
      vertex 5.9 111.484 11.0654
    endloop
  endfacet
  facet normal 1 0 0
    outer loop
      vertex 5.9 113.359 5.28285
      vertex 5.9 112.412 4.60725
      vertex 5.9 113.227 5.13045
    endloop
  endfacet
  facet normal 1 0 0
    outer loop
      vertex 5.9 113.359 10.1172
      vertex 5.9 110.516 11.0654
      vertex 5.9 113.359 5.28285
    endloop
  endfacet
  facet normal 1 0 0
    outer loop
      vertex 5.9 113.359 5.28285
      vertex 5.9 111.484 4.33461
      vertex 5.9 112.412 4.60725
    endloop
  endfacet
  facet normal 1 0 0
    outer loop
      vertex 5.9 110.516 4.33461
      vertex 5.9 113.359 5.28285
      vertex 5.9 110.516 11.0654
    endloop
  endfacet
  facet normal 1 0 0
    outer loop
      vertex 5.9 113.359 5.28285
      vertex 5.9 110.516 4.33461
      vertex 5.9 111.484 4.33461
    endloop
  endfacet
  facet normal 1 -0 0
    outer loop
      vertex 5.9 109.588 10.7927
      vertex 5.9 110.516 4.33461
      vertex 5.9 110.516 11.0654
    endloop
  endfacet
  facet normal 1 0 0
    outer loop
      vertex 5.9 109.588 10.7927
      vertex 5.9 109.588 4.60725
      vertex 5.9 110.516 4.33461
    endloop
  endfacet
  facet normal 1 -0 0
    outer loop
      vertex 5.9 108.773 10.2695
      vertex 5.9 109.588 4.60725
      vertex 5.9 109.588 10.7927
    endloop
  endfacet
  facet normal 1 0 0
    outer loop
      vertex 5.9 108.773 10.2695
      vertex 5.9 108.773 5.13045
      vertex 5.9 109.588 4.60725
    endloop
  endfacet
  facet normal 1 -0 0
    outer loop
      vertex 5.9 108.14 9.53818
      vertex 5.9 108.773 5.13045
      vertex 5.9 108.773 10.2695
    endloop
  endfacet
  facet normal 1 0 0
    outer loop
      vertex 5.9 108.14 9.53818
      vertex 5.9 108.14 5.86182
      vertex 5.9 108.773 5.13045
    endloop
  endfacet
  facet normal 1 -0 0
    outer loop
      vertex 5.9 107.738 8.65789
      vertex 5.9 108.14 5.86182
      vertex 5.9 108.14 9.53818
    endloop
  endfacet
  facet normal 1 0 0
    outer loop
      vertex 5.9 107.738 8.65789
      vertex 5.9 107.738 6.74211
      vertex 5.9 108.14 5.86182
    endloop
  endfacet
  facet normal 1 0 -0
    outer loop
      vertex 5.9 107.738 6.74211
      vertex 5.9 107.738 8.65789
      vertex 5.9 107.6 7.7
    endloop
  endfacet
  facet normal 0.705897 0.708314 0.00108776
    outer loop
      vertex 5.39832 113.86 9.53818
      vertex 4.9 114.359 7.98809
      vertex 4.9963 114.262 8.65789
    endloop
  endfacet
  facet normal 0.707107 0.707107 0
    outer loop
      vertex 4.9 114.359 7.98809
      vertex 5.9 113.359 10.1172
      vertex 4.9 114.359 7.41191
    endloop
  endfacet
  facet normal 0.706058 0.708154 0.000984528
    outer loop
      vertex 4.9 114.359 7.98809
      vertex 5.39832 113.86 9.53818
      vertex 5.9 113.359 10.1172
    endloop
  endfacet
  facet normal 0.707107 0.707107 -0
    outer loop
      vertex 5.9 113.359 5.28285
      vertex 4.9 114.359 7.41191
      vertex 5.9 113.359 10.1172
    endloop
  endfacet
  facet normal 0.706058 0.708154 -0.000984478
    outer loop
      vertex 5.39832 113.86 5.86182
      vertex 4.9 114.359 7.41191
      vertex 5.9 113.359 5.28285
    endloop
  endfacet
  facet normal 0.705897 0.708314 -0.00108776
    outer loop
      vertex 4.9 114.359 7.41191
      vertex 5.39832 113.86 5.86182
      vertex 4.9963 114.262 6.74211
    endloop
  endfacet
  facet normal 0 -1 0
    outer loop
      vertex 3 103.5 0
      vertex 4.9 103.5 7.5
      vertex 3 103.5 7.5
    endloop
  endfacet
  facet normal 0 -1 -0
    outer loop
      vertex 4.9 103.5 7.5
      vertex 3 103.5 0
      vertex 4.9 103.5 0
    endloop
  endfacet
  facet normal -0 0.0697566 0.997564
    outer loop
      vertex 0 103.148 14
      vertex 3 32.5 18.9402
      vertex 3 103.148 14
    endloop
  endfacet
  facet normal 0 0.0697566 0.997564
    outer loop
      vertex 3 32.5 18.9402
      vertex 0 103.148 14
      vertex 0 32.5 18.9402
    endloop
  endfacet
  facet normal 0 1 -0
    outer loop
      vertex 27 124.5 0
      vertex 0 124.5 14
      vertex 27 124.5 14
    endloop
  endfacet
  facet normal 0 1 0
    outer loop
      vertex 0 124.5 14
      vertex 27 124.5 0
      vertex 0 124.5 0
    endloop
  endfacet
  facet normal 1 -0 0
    outer loop
      vertex 20 97.5 14
      vertex 20 100.5 0
      vertex 20 100.5 14
    endloop
  endfacet
  facet normal 1 0 0
    outer loop
      vertex 20 100.5 0
      vertex 20 97.5 14
      vertex 20 97.5 0
    endloop
  endfacet
  facet normal -0 0 1
    outer loop
      vertex 3 100.5 14
      vertex 20 97.5 14
      vertex 20 100.5 14
    endloop
  endfacet
  facet normal 0 0 1
    outer loop
      vertex 20 97.5 14
      vertex 3 100.5 14
      vertex 3 97.5 14
    endloop
  endfacet
  facet normal 0 1 -0
    outer loop
      vertex 20 100.5 0
      vertex 3 100.5 14
      vertex 20 100.5 14
    endloop
  endfacet
  facet normal 0 1 0
    outer loop
      vertex 3 100.5 14
      vertex 20 100.5 0
      vertex 3 100.5 0
    endloop
  endfacet
  facet normal 0 -1 0
    outer loop
      vertex 3 97.5 0
      vertex 20 97.5 14
      vertex 3 97.5 14
    endloop
  endfacet
  facet normal 0 -1 -0
    outer loop
      vertex 20 97.5 14
      vertex 3 97.5 0
      vertex 20 97.5 0
    endloop
  endfacet
endsolid OpenSCAD_Model
